G04 #@! TF.GenerationSoftware,KiCad,Pcbnew,(5.1.10-1-10_14)*
G04 #@! TF.CreationDate,2022-01-28T00:17:01+09:00*
G04 #@! TF.ProjectId,TireWarmer power board,54697265-5761-4726-9d65-7220706f7765,2.0*
G04 #@! TF.SameCoordinates,Original*
G04 #@! TF.FileFunction,Copper,L1,Top*
G04 #@! TF.FilePolarity,Positive*
%FSLAX46Y46*%
G04 Gerber Fmt 4.6, Leading zero omitted, Abs format (unit mm)*
G04 Created by KiCad (PCBNEW (5.1.10-1-10_14)) date 2022-01-28 00:17:01*
%MOMM*%
%LPD*%
G01*
G04 APERTURE LIST*
G04 #@! TA.AperFunction,EtchedComponent*
%ADD10C,0.100000*%
G04 #@! TD*
G04 #@! TA.AperFunction,EtchedComponent*
%ADD11C,0.010000*%
G04 #@! TD*
G04 #@! TA.AperFunction,ConnectorPad*
%ADD12C,5.600000*%
G04 #@! TD*
G04 #@! TA.AperFunction,ComponentPad*
%ADD13C,3.600000*%
G04 #@! TD*
G04 #@! TA.AperFunction,SMDPad,CuDef*
%ADD14R,0.800000X1.900000*%
G04 #@! TD*
G04 #@! TA.AperFunction,ComponentPad*
%ADD15O,3.700000X2.700000*%
G04 #@! TD*
G04 #@! TA.AperFunction,ComponentPad*
%ADD16R,3.000000X1.500000*%
G04 #@! TD*
G04 #@! TA.AperFunction,ComponentPad*
%ADD17R,2.000000X3.000000*%
G04 #@! TD*
G04 #@! TA.AperFunction,ComponentPad*
%ADD18C,2.700000*%
G04 #@! TD*
G04 #@! TA.AperFunction,SMDPad,CuDef*
%ADD19R,2.000000X0.650000*%
G04 #@! TD*
G04 #@! TA.AperFunction,ComponentPad*
%ADD20C,1.270000*%
G04 #@! TD*
G04 #@! TA.AperFunction,ComponentPad*
%ADD21R,1.270000X1.270000*%
G04 #@! TD*
G04 #@! TA.AperFunction,SMDPad,CuDef*
%ADD22R,10.800000X9.400000*%
G04 #@! TD*
G04 #@! TA.AperFunction,SMDPad,CuDef*
%ADD23R,1.100000X4.600000*%
G04 #@! TD*
G04 #@! TA.AperFunction,SMDPad,CuDef*
%ADD24R,6.400000X5.800000*%
G04 #@! TD*
G04 #@! TA.AperFunction,SMDPad,CuDef*
%ADD25R,2.200000X1.200000*%
G04 #@! TD*
G04 #@! TA.AperFunction,ConnectorPad*
%ADD26C,5.700000*%
G04 #@! TD*
G04 #@! TA.AperFunction,SMDPad,CuDef*
%ADD27R,1.100000X0.250000*%
G04 #@! TD*
G04 #@! TA.AperFunction,SMDPad,CuDef*
%ADD28C,1.143000*%
G04 #@! TD*
G04 #@! TA.AperFunction,SMDPad,CuDef*
%ADD29O,2.032000X1.016000*%
G04 #@! TD*
G04 #@! TA.AperFunction,SMDPad,CuDef*
%ADD30O,1.998980X2.748280*%
G04 #@! TD*
G04 #@! TA.AperFunction,ComponentPad*
%ADD31C,2.000000*%
G04 #@! TD*
G04 #@! TA.AperFunction,ComponentPad*
%ADD32R,2.000000X2.000000*%
G04 #@! TD*
G04 #@! TA.AperFunction,ViaPad*
%ADD33C,0.800000*%
G04 #@! TD*
G04 #@! TA.AperFunction,Conductor*
%ADD34C,1.000000*%
G04 #@! TD*
G04 #@! TA.AperFunction,Conductor*
%ADD35C,0.250000*%
G04 #@! TD*
G04 #@! TA.AperFunction,Conductor*
%ADD36C,0.500000*%
G04 #@! TD*
G04 #@! TA.AperFunction,Conductor*
%ADD37C,2.000000*%
G04 #@! TD*
G04 #@! TA.AperFunction,Conductor*
%ADD38C,0.254000*%
G04 #@! TD*
G04 #@! TA.AperFunction,Conductor*
%ADD39C,0.100000*%
G04 #@! TD*
G04 APERTURE END LIST*
D10*
G04 #@! TO.C,REF\u002A\u002A*
G36*
X102639000Y-160326000D02*
G01*
X89639000Y-160326000D01*
X89639000Y-154226000D01*
X102639000Y-154226000D01*
X102639000Y-160326000D01*
G37*
X102639000Y-160326000D02*
X89639000Y-160326000D01*
X89639000Y-154226000D01*
X102639000Y-154226000D01*
X102639000Y-160326000D01*
D11*
G04 #@! TO.C,G\u002A\u002A\u002A*
G36*
X98064367Y-113824662D02*
G01*
X98136378Y-113848321D01*
X98184390Y-113898607D01*
X98213079Y-113984403D01*
X98227126Y-114114590D01*
X98231207Y-114298050D01*
X98231250Y-114326750D01*
X98231250Y-114707750D01*
X98040750Y-114707750D01*
X98040750Y-114517250D01*
X98039153Y-114411720D01*
X98030072Y-114354750D01*
X98007073Y-114331408D01*
X97963718Y-114326761D01*
X97958645Y-114326750D01*
X97912694Y-114330131D01*
X97889375Y-114350421D01*
X97882734Y-114402834D01*
X97886816Y-114502588D01*
X97887208Y-114509312D01*
X97891525Y-114612219D01*
X97885055Y-114667846D01*
X97861788Y-114692231D01*
X97815710Y-114701414D01*
X97815181Y-114701475D01*
X97766725Y-114702319D01*
X97739156Y-114680603D01*
X97722916Y-114621577D01*
X97712270Y-114542725D01*
X97690758Y-114301107D01*
X97692370Y-114114381D01*
X97692745Y-114112437D01*
X97882486Y-114112437D01*
X97892527Y-114176729D01*
X97935227Y-114198579D01*
X97961375Y-114199750D01*
X98014880Y-114191547D01*
X98036913Y-114154518D01*
X98040750Y-114087628D01*
X98025655Y-113993771D01*
X97989920Y-113956002D01*
X97933141Y-113960970D01*
X97895311Y-114019246D01*
X97882486Y-114112437D01*
X97692745Y-114112437D01*
X97718802Y-113977665D01*
X97771750Y-113886076D01*
X97852908Y-113834732D01*
X97963679Y-113818750D01*
X98064367Y-113824662D01*
G37*
X98064367Y-113824662D02*
X98136378Y-113848321D01*
X98184390Y-113898607D01*
X98213079Y-113984403D01*
X98227126Y-114114590D01*
X98231207Y-114298050D01*
X98231250Y-114326750D01*
X98231250Y-114707750D01*
X98040750Y-114707750D01*
X98040750Y-114517250D01*
X98039153Y-114411720D01*
X98030072Y-114354750D01*
X98007073Y-114331408D01*
X97963718Y-114326761D01*
X97958645Y-114326750D01*
X97912694Y-114330131D01*
X97889375Y-114350421D01*
X97882734Y-114402834D01*
X97886816Y-114502588D01*
X97887208Y-114509312D01*
X97891525Y-114612219D01*
X97885055Y-114667846D01*
X97861788Y-114692231D01*
X97815710Y-114701414D01*
X97815181Y-114701475D01*
X97766725Y-114702319D01*
X97739156Y-114680603D01*
X97722916Y-114621577D01*
X97712270Y-114542725D01*
X97690758Y-114301107D01*
X97692370Y-114114381D01*
X97692745Y-114112437D01*
X97882486Y-114112437D01*
X97892527Y-114176729D01*
X97935227Y-114198579D01*
X97961375Y-114199750D01*
X98014880Y-114191547D01*
X98036913Y-114154518D01*
X98040750Y-114087628D01*
X98025655Y-113993771D01*
X97989920Y-113956002D01*
X97933141Y-113960970D01*
X97895311Y-114019246D01*
X97882486Y-114112437D01*
X97692745Y-114112437D01*
X97718802Y-113977665D01*
X97771750Y-113886076D01*
X97852908Y-113834732D01*
X97963679Y-113818750D01*
X98064367Y-113824662D01*
G36*
X98588437Y-113819236D02*
G01*
X98698932Y-113823131D01*
X98785715Y-113832762D01*
X98824576Y-113843694D01*
X98878866Y-113910458D01*
X98906881Y-114008680D01*
X98901274Y-114109203D01*
X98895780Y-114126212D01*
X98881586Y-114236924D01*
X98898495Y-114296196D01*
X98917738Y-114379546D01*
X98925096Y-114490284D01*
X98923741Y-114536420D01*
X98914582Y-114630110D01*
X98895773Y-114677880D01*
X98856996Y-114697306D01*
X98826562Y-114701921D01*
X98772856Y-114703839D01*
X98747423Y-114682531D01*
X98739733Y-114622037D01*
X98739250Y-114569580D01*
X98732520Y-114439865D01*
X98709795Y-114363107D01*
X98667272Y-114329944D01*
X98640603Y-114326750D01*
X98606903Y-114334701D01*
X98588693Y-114368095D01*
X98581457Y-114441241D01*
X98580500Y-114517250D01*
X98580500Y-114707750D01*
X98390000Y-114707750D01*
X98390000Y-114056875D01*
X98580500Y-114056875D01*
X98592317Y-114154094D01*
X98623103Y-114200732D01*
X98665858Y-114192258D01*
X98706382Y-114138337D01*
X98736343Y-114059527D01*
X98720181Y-113999793D01*
X98689357Y-113963892D01*
X98632307Y-113920309D01*
X98597870Y-113930856D01*
X98582337Y-113998700D01*
X98580500Y-114056875D01*
X98390000Y-114056875D01*
X98390000Y-113818750D01*
X98588437Y-113819236D01*
G37*
X98588437Y-113819236D02*
X98698932Y-113823131D01*
X98785715Y-113832762D01*
X98824576Y-113843694D01*
X98878866Y-113910458D01*
X98906881Y-114008680D01*
X98901274Y-114109203D01*
X98895780Y-114126212D01*
X98881586Y-114236924D01*
X98898495Y-114296196D01*
X98917738Y-114379546D01*
X98925096Y-114490284D01*
X98923741Y-114536420D01*
X98914582Y-114630110D01*
X98895773Y-114677880D01*
X98856996Y-114697306D01*
X98826562Y-114701921D01*
X98772856Y-114703839D01*
X98747423Y-114682531D01*
X98739733Y-114622037D01*
X98739250Y-114569580D01*
X98732520Y-114439865D01*
X98709795Y-114363107D01*
X98667272Y-114329944D01*
X98640603Y-114326750D01*
X98606903Y-114334701D01*
X98588693Y-114368095D01*
X98581457Y-114441241D01*
X98580500Y-114517250D01*
X98580500Y-114707750D01*
X98390000Y-114707750D01*
X98390000Y-114056875D01*
X98580500Y-114056875D01*
X98592317Y-114154094D01*
X98623103Y-114200732D01*
X98665858Y-114192258D01*
X98706382Y-114138337D01*
X98736343Y-114059527D01*
X98720181Y-113999793D01*
X98689357Y-113963892D01*
X98632307Y-113920309D01*
X98597870Y-113930856D01*
X98582337Y-113998700D01*
X98580500Y-114056875D01*
X98390000Y-114056875D01*
X98390000Y-113818750D01*
X98588437Y-113819236D01*
G36*
X89399624Y-113054663D02*
G01*
X89517683Y-113065362D01*
X89529503Y-113066904D01*
X89793015Y-113132202D01*
X90024824Y-113252233D01*
X90223169Y-113425735D01*
X90386291Y-113651444D01*
X90414051Y-113701823D01*
X90455934Y-113787544D01*
X90482273Y-113864456D01*
X90496595Y-113951793D01*
X90502427Y-114068789D01*
X90503350Y-114188875D01*
X90501366Y-114343741D01*
X90492884Y-114456198D01*
X90474151Y-114547276D01*
X90441415Y-114638005D01*
X90411007Y-114706415D01*
X90281855Y-114915022D01*
X90104191Y-115097157D01*
X89891693Y-115239183D01*
X89861391Y-115254391D01*
X89769619Y-115291907D01*
X89669227Y-115316095D01*
X89541137Y-115330323D01*
X89392125Y-115337226D01*
X89249976Y-115338503D01*
X89126536Y-115334148D01*
X89039035Y-115325044D01*
X89011125Y-115317746D01*
X88998229Y-115302637D01*
X89040176Y-115292735D01*
X89140463Y-115287475D01*
X89204491Y-115286481D01*
X89349180Y-115281516D01*
X89457814Y-115265605D01*
X89557642Y-115232751D01*
X89655631Y-115187170D01*
X89859369Y-115054359D01*
X90033942Y-114879670D01*
X90165174Y-114678512D01*
X90203089Y-114592151D01*
X90251654Y-114395586D01*
X90264276Y-114176351D01*
X90242036Y-113957839D01*
X90186017Y-113763444D01*
X90162422Y-113712625D01*
X90041067Y-113531043D01*
X89882790Y-113371893D01*
X89701225Y-113244631D01*
X89510007Y-113158715D01*
X89322771Y-113123600D01*
X89312750Y-113123328D01*
X89209822Y-113116238D01*
X89125057Y-113101575D01*
X89106375Y-113095665D01*
X89085774Y-113077559D01*
X89116692Y-113063598D01*
X89187236Y-113054589D01*
X89285511Y-113051341D01*
X89399624Y-113054663D01*
G37*
X89399624Y-113054663D02*
X89517683Y-113065362D01*
X89529503Y-113066904D01*
X89793015Y-113132202D01*
X90024824Y-113252233D01*
X90223169Y-113425735D01*
X90386291Y-113651444D01*
X90414051Y-113701823D01*
X90455934Y-113787544D01*
X90482273Y-113864456D01*
X90496595Y-113951793D01*
X90502427Y-114068789D01*
X90503350Y-114188875D01*
X90501366Y-114343741D01*
X90492884Y-114456198D01*
X90474151Y-114547276D01*
X90441415Y-114638005D01*
X90411007Y-114706415D01*
X90281855Y-114915022D01*
X90104191Y-115097157D01*
X89891693Y-115239183D01*
X89861391Y-115254391D01*
X89769619Y-115291907D01*
X89669227Y-115316095D01*
X89541137Y-115330323D01*
X89392125Y-115337226D01*
X89249976Y-115338503D01*
X89126536Y-115334148D01*
X89039035Y-115325044D01*
X89011125Y-115317746D01*
X88998229Y-115302637D01*
X89040176Y-115292735D01*
X89140463Y-115287475D01*
X89204491Y-115286481D01*
X89349180Y-115281516D01*
X89457814Y-115265605D01*
X89557642Y-115232751D01*
X89655631Y-115187170D01*
X89859369Y-115054359D01*
X90033942Y-114879670D01*
X90165174Y-114678512D01*
X90203089Y-114592151D01*
X90251654Y-114395586D01*
X90264276Y-114176351D01*
X90242036Y-113957839D01*
X90186017Y-113763444D01*
X90162422Y-113712625D01*
X90041067Y-113531043D01*
X89882790Y-113371893D01*
X89701225Y-113244631D01*
X89510007Y-113158715D01*
X89322771Y-113123600D01*
X89312750Y-113123328D01*
X89209822Y-113116238D01*
X89125057Y-113101575D01*
X89106375Y-113095665D01*
X89085774Y-113077559D01*
X89116692Y-113063598D01*
X89187236Y-113054589D01*
X89285511Y-113051341D01*
X89399624Y-113054663D01*
G36*
X85532530Y-114731708D02*
G01*
X85534500Y-114784577D01*
X85512056Y-114889506D01*
X85441544Y-115000929D01*
X85318191Y-115125620D01*
X85258621Y-115176133D01*
X85107047Y-115300125D01*
X85175448Y-115189000D01*
X85226011Y-115105387D01*
X85294090Y-114990929D01*
X85365359Y-114869719D01*
X85368605Y-114864160D01*
X85440349Y-114748417D01*
X85489297Y-114688857D01*
X85518880Y-114683837D01*
X85532530Y-114731708D01*
G37*
X85532530Y-114731708D02*
X85534500Y-114784577D01*
X85512056Y-114889506D01*
X85441544Y-115000929D01*
X85318191Y-115125620D01*
X85258621Y-115176133D01*
X85107047Y-115300125D01*
X85175448Y-115189000D01*
X85226011Y-115105387D01*
X85294090Y-114990929D01*
X85365359Y-114869719D01*
X85368605Y-114864160D01*
X85440349Y-114748417D01*
X85489297Y-114688857D01*
X85518880Y-114683837D01*
X85532530Y-114731708D01*
G36*
X97852356Y-109543573D02*
G01*
X98349360Y-109544987D01*
X98903232Y-109547686D01*
X99329875Y-109550320D01*
X99777871Y-109553449D01*
X100223891Y-109556879D01*
X100661647Y-109560544D01*
X101084851Y-109564378D01*
X101487216Y-109568315D01*
X101862453Y-109572289D01*
X102204277Y-109576234D01*
X102506399Y-109580084D01*
X102762532Y-109583773D01*
X102966388Y-109587235D01*
X103085686Y-109589750D01*
X103920497Y-109609857D01*
X103854366Y-109680251D01*
X103790509Y-109791710D01*
X103763047Y-109945412D01*
X103772893Y-110122727D01*
X103781841Y-110170360D01*
X103797078Y-110214466D01*
X103824405Y-110261651D01*
X103869622Y-110318516D01*
X103938530Y-110391666D01*
X104036930Y-110487704D01*
X104170623Y-110613234D01*
X104345410Y-110774860D01*
X104347180Y-110776492D01*
X104545389Y-110961218D01*
X104702026Y-111113644D01*
X104823652Y-111242892D01*
X104916823Y-111358083D01*
X104988098Y-111468339D01*
X105044037Y-111582781D01*
X105091197Y-111710532D01*
X105136138Y-111860713D01*
X105142067Y-111882026D01*
X105171828Y-112006489D01*
X105171400Y-112082978D01*
X105132613Y-112123077D01*
X105047302Y-112138373D01*
X104959830Y-112140513D01*
X104845130Y-112152464D01*
X104768947Y-112184058D01*
X104762589Y-112189696D01*
X104713250Y-112269668D01*
X104668731Y-112400334D01*
X104633203Y-112568890D01*
X104628036Y-112602606D01*
X104622804Y-112690104D01*
X104642588Y-112751373D01*
X104696122Y-112791646D01*
X104792137Y-112816155D01*
X104939365Y-112830131D01*
X105014097Y-112833924D01*
X105310125Y-112846871D01*
X105392752Y-113069787D01*
X105430243Y-113179098D01*
X105453678Y-113263899D01*
X105458759Y-113308229D01*
X105457544Y-113310538D01*
X105417942Y-113320929D01*
X105326195Y-113332131D01*
X105193642Y-113343445D01*
X105031621Y-113354167D01*
X104851470Y-113363599D01*
X104664526Y-113371039D01*
X104482127Y-113375785D01*
X104381985Y-113377034D01*
X104036596Y-113379249D01*
X103813733Y-113169012D01*
X103636090Y-113019112D01*
X103457282Y-112899964D01*
X103381247Y-112860132D01*
X103275880Y-112813859D01*
X103182666Y-112783599D01*
X103081067Y-112765198D01*
X102950542Y-112754503D01*
X102834188Y-112749490D01*
X102530908Y-112756121D01*
X102267085Y-112802651D01*
X102029118Y-112894095D01*
X101803404Y-113035466D01*
X101607998Y-113201481D01*
X101393625Y-113403704D01*
X96440625Y-113486569D01*
X95879113Y-113495985D01*
X95331451Y-113505210D01*
X94801341Y-113514180D01*
X94292486Y-113522832D01*
X93808587Y-113531099D01*
X93353346Y-113538920D01*
X92930467Y-113546228D01*
X92543651Y-113552960D01*
X92196601Y-113559052D01*
X91893019Y-113564439D01*
X91636607Y-113569057D01*
X91431067Y-113572841D01*
X91280103Y-113575727D01*
X91187415Y-113577652D01*
X91167179Y-113578146D01*
X90846733Y-113586859D01*
X90653952Y-113377798D01*
X90428186Y-113170077D01*
X90177695Y-113012710D01*
X89895801Y-112902872D01*
X89575829Y-112837741D01*
X89328625Y-112817361D01*
X88988393Y-112818442D01*
X88692590Y-112854358D01*
X88430287Y-112928830D01*
X88190557Y-113045582D01*
X87962470Y-113208337D01*
X87827649Y-113328674D01*
X87575318Y-113569750D01*
X87245471Y-113569029D01*
X87083930Y-113566224D01*
X86895529Y-113559076D01*
X86694624Y-113548546D01*
X86495572Y-113535595D01*
X86312731Y-113521183D01*
X86160458Y-113506272D01*
X86053109Y-113491823D01*
X86032292Y-113487827D01*
X85966800Y-113469597D01*
X85959058Y-113455499D01*
X86010150Y-113445437D01*
X86121158Y-113439316D01*
X86293163Y-113437042D01*
X86527248Y-113438519D01*
X86585946Y-113439319D01*
X87191140Y-113448225D01*
X87169892Y-113231175D01*
X87154729Y-113082907D01*
X87136082Y-112982300D01*
X87102679Y-112919140D01*
X87043247Y-112883217D01*
X86946511Y-112864317D01*
X86801199Y-112852228D01*
X86747411Y-112848471D01*
X86631009Y-112837502D01*
X86547275Y-112824266D01*
X86509104Y-112811038D01*
X86509286Y-112806434D01*
X86552104Y-112787004D01*
X86649465Y-112754400D01*
X86794254Y-112710624D01*
X86979354Y-112657681D01*
X87197650Y-112597573D01*
X87442025Y-112532304D01*
X87705364Y-112463877D01*
X87915750Y-112410505D01*
X88577953Y-112252956D01*
X89268767Y-112104586D01*
X89475074Y-112064842D01*
X92297250Y-112064842D01*
X92325269Y-112071469D01*
X92395808Y-112068680D01*
X92432187Y-112064830D01*
X92501629Y-112059447D01*
X92623873Y-112053258D01*
X92788231Y-112046668D01*
X92984019Y-112040079D01*
X93200548Y-112033895D01*
X93345000Y-112030339D01*
X93741026Y-112020922D01*
X94149805Y-112010662D01*
X94566500Y-111999717D01*
X94986275Y-111988242D01*
X95404292Y-111976394D01*
X95815714Y-111964330D01*
X96215705Y-111952206D01*
X96599427Y-111940178D01*
X96962044Y-111928402D01*
X97298719Y-111917036D01*
X97604615Y-111906234D01*
X97874895Y-111896155D01*
X98104723Y-111886954D01*
X98289260Y-111878787D01*
X98423671Y-111871811D01*
X98503118Y-111866182D01*
X98523764Y-111862899D01*
X98524431Y-111859714D01*
X99123500Y-111859714D01*
X99560062Y-111840538D01*
X99683788Y-111835155D01*
X99862105Y-111827470D01*
X100086160Y-111817861D01*
X100347101Y-111806706D01*
X100636074Y-111794384D01*
X100944228Y-111781272D01*
X101262710Y-111767748D01*
X101488875Y-111758161D01*
X101967942Y-111737524D01*
X102387642Y-111718572D01*
X102752072Y-111700928D01*
X103065332Y-111684217D01*
X103331520Y-111668064D01*
X103554735Y-111652092D01*
X103739075Y-111635926D01*
X103888639Y-111619189D01*
X104007526Y-111601507D01*
X104099835Y-111582502D01*
X104169663Y-111561800D01*
X104221110Y-111539024D01*
X104258275Y-111513799D01*
X104269840Y-111503159D01*
X104317673Y-111436370D01*
X104331866Y-111360417D01*
X104309656Y-111270726D01*
X104248281Y-111162721D01*
X104144977Y-111031829D01*
X103996982Y-110873475D01*
X103801533Y-110683085D01*
X103739265Y-110624658D01*
X103493767Y-110400245D01*
X103284850Y-110219366D01*
X103107230Y-110077807D01*
X102955627Y-109971354D01*
X102827582Y-109897219D01*
X102763667Y-109869658D01*
X102685492Y-109845976D01*
X102588212Y-109825895D01*
X102466986Y-109809134D01*
X102316970Y-109795417D01*
X102133322Y-109784464D01*
X101911198Y-109775996D01*
X101645755Y-109769736D01*
X101332152Y-109765404D01*
X100965544Y-109762722D01*
X100541089Y-109761412D01*
X100464937Y-109761308D01*
X99123500Y-109759750D01*
X99123500Y-111859714D01*
X98524431Y-111859714D01*
X98531201Y-111827423D01*
X98542911Y-111737888D01*
X98558044Y-111603527D01*
X98575751Y-111433574D01*
X98595185Y-111237264D01*
X98615496Y-111023830D01*
X98635836Y-110802506D01*
X98655356Y-110582527D01*
X98673207Y-110373125D01*
X98688541Y-110183535D01*
X98700509Y-110022991D01*
X98708263Y-109900726D01*
X98710953Y-109826251D01*
X98710750Y-109718127D01*
X97432812Y-109738409D01*
X97030086Y-109745520D01*
X96685073Y-109753398D01*
X96391990Y-109762500D01*
X96145049Y-109773283D01*
X95938467Y-109786203D01*
X95766457Y-109801717D01*
X95623234Y-109820282D01*
X95503014Y-109842356D01*
X95400010Y-109868394D01*
X95308438Y-109898853D01*
X95284518Y-109908055D01*
X95051436Y-110013734D01*
X94782732Y-110160836D01*
X94476571Y-110350511D01*
X94131118Y-110583912D01*
X93744538Y-110862189D01*
X93638403Y-110941034D01*
X93438789Y-111092378D01*
X93237163Y-111249237D01*
X93039837Y-111406321D01*
X92853126Y-111558337D01*
X92683343Y-111699997D01*
X92536802Y-111826009D01*
X92419817Y-111931084D01*
X92338701Y-112009929D01*
X92299768Y-112057256D01*
X92297250Y-112064842D01*
X89475074Y-112064842D01*
X89953328Y-111972709D01*
X90249375Y-111920810D01*
X90441270Y-111887579D01*
X90619408Y-111855408D01*
X90771076Y-111826693D01*
X90883563Y-111803831D01*
X90938768Y-111790820D01*
X91022726Y-111773451D01*
X91077128Y-111785592D01*
X91120598Y-111821598D01*
X91220352Y-111892923D01*
X91364160Y-111958559D01*
X91532650Y-112009802D01*
X91546672Y-112013031D01*
X91578002Y-112019260D01*
X91608850Y-112020927D01*
X91644516Y-112014972D01*
X91690301Y-111998335D01*
X91751504Y-111967956D01*
X91833425Y-111920775D01*
X91941364Y-111853731D01*
X92080622Y-111763765D01*
X92256496Y-111647817D01*
X92474288Y-111502827D01*
X92739298Y-111325734D01*
X92753550Y-111316204D01*
X93165027Y-111040481D01*
X93525175Y-110797850D01*
X93835982Y-110586911D01*
X94099434Y-110406266D01*
X94317518Y-110254514D01*
X94492221Y-110130254D01*
X94625530Y-110032088D01*
X94719430Y-109958614D01*
X94775910Y-109908434D01*
X94796956Y-109880146D01*
X94796927Y-109876372D01*
X94760491Y-109851113D01*
X94684007Y-109832745D01*
X94652219Y-109829361D01*
X94570659Y-109817509D01*
X94524002Y-109799410D01*
X94519750Y-109792226D01*
X94548864Y-109764860D01*
X94627344Y-109731325D01*
X94741895Y-109695743D01*
X94879222Y-109662237D01*
X95026032Y-109634931D01*
X95027750Y-109634665D01*
X95155555Y-109616909D01*
X95297503Y-109601277D01*
X95457479Y-109587691D01*
X95639367Y-109576077D01*
X95847049Y-109566358D01*
X96084411Y-109558458D01*
X96355337Y-109552300D01*
X96663710Y-109547809D01*
X97013415Y-109544908D01*
X97408335Y-109543522D01*
X97852356Y-109543573D01*
G37*
X97852356Y-109543573D02*
X98349360Y-109544987D01*
X98903232Y-109547686D01*
X99329875Y-109550320D01*
X99777871Y-109553449D01*
X100223891Y-109556879D01*
X100661647Y-109560544D01*
X101084851Y-109564378D01*
X101487216Y-109568315D01*
X101862453Y-109572289D01*
X102204277Y-109576234D01*
X102506399Y-109580084D01*
X102762532Y-109583773D01*
X102966388Y-109587235D01*
X103085686Y-109589750D01*
X103920497Y-109609857D01*
X103854366Y-109680251D01*
X103790509Y-109791710D01*
X103763047Y-109945412D01*
X103772893Y-110122727D01*
X103781841Y-110170360D01*
X103797078Y-110214466D01*
X103824405Y-110261651D01*
X103869622Y-110318516D01*
X103938530Y-110391666D01*
X104036930Y-110487704D01*
X104170623Y-110613234D01*
X104345410Y-110774860D01*
X104347180Y-110776492D01*
X104545389Y-110961218D01*
X104702026Y-111113644D01*
X104823652Y-111242892D01*
X104916823Y-111358083D01*
X104988098Y-111468339D01*
X105044037Y-111582781D01*
X105091197Y-111710532D01*
X105136138Y-111860713D01*
X105142067Y-111882026D01*
X105171828Y-112006489D01*
X105171400Y-112082978D01*
X105132613Y-112123077D01*
X105047302Y-112138373D01*
X104959830Y-112140513D01*
X104845130Y-112152464D01*
X104768947Y-112184058D01*
X104762589Y-112189696D01*
X104713250Y-112269668D01*
X104668731Y-112400334D01*
X104633203Y-112568890D01*
X104628036Y-112602606D01*
X104622804Y-112690104D01*
X104642588Y-112751373D01*
X104696122Y-112791646D01*
X104792137Y-112816155D01*
X104939365Y-112830131D01*
X105014097Y-112833924D01*
X105310125Y-112846871D01*
X105392752Y-113069787D01*
X105430243Y-113179098D01*
X105453678Y-113263899D01*
X105458759Y-113308229D01*
X105457544Y-113310538D01*
X105417942Y-113320929D01*
X105326195Y-113332131D01*
X105193642Y-113343445D01*
X105031621Y-113354167D01*
X104851470Y-113363599D01*
X104664526Y-113371039D01*
X104482127Y-113375785D01*
X104381985Y-113377034D01*
X104036596Y-113379249D01*
X103813733Y-113169012D01*
X103636090Y-113019112D01*
X103457282Y-112899964D01*
X103381247Y-112860132D01*
X103275880Y-112813859D01*
X103182666Y-112783599D01*
X103081067Y-112765198D01*
X102950542Y-112754503D01*
X102834188Y-112749490D01*
X102530908Y-112756121D01*
X102267085Y-112802651D01*
X102029118Y-112894095D01*
X101803404Y-113035466D01*
X101607998Y-113201481D01*
X101393625Y-113403704D01*
X96440625Y-113486569D01*
X95879113Y-113495985D01*
X95331451Y-113505210D01*
X94801341Y-113514180D01*
X94292486Y-113522832D01*
X93808587Y-113531099D01*
X93353346Y-113538920D01*
X92930467Y-113546228D01*
X92543651Y-113552960D01*
X92196601Y-113559052D01*
X91893019Y-113564439D01*
X91636607Y-113569057D01*
X91431067Y-113572841D01*
X91280103Y-113575727D01*
X91187415Y-113577652D01*
X91167179Y-113578146D01*
X90846733Y-113586859D01*
X90653952Y-113377798D01*
X90428186Y-113170077D01*
X90177695Y-113012710D01*
X89895801Y-112902872D01*
X89575829Y-112837741D01*
X89328625Y-112817361D01*
X88988393Y-112818442D01*
X88692590Y-112854358D01*
X88430287Y-112928830D01*
X88190557Y-113045582D01*
X87962470Y-113208337D01*
X87827649Y-113328674D01*
X87575318Y-113569750D01*
X87245471Y-113569029D01*
X87083930Y-113566224D01*
X86895529Y-113559076D01*
X86694624Y-113548546D01*
X86495572Y-113535595D01*
X86312731Y-113521183D01*
X86160458Y-113506272D01*
X86053109Y-113491823D01*
X86032292Y-113487827D01*
X85966800Y-113469597D01*
X85959058Y-113455499D01*
X86010150Y-113445437D01*
X86121158Y-113439316D01*
X86293163Y-113437042D01*
X86527248Y-113438519D01*
X86585946Y-113439319D01*
X87191140Y-113448225D01*
X87169892Y-113231175D01*
X87154729Y-113082907D01*
X87136082Y-112982300D01*
X87102679Y-112919140D01*
X87043247Y-112883217D01*
X86946511Y-112864317D01*
X86801199Y-112852228D01*
X86747411Y-112848471D01*
X86631009Y-112837502D01*
X86547275Y-112824266D01*
X86509104Y-112811038D01*
X86509286Y-112806434D01*
X86552104Y-112787004D01*
X86649465Y-112754400D01*
X86794254Y-112710624D01*
X86979354Y-112657681D01*
X87197650Y-112597573D01*
X87442025Y-112532304D01*
X87705364Y-112463877D01*
X87915750Y-112410505D01*
X88577953Y-112252956D01*
X89268767Y-112104586D01*
X89475074Y-112064842D01*
X92297250Y-112064842D01*
X92325269Y-112071469D01*
X92395808Y-112068680D01*
X92432187Y-112064830D01*
X92501629Y-112059447D01*
X92623873Y-112053258D01*
X92788231Y-112046668D01*
X92984019Y-112040079D01*
X93200548Y-112033895D01*
X93345000Y-112030339D01*
X93741026Y-112020922D01*
X94149805Y-112010662D01*
X94566500Y-111999717D01*
X94986275Y-111988242D01*
X95404292Y-111976394D01*
X95815714Y-111964330D01*
X96215705Y-111952206D01*
X96599427Y-111940178D01*
X96962044Y-111928402D01*
X97298719Y-111917036D01*
X97604615Y-111906234D01*
X97874895Y-111896155D01*
X98104723Y-111886954D01*
X98289260Y-111878787D01*
X98423671Y-111871811D01*
X98503118Y-111866182D01*
X98523764Y-111862899D01*
X98524431Y-111859714D01*
X99123500Y-111859714D01*
X99560062Y-111840538D01*
X99683788Y-111835155D01*
X99862105Y-111827470D01*
X100086160Y-111817861D01*
X100347101Y-111806706D01*
X100636074Y-111794384D01*
X100944228Y-111781272D01*
X101262710Y-111767748D01*
X101488875Y-111758161D01*
X101967942Y-111737524D01*
X102387642Y-111718572D01*
X102752072Y-111700928D01*
X103065332Y-111684217D01*
X103331520Y-111668064D01*
X103554735Y-111652092D01*
X103739075Y-111635926D01*
X103888639Y-111619189D01*
X104007526Y-111601507D01*
X104099835Y-111582502D01*
X104169663Y-111561800D01*
X104221110Y-111539024D01*
X104258275Y-111513799D01*
X104269840Y-111503159D01*
X104317673Y-111436370D01*
X104331866Y-111360417D01*
X104309656Y-111270726D01*
X104248281Y-111162721D01*
X104144977Y-111031829D01*
X103996982Y-110873475D01*
X103801533Y-110683085D01*
X103739265Y-110624658D01*
X103493767Y-110400245D01*
X103284850Y-110219366D01*
X103107230Y-110077807D01*
X102955627Y-109971354D01*
X102827582Y-109897219D01*
X102763667Y-109869658D01*
X102685492Y-109845976D01*
X102588212Y-109825895D01*
X102466986Y-109809134D01*
X102316970Y-109795417D01*
X102133322Y-109784464D01*
X101911198Y-109775996D01*
X101645755Y-109769736D01*
X101332152Y-109765404D01*
X100965544Y-109762722D01*
X100541089Y-109761412D01*
X100464937Y-109761308D01*
X99123500Y-109759750D01*
X99123500Y-111859714D01*
X98524431Y-111859714D01*
X98531201Y-111827423D01*
X98542911Y-111737888D01*
X98558044Y-111603527D01*
X98575751Y-111433574D01*
X98595185Y-111237264D01*
X98615496Y-111023830D01*
X98635836Y-110802506D01*
X98655356Y-110582527D01*
X98673207Y-110373125D01*
X98688541Y-110183535D01*
X98700509Y-110022991D01*
X98708263Y-109900726D01*
X98710953Y-109826251D01*
X98710750Y-109718127D01*
X97432812Y-109738409D01*
X97030086Y-109745520D01*
X96685073Y-109753398D01*
X96391990Y-109762500D01*
X96145049Y-109773283D01*
X95938467Y-109786203D01*
X95766457Y-109801717D01*
X95623234Y-109820282D01*
X95503014Y-109842356D01*
X95400010Y-109868394D01*
X95308438Y-109898853D01*
X95284518Y-109908055D01*
X95051436Y-110013734D01*
X94782732Y-110160836D01*
X94476571Y-110350511D01*
X94131118Y-110583912D01*
X93744538Y-110862189D01*
X93638403Y-110941034D01*
X93438789Y-111092378D01*
X93237163Y-111249237D01*
X93039837Y-111406321D01*
X92853126Y-111558337D01*
X92683343Y-111699997D01*
X92536802Y-111826009D01*
X92419817Y-111931084D01*
X92338701Y-112009929D01*
X92299768Y-112057256D01*
X92297250Y-112064842D01*
X89475074Y-112064842D01*
X89953328Y-111972709D01*
X90249375Y-111920810D01*
X90441270Y-111887579D01*
X90619408Y-111855408D01*
X90771076Y-111826693D01*
X90883563Y-111803831D01*
X90938768Y-111790820D01*
X91022726Y-111773451D01*
X91077128Y-111785592D01*
X91120598Y-111821598D01*
X91220352Y-111892923D01*
X91364160Y-111958559D01*
X91532650Y-112009802D01*
X91546672Y-112013031D01*
X91578002Y-112019260D01*
X91608850Y-112020927D01*
X91644516Y-112014972D01*
X91690301Y-111998335D01*
X91751504Y-111967956D01*
X91833425Y-111920775D01*
X91941364Y-111853731D01*
X92080622Y-111763765D01*
X92256496Y-111647817D01*
X92474288Y-111502827D01*
X92739298Y-111325734D01*
X92753550Y-111316204D01*
X93165027Y-111040481D01*
X93525175Y-110797850D01*
X93835982Y-110586911D01*
X94099434Y-110406266D01*
X94317518Y-110254514D01*
X94492221Y-110130254D01*
X94625530Y-110032088D01*
X94719430Y-109958614D01*
X94775910Y-109908434D01*
X94796956Y-109880146D01*
X94796927Y-109876372D01*
X94760491Y-109851113D01*
X94684007Y-109832745D01*
X94652219Y-109829361D01*
X94570659Y-109817509D01*
X94524002Y-109799410D01*
X94519750Y-109792226D01*
X94548864Y-109764860D01*
X94627344Y-109731325D01*
X94741895Y-109695743D01*
X94879222Y-109662237D01*
X95026032Y-109634931D01*
X95027750Y-109634665D01*
X95155555Y-109616909D01*
X95297503Y-109601277D01*
X95457479Y-109587691D01*
X95639367Y-109576077D01*
X95847049Y-109566358D01*
X96084411Y-109558458D01*
X96355337Y-109552300D01*
X96663710Y-109547809D01*
X97013415Y-109544908D01*
X97408335Y-109543522D01*
X97852356Y-109543573D01*
G36*
X102970112Y-113065385D02*
G01*
X103077989Y-113075192D01*
X103169520Y-113097864D01*
X103268221Y-113137841D01*
X103305589Y-113155216D01*
X103535829Y-113296361D01*
X103720245Y-113475612D01*
X103856646Y-113684940D01*
X103942841Y-113916316D01*
X103976639Y-114161708D01*
X103955847Y-114413089D01*
X103878275Y-114662428D01*
X103770787Y-114859688D01*
X103601215Y-115061244D01*
X103393688Y-115211987D01*
X103147921Y-115312095D01*
X102992896Y-115346199D01*
X102886516Y-115362589D01*
X102807553Y-115373126D01*
X102774750Y-115375525D01*
X102736744Y-115368666D01*
X102657704Y-115355103D01*
X102604958Y-115346203D01*
X102492968Y-115324265D01*
X102444096Y-115306834D01*
X102458101Y-115294177D01*
X102534745Y-115286566D01*
X102660299Y-115284250D01*
X102813428Y-115278809D01*
X102931339Y-115258974D01*
X103041655Y-115219473D01*
X103071587Y-115205764D01*
X103294697Y-115073037D01*
X103468748Y-114906139D01*
X103602926Y-114696186D01*
X103606854Y-114688272D01*
X103660091Y-114572934D01*
X103691516Y-114477883D01*
X103706708Y-114377333D01*
X103711249Y-114245503D01*
X103711375Y-114205417D01*
X103707734Y-114054377D01*
X103693723Y-113941701D01*
X103664706Y-113842509D01*
X103627708Y-113756439D01*
X103488158Y-113525520D01*
X103308086Y-113343000D01*
X103116275Y-113221651D01*
X103003066Y-113170046D01*
X102903656Y-113140349D01*
X102790864Y-113126599D01*
X102666491Y-113123018D01*
X102537180Y-113119259D01*
X102470480Y-113110706D01*
X102465674Y-113097247D01*
X102473125Y-113093500D01*
X102532586Y-113080966D01*
X102636859Y-113070912D01*
X102767262Y-113064914D01*
X102822375Y-113064006D01*
X102970112Y-113065385D01*
G37*
X102970112Y-113065385D02*
X103077989Y-113075192D01*
X103169520Y-113097864D01*
X103268221Y-113137841D01*
X103305589Y-113155216D01*
X103535829Y-113296361D01*
X103720245Y-113475612D01*
X103856646Y-113684940D01*
X103942841Y-113916316D01*
X103976639Y-114161708D01*
X103955847Y-114413089D01*
X103878275Y-114662428D01*
X103770787Y-114859688D01*
X103601215Y-115061244D01*
X103393688Y-115211987D01*
X103147921Y-115312095D01*
X102992896Y-115346199D01*
X102886516Y-115362589D01*
X102807553Y-115373126D01*
X102774750Y-115375525D01*
X102736744Y-115368666D01*
X102657704Y-115355103D01*
X102604958Y-115346203D01*
X102492968Y-115324265D01*
X102444096Y-115306834D01*
X102458101Y-115294177D01*
X102534745Y-115286566D01*
X102660299Y-115284250D01*
X102813428Y-115278809D01*
X102931339Y-115258974D01*
X103041655Y-115219473D01*
X103071587Y-115205764D01*
X103294697Y-115073037D01*
X103468748Y-114906139D01*
X103602926Y-114696186D01*
X103606854Y-114688272D01*
X103660091Y-114572934D01*
X103691516Y-114477883D01*
X103706708Y-114377333D01*
X103711249Y-114245503D01*
X103711375Y-114205417D01*
X103707734Y-114054377D01*
X103693723Y-113941701D01*
X103664706Y-113842509D01*
X103627708Y-113756439D01*
X103488158Y-113525520D01*
X103308086Y-113343000D01*
X103116275Y-113221651D01*
X103003066Y-113170046D01*
X102903656Y-113140349D01*
X102790864Y-113126599D01*
X102666491Y-113123018D01*
X102537180Y-113119259D01*
X102470480Y-113110706D01*
X102465674Y-113097247D01*
X102473125Y-113093500D01*
X102532586Y-113080966D01*
X102636859Y-113070912D01*
X102767262Y-113064914D01*
X102822375Y-113064006D01*
X102970112Y-113065385D01*
G36*
X92393602Y-113920800D02*
G01*
X92464458Y-113947398D01*
X92510031Y-114003090D01*
X92535587Y-114097168D01*
X92546391Y-114238929D01*
X92548000Y-114365564D01*
X92543148Y-114541893D01*
X92524832Y-114664434D01*
X92487405Y-114742415D01*
X92425223Y-114785064D01*
X92332641Y-114801611D01*
X92280429Y-114803000D01*
X92179859Y-114794609D01*
X92113917Y-114762003D01*
X92074054Y-114719343D01*
X92042059Y-114669381D01*
X92022271Y-114608149D01*
X92011964Y-114519852D01*
X92010519Y-114466545D01*
X92202453Y-114466545D01*
X92211449Y-114582262D01*
X92233543Y-114648236D01*
X92270151Y-114670927D01*
X92287196Y-114669737D01*
X92312880Y-114656716D01*
X92329080Y-114621764D01*
X92337859Y-114553071D01*
X92341279Y-114438829D01*
X92341625Y-114358065D01*
X92340663Y-114217996D01*
X92336122Y-114129630D01*
X92325516Y-114081181D01*
X92306360Y-114060860D01*
X92278125Y-114056875D01*
X92245316Y-114063141D01*
X92225123Y-114090665D01*
X92213528Y-114152538D01*
X92206513Y-114261849D01*
X92205143Y-114294626D01*
X92202453Y-114466545D01*
X92010519Y-114466545D01*
X92008408Y-114388694D01*
X92008250Y-114338343D01*
X92013252Y-114165470D01*
X92032471Y-114046161D01*
X92072226Y-113970970D01*
X92138838Y-113930454D01*
X92238626Y-113915168D01*
X92292199Y-113913999D01*
X92393602Y-113920800D01*
G37*
X92393602Y-113920800D02*
X92464458Y-113947398D01*
X92510031Y-114003090D01*
X92535587Y-114097168D01*
X92546391Y-114238929D01*
X92548000Y-114365564D01*
X92543148Y-114541893D01*
X92524832Y-114664434D01*
X92487405Y-114742415D01*
X92425223Y-114785064D01*
X92332641Y-114801611D01*
X92280429Y-114803000D01*
X92179859Y-114794609D01*
X92113917Y-114762003D01*
X92074054Y-114719343D01*
X92042059Y-114669381D01*
X92022271Y-114608149D01*
X92011964Y-114519852D01*
X92010519Y-114466545D01*
X92202453Y-114466545D01*
X92211449Y-114582262D01*
X92233543Y-114648236D01*
X92270151Y-114670927D01*
X92287196Y-114669737D01*
X92312880Y-114656716D01*
X92329080Y-114621764D01*
X92337859Y-114553071D01*
X92341279Y-114438829D01*
X92341625Y-114358065D01*
X92340663Y-114217996D01*
X92336122Y-114129630D01*
X92325516Y-114081181D01*
X92306360Y-114060860D01*
X92278125Y-114056875D01*
X92245316Y-114063141D01*
X92225123Y-114090665D01*
X92213528Y-114152538D01*
X92206513Y-114261849D01*
X92205143Y-114294626D01*
X92202453Y-114466545D01*
X92010519Y-114466545D01*
X92008408Y-114388694D01*
X92008250Y-114338343D01*
X92013252Y-114165470D01*
X92032471Y-114046161D01*
X92072226Y-113970970D01*
X92138838Y-113930454D01*
X92238626Y-113915168D01*
X92292199Y-113913999D01*
X92393602Y-113920800D01*
G36*
X96514607Y-113856484D02*
G01*
X96543091Y-113879478D01*
X96542566Y-113906062D01*
X96505942Y-113952986D01*
X96452925Y-113972604D01*
X96350856Y-114006413D01*
X96299464Y-114069584D01*
X96294500Y-114102888D01*
X96308776Y-114139819D01*
X96361962Y-114146319D01*
X96391002Y-114142838D01*
X96493447Y-114146496D01*
X96562216Y-114195786D01*
X96600622Y-114295176D01*
X96612000Y-114440995D01*
X96608671Y-114555956D01*
X96595187Y-114626131D01*
X96566300Y-114670045D01*
X96541435Y-114690074D01*
X96439852Y-114731192D01*
X96321939Y-114737100D01*
X96214967Y-114708826D01*
X96167500Y-114676000D01*
X96134562Y-114632528D01*
X96115162Y-114572836D01*
X96106061Y-114480650D01*
X96104996Y-114416708D01*
X96294500Y-114416708D01*
X96298550Y-114510764D01*
X96308839Y-114576265D01*
X96315666Y-114591333D01*
X96370627Y-114612112D01*
X96417993Y-114581318D01*
X96428418Y-114556937D01*
X96434359Y-114489036D01*
X96430103Y-114395662D01*
X96428647Y-114382312D01*
X96410413Y-114299711D01*
X96376335Y-114266128D01*
X96354526Y-114263250D01*
X96317850Y-114273073D01*
X96299878Y-114312830D01*
X96294575Y-114397947D01*
X96294500Y-114416708D01*
X96104996Y-114416708D01*
X96104000Y-114356923D01*
X96114892Y-114158695D01*
X96150123Y-114014751D01*
X96213522Y-113919280D01*
X96308916Y-113866468D01*
X96437615Y-113850500D01*
X96514607Y-113856484D01*
G37*
X96514607Y-113856484D02*
X96543091Y-113879478D01*
X96542566Y-113906062D01*
X96505942Y-113952986D01*
X96452925Y-113972604D01*
X96350856Y-114006413D01*
X96299464Y-114069584D01*
X96294500Y-114102888D01*
X96308776Y-114139819D01*
X96361962Y-114146319D01*
X96391002Y-114142838D01*
X96493447Y-114146496D01*
X96562216Y-114195786D01*
X96600622Y-114295176D01*
X96612000Y-114440995D01*
X96608671Y-114555956D01*
X96595187Y-114626131D01*
X96566300Y-114670045D01*
X96541435Y-114690074D01*
X96439852Y-114731192D01*
X96321939Y-114737100D01*
X96214967Y-114708826D01*
X96167500Y-114676000D01*
X96134562Y-114632528D01*
X96115162Y-114572836D01*
X96106061Y-114480650D01*
X96104996Y-114416708D01*
X96294500Y-114416708D01*
X96298550Y-114510764D01*
X96308839Y-114576265D01*
X96315666Y-114591333D01*
X96370627Y-114612112D01*
X96417993Y-114581318D01*
X96428418Y-114556937D01*
X96434359Y-114489036D01*
X96430103Y-114395662D01*
X96428647Y-114382312D01*
X96410413Y-114299711D01*
X96376335Y-114266128D01*
X96354526Y-114263250D01*
X96317850Y-114273073D01*
X96299878Y-114312830D01*
X96294575Y-114397947D01*
X96294500Y-114416708D01*
X96104996Y-114416708D01*
X96104000Y-114356923D01*
X96114892Y-114158695D01*
X96150123Y-114014751D01*
X96213522Y-113919280D01*
X96308916Y-113866468D01*
X96437615Y-113850500D01*
X96514607Y-113856484D01*
G36*
X93762646Y-113888066D02*
G01*
X93802274Y-113899410D01*
X93816446Y-113922179D01*
X93818000Y-113944465D01*
X93800029Y-113995082D01*
X93738625Y-114009250D01*
X93659250Y-114009250D01*
X93659250Y-114771250D01*
X93468750Y-114771250D01*
X93468750Y-114009250D01*
X93371171Y-114009249D01*
X93302570Y-114000994D01*
X93282453Y-113970461D01*
X93284210Y-113953687D01*
X93299144Y-113925409D01*
X93339155Y-113907239D01*
X93416735Y-113896206D01*
X93544371Y-113889337D01*
X93556413Y-113888903D01*
X93684909Y-113885459D01*
X93762646Y-113888066D01*
G37*
X93762646Y-113888066D02*
X93802274Y-113899410D01*
X93816446Y-113922179D01*
X93818000Y-113944465D01*
X93800029Y-113995082D01*
X93738625Y-114009250D01*
X93659250Y-114009250D01*
X93659250Y-114771250D01*
X93468750Y-114771250D01*
X93468750Y-114009250D01*
X93371171Y-114009249D01*
X93302570Y-114000994D01*
X93282453Y-113970461D01*
X93284210Y-113953687D01*
X93299144Y-113925409D01*
X93339155Y-113907239D01*
X93416735Y-113896206D01*
X93544371Y-113889337D01*
X93556413Y-113888903D01*
X93684909Y-113885459D01*
X93762646Y-113888066D01*
G36*
X99481032Y-113829270D02*
G01*
X99509187Y-113849781D01*
X99546091Y-113880938D01*
X99570783Y-113913696D01*
X99585716Y-113960628D01*
X99593344Y-114034310D01*
X99596121Y-114147318D01*
X99596500Y-114297304D01*
X99596500Y-114676000D01*
X99406000Y-114676000D01*
X99406000Y-114485500D01*
X99404319Y-114379922D01*
X99395135Y-114322921D01*
X99372235Y-114299585D01*
X99329407Y-114295004D01*
X99326625Y-114295000D01*
X99282306Y-114299141D01*
X99258567Y-114321600D01*
X99249014Y-114377427D01*
X99247250Y-114481674D01*
X99247250Y-114481798D01*
X99245080Y-114586971D01*
X99234334Y-114645003D01*
X99208652Y-114672213D01*
X99168621Y-114683628D01*
X99102982Y-114689201D01*
X99073371Y-114682037D01*
X99066721Y-114645455D01*
X99061338Y-114558864D01*
X99057822Y-114435755D01*
X99056750Y-114309100D01*
X99060355Y-114122040D01*
X99062996Y-114096562D01*
X99247736Y-114096562D01*
X99254406Y-114168196D01*
X99285062Y-114196073D01*
X99326625Y-114199750D01*
X99377619Y-114192890D01*
X99400386Y-114160446D01*
X99405962Y-114084621D01*
X99406000Y-114071753D01*
X99394428Y-113972178D01*
X99358222Y-113925528D01*
X99355170Y-113924252D01*
X99298319Y-113928848D01*
X99261216Y-113988722D01*
X99247736Y-114096562D01*
X99062996Y-114096562D01*
X99074200Y-113988483D01*
X99102826Y-113898690D01*
X99150778Y-113842921D01*
X99222598Y-113811435D01*
X99295199Y-113797851D01*
X99399481Y-113795817D01*
X99481032Y-113829270D01*
G37*
X99481032Y-113829270D02*
X99509187Y-113849781D01*
X99546091Y-113880938D01*
X99570783Y-113913696D01*
X99585716Y-113960628D01*
X99593344Y-114034310D01*
X99596121Y-114147318D01*
X99596500Y-114297304D01*
X99596500Y-114676000D01*
X99406000Y-114676000D01*
X99406000Y-114485500D01*
X99404319Y-114379922D01*
X99395135Y-114322921D01*
X99372235Y-114299585D01*
X99329407Y-114295004D01*
X99326625Y-114295000D01*
X99282306Y-114299141D01*
X99258567Y-114321600D01*
X99249014Y-114377427D01*
X99247250Y-114481674D01*
X99247250Y-114481798D01*
X99245080Y-114586971D01*
X99234334Y-114645003D01*
X99208652Y-114672213D01*
X99168621Y-114683628D01*
X99102982Y-114689201D01*
X99073371Y-114682037D01*
X99066721Y-114645455D01*
X99061338Y-114558864D01*
X99057822Y-114435755D01*
X99056750Y-114309100D01*
X99060355Y-114122040D01*
X99062996Y-114096562D01*
X99247736Y-114096562D01*
X99254406Y-114168196D01*
X99285062Y-114196073D01*
X99326625Y-114199750D01*
X99377619Y-114192890D01*
X99400386Y-114160446D01*
X99405962Y-114084621D01*
X99406000Y-114071753D01*
X99394428Y-113972178D01*
X99358222Y-113925528D01*
X99355170Y-113924252D01*
X99298319Y-113928848D01*
X99261216Y-113988722D01*
X99247736Y-114096562D01*
X99062996Y-114096562D01*
X99074200Y-113988483D01*
X99102826Y-113898690D01*
X99150778Y-113842921D01*
X99222598Y-113811435D01*
X99295199Y-113797851D01*
X99399481Y-113795817D01*
X99481032Y-113829270D01*
G36*
X95850000Y-114088625D02*
G01*
X95852494Y-114214229D01*
X95861510Y-114287958D01*
X95879342Y-114321294D01*
X95897625Y-114326750D01*
X95936410Y-114353219D01*
X95945250Y-114390250D01*
X95925397Y-114441964D01*
X95897625Y-114453750D01*
X95866234Y-114472448D01*
X95851936Y-114536026D01*
X95850000Y-114596625D01*
X95847238Y-114684481D01*
X95831296Y-114726092D01*
X95790684Y-114738692D01*
X95754750Y-114739500D01*
X95696179Y-114735358D01*
X95668438Y-114711444D01*
X95660038Y-114650526D01*
X95659500Y-114596625D01*
X95659500Y-114453750D01*
X95500750Y-114453750D01*
X95411338Y-114448893D01*
X95359899Y-114429326D01*
X95346587Y-114387551D01*
X95367826Y-114326750D01*
X95461696Y-114326750D01*
X95560598Y-114326750D01*
X95620353Y-114323215D01*
X95649346Y-114301375D01*
X95658692Y-114244375D01*
X95659500Y-114176810D01*
X95658881Y-114099976D01*
X95652317Y-114063381D01*
X95632744Y-114070147D01*
X95593098Y-114123398D01*
X95526315Y-114226255D01*
X95517842Y-114239437D01*
X95461696Y-114326750D01*
X95367826Y-114326750D01*
X95371557Y-114316070D01*
X95434961Y-114207387D01*
X95508092Y-114096562D01*
X95591071Y-113977785D01*
X95651721Y-113903816D01*
X95700146Y-113864868D01*
X95746446Y-113851156D01*
X95762102Y-113850500D01*
X95850000Y-113850500D01*
X95850000Y-114088625D01*
G37*
X95850000Y-114088625D02*
X95852494Y-114214229D01*
X95861510Y-114287958D01*
X95879342Y-114321294D01*
X95897625Y-114326750D01*
X95936410Y-114353219D01*
X95945250Y-114390250D01*
X95925397Y-114441964D01*
X95897625Y-114453750D01*
X95866234Y-114472448D01*
X95851936Y-114536026D01*
X95850000Y-114596625D01*
X95847238Y-114684481D01*
X95831296Y-114726092D01*
X95790684Y-114738692D01*
X95754750Y-114739500D01*
X95696179Y-114735358D01*
X95668438Y-114711444D01*
X95660038Y-114650526D01*
X95659500Y-114596625D01*
X95659500Y-114453750D01*
X95500750Y-114453750D01*
X95411338Y-114448893D01*
X95359899Y-114429326D01*
X95346587Y-114387551D01*
X95367826Y-114326750D01*
X95461696Y-114326750D01*
X95560598Y-114326750D01*
X95620353Y-114323215D01*
X95649346Y-114301375D01*
X95658692Y-114244375D01*
X95659500Y-114176810D01*
X95658881Y-114099976D01*
X95652317Y-114063381D01*
X95632744Y-114070147D01*
X95593098Y-114123398D01*
X95526315Y-114226255D01*
X95517842Y-114239437D01*
X95461696Y-114326750D01*
X95367826Y-114326750D01*
X95371557Y-114316070D01*
X95434961Y-114207387D01*
X95508092Y-114096562D01*
X95591071Y-113977785D01*
X95651721Y-113903816D01*
X95700146Y-113864868D01*
X95746446Y-113851156D01*
X95762102Y-113850500D01*
X95850000Y-113850500D01*
X95850000Y-114088625D01*
G36*
X100131309Y-113798694D02*
G01*
X100208336Y-113832277D01*
X100213357Y-113836892D01*
X100254369Y-113904374D01*
X100263250Y-113948017D01*
X100242633Y-113998006D01*
X100198877Y-114005751D01*
X100159124Y-113967794D01*
X100156518Y-113961624D01*
X100112716Y-113925922D01*
X100041996Y-113913999D01*
X99945750Y-113914000D01*
X99945750Y-114231500D01*
X99946730Y-114376309D01*
X99951110Y-114469047D01*
X99961053Y-114521130D01*
X99978719Y-114543975D01*
X100005853Y-114549000D01*
X100065503Y-114525692D01*
X100085199Y-114498852D01*
X100093046Y-114434610D01*
X100081708Y-114361816D01*
X100057510Y-114307535D01*
X100037558Y-114295000D01*
X100014548Y-114268377D01*
X100009250Y-114231500D01*
X100019900Y-114189955D01*
X100062945Y-114171595D01*
X100136250Y-114168000D01*
X100263250Y-114168000D01*
X100268280Y-114302937D01*
X100270226Y-114434091D01*
X100261949Y-114520025D01*
X100240145Y-114578640D01*
X100209971Y-114618746D01*
X100135844Y-114660788D01*
X100030056Y-114677747D01*
X99919258Y-114669679D01*
X99830102Y-114636637D01*
X99807795Y-114617937D01*
X99783042Y-114577451D01*
X99767144Y-114513463D01*
X99758461Y-114413632D01*
X99755349Y-114265619D01*
X99755250Y-114222862D01*
X99756225Y-114071578D01*
X99760734Y-113970773D01*
X99771154Y-113907438D01*
X99789859Y-113868563D01*
X99819226Y-113841140D01*
X99825814Y-113836425D01*
X99913567Y-113800737D01*
X100024225Y-113788170D01*
X100131309Y-113798694D01*
G37*
X100131309Y-113798694D02*
X100208336Y-113832277D01*
X100213357Y-113836892D01*
X100254369Y-113904374D01*
X100263250Y-113948017D01*
X100242633Y-113998006D01*
X100198877Y-114005751D01*
X100159124Y-113967794D01*
X100156518Y-113961624D01*
X100112716Y-113925922D01*
X100041996Y-113913999D01*
X99945750Y-113914000D01*
X99945750Y-114231500D01*
X99946730Y-114376309D01*
X99951110Y-114469047D01*
X99961053Y-114521130D01*
X99978719Y-114543975D01*
X100005853Y-114549000D01*
X100065503Y-114525692D01*
X100085199Y-114498852D01*
X100093046Y-114434610D01*
X100081708Y-114361816D01*
X100057510Y-114307535D01*
X100037558Y-114295000D01*
X100014548Y-114268377D01*
X100009250Y-114231500D01*
X100019900Y-114189955D01*
X100062945Y-114171595D01*
X100136250Y-114168000D01*
X100263250Y-114168000D01*
X100268280Y-114302937D01*
X100270226Y-114434091D01*
X100261949Y-114520025D01*
X100240145Y-114578640D01*
X100209971Y-114618746D01*
X100135844Y-114660788D01*
X100030056Y-114677747D01*
X99919258Y-114669679D01*
X99830102Y-114636637D01*
X99807795Y-114617937D01*
X99783042Y-114577451D01*
X99767144Y-114513463D01*
X99758461Y-114413632D01*
X99755349Y-114265619D01*
X99755250Y-114222862D01*
X99756225Y-114071578D01*
X99760734Y-113970773D01*
X99771154Y-113907438D01*
X99789859Y-113868563D01*
X99819226Y-113841140D01*
X99825814Y-113836425D01*
X99913567Y-113800737D01*
X100024225Y-113788170D01*
X100131309Y-113798694D01*
G36*
X95117420Y-113889876D02*
G01*
X95196374Y-113918429D01*
X95235705Y-113976414D01*
X95246737Y-114072341D01*
X95246750Y-114076997D01*
X95237782Y-114152291D01*
X95205281Y-114229569D01*
X95140845Y-114325570D01*
X95088000Y-114393350D01*
X95013617Y-114489147D01*
X94957903Y-114566833D01*
X94930531Y-114612738D01*
X94929250Y-114617703D01*
X94957963Y-114632242D01*
X95032031Y-114641885D01*
X95103875Y-114644250D01*
X95212835Y-114649459D01*
X95267676Y-114666511D01*
X95278500Y-114687452D01*
X95248918Y-114715605D01*
X95168831Y-114740348D01*
X95051229Y-114759195D01*
X94909100Y-114769663D01*
X94841937Y-114770974D01*
X94770765Y-114764685D01*
X94742978Y-114733552D01*
X94738750Y-114678776D01*
X94760284Y-114594575D01*
X94827377Y-114484222D01*
X94892452Y-114400963D01*
X94993689Y-114269884D01*
X95050981Y-114170647D01*
X95068442Y-114093587D01*
X95050520Y-114029634D01*
X95000039Y-113989722D01*
X94928979Y-113979227D01*
X94866572Y-113998791D01*
X94845481Y-114025125D01*
X94811094Y-114062919D01*
X94766263Y-114071316D01*
X94739464Y-114046637D01*
X94738750Y-114038912D01*
X94752665Y-113985308D01*
X94771617Y-113943662D01*
X94803613Y-113907338D01*
X94861034Y-113888540D01*
X94961027Y-113882391D01*
X94987517Y-113882249D01*
X95117420Y-113889876D01*
G37*
X95117420Y-113889876D02*
X95196374Y-113918429D01*
X95235705Y-113976414D01*
X95246737Y-114072341D01*
X95246750Y-114076997D01*
X95237782Y-114152291D01*
X95205281Y-114229569D01*
X95140845Y-114325570D01*
X95088000Y-114393350D01*
X95013617Y-114489147D01*
X94957903Y-114566833D01*
X94930531Y-114612738D01*
X94929250Y-114617703D01*
X94957963Y-114632242D01*
X95032031Y-114641885D01*
X95103875Y-114644250D01*
X95212835Y-114649459D01*
X95267676Y-114666511D01*
X95278500Y-114687452D01*
X95248918Y-114715605D01*
X95168831Y-114740348D01*
X95051229Y-114759195D01*
X94909100Y-114769663D01*
X94841937Y-114770974D01*
X94770765Y-114764685D01*
X94742978Y-114733552D01*
X94738750Y-114678776D01*
X94760284Y-114594575D01*
X94827377Y-114484222D01*
X94892452Y-114400963D01*
X94993689Y-114269884D01*
X95050981Y-114170647D01*
X95068442Y-114093587D01*
X95050520Y-114029634D01*
X95000039Y-113989722D01*
X94928979Y-113979227D01*
X94866572Y-113998791D01*
X94845481Y-114025125D01*
X94811094Y-114062919D01*
X94766263Y-114071316D01*
X94739464Y-114046637D01*
X94738750Y-114038912D01*
X94752665Y-113985308D01*
X94771617Y-113943662D01*
X94803613Y-113907338D01*
X94861034Y-113888540D01*
X94961027Y-113882391D01*
X94987517Y-113882249D01*
X95117420Y-113889876D01*
G36*
X93182077Y-113888116D02*
G01*
X93197699Y-113911386D01*
X93207410Y-113962530D01*
X93212570Y-114051530D01*
X93214537Y-114188372D01*
X93214750Y-114291112D01*
X93212593Y-114479175D01*
X93205690Y-114610835D01*
X93193394Y-114693060D01*
X93175054Y-114732813D01*
X93173487Y-114734219D01*
X93109500Y-114762613D01*
X93012039Y-114783091D01*
X92911024Y-114791414D01*
X92836374Y-114783339D01*
X92833750Y-114782382D01*
X92782168Y-114753860D01*
X92746423Y-114708022D01*
X92723798Y-114634305D01*
X92711573Y-114522144D01*
X92707029Y-114360975D01*
X92706750Y-114288931D01*
X92706750Y-113914000D01*
X92895234Y-113914000D01*
X92904179Y-114287062D01*
X92909417Y-114450033D01*
X92916844Y-114559142D01*
X92927920Y-114624024D01*
X92944107Y-114654313D01*
X92960750Y-114660125D01*
X92982045Y-114649551D01*
X92996990Y-114611348D01*
X93007098Y-114535795D01*
X93013883Y-114413168D01*
X93017415Y-114296192D01*
X93023433Y-114126818D01*
X93033859Y-114010957D01*
X93052114Y-113938632D01*
X93081620Y-113899863D01*
X93125799Y-113884673D01*
X93159187Y-113882736D01*
X93182077Y-113888116D01*
G37*
X93182077Y-113888116D02*
X93197699Y-113911386D01*
X93207410Y-113962530D01*
X93212570Y-114051530D01*
X93214537Y-114188372D01*
X93214750Y-114291112D01*
X93212593Y-114479175D01*
X93205690Y-114610835D01*
X93193394Y-114693060D01*
X93175054Y-114732813D01*
X93173487Y-114734219D01*
X93109500Y-114762613D01*
X93012039Y-114783091D01*
X92911024Y-114791414D01*
X92836374Y-114783339D01*
X92833750Y-114782382D01*
X92782168Y-114753860D01*
X92746423Y-114708022D01*
X92723798Y-114634305D01*
X92711573Y-114522144D01*
X92707029Y-114360975D01*
X92706750Y-114288931D01*
X92706750Y-113914000D01*
X92895234Y-113914000D01*
X92904179Y-114287062D01*
X92909417Y-114450033D01*
X92916844Y-114559142D01*
X92927920Y-114624024D01*
X92944107Y-114654313D01*
X92960750Y-114660125D01*
X92982045Y-114649551D01*
X92996990Y-114611348D01*
X93007098Y-114535795D01*
X93013883Y-114413168D01*
X93017415Y-114296192D01*
X93023433Y-114126818D01*
X93033859Y-114010957D01*
X93052114Y-113938632D01*
X93081620Y-113899863D01*
X93125799Y-113884673D01*
X93159187Y-113882736D01*
X93182077Y-113888116D01*
G36*
X91676128Y-113924628D02*
G01*
X91775063Y-113960553D01*
X91829999Y-114027830D01*
X91849193Y-114132516D01*
X91849500Y-114152051D01*
X91842768Y-114241264D01*
X91825841Y-114300966D01*
X91817409Y-114311085D01*
X91807796Y-114350043D01*
X91833284Y-114399398D01*
X91863795Y-114477600D01*
X91879975Y-114592000D01*
X91881249Y-114635439D01*
X91879455Y-114732695D01*
X91868026Y-114782405D01*
X91837896Y-114800522D01*
X91786000Y-114803000D01*
X91727043Y-114798731D01*
X91699382Y-114774336D01*
X91691213Y-114712432D01*
X91690749Y-114662721D01*
X91683867Y-114533543D01*
X91660685Y-114457345D01*
X91617402Y-114424848D01*
X91592103Y-114422000D01*
X91558403Y-114429951D01*
X91540193Y-114463345D01*
X91532957Y-114536491D01*
X91532000Y-114612500D01*
X91532000Y-114803000D01*
X91341500Y-114803000D01*
X91341500Y-114168000D01*
X91532000Y-114168000D01*
X91537655Y-114251642D01*
X91559691Y-114288456D01*
X91592103Y-114295000D01*
X91650098Y-114275732D01*
X91668207Y-114253300D01*
X91677805Y-114175067D01*
X91657951Y-114098687D01*
X91617432Y-114048576D01*
X91591798Y-114040999D01*
X91552387Y-114053082D01*
X91535049Y-114099994D01*
X91532000Y-114168000D01*
X91341500Y-114168000D01*
X91341500Y-113914000D01*
X91524935Y-113913999D01*
X91676128Y-113924628D01*
G37*
X91676128Y-113924628D02*
X91775063Y-113960553D01*
X91829999Y-114027830D01*
X91849193Y-114132516D01*
X91849500Y-114152051D01*
X91842768Y-114241264D01*
X91825841Y-114300966D01*
X91817409Y-114311085D01*
X91807796Y-114350043D01*
X91833284Y-114399398D01*
X91863795Y-114477600D01*
X91879975Y-114592000D01*
X91881249Y-114635439D01*
X91879455Y-114732695D01*
X91868026Y-114782405D01*
X91837896Y-114800522D01*
X91786000Y-114803000D01*
X91727043Y-114798731D01*
X91699382Y-114774336D01*
X91691213Y-114712432D01*
X91690749Y-114662721D01*
X91683867Y-114533543D01*
X91660685Y-114457345D01*
X91617402Y-114424848D01*
X91592103Y-114422000D01*
X91558403Y-114429951D01*
X91540193Y-114463345D01*
X91532957Y-114536491D01*
X91532000Y-114612500D01*
X91532000Y-114803000D01*
X91341500Y-114803000D01*
X91341500Y-114168000D01*
X91532000Y-114168000D01*
X91537655Y-114251642D01*
X91559691Y-114288456D01*
X91592103Y-114295000D01*
X91650098Y-114275732D01*
X91668207Y-114253300D01*
X91677805Y-114175067D01*
X91657951Y-114098687D01*
X91617432Y-114048576D01*
X91591798Y-114040999D01*
X91552387Y-114053082D01*
X91535049Y-114099994D01*
X91532000Y-114168000D01*
X91341500Y-114168000D01*
X91341500Y-113914000D01*
X91524935Y-113913999D01*
X91676128Y-113924628D01*
G36*
X94220549Y-113883963D02*
G01*
X94287461Y-113891688D01*
X94318065Y-113909306D01*
X94325938Y-113940695D01*
X94326000Y-113945750D01*
X94315349Y-113987294D01*
X94272304Y-114005654D01*
X94199000Y-114009250D01*
X94117709Y-114012342D01*
X94081587Y-114033638D01*
X94072305Y-114091163D01*
X94072000Y-114134141D01*
X94076853Y-114215855D01*
X94099929Y-114254044D01*
X94154000Y-114268447D01*
X94159312Y-114269078D01*
X94226404Y-114292298D01*
X94246625Y-114326750D01*
X94218207Y-114366615D01*
X94159312Y-114384421D01*
X94102575Y-114397892D01*
X94077733Y-114433758D01*
X94072014Y-114511759D01*
X94072000Y-114519358D01*
X94075144Y-114599299D01*
X94096800Y-114634821D01*
X94155296Y-114643949D01*
X94199000Y-114644250D01*
X94282088Y-114649575D01*
X94318809Y-114671097D01*
X94326000Y-114707750D01*
X94320003Y-114741121D01*
X94292963Y-114760239D01*
X94231302Y-114768983D01*
X94121441Y-114771232D01*
X94103750Y-114771250D01*
X93881500Y-114771250D01*
X93881500Y-113882250D01*
X94103750Y-113882250D01*
X94220549Y-113883963D01*
G37*
X94220549Y-113883963D02*
X94287461Y-113891688D01*
X94318065Y-113909306D01*
X94325938Y-113940695D01*
X94326000Y-113945750D01*
X94315349Y-113987294D01*
X94272304Y-114005654D01*
X94199000Y-114009250D01*
X94117709Y-114012342D01*
X94081587Y-114033638D01*
X94072305Y-114091163D01*
X94072000Y-114134141D01*
X94076853Y-114215855D01*
X94099929Y-114254044D01*
X94154000Y-114268447D01*
X94159312Y-114269078D01*
X94226404Y-114292298D01*
X94246625Y-114326750D01*
X94218207Y-114366615D01*
X94159312Y-114384421D01*
X94102575Y-114397892D01*
X94077733Y-114433758D01*
X94072014Y-114511759D01*
X94072000Y-114519358D01*
X94075144Y-114599299D01*
X94096800Y-114634821D01*
X94155296Y-114643949D01*
X94199000Y-114644250D01*
X94282088Y-114649575D01*
X94318809Y-114671097D01*
X94326000Y-114707750D01*
X94320003Y-114741121D01*
X94292963Y-114760239D01*
X94231302Y-114768983D01*
X94121441Y-114771232D01*
X94103750Y-114771250D01*
X93881500Y-114771250D01*
X93881500Y-113882250D01*
X94103750Y-113882250D01*
X94220549Y-113883963D01*
G36*
X97411354Y-113841999D02*
G01*
X97448522Y-113860275D01*
X97510572Y-113917017D01*
X97542481Y-113977170D01*
X97539356Y-114024019D01*
X97501424Y-114040999D01*
X97443135Y-114016765D01*
X97425202Y-113991248D01*
X97378953Y-113953779D01*
X97318618Y-113951561D01*
X97231125Y-113961625D01*
X97221926Y-114260596D01*
X97221543Y-114428863D01*
X97233537Y-114538409D01*
X97259257Y-114593051D01*
X97300054Y-114596605D01*
X97333247Y-114575046D01*
X97363467Y-114522791D01*
X97374563Y-114448635D01*
X97367207Y-114376886D01*
X97342073Y-114331851D01*
X97326375Y-114326750D01*
X97284234Y-114303470D01*
X97278750Y-114283279D01*
X97306292Y-114253284D01*
X97372177Y-114227188D01*
X97451290Y-114211255D01*
X97518518Y-114211750D01*
X97537709Y-114218690D01*
X97557742Y-114262609D01*
X97565069Y-114346822D01*
X97560863Y-114449656D01*
X97546294Y-114549440D01*
X97522536Y-114624501D01*
X97515074Y-114637185D01*
X97472936Y-114680148D01*
X97411231Y-114701457D01*
X97309377Y-114707700D01*
X97294625Y-114707750D01*
X97187015Y-114702780D01*
X97121850Y-114683478D01*
X97078549Y-114643257D01*
X97074175Y-114637185D01*
X97048224Y-114578463D01*
X97032491Y-114484779D01*
X97025469Y-114344678D01*
X97024750Y-114261106D01*
X97026563Y-114113620D01*
X97033524Y-114015791D01*
X97047918Y-113953841D01*
X97072026Y-113913994D01*
X97084312Y-113901688D01*
X97181958Y-113847102D01*
X97300486Y-113826123D01*
X97411354Y-113841999D01*
G37*
X97411354Y-113841999D02*
X97448522Y-113860275D01*
X97510572Y-113917017D01*
X97542481Y-113977170D01*
X97539356Y-114024019D01*
X97501424Y-114040999D01*
X97443135Y-114016765D01*
X97425202Y-113991248D01*
X97378953Y-113953779D01*
X97318618Y-113951561D01*
X97231125Y-113961625D01*
X97221926Y-114260596D01*
X97221543Y-114428863D01*
X97233537Y-114538409D01*
X97259257Y-114593051D01*
X97300054Y-114596605D01*
X97333247Y-114575046D01*
X97363467Y-114522791D01*
X97374563Y-114448635D01*
X97367207Y-114376886D01*
X97342073Y-114331851D01*
X97326375Y-114326750D01*
X97284234Y-114303470D01*
X97278750Y-114283279D01*
X97306292Y-114253284D01*
X97372177Y-114227188D01*
X97451290Y-114211255D01*
X97518518Y-114211750D01*
X97537709Y-114218690D01*
X97557742Y-114262609D01*
X97565069Y-114346822D01*
X97560863Y-114449656D01*
X97546294Y-114549440D01*
X97522536Y-114624501D01*
X97515074Y-114637185D01*
X97472936Y-114680148D01*
X97411231Y-114701457D01*
X97309377Y-114707700D01*
X97294625Y-114707750D01*
X97187015Y-114702780D01*
X97121850Y-114683478D01*
X97078549Y-114643257D01*
X97074175Y-114637185D01*
X97048224Y-114578463D01*
X97032491Y-114484779D01*
X97025469Y-114344678D01*
X97024750Y-114261106D01*
X97026563Y-114113620D01*
X97033524Y-114015791D01*
X97047918Y-113953841D01*
X97072026Y-113913994D01*
X97084312Y-113901688D01*
X97181958Y-113847102D01*
X97300486Y-113826123D01*
X97411354Y-113841999D01*
G36*
X100765002Y-113789800D02*
G01*
X100834112Y-113799871D01*
X100863259Y-113819715D01*
X100866500Y-113834625D01*
X100845528Y-113867740D01*
X100776011Y-113881385D01*
X100739500Y-113882250D01*
X100612500Y-113882250D01*
X100612500Y-114023016D01*
X100616086Y-114110891D01*
X100634015Y-114153941D01*
X100677037Y-114170738D01*
X100699812Y-114173828D01*
X100766904Y-114197048D01*
X100787125Y-114231500D01*
X100758707Y-114271365D01*
X100699812Y-114289171D01*
X100643075Y-114302642D01*
X100618233Y-114338508D01*
X100612514Y-114416509D01*
X100612500Y-114424108D01*
X100615644Y-114504049D01*
X100637300Y-114539571D01*
X100695796Y-114548699D01*
X100739500Y-114549000D01*
X100822588Y-114554325D01*
X100859309Y-114575847D01*
X100866500Y-114612500D01*
X100860503Y-114645871D01*
X100833463Y-114664989D01*
X100771802Y-114673733D01*
X100661941Y-114675982D01*
X100644250Y-114676000D01*
X100422000Y-114676000D01*
X100422000Y-113787000D01*
X100644250Y-113787000D01*
X100765002Y-113789800D01*
G37*
X100765002Y-113789800D02*
X100834112Y-113799871D01*
X100863259Y-113819715D01*
X100866500Y-113834625D01*
X100845528Y-113867740D01*
X100776011Y-113881385D01*
X100739500Y-113882250D01*
X100612500Y-113882250D01*
X100612500Y-114023016D01*
X100616086Y-114110891D01*
X100634015Y-114153941D01*
X100677037Y-114170738D01*
X100699812Y-114173828D01*
X100766904Y-114197048D01*
X100787125Y-114231500D01*
X100758707Y-114271365D01*
X100699812Y-114289171D01*
X100643075Y-114302642D01*
X100618233Y-114338508D01*
X100612514Y-114416509D01*
X100612500Y-114424108D01*
X100615644Y-114504049D01*
X100637300Y-114539571D01*
X100695796Y-114548699D01*
X100739500Y-114549000D01*
X100822588Y-114554325D01*
X100859309Y-114575847D01*
X100866500Y-114612500D01*
X100860503Y-114645871D01*
X100833463Y-114664989D01*
X100771802Y-114673733D01*
X100661941Y-114675982D01*
X100644250Y-114676000D01*
X100422000Y-114676000D01*
X100422000Y-113787000D01*
X100644250Y-113787000D01*
X100765002Y-113789800D01*
G04 #@! TD*
D12*
G04 #@! TO.P,REF\u002A\u002A,1*
G04 #@! TO.N,N/C*
X122300000Y-157000000D03*
D13*
X122300000Y-157000000D03*
G04 #@! TD*
D12*
G04 #@! TO.P,REF\u002A\u002A,1*
G04 #@! TO.N,N/C*
X68300000Y-157000000D03*
D13*
X68300000Y-157000000D03*
G04 #@! TD*
D12*
G04 #@! TO.P,REF\u002A\u002A,1*
G04 #@! TO.N,N/C*
X59300000Y-70000000D03*
D13*
X59300000Y-70000000D03*
G04 #@! TD*
G04 #@! TO.P,C13,2*
G04 #@! TO.N,Net-(C13-Pad2)*
G04 #@! TA.AperFunction,SMDPad,CuDef*
G36*
G01*
X108188999Y-74687000D02*
X109489001Y-74687000D01*
G75*
G02*
X109739000Y-74936999I0J-249999D01*
G01*
X109739000Y-75762001D01*
G75*
G02*
X109489001Y-76012000I-249999J0D01*
G01*
X108188999Y-76012000D01*
G75*
G02*
X107939000Y-75762001I0J249999D01*
G01*
X107939000Y-74936999D01*
G75*
G02*
X108188999Y-74687000I249999J0D01*
G01*
G37*
G04 #@! TD.AperFunction*
G04 #@! TO.P,C13,1*
G04 #@! TO.N,+3V3*
G04 #@! TA.AperFunction,SMDPad,CuDef*
G36*
G01*
X108188999Y-71562000D02*
X109489001Y-71562000D01*
G75*
G02*
X109739000Y-71811999I0J-249999D01*
G01*
X109739000Y-72637001D01*
G75*
G02*
X109489001Y-72887000I-249999J0D01*
G01*
X108188999Y-72887000D01*
G75*
G02*
X107939000Y-72637001I0J249999D01*
G01*
X107939000Y-71811999D01*
G75*
G02*
X108188999Y-71562000I249999J0D01*
G01*
G37*
G04 #@! TD.AperFunction*
G04 #@! TD*
G04 #@! TO.P,C12,2*
G04 #@! TO.N,Net-(C12-Pad2)*
G04 #@! TA.AperFunction,SMDPad,CuDef*
G36*
G01*
X123179000Y-74279999D02*
X123179000Y-75580001D01*
G75*
G02*
X122929001Y-75830000I-249999J0D01*
G01*
X122103999Y-75830000D01*
G75*
G02*
X121854000Y-75580001I0J249999D01*
G01*
X121854000Y-74279999D01*
G75*
G02*
X122103999Y-74030000I249999J0D01*
G01*
X122929001Y-74030000D01*
G75*
G02*
X123179000Y-74279999I0J-249999D01*
G01*
G37*
G04 #@! TD.AperFunction*
G04 #@! TO.P,C12,1*
G04 #@! TO.N,+3V3*
G04 #@! TA.AperFunction,SMDPad,CuDef*
G36*
G01*
X126304000Y-74279999D02*
X126304000Y-75580001D01*
G75*
G02*
X126054001Y-75830000I-249999J0D01*
G01*
X125228999Y-75830000D01*
G75*
G02*
X124979000Y-75580001I0J249999D01*
G01*
X124979000Y-74279999D01*
G75*
G02*
X125228999Y-74030000I249999J0D01*
G01*
X126054001Y-74030000D01*
G75*
G02*
X126304000Y-74279999I0J-249999D01*
G01*
G37*
G04 #@! TD.AperFunction*
G04 #@! TD*
G04 #@! TO.P,C11,2*
G04 #@! TO.N,Net-(C11-Pad2)*
G04 #@! TA.AperFunction,SMDPad,CuDef*
G36*
G01*
X94218999Y-74814000D02*
X95519001Y-74814000D01*
G75*
G02*
X95769000Y-75063999I0J-249999D01*
G01*
X95769000Y-75889001D01*
G75*
G02*
X95519001Y-76139000I-249999J0D01*
G01*
X94218999Y-76139000D01*
G75*
G02*
X93969000Y-75889001I0J249999D01*
G01*
X93969000Y-75063999D01*
G75*
G02*
X94218999Y-74814000I249999J0D01*
G01*
G37*
G04 #@! TD.AperFunction*
G04 #@! TO.P,C11,1*
G04 #@! TO.N,+3V3*
G04 #@! TA.AperFunction,SMDPad,CuDef*
G36*
G01*
X94218999Y-71689000D02*
X95519001Y-71689000D01*
G75*
G02*
X95769000Y-71938999I0J-249999D01*
G01*
X95769000Y-72764001D01*
G75*
G02*
X95519001Y-73014000I-249999J0D01*
G01*
X94218999Y-73014000D01*
G75*
G02*
X93969000Y-72764001I0J249999D01*
G01*
X93969000Y-71938999D01*
G75*
G02*
X94218999Y-71689000I249999J0D01*
G01*
G37*
G04 #@! TD.AperFunction*
G04 #@! TD*
G04 #@! TO.P,C10,2*
G04 #@! TO.N,Net-(C10-Pad2)*
G04 #@! TA.AperFunction,SMDPad,CuDef*
G36*
G01*
X80248999Y-74687000D02*
X81549001Y-74687000D01*
G75*
G02*
X81799000Y-74936999I0J-249999D01*
G01*
X81799000Y-75762001D01*
G75*
G02*
X81549001Y-76012000I-249999J0D01*
G01*
X80248999Y-76012000D01*
G75*
G02*
X79999000Y-75762001I0J249999D01*
G01*
X79999000Y-74936999D01*
G75*
G02*
X80248999Y-74687000I249999J0D01*
G01*
G37*
G04 #@! TD.AperFunction*
G04 #@! TO.P,C10,1*
G04 #@! TO.N,+3V3*
G04 #@! TA.AperFunction,SMDPad,CuDef*
G36*
G01*
X80248999Y-71562000D02*
X81549001Y-71562000D01*
G75*
G02*
X81799000Y-71811999I0J-249999D01*
G01*
X81799000Y-72637001D01*
G75*
G02*
X81549001Y-72887000I-249999J0D01*
G01*
X80248999Y-72887000D01*
G75*
G02*
X79999000Y-72637001I0J249999D01*
G01*
X79999000Y-71811999D01*
G75*
G02*
X80248999Y-71562000I249999J0D01*
G01*
G37*
G04 #@! TD.AperFunction*
G04 #@! TD*
D14*
G04 #@! TO.P,Q7,3*
G04 #@! TO.N,Net-(Q7-Pad3)*
X105791000Y-77700000D03*
G04 #@! TO.P,Q7,2*
G04 #@! TO.N,Net-(D4-Pad2)*
X104841000Y-74700000D03*
G04 #@! TO.P,Q7,1*
G04 #@! TO.N,Net-(C13-Pad2)*
X106741000Y-74700000D03*
G04 #@! TD*
G04 #@! TO.P,Q5,3*
G04 #@! TO.N,Net-(Q5-Pad3)*
X119634000Y-77700000D03*
G04 #@! TO.P,Q5,2*
G04 #@! TO.N,Net-(D3-Pad2)*
X118684000Y-74700000D03*
G04 #@! TO.P,Q5,1*
G04 #@! TO.N,Net-(C12-Pad2)*
X120584000Y-74700000D03*
G04 #@! TD*
G04 #@! TO.P,Q3,3*
G04 #@! TO.N,Net-(Q3-Pad3)*
X91821000Y-77700000D03*
G04 #@! TO.P,Q3,2*
G04 #@! TO.N,Net-(D2-Pad2)*
X90871000Y-74700000D03*
G04 #@! TO.P,Q3,1*
G04 #@! TO.N,Net-(C11-Pad2)*
X92771000Y-74700000D03*
G04 #@! TD*
G04 #@! TO.P,Q1,3*
G04 #@! TO.N,Net-(Q1-Pad3)*
X77851000Y-77573000D03*
G04 #@! TO.P,Q1,2*
G04 #@! TO.N,Net-(D1-Pad2)*
X76901000Y-74573000D03*
G04 #@! TO.P,Q1,1*
G04 #@! TO.N,Net-(C10-Pad2)*
X78801000Y-74573000D03*
G04 #@! TD*
G04 #@! TO.P,R22,2*
G04 #@! TO.N,Net-(J4-Pad2)*
G04 #@! TA.AperFunction,SMDPad,CuDef*
G36*
G01*
X108194000Y-146394000D02*
X106944000Y-146394000D01*
G75*
G02*
X106694000Y-146144000I0J250000D01*
G01*
X106694000Y-145344000D01*
G75*
G02*
X106944000Y-145094000I250000J0D01*
G01*
X108194000Y-145094000D01*
G75*
G02*
X108444000Y-145344000I0J-250000D01*
G01*
X108444000Y-146144000D01*
G75*
G02*
X108194000Y-146394000I-250000J0D01*
G01*
G37*
G04 #@! TD.AperFunction*
G04 #@! TO.P,R22,1*
G04 #@! TO.N,+3V3*
G04 #@! TA.AperFunction,SMDPad,CuDef*
G36*
G01*
X108194000Y-149494000D02*
X106944000Y-149494000D01*
G75*
G02*
X106694000Y-149244000I0J250000D01*
G01*
X106694000Y-148444000D01*
G75*
G02*
X106944000Y-148194000I250000J0D01*
G01*
X108194000Y-148194000D01*
G75*
G02*
X108444000Y-148444000I0J-250000D01*
G01*
X108444000Y-149244000D01*
G75*
G02*
X108194000Y-149494000I-250000J0D01*
G01*
G37*
G04 #@! TD.AperFunction*
G04 #@! TD*
G04 #@! TO.P,R21,2*
G04 #@! TO.N,Net-(J4-Pad1)*
G04 #@! TA.AperFunction,SMDPad,CuDef*
G36*
G01*
X105781000Y-146420000D02*
X104531000Y-146420000D01*
G75*
G02*
X104281000Y-146170000I0J250000D01*
G01*
X104281000Y-145370000D01*
G75*
G02*
X104531000Y-145120000I250000J0D01*
G01*
X105781000Y-145120000D01*
G75*
G02*
X106031000Y-145370000I0J-250000D01*
G01*
X106031000Y-146170000D01*
G75*
G02*
X105781000Y-146420000I-250000J0D01*
G01*
G37*
G04 #@! TD.AperFunction*
G04 #@! TO.P,R21,1*
G04 #@! TO.N,+3V3*
G04 #@! TA.AperFunction,SMDPad,CuDef*
G36*
G01*
X105781000Y-149520000D02*
X104531000Y-149520000D01*
G75*
G02*
X104281000Y-149270000I0J250000D01*
G01*
X104281000Y-148470000D01*
G75*
G02*
X104531000Y-148220000I250000J0D01*
G01*
X105781000Y-148220000D01*
G75*
G02*
X106031000Y-148470000I0J-250000D01*
G01*
X106031000Y-149270000D01*
G75*
G02*
X105781000Y-149520000I-250000J0D01*
G01*
G37*
G04 #@! TD.AperFunction*
G04 #@! TD*
D15*
G04 #@! TO.P,J2,8*
G04 #@! TO.N,+12V*
X122300000Y-120500000D03*
G04 #@! TO.P,J2,7*
G04 #@! TO.N,+3.3VA*
X122300000Y-116300000D03*
G04 #@! TO.P,J2,6*
X122300000Y-112100000D03*
G04 #@! TO.P,J2,5*
G04 #@! TO.N,Net-(J2-Pad5)*
X122300000Y-107900000D03*
G04 #@! TO.P,J2,4*
G04 #@! TO.N,Net-(J2-Pad4)*
X127800000Y-120500000D03*
G04 #@! TO.P,J2,3*
G04 #@! TO.N,Net-(J2-Pad3)*
X127800000Y-116300000D03*
G04 #@! TO.P,J2,2*
G04 #@! TO.N,+12V*
X127800000Y-112100000D03*
G04 #@! TO.P,J2,1*
G04 #@! TO.N,Net-(J2-Pad1)*
G04 #@! TA.AperFunction,ComponentPad*
G36*
G01*
X126200001Y-106550000D02*
X129399999Y-106550000D01*
G75*
G02*
X129650000Y-106800001I0J-250001D01*
G01*
X129650000Y-108999999D01*
G75*
G02*
X129399999Y-109250000I-250001J0D01*
G01*
X126200001Y-109250000D01*
G75*
G02*
X125950000Y-108999999I0J250001D01*
G01*
X125950000Y-106800001D01*
G75*
G02*
X126200001Y-106550000I250001J0D01*
G01*
G37*
G04 #@! TD.AperFunction*
G04 #@! TD*
G04 #@! TO.P,J1,8*
G04 #@! TO.N,+12V*
X68300000Y-107900000D03*
G04 #@! TO.P,J1,7*
G04 #@! TO.N,+3.3VA*
X68300000Y-112100000D03*
G04 #@! TO.P,J1,6*
X68300000Y-116300000D03*
G04 #@! TO.P,J1,5*
G04 #@! TO.N,Net-(J1-Pad5)*
X68300000Y-120500000D03*
G04 #@! TO.P,J1,4*
G04 #@! TO.N,Net-(J1-Pad4)*
X62800000Y-107900000D03*
G04 #@! TO.P,J1,3*
G04 #@! TO.N,Net-(J1-Pad3)*
X62800000Y-112100000D03*
G04 #@! TO.P,J1,2*
G04 #@! TO.N,+12V*
X62800000Y-116300000D03*
G04 #@! TO.P,J1,1*
G04 #@! TO.N,Net-(J1-Pad1)*
G04 #@! TA.AperFunction,ComponentPad*
G36*
G01*
X64399999Y-121850000D02*
X61200001Y-121850000D01*
G75*
G02*
X60950000Y-121599999I0J250001D01*
G01*
X60950000Y-119400001D01*
G75*
G02*
X61200001Y-119150000I250001J0D01*
G01*
X64399999Y-119150000D01*
G75*
G02*
X64650000Y-119400001I0J-250001D01*
G01*
X64650000Y-121599999D01*
G75*
G02*
X64399999Y-121850000I-250001J0D01*
G01*
G37*
G04 #@! TD.AperFunction*
G04 #@! TD*
D16*
G04 #@! TO.P,J3,2*
G04 #@! TO.N,GND*
X60200000Y-84250000D03*
X60200000Y-74750000D03*
X55500000Y-84250000D03*
X55500000Y-74750000D03*
D17*
X56000000Y-79500000D03*
D18*
G04 #@! TO.P,J3,1*
G04 #@! TO.N,+12V*
X62000000Y-79500000D03*
G04 #@! TD*
D19*
G04 #@! TO.P,U4,5*
G04 #@! TO.N,+3.3VA*
X72508000Y-145098000D03*
G04 #@! TO.P,U4,4*
G04 #@! TO.N,N/C*
X72508000Y-146998000D03*
G04 #@! TO.P,U4,3*
G04 #@! TO.N,+5V*
X69088000Y-146998000D03*
G04 #@! TO.P,U4,2*
G04 #@! TO.N,GND*
X69088000Y-146048000D03*
G04 #@! TO.P,U4,1*
G04 #@! TO.N,+5V*
X69088000Y-145098000D03*
G04 #@! TD*
G04 #@! TO.P,R20,2*
G04 #@! TO.N,Net-(C7-Pad1)*
G04 #@! TA.AperFunction,SMDPad,CuDef*
G36*
G01*
X107532000Y-126501999D02*
X107532000Y-127752001D01*
G75*
G02*
X107282001Y-128002000I-249999J0D01*
G01*
X106481999Y-128002000D01*
G75*
G02*
X106232000Y-127752001I0J249999D01*
G01*
X106232000Y-126501999D01*
G75*
G02*
X106481999Y-126252000I249999J0D01*
G01*
X107282001Y-126252000D01*
G75*
G02*
X107532000Y-126501999I0J-249999D01*
G01*
G37*
G04 #@! TD.AperFunction*
G04 #@! TO.P,R20,1*
G04 #@! TO.N,Net-(J2-Pad1)*
G04 #@! TA.AperFunction,SMDPad,CuDef*
G36*
G01*
X110632000Y-126501999D02*
X110632000Y-127752001D01*
G75*
G02*
X110382001Y-128002000I-249999J0D01*
G01*
X109581999Y-128002000D01*
G75*
G02*
X109332000Y-127752001I0J249999D01*
G01*
X109332000Y-126501999D01*
G75*
G02*
X109581999Y-126252000I249999J0D01*
G01*
X110382001Y-126252000D01*
G75*
G02*
X110632000Y-126501999I0J-249999D01*
G01*
G37*
G04 #@! TD.AperFunction*
G04 #@! TD*
G04 #@! TO.P,R19,2*
G04 #@! TO.N,Net-(C6-Pad1)*
G04 #@! TA.AperFunction,SMDPad,CuDef*
G36*
G01*
X107558000Y-131581999D02*
X107558000Y-132832001D01*
G75*
G02*
X107308001Y-133082000I-249999J0D01*
G01*
X106507999Y-133082000D01*
G75*
G02*
X106258000Y-132832001I0J249999D01*
G01*
X106258000Y-131581999D01*
G75*
G02*
X106507999Y-131332000I249999J0D01*
G01*
X107308001Y-131332000D01*
G75*
G02*
X107558000Y-131581999I0J-249999D01*
G01*
G37*
G04 #@! TD.AperFunction*
G04 #@! TO.P,R19,1*
G04 #@! TO.N,Net-(J2-Pad4)*
G04 #@! TA.AperFunction,SMDPad,CuDef*
G36*
G01*
X110658000Y-131581999D02*
X110658000Y-132832001D01*
G75*
G02*
X110408001Y-133082000I-249999J0D01*
G01*
X109607999Y-133082000D01*
G75*
G02*
X109358000Y-132832001I0J249999D01*
G01*
X109358000Y-131581999D01*
G75*
G02*
X109607999Y-131332000I249999J0D01*
G01*
X110408001Y-131332000D01*
G75*
G02*
X110658000Y-131581999I0J-249999D01*
G01*
G37*
G04 #@! TD.AperFunction*
G04 #@! TD*
G04 #@! TO.P,R18,2*
G04 #@! TO.N,Net-(C5-Pad1)*
G04 #@! TA.AperFunction,SMDPad,CuDef*
G36*
G01*
X83170000Y-132832001D02*
X83170000Y-131581999D01*
G75*
G02*
X83419999Y-131332000I249999J0D01*
G01*
X84220001Y-131332000D01*
G75*
G02*
X84470000Y-131581999I0J-249999D01*
G01*
X84470000Y-132832001D01*
G75*
G02*
X84220001Y-133082000I-249999J0D01*
G01*
X83419999Y-133082000D01*
G75*
G02*
X83170000Y-132832001I0J249999D01*
G01*
G37*
G04 #@! TD.AperFunction*
G04 #@! TO.P,R18,1*
G04 #@! TO.N,Net-(J1-Pad1)*
G04 #@! TA.AperFunction,SMDPad,CuDef*
G36*
G01*
X80070000Y-132832001D02*
X80070000Y-131581999D01*
G75*
G02*
X80319999Y-131332000I249999J0D01*
G01*
X81120001Y-131332000D01*
G75*
G02*
X81370000Y-131581999I0J-249999D01*
G01*
X81370000Y-132832001D01*
G75*
G02*
X81120001Y-133082000I-249999J0D01*
G01*
X80319999Y-133082000D01*
G75*
G02*
X80070000Y-132832001I0J249999D01*
G01*
G37*
G04 #@! TD.AperFunction*
G04 #@! TD*
G04 #@! TO.P,R17,2*
G04 #@! TO.N,Net-(C4-Pad1)*
G04 #@! TA.AperFunction,SMDPad,CuDef*
G36*
G01*
X83170000Y-127752001D02*
X83170000Y-126501999D01*
G75*
G02*
X83419999Y-126252000I249999J0D01*
G01*
X84220001Y-126252000D01*
G75*
G02*
X84470000Y-126501999I0J-249999D01*
G01*
X84470000Y-127752001D01*
G75*
G02*
X84220001Y-128002000I-249999J0D01*
G01*
X83419999Y-128002000D01*
G75*
G02*
X83170000Y-127752001I0J249999D01*
G01*
G37*
G04 #@! TD.AperFunction*
G04 #@! TO.P,R17,1*
G04 #@! TO.N,Net-(J1-Pad4)*
G04 #@! TA.AperFunction,SMDPad,CuDef*
G36*
G01*
X80070000Y-127752001D02*
X80070000Y-126501999D01*
G75*
G02*
X80319999Y-126252000I249999J0D01*
G01*
X81120001Y-126252000D01*
G75*
G02*
X81370000Y-126501999I0J-249999D01*
G01*
X81370000Y-127752001D01*
G75*
G02*
X81120001Y-128002000I-249999J0D01*
G01*
X80319999Y-128002000D01*
G75*
G02*
X80070000Y-127752001I0J249999D01*
G01*
G37*
G04 #@! TD.AperFunction*
G04 #@! TD*
G04 #@! TO.P,C9,2*
G04 #@! TO.N,GND*
G04 #@! TA.AperFunction,SMDPad,CuDef*
G36*
G01*
X73294003Y-140830000D02*
X71993997Y-140830000D01*
G75*
G02*
X71744000Y-140580003I0J249997D01*
G01*
X71744000Y-139754997D01*
G75*
G02*
X71993997Y-139505000I249997J0D01*
G01*
X73294003Y-139505000D01*
G75*
G02*
X73544000Y-139754997I0J-249997D01*
G01*
X73544000Y-140580003D01*
G75*
G02*
X73294003Y-140830000I-249997J0D01*
G01*
G37*
G04 #@! TD.AperFunction*
G04 #@! TO.P,C9,1*
G04 #@! TO.N,+3.3VA*
G04 #@! TA.AperFunction,SMDPad,CuDef*
G36*
G01*
X73294003Y-143955000D02*
X71993997Y-143955000D01*
G75*
G02*
X71744000Y-143705003I0J249997D01*
G01*
X71744000Y-142879997D01*
G75*
G02*
X71993997Y-142630000I249997J0D01*
G01*
X73294003Y-142630000D01*
G75*
G02*
X73544000Y-142879997I0J-249997D01*
G01*
X73544000Y-143705003D01*
G75*
G02*
X73294003Y-143955000I-249997J0D01*
G01*
G37*
G04 #@! TD.AperFunction*
G04 #@! TD*
G04 #@! TO.P,C8,2*
G04 #@! TO.N,GND*
G04 #@! TA.AperFunction,SMDPad,CuDef*
G36*
G01*
X68214003Y-140791500D02*
X66913997Y-140791500D01*
G75*
G02*
X66664000Y-140541503I0J249997D01*
G01*
X66664000Y-139716497D01*
G75*
G02*
X66913997Y-139466500I249997J0D01*
G01*
X68214003Y-139466500D01*
G75*
G02*
X68464000Y-139716497I0J-249997D01*
G01*
X68464000Y-140541503D01*
G75*
G02*
X68214003Y-140791500I-249997J0D01*
G01*
G37*
G04 #@! TD.AperFunction*
G04 #@! TO.P,C8,1*
G04 #@! TO.N,+5V*
G04 #@! TA.AperFunction,SMDPad,CuDef*
G36*
G01*
X68214003Y-143916500D02*
X66913997Y-143916500D01*
G75*
G02*
X66664000Y-143666503I0J249997D01*
G01*
X66664000Y-142841497D01*
G75*
G02*
X66913997Y-142591500I249997J0D01*
G01*
X68214003Y-142591500D01*
G75*
G02*
X68464000Y-142841497I0J-249997D01*
G01*
X68464000Y-143666503D01*
G75*
G02*
X68214003Y-143916500I-249997J0D01*
G01*
G37*
G04 #@! TD.AperFunction*
G04 #@! TD*
G04 #@! TO.P,C7,2*
G04 #@! TO.N,GND*
G04 #@! TA.AperFunction,SMDPad,CuDef*
G36*
G01*
X103223500Y-126378003D02*
X103223500Y-125077997D01*
G75*
G02*
X103473497Y-124828000I249997J0D01*
G01*
X104298503Y-124828000D01*
G75*
G02*
X104548500Y-125077997I0J-249997D01*
G01*
X104548500Y-126378003D01*
G75*
G02*
X104298503Y-126628000I-249997J0D01*
G01*
X103473497Y-126628000D01*
G75*
G02*
X103223500Y-126378003I0J249997D01*
G01*
G37*
G04 #@! TD.AperFunction*
G04 #@! TO.P,C7,1*
G04 #@! TO.N,Net-(C7-Pad1)*
G04 #@! TA.AperFunction,SMDPad,CuDef*
G36*
G01*
X100098500Y-126378003D02*
X100098500Y-125077997D01*
G75*
G02*
X100348497Y-124828000I249997J0D01*
G01*
X101173503Y-124828000D01*
G75*
G02*
X101423500Y-125077997I0J-249997D01*
G01*
X101423500Y-126378003D01*
G75*
G02*
X101173503Y-126628000I-249997J0D01*
G01*
X100348497Y-126628000D01*
G75*
G02*
X100098500Y-126378003I0J249997D01*
G01*
G37*
G04 #@! TD.AperFunction*
G04 #@! TD*
G04 #@! TO.P,C6,2*
G04 #@! TO.N,GND*
G04 #@! TA.AperFunction,SMDPad,CuDef*
G36*
G01*
X103262000Y-134252003D02*
X103262000Y-132951997D01*
G75*
G02*
X103511997Y-132702000I249997J0D01*
G01*
X104337003Y-132702000D01*
G75*
G02*
X104587000Y-132951997I0J-249997D01*
G01*
X104587000Y-134252003D01*
G75*
G02*
X104337003Y-134502000I-249997J0D01*
G01*
X103511997Y-134502000D01*
G75*
G02*
X103262000Y-134252003I0J249997D01*
G01*
G37*
G04 #@! TD.AperFunction*
G04 #@! TO.P,C6,1*
G04 #@! TO.N,Net-(C6-Pad1)*
G04 #@! TA.AperFunction,SMDPad,CuDef*
G36*
G01*
X100137000Y-134252003D02*
X100137000Y-132951997D01*
G75*
G02*
X100386997Y-132702000I249997J0D01*
G01*
X101212003Y-132702000D01*
G75*
G02*
X101462000Y-132951997I0J-249997D01*
G01*
X101462000Y-134252003D01*
G75*
G02*
X101212003Y-134502000I-249997J0D01*
G01*
X100386997Y-134502000D01*
G75*
G02*
X100137000Y-134252003I0J249997D01*
G01*
G37*
G04 #@! TD.AperFunction*
G04 #@! TD*
G04 #@! TO.P,C5,2*
G04 #@! TO.N,GND*
G04 #@! TA.AperFunction,SMDPad,CuDef*
G36*
G01*
X87492000Y-132951997D02*
X87492000Y-134252003D01*
G75*
G02*
X87242003Y-134502000I-249997J0D01*
G01*
X86416997Y-134502000D01*
G75*
G02*
X86167000Y-134252003I0J249997D01*
G01*
X86167000Y-132951997D01*
G75*
G02*
X86416997Y-132702000I249997J0D01*
G01*
X87242003Y-132702000D01*
G75*
G02*
X87492000Y-132951997I0J-249997D01*
G01*
G37*
G04 #@! TD.AperFunction*
G04 #@! TO.P,C5,1*
G04 #@! TO.N,Net-(C5-Pad1)*
G04 #@! TA.AperFunction,SMDPad,CuDef*
G36*
G01*
X90617000Y-132951997D02*
X90617000Y-134252003D01*
G75*
G02*
X90367003Y-134502000I-249997J0D01*
G01*
X89541997Y-134502000D01*
G75*
G02*
X89292000Y-134252003I0J249997D01*
G01*
X89292000Y-132951997D01*
G75*
G02*
X89541997Y-132702000I249997J0D01*
G01*
X90367003Y-132702000D01*
G75*
G02*
X90617000Y-132951997I0J-249997D01*
G01*
G37*
G04 #@! TD.AperFunction*
G04 #@! TD*
G04 #@! TO.P,C4,2*
G04 #@! TO.N,GND*
G04 #@! TA.AperFunction,SMDPad,CuDef*
G36*
G01*
X87492000Y-125077997D02*
X87492000Y-126378003D01*
G75*
G02*
X87242003Y-126628000I-249997J0D01*
G01*
X86416997Y-126628000D01*
G75*
G02*
X86167000Y-126378003I0J249997D01*
G01*
X86167000Y-125077997D01*
G75*
G02*
X86416997Y-124828000I249997J0D01*
G01*
X87242003Y-124828000D01*
G75*
G02*
X87492000Y-125077997I0J-249997D01*
G01*
G37*
G04 #@! TD.AperFunction*
G04 #@! TO.P,C4,1*
G04 #@! TO.N,Net-(C4-Pad1)*
G04 #@! TA.AperFunction,SMDPad,CuDef*
G36*
G01*
X90617000Y-125077997D02*
X90617000Y-126378003D01*
G75*
G02*
X90367003Y-126628000I-249997J0D01*
G01*
X89541997Y-126628000D01*
G75*
G02*
X89292000Y-126378003I0J249997D01*
G01*
X89292000Y-125077997D01*
G75*
G02*
X89541997Y-124828000I249997J0D01*
G01*
X90367003Y-124828000D01*
G75*
G02*
X90617000Y-125077997I0J-249997D01*
G01*
G37*
G04 #@! TD.AperFunction*
G04 #@! TD*
D20*
G04 #@! TO.P,J4,4*
G04 #@! TO.N,GND*
X111203740Y-141351000D03*
G04 #@! TO.P,J4,3*
G04 #@! TO.N,+3V3*
X109202220Y-141351000D03*
G04 #@! TO.P,J4,2*
G04 #@! TO.N,Net-(J4-Pad2)*
X107205780Y-141351000D03*
D21*
G04 #@! TO.P,J4,1*
G04 #@! TO.N,Net-(J4-Pad1)*
X105204260Y-141351000D03*
G04 #@! TD*
D22*
G04 #@! TO.P,Q2,2*
G04 #@! TO.N,Net-(J1-Pad3)*
X75946000Y-98879000D03*
D23*
G04 #@! TO.P,Q2,3*
G04 #@! TO.N,GND*
X73406000Y-89729000D03*
G04 #@! TO.P,Q2,1*
G04 #@! TO.N,Net-(Q1-Pad3)*
X78486000Y-89729000D03*
G04 #@! TD*
G04 #@! TO.P,R15,2*
G04 #@! TO.N,GND*
G04 #@! TA.AperFunction,SMDPad,CuDef*
G36*
G01*
X103262000Y-131433001D02*
X103262000Y-130182999D01*
G75*
G02*
X103511999Y-129933000I249999J0D01*
G01*
X104312001Y-129933000D01*
G75*
G02*
X104562000Y-130182999I0J-249999D01*
G01*
X104562000Y-131433001D01*
G75*
G02*
X104312001Y-131683000I-249999J0D01*
G01*
X103511999Y-131683000D01*
G75*
G02*
X103262000Y-131433001I0J249999D01*
G01*
G37*
G04 #@! TD.AperFunction*
G04 #@! TO.P,R15,1*
G04 #@! TO.N,Net-(C6-Pad1)*
G04 #@! TA.AperFunction,SMDPad,CuDef*
G36*
G01*
X100162000Y-131433001D02*
X100162000Y-130182999D01*
G75*
G02*
X100411999Y-129933000I249999J0D01*
G01*
X101212001Y-129933000D01*
G75*
G02*
X101462000Y-130182999I0J-249999D01*
G01*
X101462000Y-131433001D01*
G75*
G02*
X101212001Y-131683000I-249999J0D01*
G01*
X100411999Y-131683000D01*
G75*
G02*
X100162000Y-131433001I0J249999D01*
G01*
G37*
G04 #@! TD.AperFunction*
G04 #@! TD*
D24*
G04 #@! TO.P,U2,2*
G04 #@! TO.N,Net-(FB2-Pad1)*
X65346000Y-132840000D03*
D25*
G04 #@! TO.P,U2,3*
G04 #@! TO.N,Net-(FB1-Pad2)*
X59046000Y-135120000D03*
G04 #@! TO.P,U2,1*
G04 #@! TO.N,+12V*
X59046000Y-130560000D03*
G04 #@! TD*
G04 #@! TO.P,R16,2*
G04 #@! TO.N,GND*
G04 #@! TA.AperFunction,SMDPad,CuDef*
G36*
G01*
X103262000Y-129149001D02*
X103262000Y-127898999D01*
G75*
G02*
X103511999Y-127649000I249999J0D01*
G01*
X104312001Y-127649000D01*
G75*
G02*
X104562000Y-127898999I0J-249999D01*
G01*
X104562000Y-129149001D01*
G75*
G02*
X104312001Y-129399000I-249999J0D01*
G01*
X103511999Y-129399000D01*
G75*
G02*
X103262000Y-129149001I0J249999D01*
G01*
G37*
G04 #@! TD.AperFunction*
G04 #@! TO.P,R16,1*
G04 #@! TO.N,Net-(C7-Pad1)*
G04 #@! TA.AperFunction,SMDPad,CuDef*
G36*
G01*
X100162000Y-129149001D02*
X100162000Y-127898999D01*
G75*
G02*
X100411999Y-127649000I249999J0D01*
G01*
X101212001Y-127649000D01*
G75*
G02*
X101462000Y-127898999I0J-249999D01*
G01*
X101462000Y-129149001D01*
G75*
G02*
X101212001Y-129399000I-249999J0D01*
G01*
X100411999Y-129399000D01*
G75*
G02*
X100162000Y-129149001I0J249999D01*
G01*
G37*
G04 #@! TD.AperFunction*
G04 #@! TD*
G04 #@! TO.P,R14,2*
G04 #@! TO.N,GND*
G04 #@! TA.AperFunction,SMDPad,CuDef*
G36*
G01*
X87492000Y-130182999D02*
X87492000Y-131433001D01*
G75*
G02*
X87242001Y-131683000I-249999J0D01*
G01*
X86441999Y-131683000D01*
G75*
G02*
X86192000Y-131433001I0J249999D01*
G01*
X86192000Y-130182999D01*
G75*
G02*
X86441999Y-129933000I249999J0D01*
G01*
X87242001Y-129933000D01*
G75*
G02*
X87492000Y-130182999I0J-249999D01*
G01*
G37*
G04 #@! TD.AperFunction*
G04 #@! TO.P,R14,1*
G04 #@! TO.N,Net-(C5-Pad1)*
G04 #@! TA.AperFunction,SMDPad,CuDef*
G36*
G01*
X90592000Y-130182999D02*
X90592000Y-131433001D01*
G75*
G02*
X90342001Y-131683000I-249999J0D01*
G01*
X89541999Y-131683000D01*
G75*
G02*
X89292000Y-131433001I0J249999D01*
G01*
X89292000Y-130182999D01*
G75*
G02*
X89541999Y-129933000I249999J0D01*
G01*
X90342001Y-129933000D01*
G75*
G02*
X90592000Y-130182999I0J-249999D01*
G01*
G37*
G04 #@! TD.AperFunction*
G04 #@! TD*
G04 #@! TO.P,R13,2*
G04 #@! TO.N,GND*
G04 #@! TA.AperFunction,SMDPad,CuDef*
G36*
G01*
X87492000Y-127898999D02*
X87492000Y-129149001D01*
G75*
G02*
X87242001Y-129399000I-249999J0D01*
G01*
X86441999Y-129399000D01*
G75*
G02*
X86192000Y-129149001I0J249999D01*
G01*
X86192000Y-127898999D01*
G75*
G02*
X86441999Y-127649000I249999J0D01*
G01*
X87242001Y-127649000D01*
G75*
G02*
X87492000Y-127898999I0J-249999D01*
G01*
G37*
G04 #@! TD.AperFunction*
G04 #@! TO.P,R13,1*
G04 #@! TO.N,Net-(C4-Pad1)*
G04 #@! TA.AperFunction,SMDPad,CuDef*
G36*
G01*
X90592000Y-127898999D02*
X90592000Y-129149001D01*
G75*
G02*
X90342001Y-129399000I-249999J0D01*
G01*
X89541999Y-129399000D01*
G75*
G02*
X89292000Y-129149001I0J249999D01*
G01*
X89292000Y-127898999D01*
G75*
G02*
X89541999Y-127649000I249999J0D01*
G01*
X90342001Y-127649000D01*
G75*
G02*
X90592000Y-127898999I0J-249999D01*
G01*
G37*
G04 #@! TD.AperFunction*
G04 #@! TD*
G04 #@! TO.P,R12,2*
G04 #@! TO.N,Net-(Q7-Pad3)*
G04 #@! TA.AperFunction,SMDPad,CuDef*
G36*
G01*
X102119000Y-78222001D02*
X102119000Y-76971999D01*
G75*
G02*
X102368999Y-76722000I249999J0D01*
G01*
X103169001Y-76722000D01*
G75*
G02*
X103419000Y-76971999I0J-249999D01*
G01*
X103419000Y-78222001D01*
G75*
G02*
X103169001Y-78472000I-249999J0D01*
G01*
X102368999Y-78472000D01*
G75*
G02*
X102119000Y-78222001I0J249999D01*
G01*
G37*
G04 #@! TD.AperFunction*
G04 #@! TO.P,R12,1*
G04 #@! TO.N,+12V*
G04 #@! TA.AperFunction,SMDPad,CuDef*
G36*
G01*
X99019000Y-78222001D02*
X99019000Y-76971999D01*
G75*
G02*
X99268999Y-76722000I249999J0D01*
G01*
X100069001Y-76722000D01*
G75*
G02*
X100319000Y-76971999I0J-249999D01*
G01*
X100319000Y-78222001D01*
G75*
G02*
X100069001Y-78472000I-249999J0D01*
G01*
X99268999Y-78472000D01*
G75*
G02*
X99019000Y-78222001I0J249999D01*
G01*
G37*
G04 #@! TD.AperFunction*
G04 #@! TD*
G04 #@! TO.P,R11,2*
G04 #@! TO.N,Net-(C13-Pad2)*
G04 #@! TA.AperFunction,SMDPad,CuDef*
G36*
G01*
X110626999Y-74687000D02*
X111877001Y-74687000D01*
G75*
G02*
X112127000Y-74936999I0J-249999D01*
G01*
X112127000Y-75737001D01*
G75*
G02*
X111877001Y-75987000I-249999J0D01*
G01*
X110626999Y-75987000D01*
G75*
G02*
X110377000Y-75737001I0J249999D01*
G01*
X110377000Y-74936999D01*
G75*
G02*
X110626999Y-74687000I249999J0D01*
G01*
G37*
G04 #@! TD.AperFunction*
G04 #@! TO.P,R11,1*
G04 #@! TO.N,+3V3*
G04 #@! TA.AperFunction,SMDPad,CuDef*
G36*
G01*
X110626999Y-71587000D02*
X111877001Y-71587000D01*
G75*
G02*
X112127000Y-71836999I0J-249999D01*
G01*
X112127000Y-72637001D01*
G75*
G02*
X111877001Y-72887000I-249999J0D01*
G01*
X110626999Y-72887000D01*
G75*
G02*
X110377000Y-72637001I0J249999D01*
G01*
X110377000Y-71836999D01*
G75*
G02*
X110626999Y-71587000I249999J0D01*
G01*
G37*
G04 #@! TD.AperFunction*
G04 #@! TD*
G04 #@! TO.P,R10,2*
G04 #@! TO.N,GND*
G04 #@! TA.AperFunction,SMDPad,CuDef*
G36*
G01*
X102246000Y-72761001D02*
X102246000Y-71510999D01*
G75*
G02*
X102495999Y-71261000I249999J0D01*
G01*
X103296001Y-71261000D01*
G75*
G02*
X103546000Y-71510999I0J-249999D01*
G01*
X103546000Y-72761001D01*
G75*
G02*
X103296001Y-73011000I-249999J0D01*
G01*
X102495999Y-73011000D01*
G75*
G02*
X102246000Y-72761001I0J249999D01*
G01*
G37*
G04 #@! TD.AperFunction*
G04 #@! TO.P,R10,1*
G04 #@! TO.N,Net-(D4-Pad1)*
G04 #@! TA.AperFunction,SMDPad,CuDef*
G36*
G01*
X99146000Y-72761001D02*
X99146000Y-71510999D01*
G75*
G02*
X99395999Y-71261000I249999J0D01*
G01*
X100196001Y-71261000D01*
G75*
G02*
X100446000Y-71510999I0J-249999D01*
G01*
X100446000Y-72761001D01*
G75*
G02*
X100196001Y-73011000I-249999J0D01*
G01*
X99395999Y-73011000D01*
G75*
G02*
X99146000Y-72761001I0J249999D01*
G01*
G37*
G04 #@! TD.AperFunction*
G04 #@! TD*
G04 #@! TO.P,R9,2*
G04 #@! TO.N,Net-(Q5-Pad3)*
G04 #@! TA.AperFunction,SMDPad,CuDef*
G36*
G01*
X116089000Y-78222001D02*
X116089000Y-76971999D01*
G75*
G02*
X116338999Y-76722000I249999J0D01*
G01*
X117139001Y-76722000D01*
G75*
G02*
X117389000Y-76971999I0J-249999D01*
G01*
X117389000Y-78222001D01*
G75*
G02*
X117139001Y-78472000I-249999J0D01*
G01*
X116338999Y-78472000D01*
G75*
G02*
X116089000Y-78222001I0J249999D01*
G01*
G37*
G04 #@! TD.AperFunction*
G04 #@! TO.P,R9,1*
G04 #@! TO.N,+12V*
G04 #@! TA.AperFunction,SMDPad,CuDef*
G36*
G01*
X112989000Y-78222001D02*
X112989000Y-76971999D01*
G75*
G02*
X113238999Y-76722000I249999J0D01*
G01*
X114039001Y-76722000D01*
G75*
G02*
X114289000Y-76971999I0J-249999D01*
G01*
X114289000Y-78222001D01*
G75*
G02*
X114039001Y-78472000I-249999J0D01*
G01*
X113238999Y-78472000D01*
G75*
G02*
X112989000Y-78222001I0J249999D01*
G01*
G37*
G04 #@! TD.AperFunction*
G04 #@! TD*
G04 #@! TO.P,R8,2*
G04 #@! TO.N,Net-(C12-Pad2)*
G04 #@! TA.AperFunction,SMDPad,CuDef*
G36*
G01*
X123179000Y-76717999D02*
X123179000Y-77968001D01*
G75*
G02*
X122929001Y-78218000I-249999J0D01*
G01*
X122128999Y-78218000D01*
G75*
G02*
X121879000Y-77968001I0J249999D01*
G01*
X121879000Y-76717999D01*
G75*
G02*
X122128999Y-76468000I249999J0D01*
G01*
X122929001Y-76468000D01*
G75*
G02*
X123179000Y-76717999I0J-249999D01*
G01*
G37*
G04 #@! TD.AperFunction*
G04 #@! TO.P,R8,1*
G04 #@! TO.N,+3V3*
G04 #@! TA.AperFunction,SMDPad,CuDef*
G36*
G01*
X126279000Y-76717999D02*
X126279000Y-77968001D01*
G75*
G02*
X126029001Y-78218000I-249999J0D01*
G01*
X125228999Y-78218000D01*
G75*
G02*
X124979000Y-77968001I0J249999D01*
G01*
X124979000Y-76717999D01*
G75*
G02*
X125228999Y-76468000I249999J0D01*
G01*
X126029001Y-76468000D01*
G75*
G02*
X126279000Y-76717999I0J-249999D01*
G01*
G37*
G04 #@! TD.AperFunction*
G04 #@! TD*
G04 #@! TO.P,R7,2*
G04 #@! TO.N,GND*
G04 #@! TA.AperFunction,SMDPad,CuDef*
G36*
G01*
X116089000Y-72761001D02*
X116089000Y-71510999D01*
G75*
G02*
X116338999Y-71261000I249999J0D01*
G01*
X117139001Y-71261000D01*
G75*
G02*
X117389000Y-71510999I0J-249999D01*
G01*
X117389000Y-72761001D01*
G75*
G02*
X117139001Y-73011000I-249999J0D01*
G01*
X116338999Y-73011000D01*
G75*
G02*
X116089000Y-72761001I0J249999D01*
G01*
G37*
G04 #@! TD.AperFunction*
G04 #@! TO.P,R7,1*
G04 #@! TO.N,Net-(D3-Pad1)*
G04 #@! TA.AperFunction,SMDPad,CuDef*
G36*
G01*
X112989000Y-72761001D02*
X112989000Y-71510999D01*
G75*
G02*
X113238999Y-71261000I249999J0D01*
G01*
X114039001Y-71261000D01*
G75*
G02*
X114289000Y-71510999I0J-249999D01*
G01*
X114289000Y-72761001D01*
G75*
G02*
X114039001Y-73011000I-249999J0D01*
G01*
X113238999Y-73011000D01*
G75*
G02*
X112989000Y-72761001I0J249999D01*
G01*
G37*
G04 #@! TD.AperFunction*
G04 #@! TD*
G04 #@! TO.P,R6,2*
G04 #@! TO.N,+12V*
G04 #@! TA.AperFunction,SMDPad,CuDef*
G36*
G01*
X86349000Y-76971999D02*
X86349000Y-78222001D01*
G75*
G02*
X86099001Y-78472000I-249999J0D01*
G01*
X85298999Y-78472000D01*
G75*
G02*
X85049000Y-78222001I0J249999D01*
G01*
X85049000Y-76971999D01*
G75*
G02*
X85298999Y-76722000I249999J0D01*
G01*
X86099001Y-76722000D01*
G75*
G02*
X86349000Y-76971999I0J-249999D01*
G01*
G37*
G04 #@! TD.AperFunction*
G04 #@! TO.P,R6,1*
G04 #@! TO.N,Net-(Q3-Pad3)*
G04 #@! TA.AperFunction,SMDPad,CuDef*
G36*
G01*
X89449000Y-76971999D02*
X89449000Y-78222001D01*
G75*
G02*
X89199001Y-78472000I-249999J0D01*
G01*
X88398999Y-78472000D01*
G75*
G02*
X88149000Y-78222001I0J249999D01*
G01*
X88149000Y-76971999D01*
G75*
G02*
X88398999Y-76722000I249999J0D01*
G01*
X89199001Y-76722000D01*
G75*
G02*
X89449000Y-76971999I0J-249999D01*
G01*
G37*
G04 #@! TD.AperFunction*
G04 #@! TD*
G04 #@! TO.P,R5,2*
G04 #@! TO.N,Net-(C11-Pad2)*
G04 #@! TA.AperFunction,SMDPad,CuDef*
G36*
G01*
X96656999Y-74788000D02*
X97907001Y-74788000D01*
G75*
G02*
X98157000Y-75037999I0J-249999D01*
G01*
X98157000Y-75838001D01*
G75*
G02*
X97907001Y-76088000I-249999J0D01*
G01*
X96656999Y-76088000D01*
G75*
G02*
X96407000Y-75838001I0J249999D01*
G01*
X96407000Y-75037999D01*
G75*
G02*
X96656999Y-74788000I249999J0D01*
G01*
G37*
G04 #@! TD.AperFunction*
G04 #@! TO.P,R5,1*
G04 #@! TO.N,+3V3*
G04 #@! TA.AperFunction,SMDPad,CuDef*
G36*
G01*
X96656999Y-71688000D02*
X97907001Y-71688000D01*
G75*
G02*
X98157000Y-71937999I0J-249999D01*
G01*
X98157000Y-72738001D01*
G75*
G02*
X97907001Y-72988000I-249999J0D01*
G01*
X96656999Y-72988000D01*
G75*
G02*
X96407000Y-72738001I0J249999D01*
G01*
X96407000Y-71937999D01*
G75*
G02*
X96656999Y-71688000I249999J0D01*
G01*
G37*
G04 #@! TD.AperFunction*
G04 #@! TD*
G04 #@! TO.P,R4,2*
G04 #@! TO.N,GND*
G04 #@! TA.AperFunction,SMDPad,CuDef*
G36*
G01*
X88149000Y-72761001D02*
X88149000Y-71510999D01*
G75*
G02*
X88398999Y-71261000I249999J0D01*
G01*
X89199001Y-71261000D01*
G75*
G02*
X89449000Y-71510999I0J-249999D01*
G01*
X89449000Y-72761001D01*
G75*
G02*
X89199001Y-73011000I-249999J0D01*
G01*
X88398999Y-73011000D01*
G75*
G02*
X88149000Y-72761001I0J249999D01*
G01*
G37*
G04 #@! TD.AperFunction*
G04 #@! TO.P,R4,1*
G04 #@! TO.N,Net-(D2-Pad1)*
G04 #@! TA.AperFunction,SMDPad,CuDef*
G36*
G01*
X85049000Y-72761001D02*
X85049000Y-71510999D01*
G75*
G02*
X85298999Y-71261000I249999J0D01*
G01*
X86099001Y-71261000D01*
G75*
G02*
X86349000Y-71510999I0J-249999D01*
G01*
X86349000Y-72761001D01*
G75*
G02*
X86099001Y-73011000I-249999J0D01*
G01*
X85298999Y-73011000D01*
G75*
G02*
X85049000Y-72761001I0J249999D01*
G01*
G37*
G04 #@! TD.AperFunction*
G04 #@! TD*
G04 #@! TO.P,R3,2*
G04 #@! TO.N,Net-(Q1-Pad3)*
G04 #@! TA.AperFunction,SMDPad,CuDef*
G36*
G01*
X74306000Y-78222001D02*
X74306000Y-76971999D01*
G75*
G02*
X74555999Y-76722000I249999J0D01*
G01*
X75356001Y-76722000D01*
G75*
G02*
X75606000Y-76971999I0J-249999D01*
G01*
X75606000Y-78222001D01*
G75*
G02*
X75356001Y-78472000I-249999J0D01*
G01*
X74555999Y-78472000D01*
G75*
G02*
X74306000Y-78222001I0J249999D01*
G01*
G37*
G04 #@! TD.AperFunction*
G04 #@! TO.P,R3,1*
G04 #@! TO.N,+12V*
G04 #@! TA.AperFunction,SMDPad,CuDef*
G36*
G01*
X71206000Y-78222001D02*
X71206000Y-76971999D01*
G75*
G02*
X71455999Y-76722000I249999J0D01*
G01*
X72256001Y-76722000D01*
G75*
G02*
X72506000Y-76971999I0J-249999D01*
G01*
X72506000Y-78222001D01*
G75*
G02*
X72256001Y-78472000I-249999J0D01*
G01*
X71455999Y-78472000D01*
G75*
G02*
X71206000Y-78222001I0J249999D01*
G01*
G37*
G04 #@! TD.AperFunction*
G04 #@! TD*
G04 #@! TO.P,R2,2*
G04 #@! TO.N,Net-(C10-Pad2)*
G04 #@! TA.AperFunction,SMDPad,CuDef*
G36*
G01*
X82686999Y-74687000D02*
X83937001Y-74687000D01*
G75*
G02*
X84187000Y-74936999I0J-249999D01*
G01*
X84187000Y-75737001D01*
G75*
G02*
X83937001Y-75987000I-249999J0D01*
G01*
X82686999Y-75987000D01*
G75*
G02*
X82437000Y-75737001I0J249999D01*
G01*
X82437000Y-74936999D01*
G75*
G02*
X82686999Y-74687000I249999J0D01*
G01*
G37*
G04 #@! TD.AperFunction*
G04 #@! TO.P,R2,1*
G04 #@! TO.N,+3V3*
G04 #@! TA.AperFunction,SMDPad,CuDef*
G36*
G01*
X82686999Y-71587000D02*
X83937001Y-71587000D01*
G75*
G02*
X84187000Y-71836999I0J-249999D01*
G01*
X84187000Y-72637001D01*
G75*
G02*
X83937001Y-72887000I-249999J0D01*
G01*
X82686999Y-72887000D01*
G75*
G02*
X82437000Y-72637001I0J249999D01*
G01*
X82437000Y-71836999D01*
G75*
G02*
X82686999Y-71587000I249999J0D01*
G01*
G37*
G04 #@! TD.AperFunction*
G04 #@! TD*
G04 #@! TO.P,R1,2*
G04 #@! TO.N,GND*
G04 #@! TA.AperFunction,SMDPad,CuDef*
G36*
G01*
X74306000Y-72761001D02*
X74306000Y-71510999D01*
G75*
G02*
X74555999Y-71261000I249999J0D01*
G01*
X75356001Y-71261000D01*
G75*
G02*
X75606000Y-71510999I0J-249999D01*
G01*
X75606000Y-72761001D01*
G75*
G02*
X75356001Y-73011000I-249999J0D01*
G01*
X74555999Y-73011000D01*
G75*
G02*
X74306000Y-72761001I0J249999D01*
G01*
G37*
G04 #@! TD.AperFunction*
G04 #@! TO.P,R1,1*
G04 #@! TO.N,Net-(D1-Pad1)*
G04 #@! TA.AperFunction,SMDPad,CuDef*
G36*
G01*
X71206000Y-72761001D02*
X71206000Y-71510999D01*
G75*
G02*
X71455999Y-71261000I249999J0D01*
G01*
X72256001Y-71261000D01*
G75*
G02*
X72506000Y-71510999I0J-249999D01*
G01*
X72506000Y-72761001D01*
G75*
G02*
X72256001Y-73011000I-249999J0D01*
G01*
X71455999Y-73011000D01*
G75*
G02*
X71206000Y-72761001I0J249999D01*
G01*
G37*
G04 #@! TD.AperFunction*
G04 #@! TD*
G04 #@! TO.P,FB2,2*
G04 #@! TO.N,GND*
G04 #@! TA.AperFunction,SMDPad,CuDef*
G36*
G01*
X65498000Y-126299999D02*
X65498000Y-127700001D01*
G75*
G02*
X65248001Y-127950000I-249999J0D01*
G01*
X64522999Y-127950000D01*
G75*
G02*
X64273000Y-127700001I0J249999D01*
G01*
X64273000Y-126299999D01*
G75*
G02*
X64522999Y-126050000I249999J0D01*
G01*
X65248001Y-126050000D01*
G75*
G02*
X65498000Y-126299999I0J-249999D01*
G01*
G37*
G04 #@! TD.AperFunction*
G04 #@! TO.P,FB2,1*
G04 #@! TO.N,Net-(FB2-Pad1)*
G04 #@! TA.AperFunction,SMDPad,CuDef*
G36*
G01*
X68823000Y-126299999D02*
X68823000Y-127700001D01*
G75*
G02*
X68573001Y-127950000I-249999J0D01*
G01*
X67847999Y-127950000D01*
G75*
G02*
X67598000Y-127700001I0J249999D01*
G01*
X67598000Y-126299999D01*
G75*
G02*
X67847999Y-126050000I249999J0D01*
G01*
X68573001Y-126050000D01*
G75*
G02*
X68823000Y-126299999I0J-249999D01*
G01*
G37*
G04 #@! TD.AperFunction*
G04 #@! TD*
G04 #@! TO.P,FB1,2*
G04 #@! TO.N,Net-(FB1-Pad2)*
G04 #@! TA.AperFunction,SMDPad,CuDef*
G36*
G01*
X59656000Y-137219999D02*
X59656000Y-138620001D01*
G75*
G02*
X59406001Y-138870000I-249999J0D01*
G01*
X58680999Y-138870000D01*
G75*
G02*
X58431000Y-138620001I0J249999D01*
G01*
X58431000Y-137219999D01*
G75*
G02*
X58680999Y-136970000I249999J0D01*
G01*
X59406001Y-136970000D01*
G75*
G02*
X59656000Y-137219999I0J-249999D01*
G01*
G37*
G04 #@! TD.AperFunction*
G04 #@! TO.P,FB1,1*
G04 #@! TO.N,+5V*
G04 #@! TA.AperFunction,SMDPad,CuDef*
G36*
G01*
X62981000Y-137219999D02*
X62981000Y-138620001D01*
G75*
G02*
X62731001Y-138870000I-249999J0D01*
G01*
X62005999Y-138870000D01*
G75*
G02*
X61756000Y-138620001I0J249999D01*
G01*
X61756000Y-137219999D01*
G75*
G02*
X62005999Y-136970000I249999J0D01*
G01*
X62731001Y-136970000D01*
G75*
G02*
X62981000Y-137219999I0J-249999D01*
G01*
G37*
G04 #@! TD.AperFunction*
G04 #@! TD*
G04 #@! TO.P,D4,2*
G04 #@! TO.N,Net-(D4-Pad2)*
G04 #@! TA.AperFunction,SMDPad,CuDef*
G36*
G01*
X101994000Y-75301000D02*
X101994000Y-74051000D01*
G75*
G02*
X102244000Y-73801000I250000J0D01*
G01*
X103169000Y-73801000D01*
G75*
G02*
X103419000Y-74051000I0J-250000D01*
G01*
X103419000Y-75301000D01*
G75*
G02*
X103169000Y-75551000I-250000J0D01*
G01*
X102244000Y-75551000D01*
G75*
G02*
X101994000Y-75301000I0J250000D01*
G01*
G37*
G04 #@! TD.AperFunction*
G04 #@! TO.P,D4,1*
G04 #@! TO.N,Net-(D4-Pad1)*
G04 #@! TA.AperFunction,SMDPad,CuDef*
G36*
G01*
X99019000Y-75301000D02*
X99019000Y-74051000D01*
G75*
G02*
X99269000Y-73801000I250000J0D01*
G01*
X100194000Y-73801000D01*
G75*
G02*
X100444000Y-74051000I0J-250000D01*
G01*
X100444000Y-75301000D01*
G75*
G02*
X100194000Y-75551000I-250000J0D01*
G01*
X99269000Y-75551000D01*
G75*
G02*
X99019000Y-75301000I0J250000D01*
G01*
G37*
G04 #@! TD.AperFunction*
G04 #@! TD*
G04 #@! TO.P,D3,2*
G04 #@! TO.N,Net-(D3-Pad2)*
G04 #@! TA.AperFunction,SMDPad,CuDef*
G36*
G01*
X115964000Y-75301000D02*
X115964000Y-74051000D01*
G75*
G02*
X116214000Y-73801000I250000J0D01*
G01*
X117139000Y-73801000D01*
G75*
G02*
X117389000Y-74051000I0J-250000D01*
G01*
X117389000Y-75301000D01*
G75*
G02*
X117139000Y-75551000I-250000J0D01*
G01*
X116214000Y-75551000D01*
G75*
G02*
X115964000Y-75301000I0J250000D01*
G01*
G37*
G04 #@! TD.AperFunction*
G04 #@! TO.P,D3,1*
G04 #@! TO.N,Net-(D3-Pad1)*
G04 #@! TA.AperFunction,SMDPad,CuDef*
G36*
G01*
X112989000Y-75301000D02*
X112989000Y-74051000D01*
G75*
G02*
X113239000Y-73801000I250000J0D01*
G01*
X114164000Y-73801000D01*
G75*
G02*
X114414000Y-74051000I0J-250000D01*
G01*
X114414000Y-75301000D01*
G75*
G02*
X114164000Y-75551000I-250000J0D01*
G01*
X113239000Y-75551000D01*
G75*
G02*
X112989000Y-75301000I0J250000D01*
G01*
G37*
G04 #@! TD.AperFunction*
G04 #@! TD*
G04 #@! TO.P,D2,2*
G04 #@! TO.N,Net-(D2-Pad2)*
G04 #@! TA.AperFunction,SMDPad,CuDef*
G36*
G01*
X88024000Y-75301000D02*
X88024000Y-74051000D01*
G75*
G02*
X88274000Y-73801000I250000J0D01*
G01*
X89199000Y-73801000D01*
G75*
G02*
X89449000Y-74051000I0J-250000D01*
G01*
X89449000Y-75301000D01*
G75*
G02*
X89199000Y-75551000I-250000J0D01*
G01*
X88274000Y-75551000D01*
G75*
G02*
X88024000Y-75301000I0J250000D01*
G01*
G37*
G04 #@! TD.AperFunction*
G04 #@! TO.P,D2,1*
G04 #@! TO.N,Net-(D2-Pad1)*
G04 #@! TA.AperFunction,SMDPad,CuDef*
G36*
G01*
X85049000Y-75301000D02*
X85049000Y-74051000D01*
G75*
G02*
X85299000Y-73801000I250000J0D01*
G01*
X86224000Y-73801000D01*
G75*
G02*
X86474000Y-74051000I0J-250000D01*
G01*
X86474000Y-75301000D01*
G75*
G02*
X86224000Y-75551000I-250000J0D01*
G01*
X85299000Y-75551000D01*
G75*
G02*
X85049000Y-75301000I0J250000D01*
G01*
G37*
G04 #@! TD.AperFunction*
G04 #@! TD*
G04 #@! TO.P,D1,2*
G04 #@! TO.N,Net-(D1-Pad2)*
G04 #@! TA.AperFunction,SMDPad,CuDef*
G36*
G01*
X74181000Y-75301000D02*
X74181000Y-74051000D01*
G75*
G02*
X74431000Y-73801000I250000J0D01*
G01*
X75356000Y-73801000D01*
G75*
G02*
X75606000Y-74051000I0J-250000D01*
G01*
X75606000Y-75301000D01*
G75*
G02*
X75356000Y-75551000I-250000J0D01*
G01*
X74431000Y-75551000D01*
G75*
G02*
X74181000Y-75301000I0J250000D01*
G01*
G37*
G04 #@! TD.AperFunction*
G04 #@! TO.P,D1,1*
G04 #@! TO.N,Net-(D1-Pad1)*
G04 #@! TA.AperFunction,SMDPad,CuDef*
G36*
G01*
X71206000Y-75301000D02*
X71206000Y-74051000D01*
G75*
G02*
X71456000Y-73801000I250000J0D01*
G01*
X72381000Y-73801000D01*
G75*
G02*
X72631000Y-74051000I0J-250000D01*
G01*
X72631000Y-75301000D01*
G75*
G02*
X72381000Y-75551000I-250000J0D01*
G01*
X71456000Y-75551000D01*
G75*
G02*
X71206000Y-75301000I0J250000D01*
G01*
G37*
G04 #@! TD.AperFunction*
G04 #@! TD*
G04 #@! TO.P,C3,2*
G04 #@! TO.N,GND*
G04 #@! TA.AperFunction,SMDPad,CuDef*
G36*
G01*
X94350000Y-125077997D02*
X94350000Y-126378003D01*
G75*
G02*
X94100003Y-126628000I-249997J0D01*
G01*
X93274997Y-126628000D01*
G75*
G02*
X93025000Y-126378003I0J249997D01*
G01*
X93025000Y-125077997D01*
G75*
G02*
X93274997Y-124828000I249997J0D01*
G01*
X94100003Y-124828000D01*
G75*
G02*
X94350000Y-125077997I0J-249997D01*
G01*
G37*
G04 #@! TD.AperFunction*
G04 #@! TO.P,C3,1*
G04 #@! TO.N,+3.3VA*
G04 #@! TA.AperFunction,SMDPad,CuDef*
G36*
G01*
X97475000Y-125077997D02*
X97475000Y-126378003D01*
G75*
G02*
X97225003Y-126628000I-249997J0D01*
G01*
X96399997Y-126628000D01*
G75*
G02*
X96150000Y-126378003I0J249997D01*
G01*
X96150000Y-125077997D01*
G75*
G02*
X96399997Y-124828000I249997J0D01*
G01*
X97225003Y-124828000D01*
G75*
G02*
X97475000Y-125077997I0J-249997D01*
G01*
G37*
G04 #@! TD.AperFunction*
G04 #@! TD*
G04 #@! TO.P,C2,2*
G04 #@! TO.N,GND*
G04 #@! TA.AperFunction,SMDPad,CuDef*
G36*
G01*
X66940000Y-138570003D02*
X66940000Y-137269997D01*
G75*
G02*
X67189997Y-137020000I249997J0D01*
G01*
X68015003Y-137020000D01*
G75*
G02*
X68265000Y-137269997I0J-249997D01*
G01*
X68265000Y-138570003D01*
G75*
G02*
X68015003Y-138820000I-249997J0D01*
G01*
X67189997Y-138820000D01*
G75*
G02*
X66940000Y-138570003I0J249997D01*
G01*
G37*
G04 #@! TD.AperFunction*
G04 #@! TO.P,C2,1*
G04 #@! TO.N,+5V*
G04 #@! TA.AperFunction,SMDPad,CuDef*
G36*
G01*
X63815000Y-138570003D02*
X63815000Y-137269997D01*
G75*
G02*
X64064997Y-137020000I249997J0D01*
G01*
X64890003Y-137020000D01*
G75*
G02*
X65140000Y-137269997I0J-249997D01*
G01*
X65140000Y-138570003D01*
G75*
G02*
X64890003Y-138820000I-249997J0D01*
G01*
X64064997Y-138820000D01*
G75*
G02*
X63815000Y-138570003I0J249997D01*
G01*
G37*
G04 #@! TD.AperFunction*
G04 #@! TD*
G04 #@! TO.P,C1,2*
G04 #@! TO.N,GND*
G04 #@! TA.AperFunction,SMDPad,CuDef*
G36*
G01*
X61098000Y-127650003D02*
X61098000Y-126349997D01*
G75*
G02*
X61347997Y-126100000I249997J0D01*
G01*
X62173003Y-126100000D01*
G75*
G02*
X62423000Y-126349997I0J-249997D01*
G01*
X62423000Y-127650003D01*
G75*
G02*
X62173003Y-127900000I-249997J0D01*
G01*
X61347997Y-127900000D01*
G75*
G02*
X61098000Y-127650003I0J249997D01*
G01*
G37*
G04 #@! TD.AperFunction*
G04 #@! TO.P,C1,1*
G04 #@! TO.N,+12V*
G04 #@! TA.AperFunction,SMDPad,CuDef*
G36*
G01*
X57973000Y-127650003D02*
X57973000Y-126349997D01*
G75*
G02*
X58222997Y-126100000I249997J0D01*
G01*
X59048003Y-126100000D01*
G75*
G02*
X59298000Y-126349997I0J-249997D01*
G01*
X59298000Y-127650003D01*
G75*
G02*
X59048003Y-127900000I-249997J0D01*
G01*
X58222997Y-127900000D01*
G75*
G02*
X57973000Y-127650003I0J249997D01*
G01*
G37*
G04 #@! TD.AperFunction*
G04 #@! TD*
D26*
G04 #@! TO.P,REF\u002A\u002A,1*
G04 #@! TO.N,N/C*
X131300000Y-70000000D03*
D13*
X131300000Y-70000000D03*
G04 #@! TD*
D22*
G04 #@! TO.P,Q8,2*
G04 #@! TO.N,Net-(J2-Pad5)*
X109220000Y-98806000D03*
D23*
G04 #@! TO.P,Q8,3*
G04 #@! TO.N,GND*
X106680000Y-89656000D03*
G04 #@! TO.P,Q8,1*
G04 #@! TO.N,Net-(Q7-Pad3)*
X111760000Y-89656000D03*
G04 #@! TD*
D22*
G04 #@! TO.P,Q6,2*
G04 #@! TO.N,Net-(J2-Pad3)*
X124206000Y-99060000D03*
D23*
G04 #@! TO.P,Q6,3*
G04 #@! TO.N,GND*
X121666000Y-89910000D03*
G04 #@! TO.P,Q6,1*
G04 #@! TO.N,Net-(Q5-Pad3)*
X126746000Y-89910000D03*
G04 #@! TD*
D22*
G04 #@! TO.P,Q4,2*
G04 #@! TO.N,Net-(J1-Pad5)*
X90424000Y-98879000D03*
D23*
G04 #@! TO.P,Q4,3*
G04 #@! TO.N,GND*
X87884000Y-89729000D03*
G04 #@! TO.P,Q4,1*
G04 #@! TO.N,Net-(Q3-Pad3)*
X92964000Y-89729000D03*
G04 #@! TD*
D27*
G04 #@! TO.P,U3,10*
G04 #@! TO.N,Net-(J4-Pad1)*
X97400000Y-128284000D03*
G04 #@! TO.P,U3,9*
G04 #@! TO.N,Net-(J4-Pad2)*
X97400000Y-128784000D03*
G04 #@! TO.P,U3,8*
G04 #@! TO.N,+3.3VA*
X97400000Y-129284000D03*
G04 #@! TO.P,U3,7*
G04 #@! TO.N,Net-(C7-Pad1)*
X97400000Y-129784000D03*
G04 #@! TO.P,U3,6*
G04 #@! TO.N,Net-(C6-Pad1)*
X97400000Y-130284000D03*
G04 #@! TO.P,U3,5*
G04 #@! TO.N,Net-(C5-Pad1)*
X93100000Y-130284000D03*
G04 #@! TO.P,U3,4*
G04 #@! TO.N,Net-(C4-Pad1)*
X93100000Y-129784000D03*
G04 #@! TO.P,U3,3*
G04 #@! TO.N,GND*
X93100000Y-129284000D03*
G04 #@! TO.P,U3,2*
G04 #@! TO.N,N/C*
X93100000Y-128784000D03*
G04 #@! TO.P,U3,1*
G04 #@! TO.N,GND*
X93100000Y-128284000D03*
G04 #@! TD*
D28*
G04 #@! TO.P,U1,20*
G04 #@! TO.N,N/C*
X133264187Y-141808803D03*
G04 #@! TO.P,U1,19*
X133264187Y-139268803D03*
G04 #@! TO.P,U1,18*
X135804187Y-141808803D03*
G04 #@! TO.P,U1,17*
X135804187Y-139268803D03*
D29*
G04 #@! TO.P,U1,16*
X118800000Y-141820000D03*
G04 #@! TO.P,U1,15*
X118800000Y-139270000D03*
D30*
G04 #@! TO.P,U1,1*
G04 #@! TO.N,Net-(BZ1-Pad1)*
X135117820Y-132403120D03*
G04 #@! TO.P,U1,2*
G04 #@! TO.N,Net-(D1-Pad2)*
X132577820Y-132403120D03*
G04 #@! TO.P,U1,3*
G04 #@! TO.N,Net-(D2-Pad2)*
X130037820Y-132403120D03*
G04 #@! TO.P,U1,4*
G04 #@! TO.N,Net-(D4-Pad2)*
X127497820Y-132403120D03*
G04 #@! TO.P,U1,5*
G04 #@! TO.N,Net-(J4-Pad2)*
X124957820Y-132403120D03*
G04 #@! TO.P,U1,6*
G04 #@! TO.N,Net-(J4-Pad1)*
X122417820Y-132403120D03*
G04 #@! TO.P,U1,7*
G04 #@! TO.N,Net-(D3-Pad2)*
X119877820Y-132403120D03*
G04 #@! TO.P,U1,8*
G04 #@! TO.N,N/C*
X119877820Y-148567680D03*
G04 #@! TO.P,U1,9*
X122417820Y-148567680D03*
G04 #@! TO.P,U1,10*
X124957820Y-148567680D03*
G04 #@! TO.P,U1,11*
X127497820Y-148567680D03*
G04 #@! TO.P,U1,12*
G04 #@! TO.N,+3V3*
X130037820Y-148567680D03*
G04 #@! TO.P,U1,13*
G04 #@! TO.N,GND*
X132577820Y-148567680D03*
G04 #@! TO.P,U1,14*
G04 #@! TO.N,+5V*
X135117820Y-148567680D03*
G04 #@! TD*
D31*
G04 #@! TO.P,BZ1,2*
G04 #@! TO.N,GND*
X100330000Y-145034000D03*
D32*
G04 #@! TO.P,BZ1,1*
G04 #@! TO.N,Net-(BZ1-Pad1)*
X92730000Y-145034000D03*
G04 #@! TD*
D33*
G04 #@! TO.N,GND*
X69088000Y-137920000D03*
X105410000Y-130808000D03*
X85344000Y-128524008D03*
X105410000Y-133602000D03*
X85344000Y-125728000D03*
X85344000Y-133602000D03*
X72644000Y-137920000D03*
X105410000Y-125728000D03*
X91948006Y-125728000D03*
X130302000Y-151128000D03*
X67310000Y-146048000D03*
X121666000Y-84328004D03*
X105410000Y-128524008D03*
X85344000Y-130808000D03*
X63499998Y-127000000D03*
X76962000Y-72136000D03*
X90297000Y-71247000D03*
X118237000Y-71247002D03*
X104394000Y-71246998D03*
X87883997Y-84201003D03*
X106679998Y-84201000D03*
G04 #@! TO.N,Net-(BZ1-Pad1)*
X113792000Y-145032000D03*
G04 #@! TO.N,+12V*
X97408996Y-77597000D03*
X70358000Y-77596998D03*
X82169000Y-77597000D03*
X111760000Y-77597000D03*
G04 #@! TO.N,+3V3*
X134746998Y-77977998D03*
X78994000Y-72644002D03*
X92837000Y-72644000D03*
X106934000Y-72644000D03*
X127019250Y-76307750D03*
G04 #@! TO.N,Net-(Q1-Pad3)*
X79756000Y-87503000D03*
X79756000Y-80391002D03*
G04 #@! TO.N,Net-(Q3-Pad3)*
X91694002Y-87883998D03*
X91821000Y-80391000D03*
G04 #@! TO.N,Net-(Q7-Pad3)*
X108839002Y-80264000D03*
X110363000Y-87757000D03*
G04 #@! TO.N,Net-(J4-Pad2)*
X105282996Y-139446000D03*
G04 #@! TD*
D34*
G04 #@! TO.N,GND*
X67602500Y-137920000D02*
X69088000Y-137920000D01*
D35*
X93687500Y-127696500D02*
X93100000Y-128284000D01*
X93687500Y-125982000D02*
X93687500Y-127696500D01*
X92300000Y-129284000D02*
X93100000Y-129284000D01*
X92224999Y-129208999D02*
X92300000Y-129284000D01*
X92224999Y-128359001D02*
X92224999Y-129208999D01*
X92300000Y-128284000D02*
X92224999Y-128359001D01*
X93100000Y-128284000D02*
X92300000Y-128284000D01*
X103912000Y-130808000D02*
X105410000Y-130808000D01*
X85344008Y-128524000D02*
X85344000Y-128524008D01*
X86842000Y-128524000D02*
X85344008Y-128524000D01*
X103924500Y-133602000D02*
X105410000Y-133602000D01*
X86829500Y-125728000D02*
X85344000Y-125728000D01*
X86829500Y-133602000D02*
X85344000Y-133602000D01*
D34*
X72644000Y-137920000D02*
X72644000Y-140167500D01*
D35*
X103886000Y-125728000D02*
X105410000Y-125728000D01*
X92202000Y-125728000D02*
X91948006Y-125728000D01*
D34*
X67564000Y-137958500D02*
X67602500Y-137920000D01*
X67564000Y-140129000D02*
X67564000Y-137958500D01*
D36*
X69088000Y-146048000D02*
X67310000Y-146048000D01*
D37*
X121666000Y-89910000D02*
X121666000Y-84328004D01*
D35*
X103912000Y-128524000D02*
X105409992Y-128524000D01*
X105409992Y-128524000D02*
X105410000Y-128524008D01*
D36*
X93687500Y-125728000D02*
X91948006Y-125728000D01*
D35*
X86842000Y-130808000D02*
X85344000Y-130808000D01*
D34*
X61760500Y-127000000D02*
X63499998Y-127000000D01*
X64885500Y-127000000D02*
X63499998Y-127000000D01*
D35*
X75464000Y-72136000D02*
X76962000Y-72136000D01*
X89408000Y-72136000D02*
X90297000Y-71247000D01*
X88799000Y-72136000D02*
X89408000Y-72136000D01*
X116739000Y-72136000D02*
X117348002Y-72136000D01*
X117348002Y-72136000D02*
X118237000Y-71247002D01*
X102896000Y-72136000D02*
X103504998Y-72136000D01*
X103504998Y-72136000D02*
X104394000Y-71246998D01*
D34*
X132577820Y-148852180D02*
X130302000Y-151128000D01*
X132577820Y-148567680D02*
X132577820Y-148852180D01*
D37*
X73406000Y-89729000D02*
X73406000Y-84201000D01*
D36*
X61200000Y-84250000D02*
X87835000Y-84250000D01*
X87835000Y-84250000D02*
X87883997Y-84201003D01*
D37*
X87884000Y-84201006D02*
X87883997Y-84201003D01*
X87884000Y-89729000D02*
X87884000Y-84201006D01*
D36*
X87883997Y-84201003D02*
X106679995Y-84201003D01*
X106679995Y-84201003D02*
X106679998Y-84201000D01*
D37*
X106680000Y-84201002D02*
X106679998Y-84201000D01*
X106680000Y-89656000D02*
X106680000Y-84201002D01*
D36*
X121538996Y-84201000D02*
X121666000Y-84328004D01*
X106679998Y-84201000D02*
X121538996Y-84201000D01*
D35*
G04 #@! TO.N,Net-(BZ1-Pad1)*
X122557000Y-145032000D02*
X113792000Y-145032000D01*
X135117820Y-132471180D02*
X122557000Y-145032000D01*
X135117820Y-132403120D02*
X135117820Y-132471180D01*
D34*
G04 #@! TO.N,+12V*
X58635500Y-130149500D02*
X59046000Y-130560000D01*
X58635500Y-127762000D02*
X58635500Y-130151500D01*
X58674000Y-127723500D02*
X58635500Y-127762000D01*
X58674000Y-126238000D02*
X58674000Y-127723500D01*
X62800000Y-115800000D02*
X59563000Y-119037000D01*
X59563000Y-119037000D02*
X59563000Y-125349000D01*
X59563000Y-125349000D02*
X58674000Y-126238000D01*
D35*
X72237002Y-77596998D02*
X72364000Y-77470000D01*
X70358000Y-77596998D02*
X72237002Y-77596998D01*
X85572000Y-77597000D02*
X82169000Y-77597000D01*
X85699000Y-77470000D02*
X85572000Y-77597000D01*
X99669000Y-77597000D02*
X97408996Y-77597000D01*
X113639000Y-77597000D02*
X111760000Y-77597000D01*
D36*
X70357998Y-77597000D02*
X70358000Y-77596998D01*
X63903000Y-77597000D02*
X70357998Y-77597000D01*
X62000000Y-79500000D02*
X63903000Y-77597000D01*
D34*
G04 #@! TO.N,+5V*
X62368500Y-137920000D02*
X64477500Y-137920000D01*
X64477500Y-137920000D02*
X64516000Y-137958500D01*
X67564000Y-143254000D02*
X64516000Y-143254000D01*
X64516000Y-143254000D02*
X64516000Y-145032000D01*
X64516000Y-137958500D02*
X64516000Y-143254000D01*
X64516000Y-145032000D02*
X67310000Y-147826000D01*
D36*
X68138000Y-146998000D02*
X67310000Y-147826000D01*
X69088000Y-146998000D02*
X68138000Y-146998000D01*
X69017990Y-145027990D02*
X69088000Y-145027990D01*
X67564000Y-143574000D02*
X69017990Y-145027990D01*
X67564000Y-143254000D02*
X67564000Y-143574000D01*
D34*
X135117820Y-149003820D02*
X135117820Y-148567680D01*
X71884000Y-152400000D02*
X131721640Y-152400000D01*
X131721640Y-152400000D02*
X135117820Y-149003820D01*
X67310000Y-147826000D02*
X71884000Y-152400000D01*
D35*
G04 #@! TO.N,Net-(D2-Pad2)*
X130639820Y-132392325D02*
X130639820Y-132403120D01*
G04 #@! TO.N,Net-(D1-Pad2)*
X76798000Y-74676000D02*
X76901000Y-74573000D01*
X75401500Y-74676000D02*
X76798000Y-74676000D01*
X135826989Y-129153951D02*
X132577820Y-132403120D01*
X135826989Y-80327989D02*
X135826989Y-129153951D01*
X80714996Y-69469000D02*
X124968000Y-69469000D01*
X76901000Y-73282996D02*
X80714996Y-69469000D01*
X124968000Y-69469000D02*
X135826989Y-80327989D01*
X76901000Y-74573000D02*
X76901000Y-73282996D01*
G04 #@! TO.N,Net-(D1-Pad1)*
X72364000Y-72136000D02*
X71856000Y-72136000D01*
X71856000Y-74613500D02*
X71918500Y-74676000D01*
X71856000Y-72136000D02*
X71856000Y-74613500D01*
G04 #@! TO.N,Net-(D2-Pad2)*
X90847000Y-74676000D02*
X90871000Y-74700000D01*
X88736500Y-74676000D02*
X90847000Y-74676000D01*
X130037820Y-131963180D02*
X130037820Y-132403120D01*
X135376978Y-126624022D02*
X130037820Y-131963180D01*
X135376978Y-80639978D02*
X135376978Y-126624022D01*
X93574011Y-69944987D02*
X124681987Y-69944987D01*
X90871000Y-72647998D02*
X93574011Y-69944987D01*
X124681987Y-69944987D02*
X135376978Y-80639978D01*
X90871000Y-74700000D02*
X90871000Y-72647998D01*
G04 #@! TO.N,Net-(D2-Pad1)*
X85699000Y-74613500D02*
X85761500Y-74676000D01*
X85699000Y-72136000D02*
X85699000Y-74613500D01*
G04 #@! TO.N,Net-(D3-Pad2)*
X116700500Y-74700000D02*
X116676500Y-74676000D01*
X118684000Y-74700000D02*
X116700500Y-74700000D01*
X118684000Y-73500000D02*
X118684000Y-74700000D01*
X119032000Y-73152000D02*
X118684000Y-73500000D01*
X134366000Y-81280000D02*
X126238000Y-73152000D01*
X134366000Y-124460000D02*
X134366000Y-81280000D01*
X126238000Y-73152000D02*
X119032000Y-73152000D01*
X128974011Y-129851989D02*
X134366000Y-124460000D01*
X122428951Y-129851989D02*
X128974011Y-129851989D01*
X119877820Y-132403120D02*
X122428951Y-129851989D01*
G04 #@! TO.N,Net-(D3-Pad1)*
X113701500Y-72198500D02*
X113701500Y-74676000D01*
X113639000Y-72136000D02*
X113701500Y-72198500D01*
G04 #@! TO.N,Net-(D4-Pad2)*
X104775000Y-73152000D02*
X104775000Y-74676000D01*
X127497820Y-132403120D02*
X134874000Y-125026940D01*
X124369998Y-70394998D02*
X107532002Y-70394998D01*
X134874000Y-80899000D02*
X124369998Y-70394998D01*
X134874000Y-125026940D02*
X134874000Y-80899000D01*
X104775000Y-74676000D02*
X102706500Y-74676000D01*
X107532002Y-70394998D02*
X104775000Y-73152000D01*
G04 #@! TO.N,Net-(D4-Pad1)*
X99796000Y-74611500D02*
X99731500Y-74676000D01*
X99796000Y-72136000D02*
X99796000Y-74611500D01*
D36*
G04 #@! TO.N,+3V3*
X109202220Y-141351000D02*
X109202220Y-148572220D01*
X109202220Y-148572220D02*
X109202220Y-148826220D01*
D35*
X105182000Y-148844000D02*
X109184440Y-148844000D01*
X109184440Y-148844000D02*
X109202220Y-148826220D01*
X105156000Y-148870000D02*
X105182000Y-148844000D01*
D37*
G04 #@! TO.N,Net-(J1-Pad3)*
X61181000Y-111600000D02*
X62800000Y-111600000D01*
X59436000Y-106426000D02*
X59436000Y-109855000D01*
X67437000Y-98425000D02*
X59436000Y-106426000D01*
X59436000Y-109855000D02*
X61181000Y-111600000D01*
X75946000Y-98425000D02*
X67437000Y-98425000D01*
G04 #@! TO.N,Net-(J2-Pad3)*
X128429000Y-116300000D02*
X127800000Y-116300000D01*
X131191000Y-113538000D02*
X128429000Y-116300000D01*
X131191000Y-105356000D02*
X131191000Y-113538000D01*
X124895000Y-99060000D02*
X131191000Y-105356000D01*
X124206000Y-99060000D02*
X124895000Y-99060000D01*
D35*
G04 #@! TO.N,+3V3*
X83299500Y-72224500D02*
X83312000Y-72237000D01*
X82080500Y-72224500D02*
X83299500Y-72224500D01*
X80899000Y-72224500D02*
X82080500Y-72224500D01*
X79413502Y-72224500D02*
X78994000Y-72644002D01*
X82080500Y-72224500D02*
X79413502Y-72224500D01*
X94576500Y-72644000D02*
X94869000Y-72351500D01*
X92837000Y-72644000D02*
X94576500Y-72644000D01*
X97268500Y-72351500D02*
X97282000Y-72338000D01*
X94869000Y-72351500D02*
X97268500Y-72351500D01*
X108419500Y-72644000D02*
X108839000Y-72224500D01*
X106934000Y-72644000D02*
X108419500Y-72644000D01*
X111239500Y-72224500D02*
X111252000Y-72237000D01*
X108839000Y-72224500D02*
X111239500Y-72224500D01*
X127019250Y-76307750D02*
X125641500Y-74930000D01*
X126664250Y-76307750D02*
X125629000Y-77343000D01*
X127019250Y-76307750D02*
X126664250Y-76307750D01*
D36*
X128239500Y-150366000D02*
X130037820Y-148567680D01*
X126871588Y-150366000D02*
X126897418Y-150391830D01*
X128098222Y-150391830D02*
X128124052Y-150366000D01*
X110767830Y-150391830D02*
X126160222Y-150391830D01*
X126186052Y-150366000D02*
X126871588Y-150366000D01*
X128124052Y-150366000D02*
X128239500Y-150366000D01*
X126160222Y-150391830D02*
X126186052Y-150366000D01*
X126897418Y-150391830D02*
X128098222Y-150391830D01*
X109202220Y-148826220D02*
X110767830Y-150391830D01*
D34*
X136817320Y-80048320D02*
X134746998Y-77977998D01*
X136817320Y-133481725D02*
X136817320Y-80048320D01*
X130175000Y-148430500D02*
X130175000Y-140124045D01*
X130175000Y-140124045D02*
X136817320Y-133481725D01*
X130037820Y-148567680D02*
X130175000Y-148430500D01*
D35*
G04 #@! TO.N,Net-(Q1-Pad3)*
X74980000Y-77573000D02*
X74956000Y-77597000D01*
X74956000Y-77597000D02*
X74956000Y-77940500D01*
X77851000Y-77573000D02*
X74980000Y-77573000D01*
X79756000Y-88459000D02*
X79756000Y-87503000D01*
X78486000Y-89729000D02*
X79756000Y-88459000D01*
X78486000Y-89148000D02*
X78486000Y-89729000D01*
X77851000Y-77573000D02*
X77851000Y-78486002D01*
X77851000Y-78486002D02*
X79756000Y-80391002D01*
G04 #@! TO.N,Net-(Q3-Pad3)*
X91718000Y-77597000D02*
X91821000Y-77700000D01*
X88799000Y-77597000D02*
X91718000Y-77597000D01*
X89027000Y-77825000D02*
X88799000Y-77597000D01*
X92964000Y-89153996D02*
X91694002Y-87883998D01*
X92964000Y-89221000D02*
X92964000Y-89153996D01*
X91821000Y-78079000D02*
X91821000Y-80391000D01*
X91567000Y-77825000D02*
X91821000Y-78079000D01*
G04 #@! TO.N,Net-(Q5-Pad3)*
X119713000Y-77597000D02*
X119737000Y-77573000D01*
X116739000Y-77597000D02*
X119713000Y-77597000D01*
X126746000Y-84836000D02*
X126746000Y-89221000D01*
X119634000Y-77724000D02*
X126746000Y-84836000D01*
X119634000Y-77700000D02*
X119634000Y-77724000D01*
G04 #@! TO.N,Net-(Q7-Pad3)*
X102769000Y-77597000D02*
X105791000Y-77597000D01*
X106172000Y-77597000D02*
X108439003Y-79864001D01*
X108439003Y-79864001D02*
X108839002Y-80264000D01*
X110369000Y-87757000D02*
X110363000Y-87757000D01*
X111760000Y-89148000D02*
X110369000Y-87757000D01*
G04 #@! TO.N,Net-(J4-Pad2)*
X104267000Y-139446000D02*
X105282996Y-139446000D01*
X96524999Y-128898999D02*
X96524999Y-131703999D01*
X96639998Y-128784000D02*
X96524999Y-128898999D01*
X96524999Y-131703999D02*
X104267000Y-139446000D01*
X97400000Y-128784000D02*
X96639998Y-128784000D01*
X107569000Y-141714220D02*
X107569000Y-145744000D01*
X107205780Y-141351000D02*
X107569000Y-141714220D01*
X107205780Y-141333220D02*
X107205780Y-141351000D01*
X110236000Y-138303000D02*
X107205780Y-141333220D01*
X119515054Y-138303000D02*
X110236000Y-138303000D01*
X124957820Y-132860234D02*
X119515054Y-138303000D01*
X124957820Y-132403120D02*
X124957820Y-132860234D01*
G04 #@! TO.N,Net-(J4-Pad1)*
X105156000Y-145770000D02*
X105156000Y-145389000D01*
X105204260Y-145721740D02*
X105156000Y-145770000D01*
X105204260Y-141351000D02*
X105204260Y-145721740D01*
X96453597Y-128333990D02*
X97400000Y-128333990D01*
X96069989Y-128717598D02*
X96453597Y-128333990D01*
X96069989Y-132137989D02*
X96069989Y-128717598D01*
X105204260Y-141272260D02*
X96069989Y-132137989D01*
X105204260Y-141302740D02*
X105204260Y-141272260D01*
X108712000Y-137795000D02*
X105204260Y-141302740D01*
X117025940Y-137795000D02*
X108712000Y-137795000D01*
X122417820Y-132403120D02*
X117025940Y-137795000D01*
D34*
G04 #@! TO.N,Net-(FB1-Pad2)*
X59046000Y-137917500D02*
X59043500Y-137920000D01*
X59046000Y-135120000D02*
X59046000Y-137917500D01*
G04 #@! TO.N,Net-(FB2-Pad1)*
X68210500Y-129975500D02*
X65346000Y-132840000D01*
X68210500Y-127762000D02*
X68210500Y-129977500D01*
D37*
G04 #@! TO.N,Net-(J1-Pad5)*
X71177000Y-120000000D02*
X68300000Y-120000000D01*
X90424000Y-100753000D02*
X71177000Y-120000000D01*
X90424000Y-98371000D02*
X90424000Y-100753000D01*
G04 #@! TO.N,Net-(J2-Pad5)*
X118568000Y-107900000D02*
X122300000Y-107900000D01*
X109220000Y-98552000D02*
X118568000Y-107900000D01*
X109220000Y-98298000D02*
X109220000Y-98552000D01*
D35*
G04 #@! TO.N,Net-(C4-Pad1)*
X91458000Y-129784000D02*
X93100000Y-129784000D01*
X89942000Y-128268000D02*
X91458000Y-129784000D01*
X88555500Y-127127000D02*
X89954500Y-125728000D01*
X83820000Y-127127000D02*
X88555500Y-127127000D01*
X89942000Y-128513500D02*
X88555500Y-127127000D01*
X89942000Y-128524000D02*
X89942000Y-128513500D01*
G04 #@! TO.N,Net-(C5-Pad1)*
X92576000Y-130808000D02*
X93100000Y-130284000D01*
X89942000Y-130808000D02*
X92576000Y-130808000D01*
X88741990Y-132008010D02*
X89942000Y-130808000D01*
X89954500Y-133348000D02*
X89954500Y-133220520D01*
X88543000Y-132207000D02*
X88741990Y-132008010D01*
X83949000Y-132207000D02*
X88543000Y-132207000D01*
X83820000Y-132078000D02*
X83949000Y-132207000D01*
X89938000Y-133602000D02*
X88543000Y-132207000D01*
X89954500Y-133602000D02*
X89938000Y-133602000D01*
G04 #@! TO.N,Net-(C6-Pad1)*
X97924000Y-130808000D02*
X97400000Y-130284000D01*
X100812000Y-130808000D02*
X97924000Y-130808000D01*
X106908000Y-132104000D02*
X106908000Y-132207000D01*
X106934000Y-132078000D02*
X106908000Y-132104000D01*
X102194500Y-132207000D02*
X100799500Y-133602000D01*
X106908000Y-132207000D02*
X102194500Y-132207000D01*
X100812000Y-130824500D02*
X102194500Y-132207000D01*
X100812000Y-130808000D02*
X100812000Y-130824500D01*
G04 #@! TO.N,Net-(C7-Pad1)*
X100761000Y-125728000D02*
X100761000Y-126252980D01*
X99296000Y-129784000D02*
X97400000Y-129784000D01*
X100556000Y-128524000D02*
X99296000Y-129784000D01*
X100812000Y-128524000D02*
X100556000Y-128524000D01*
X102209000Y-127127000D02*
X100812000Y-128524000D01*
X106882000Y-127127000D02*
X102209000Y-127127000D01*
X100810000Y-125728000D02*
X102209000Y-127127000D01*
X100761000Y-125728000D02*
X100810000Y-125728000D01*
D36*
G04 #@! TO.N,+3.3VA*
X72508000Y-143428500D02*
X72644000Y-143292500D01*
X72508000Y-145098000D02*
X72508000Y-143428500D01*
X122300000Y-112100000D02*
X122300000Y-116300000D01*
X68300000Y-116300000D02*
X68300000Y-112250010D01*
X94869000Y-127671500D02*
X96812500Y-125728000D01*
X94869000Y-130935000D02*
X94869000Y-127671500D01*
X82511500Y-143292500D02*
X94869000Y-130935000D01*
X72644000Y-143292500D02*
X82511500Y-143292500D01*
X96812500Y-125728000D02*
X96814500Y-125730000D01*
D35*
X98275001Y-127190501D02*
X98171000Y-127086500D01*
X97586409Y-129234001D02*
X98210001Y-129234001D01*
X98210001Y-129234001D02*
X98275001Y-129169001D01*
X98171000Y-127086500D02*
X96812500Y-125728000D01*
X98275001Y-129169001D02*
X98275001Y-127190501D01*
X97586400Y-129234010D02*
X97586409Y-129234001D01*
X97400000Y-129234010D02*
X97586400Y-129234010D01*
X97400000Y-129284000D02*
X97400000Y-129234010D01*
D36*
X65853011Y-121098609D02*
X65853011Y-118746989D01*
X67436402Y-122682000D02*
X65853011Y-121098609D01*
X65853011Y-118746989D02*
X68300000Y-116300000D01*
X96774000Y-122682000D02*
X67436402Y-122682000D01*
X96774000Y-125689500D02*
X96774000Y-122682000D01*
X96812500Y-125728000D02*
X96774000Y-125689500D01*
X114068000Y-122682000D02*
X96774000Y-122682000D01*
X120450000Y-116300000D02*
X114068000Y-122682000D01*
X122300000Y-116300000D02*
X120450000Y-116300000D01*
D35*
G04 #@! TO.N,Net-(J1-Pad4)*
X65278000Y-121336786D02*
X67198225Y-123257011D01*
X76452000Y-126998000D02*
X80720000Y-126998000D01*
X67198225Y-123257011D02*
X72711011Y-123257011D01*
X65278000Y-108278000D02*
X65278000Y-121336786D01*
X72711011Y-123257011D02*
X76452000Y-126998000D01*
X64900000Y-107900000D02*
X65278000Y-108278000D01*
X62800000Y-107900000D02*
X64900000Y-107900000D01*
G04 #@! TO.N,Net-(J1-Pad1)*
X80228000Y-132078000D02*
X80720000Y-132078000D01*
X80720000Y-132078000D02*
X72349022Y-123707022D01*
X72349022Y-123707022D02*
X66007022Y-123707022D01*
X66007022Y-123707022D02*
X62800000Y-120500000D01*
G04 #@! TO.N,Net-(J2-Pad4)*
X110034000Y-132181000D02*
X110034000Y-132078000D01*
X110137000Y-132078000D02*
X110034000Y-132181000D01*
X126964000Y-122936000D02*
X123369232Y-122936000D01*
X114227232Y-132078000D02*
X110137000Y-132078000D01*
X123369232Y-122936000D02*
X114227232Y-132078000D01*
X127800000Y-122100000D02*
X126964000Y-122936000D01*
X127800000Y-120500000D02*
X127800000Y-122100000D01*
G04 #@! TO.N,Net-(J2-Pad1)*
X125222000Y-120446821D02*
X125222000Y-110478000D01*
X125222000Y-110478000D02*
X127800000Y-107900000D01*
X118670821Y-126998000D02*
X125222000Y-120446821D01*
X109982000Y-126998000D02*
X118670821Y-126998000D01*
G04 #@! TO.N,Net-(C10-Pad2)*
X83299500Y-75349500D02*
X83312000Y-75337000D01*
X80899000Y-75349500D02*
X83299500Y-75349500D01*
X79756000Y-75311000D02*
X80860500Y-75311000D01*
X80860500Y-75311000D02*
X80899000Y-75349500D01*
X79018000Y-74573000D02*
X79756000Y-75311000D01*
X78801000Y-74573000D02*
X79018000Y-74573000D01*
G04 #@! TO.N,Net-(C11-Pad2)*
X94869000Y-75337000D02*
X94768000Y-75438000D01*
X94768000Y-75438000D02*
X93509000Y-75438000D01*
X93509000Y-75438000D02*
X92771000Y-74700000D01*
X97243500Y-75476500D02*
X97282000Y-75438000D01*
X94869000Y-75476500D02*
X97243500Y-75476500D01*
G04 #@! TO.N,Net-(C12-Pad2)*
X120814000Y-74930000D02*
X120584000Y-74700000D01*
X122516500Y-74930000D02*
X120814000Y-74930000D01*
X122529000Y-74942500D02*
X122516500Y-74930000D01*
X122529000Y-77343000D02*
X122529000Y-74942500D01*
G04 #@! TO.N,Net-(C13-Pad2)*
X108800500Y-75311000D02*
X108839000Y-75349500D01*
X107352000Y-75311000D02*
X108800500Y-75311000D01*
X106741000Y-74700000D02*
X107352000Y-75311000D01*
X111239500Y-75349500D02*
X111252000Y-75337000D01*
X108839000Y-75349500D02*
X111239500Y-75349500D01*
G04 #@! TD*
D38*
G04 #@! TO.N,GND*
X57882170Y-74451871D02*
X58170985Y-74570235D01*
X58223750Y-74623000D01*
X58269807Y-74623000D01*
X58464595Y-74729795D01*
X58673402Y-74877000D01*
X58223750Y-74877000D01*
X58065000Y-75035750D01*
X58061928Y-75500000D01*
X58074188Y-75624482D01*
X58110498Y-75744180D01*
X58169463Y-75854494D01*
X58248815Y-75951185D01*
X58345506Y-76030537D01*
X58455820Y-76089502D01*
X58575518Y-76125812D01*
X58700000Y-76138072D01*
X59621442Y-76135741D01*
X59654570Y-76215436D01*
X59744315Y-76525906D01*
X59798619Y-76844488D01*
X59817000Y-77170738D01*
X59817000Y-78219058D01*
X59817225Y-78226617D01*
X59838483Y-78583126D01*
X59840280Y-78598139D01*
X59903755Y-78949596D01*
X59907323Y-78964287D01*
X60012113Y-79305710D01*
X60015000Y-79313443D01*
X60015000Y-79695505D01*
X60091282Y-80079003D01*
X60240915Y-80440250D01*
X60458149Y-80765364D01*
X60734636Y-81041851D01*
X61059750Y-81259085D01*
X61420997Y-81408718D01*
X61804495Y-81485000D01*
X62195505Y-81485000D01*
X62579003Y-81408718D01*
X62755200Y-81335735D01*
X62866835Y-81344890D01*
X62874388Y-81345284D01*
X121340544Y-82647161D01*
X121557158Y-82670711D01*
X121761283Y-82729486D01*
X121952318Y-82822335D01*
X122124647Y-82946529D01*
X122273162Y-83098389D01*
X122393485Y-83273434D01*
X122482062Y-83466496D01*
X122536278Y-83671878D01*
X122554532Y-83883535D01*
X122536321Y-84096186D01*
X122482210Y-84302679D01*
X122393779Y-84496960D01*
X122273597Y-84673385D01*
X122125177Y-84826798D01*
X121952822Y-84952749D01*
X121761572Y-85047556D01*
X121556981Y-85108467D01*
X121339613Y-85134347D01*
X80025625Y-86501354D01*
X79857939Y-86468000D01*
X79654061Y-86468000D01*
X79454102Y-86507774D01*
X79421328Y-86521350D01*
X56692642Y-87273402D01*
X56360163Y-87265352D01*
X56034400Y-87219854D01*
X55715953Y-87137412D01*
X55409036Y-87019114D01*
X55117649Y-86866504D01*
X54845611Y-86681582D01*
X54596501Y-86466780D01*
X54373579Y-86224910D01*
X54179762Y-85959137D01*
X54017599Y-85672954D01*
X54002808Y-85638065D01*
X55214250Y-85635000D01*
X55373000Y-85476250D01*
X55373000Y-84377000D01*
X55627000Y-84377000D01*
X55627000Y-85476250D01*
X55785750Y-85635000D01*
X57000000Y-85638072D01*
X57124482Y-85625812D01*
X57244180Y-85589502D01*
X57354494Y-85530537D01*
X57451185Y-85451185D01*
X57530537Y-85354494D01*
X57589502Y-85244180D01*
X57625812Y-85124482D01*
X57638072Y-85000000D01*
X58061928Y-85000000D01*
X58074188Y-85124482D01*
X58110498Y-85244180D01*
X58169463Y-85354494D01*
X58248815Y-85451185D01*
X58345506Y-85530537D01*
X58455820Y-85589502D01*
X58575518Y-85625812D01*
X58700000Y-85638072D01*
X59914250Y-85635000D01*
X60073000Y-85476250D01*
X60073000Y-84377000D01*
X60327000Y-84377000D01*
X60327000Y-85476250D01*
X60485750Y-85635000D01*
X61700000Y-85638072D01*
X61824482Y-85625812D01*
X61944180Y-85589502D01*
X62054494Y-85530537D01*
X62151185Y-85451185D01*
X62230537Y-85354494D01*
X62289502Y-85244180D01*
X62325812Y-85124482D01*
X62338072Y-85000000D01*
X62335000Y-84535750D01*
X62176250Y-84377000D01*
X60327000Y-84377000D01*
X60073000Y-84377000D01*
X58223750Y-84377000D01*
X58065000Y-84535750D01*
X58061928Y-85000000D01*
X57638072Y-85000000D01*
X57635000Y-84535750D01*
X57476250Y-84377000D01*
X55627000Y-84377000D01*
X55373000Y-84377000D01*
X55353000Y-84377000D01*
X55353000Y-84123000D01*
X55373000Y-84123000D01*
X55373000Y-83023750D01*
X55627000Y-83023750D01*
X55627000Y-84123000D01*
X57476250Y-84123000D01*
X57635000Y-83964250D01*
X57638072Y-83500000D01*
X58061928Y-83500000D01*
X58065000Y-83964250D01*
X58223750Y-84123000D01*
X60073000Y-84123000D01*
X60073000Y-83023750D01*
X60327000Y-83023750D01*
X60327000Y-84123000D01*
X62176250Y-84123000D01*
X62335000Y-83964250D01*
X62338072Y-83500000D01*
X62325812Y-83375518D01*
X62289502Y-83255820D01*
X62230537Y-83145506D01*
X62151185Y-83048815D01*
X62054494Y-82969463D01*
X61944180Y-82910498D01*
X61824482Y-82874188D01*
X61700000Y-82861928D01*
X60485750Y-82865000D01*
X60327000Y-83023750D01*
X60073000Y-83023750D01*
X59914250Y-82865000D01*
X58700000Y-82861928D01*
X58575518Y-82874188D01*
X58455820Y-82910498D01*
X58345506Y-82969463D01*
X58248815Y-83048815D01*
X58169463Y-83145506D01*
X58110498Y-83255820D01*
X58074188Y-83375518D01*
X58061928Y-83500000D01*
X57638072Y-83500000D01*
X57625812Y-83375518D01*
X57589502Y-83255820D01*
X57530537Y-83145506D01*
X57451185Y-83048815D01*
X57354494Y-82969463D01*
X57244180Y-82910498D01*
X57124482Y-82874188D01*
X57000000Y-82861928D01*
X55785750Y-82865000D01*
X55627000Y-83023750D01*
X55373000Y-83023750D01*
X55214250Y-82865000D01*
X54000000Y-82861928D01*
X53875518Y-82874188D01*
X53755820Y-82910498D01*
X53721000Y-82929110D01*
X53721000Y-81000000D01*
X54361928Y-81000000D01*
X54374188Y-81124482D01*
X54410498Y-81244180D01*
X54469463Y-81354494D01*
X54548815Y-81451185D01*
X54645506Y-81530537D01*
X54755820Y-81589502D01*
X54875518Y-81625812D01*
X55000000Y-81638072D01*
X55714250Y-81635000D01*
X55873000Y-81476250D01*
X55873000Y-79627000D01*
X56127000Y-79627000D01*
X56127000Y-81476250D01*
X56285750Y-81635000D01*
X57000000Y-81638072D01*
X57124482Y-81625812D01*
X57244180Y-81589502D01*
X57354494Y-81530537D01*
X57451185Y-81451185D01*
X57530537Y-81354494D01*
X57589502Y-81244180D01*
X57625812Y-81124482D01*
X57638072Y-81000000D01*
X57635000Y-79785750D01*
X57476250Y-79627000D01*
X56127000Y-79627000D01*
X55873000Y-79627000D01*
X54523750Y-79627000D01*
X54365000Y-79785750D01*
X54361928Y-81000000D01*
X53721000Y-81000000D01*
X53721000Y-80558396D01*
X53864637Y-80414759D01*
X54021680Y-80179727D01*
X54129853Y-79918574D01*
X54185000Y-79641335D01*
X54185000Y-79358665D01*
X54129853Y-79081426D01*
X54021680Y-78820273D01*
X53864637Y-78585241D01*
X53721000Y-78441604D01*
X53721000Y-78000000D01*
X54361928Y-78000000D01*
X54365000Y-79214250D01*
X54523750Y-79373000D01*
X55873000Y-79373000D01*
X55873000Y-77523750D01*
X56127000Y-77523750D01*
X56127000Y-79373000D01*
X57476250Y-79373000D01*
X57635000Y-79214250D01*
X57638072Y-78000000D01*
X57625812Y-77875518D01*
X57589502Y-77755820D01*
X57530537Y-77645506D01*
X57451185Y-77548815D01*
X57354494Y-77469463D01*
X57244180Y-77410498D01*
X57124482Y-77374188D01*
X57000000Y-77361928D01*
X56285750Y-77365000D01*
X56127000Y-77523750D01*
X55873000Y-77523750D01*
X55714250Y-77365000D01*
X55000000Y-77361928D01*
X54875518Y-77374188D01*
X54755820Y-77410498D01*
X54645506Y-77469463D01*
X54548815Y-77548815D01*
X54469463Y-77645506D01*
X54410498Y-77755820D01*
X54374188Y-77875518D01*
X54361928Y-78000000D01*
X53721000Y-78000000D01*
X53721000Y-77172455D01*
X53739147Y-76848285D01*
X53792770Y-76531656D01*
X53881397Y-76222988D01*
X53919710Y-76130164D01*
X54000000Y-76138072D01*
X55214250Y-76135000D01*
X55373000Y-75976250D01*
X55373000Y-74877000D01*
X55627000Y-74877000D01*
X55627000Y-75976250D01*
X55785750Y-76135000D01*
X57000000Y-76138072D01*
X57124482Y-76125812D01*
X57244180Y-76089502D01*
X57354494Y-76030537D01*
X57451185Y-75951185D01*
X57530537Y-75854494D01*
X57589502Y-75744180D01*
X57625812Y-75624482D01*
X57638072Y-75500000D01*
X57635000Y-75035750D01*
X57476250Y-74877000D01*
X55627000Y-74877000D01*
X55373000Y-74877000D01*
X55353000Y-74877000D01*
X55353000Y-74623000D01*
X55373000Y-74623000D01*
X55373000Y-74603000D01*
X55627000Y-74603000D01*
X55627000Y-74623000D01*
X57476250Y-74623000D01*
X57635000Y-74464250D01*
X57635545Y-74381915D01*
X57882170Y-74451871D01*
G04 #@! TA.AperFunction,Conductor*
D39*
G36*
X57882170Y-74451871D02*
G01*
X58170985Y-74570235D01*
X58223750Y-74623000D01*
X58269807Y-74623000D01*
X58464595Y-74729795D01*
X58673402Y-74877000D01*
X58223750Y-74877000D01*
X58065000Y-75035750D01*
X58061928Y-75500000D01*
X58074188Y-75624482D01*
X58110498Y-75744180D01*
X58169463Y-75854494D01*
X58248815Y-75951185D01*
X58345506Y-76030537D01*
X58455820Y-76089502D01*
X58575518Y-76125812D01*
X58700000Y-76138072D01*
X59621442Y-76135741D01*
X59654570Y-76215436D01*
X59744315Y-76525906D01*
X59798619Y-76844488D01*
X59817000Y-77170738D01*
X59817000Y-78219058D01*
X59817225Y-78226617D01*
X59838483Y-78583126D01*
X59840280Y-78598139D01*
X59903755Y-78949596D01*
X59907323Y-78964287D01*
X60012113Y-79305710D01*
X60015000Y-79313443D01*
X60015000Y-79695505D01*
X60091282Y-80079003D01*
X60240915Y-80440250D01*
X60458149Y-80765364D01*
X60734636Y-81041851D01*
X61059750Y-81259085D01*
X61420997Y-81408718D01*
X61804495Y-81485000D01*
X62195505Y-81485000D01*
X62579003Y-81408718D01*
X62755200Y-81335735D01*
X62866835Y-81344890D01*
X62874388Y-81345284D01*
X121340544Y-82647161D01*
X121557158Y-82670711D01*
X121761283Y-82729486D01*
X121952318Y-82822335D01*
X122124647Y-82946529D01*
X122273162Y-83098389D01*
X122393485Y-83273434D01*
X122482062Y-83466496D01*
X122536278Y-83671878D01*
X122554532Y-83883535D01*
X122536321Y-84096186D01*
X122482210Y-84302679D01*
X122393779Y-84496960D01*
X122273597Y-84673385D01*
X122125177Y-84826798D01*
X121952822Y-84952749D01*
X121761572Y-85047556D01*
X121556981Y-85108467D01*
X121339613Y-85134347D01*
X80025625Y-86501354D01*
X79857939Y-86468000D01*
X79654061Y-86468000D01*
X79454102Y-86507774D01*
X79421328Y-86521350D01*
X56692642Y-87273402D01*
X56360163Y-87265352D01*
X56034400Y-87219854D01*
X55715953Y-87137412D01*
X55409036Y-87019114D01*
X55117649Y-86866504D01*
X54845611Y-86681582D01*
X54596501Y-86466780D01*
X54373579Y-86224910D01*
X54179762Y-85959137D01*
X54017599Y-85672954D01*
X54002808Y-85638065D01*
X55214250Y-85635000D01*
X55373000Y-85476250D01*
X55373000Y-84377000D01*
X55627000Y-84377000D01*
X55627000Y-85476250D01*
X55785750Y-85635000D01*
X57000000Y-85638072D01*
X57124482Y-85625812D01*
X57244180Y-85589502D01*
X57354494Y-85530537D01*
X57451185Y-85451185D01*
X57530537Y-85354494D01*
X57589502Y-85244180D01*
X57625812Y-85124482D01*
X57638072Y-85000000D01*
X58061928Y-85000000D01*
X58074188Y-85124482D01*
X58110498Y-85244180D01*
X58169463Y-85354494D01*
X58248815Y-85451185D01*
X58345506Y-85530537D01*
X58455820Y-85589502D01*
X58575518Y-85625812D01*
X58700000Y-85638072D01*
X59914250Y-85635000D01*
X60073000Y-85476250D01*
X60073000Y-84377000D01*
X60327000Y-84377000D01*
X60327000Y-85476250D01*
X60485750Y-85635000D01*
X61700000Y-85638072D01*
X61824482Y-85625812D01*
X61944180Y-85589502D01*
X62054494Y-85530537D01*
X62151185Y-85451185D01*
X62230537Y-85354494D01*
X62289502Y-85244180D01*
X62325812Y-85124482D01*
X62338072Y-85000000D01*
X62335000Y-84535750D01*
X62176250Y-84377000D01*
X60327000Y-84377000D01*
X60073000Y-84377000D01*
X58223750Y-84377000D01*
X58065000Y-84535750D01*
X58061928Y-85000000D01*
X57638072Y-85000000D01*
X57635000Y-84535750D01*
X57476250Y-84377000D01*
X55627000Y-84377000D01*
X55373000Y-84377000D01*
X55353000Y-84377000D01*
X55353000Y-84123000D01*
X55373000Y-84123000D01*
X55373000Y-83023750D01*
X55627000Y-83023750D01*
X55627000Y-84123000D01*
X57476250Y-84123000D01*
X57635000Y-83964250D01*
X57638072Y-83500000D01*
X58061928Y-83500000D01*
X58065000Y-83964250D01*
X58223750Y-84123000D01*
X60073000Y-84123000D01*
X60073000Y-83023750D01*
X60327000Y-83023750D01*
X60327000Y-84123000D01*
X62176250Y-84123000D01*
X62335000Y-83964250D01*
X62338072Y-83500000D01*
X62325812Y-83375518D01*
X62289502Y-83255820D01*
X62230537Y-83145506D01*
X62151185Y-83048815D01*
X62054494Y-82969463D01*
X61944180Y-82910498D01*
X61824482Y-82874188D01*
X61700000Y-82861928D01*
X60485750Y-82865000D01*
X60327000Y-83023750D01*
X60073000Y-83023750D01*
X59914250Y-82865000D01*
X58700000Y-82861928D01*
X58575518Y-82874188D01*
X58455820Y-82910498D01*
X58345506Y-82969463D01*
X58248815Y-83048815D01*
X58169463Y-83145506D01*
X58110498Y-83255820D01*
X58074188Y-83375518D01*
X58061928Y-83500000D01*
X57638072Y-83500000D01*
X57625812Y-83375518D01*
X57589502Y-83255820D01*
X57530537Y-83145506D01*
X57451185Y-83048815D01*
X57354494Y-82969463D01*
X57244180Y-82910498D01*
X57124482Y-82874188D01*
X57000000Y-82861928D01*
X55785750Y-82865000D01*
X55627000Y-83023750D01*
X55373000Y-83023750D01*
X55214250Y-82865000D01*
X54000000Y-82861928D01*
X53875518Y-82874188D01*
X53755820Y-82910498D01*
X53721000Y-82929110D01*
X53721000Y-81000000D01*
X54361928Y-81000000D01*
X54374188Y-81124482D01*
X54410498Y-81244180D01*
X54469463Y-81354494D01*
X54548815Y-81451185D01*
X54645506Y-81530537D01*
X54755820Y-81589502D01*
X54875518Y-81625812D01*
X55000000Y-81638072D01*
X55714250Y-81635000D01*
X55873000Y-81476250D01*
X55873000Y-79627000D01*
X56127000Y-79627000D01*
X56127000Y-81476250D01*
X56285750Y-81635000D01*
X57000000Y-81638072D01*
X57124482Y-81625812D01*
X57244180Y-81589502D01*
X57354494Y-81530537D01*
X57451185Y-81451185D01*
X57530537Y-81354494D01*
X57589502Y-81244180D01*
X57625812Y-81124482D01*
X57638072Y-81000000D01*
X57635000Y-79785750D01*
X57476250Y-79627000D01*
X56127000Y-79627000D01*
X55873000Y-79627000D01*
X54523750Y-79627000D01*
X54365000Y-79785750D01*
X54361928Y-81000000D01*
X53721000Y-81000000D01*
X53721000Y-80558396D01*
X53864637Y-80414759D01*
X54021680Y-80179727D01*
X54129853Y-79918574D01*
X54185000Y-79641335D01*
X54185000Y-79358665D01*
X54129853Y-79081426D01*
X54021680Y-78820273D01*
X53864637Y-78585241D01*
X53721000Y-78441604D01*
X53721000Y-78000000D01*
X54361928Y-78000000D01*
X54365000Y-79214250D01*
X54523750Y-79373000D01*
X55873000Y-79373000D01*
X55873000Y-77523750D01*
X56127000Y-77523750D01*
X56127000Y-79373000D01*
X57476250Y-79373000D01*
X57635000Y-79214250D01*
X57638072Y-78000000D01*
X57625812Y-77875518D01*
X57589502Y-77755820D01*
X57530537Y-77645506D01*
X57451185Y-77548815D01*
X57354494Y-77469463D01*
X57244180Y-77410498D01*
X57124482Y-77374188D01*
X57000000Y-77361928D01*
X56285750Y-77365000D01*
X56127000Y-77523750D01*
X55873000Y-77523750D01*
X55714250Y-77365000D01*
X55000000Y-77361928D01*
X54875518Y-77374188D01*
X54755820Y-77410498D01*
X54645506Y-77469463D01*
X54548815Y-77548815D01*
X54469463Y-77645506D01*
X54410498Y-77755820D01*
X54374188Y-77875518D01*
X54361928Y-78000000D01*
X53721000Y-78000000D01*
X53721000Y-77172455D01*
X53739147Y-76848285D01*
X53792770Y-76531656D01*
X53881397Y-76222988D01*
X53919710Y-76130164D01*
X54000000Y-76138072D01*
X55214250Y-76135000D01*
X55373000Y-75976250D01*
X55373000Y-74877000D01*
X55627000Y-74877000D01*
X55627000Y-75976250D01*
X55785750Y-76135000D01*
X57000000Y-76138072D01*
X57124482Y-76125812D01*
X57244180Y-76089502D01*
X57354494Y-76030537D01*
X57451185Y-75951185D01*
X57530537Y-75854494D01*
X57589502Y-75744180D01*
X57625812Y-75624482D01*
X57638072Y-75500000D01*
X57635000Y-75035750D01*
X57476250Y-74877000D01*
X55627000Y-74877000D01*
X55373000Y-74877000D01*
X55353000Y-74877000D01*
X55353000Y-74623000D01*
X55373000Y-74623000D01*
X55373000Y-74603000D01*
X55627000Y-74603000D01*
X55627000Y-74623000D01*
X57476250Y-74623000D01*
X57635000Y-74464250D01*
X57635545Y-74381915D01*
X57882170Y-74451871D01*
G37*
G04 #@! TD.AperFunction*
G04 #@! TD*
M02*
