G04 #@! TF.GenerationSoftware,KiCad,Pcbnew,(5.1.10-1-10_14)*
G04 #@! TF.CreationDate,2022-01-28T00:17:01+09:00*
G04 #@! TF.ProjectId,TireWarmer power board,54697265-5761-4726-9d65-7220706f7765,2.0*
G04 #@! TF.SameCoordinates,Original*
G04 #@! TF.FileFunction,Legend,Top*
G04 #@! TF.FilePolarity,Positive*
%FSLAX46Y46*%
G04 Gerber Fmt 4.6, Leading zero omitted, Abs format (unit mm)*
G04 Created by KiCad (PCBNEW (5.1.10-1-10_14)) date 2022-01-28 00:17:01*
%MOMM*%
%LPD*%
G01*
G04 APERTURE LIST*
%ADD10C,0.150000*%
%ADD11C,0.120000*%
%ADD12C,0.010000*%
%ADD13C,0.200000*%
%ADD14C,0.127000*%
%ADD15C,0.066040*%
%ADD16C,0.100000*%
G04 APERTURE END LIST*
D10*
X100125157Y-117562380D02*
X100333491Y-118562380D01*
X100791824Y-117562380D01*
X101387062Y-118514761D02*
X101285872Y-118562380D01*
X101095395Y-118562380D01*
X101006110Y-118514761D01*
X100970395Y-118419523D01*
X101018014Y-118038571D01*
X101077538Y-117943333D01*
X101178729Y-117895714D01*
X101369205Y-117895714D01*
X101458491Y-117943333D01*
X101494205Y-118038571D01*
X101482300Y-118133809D01*
X100994205Y-118229047D01*
X101857300Y-118562380D02*
X101940633Y-117895714D01*
X101916824Y-118086190D02*
X101976348Y-117990952D01*
X102029919Y-117943333D01*
X102131110Y-117895714D01*
X102226348Y-117895714D01*
X103303729Y-117657619D02*
X103357300Y-117610000D01*
X103458491Y-117562380D01*
X103696586Y-117562380D01*
X103785872Y-117610000D01*
X103827538Y-117657619D01*
X103863252Y-117752857D01*
X103851348Y-117848095D01*
X103785872Y-117990952D01*
X103143014Y-118562380D01*
X103762062Y-118562380D01*
X104202538Y-118467142D02*
X104244205Y-118514761D01*
X104190633Y-118562380D01*
X104148967Y-118514761D01*
X104202538Y-118467142D01*
X104190633Y-118562380D01*
X104982300Y-117562380D02*
X105077538Y-117562380D01*
X105166824Y-117610000D01*
X105208491Y-117657619D01*
X105244205Y-117752857D01*
X105268014Y-117943333D01*
X105238252Y-118181428D01*
X105166824Y-118371904D01*
X105107300Y-118467142D01*
X105053729Y-118514761D01*
X104952538Y-118562380D01*
X104857300Y-118562380D01*
X104768014Y-118514761D01*
X104726348Y-118467142D01*
X104690633Y-118371904D01*
X104666824Y-118181428D01*
X104696586Y-117943333D01*
X104768014Y-117752857D01*
X104827538Y-117657619D01*
X104881110Y-117610000D01*
X104982300Y-117562380D01*
X88718047Y-116737380D02*
X89289476Y-116737380D01*
X89003761Y-117737380D02*
X89003761Y-116737380D01*
X89622809Y-117737380D02*
X89622809Y-116737380D01*
X90670428Y-117737380D02*
X90337095Y-117261190D01*
X90099000Y-117737380D02*
X90099000Y-116737380D01*
X90479952Y-116737380D01*
X90575190Y-116785000D01*
X90622809Y-116832619D01*
X90670428Y-116927857D01*
X90670428Y-117070714D01*
X90622809Y-117165952D01*
X90575190Y-117213571D01*
X90479952Y-117261190D01*
X90099000Y-117261190D01*
X91099000Y-117213571D02*
X91432333Y-117213571D01*
X91575190Y-117737380D02*
X91099000Y-117737380D01*
X91099000Y-116737380D01*
X91575190Y-116737380D01*
X92670428Y-116737380D02*
X92908523Y-117737380D01*
X93099000Y-117023095D01*
X93289476Y-117737380D01*
X93527571Y-116737380D01*
X93860904Y-117451666D02*
X94337095Y-117451666D01*
X93765666Y-117737380D02*
X94099000Y-116737380D01*
X94432333Y-117737380D01*
X95337095Y-117737380D02*
X95003761Y-117261190D01*
X94765666Y-117737380D02*
X94765666Y-116737380D01*
X95146619Y-116737380D01*
X95241857Y-116785000D01*
X95289476Y-116832619D01*
X95337095Y-116927857D01*
X95337095Y-117070714D01*
X95289476Y-117165952D01*
X95241857Y-117213571D01*
X95146619Y-117261190D01*
X94765666Y-117261190D01*
X95765666Y-117737380D02*
X95765666Y-116737380D01*
X96099000Y-117451666D01*
X96432333Y-116737380D01*
X96432333Y-117737380D01*
X96908523Y-117213571D02*
X97241857Y-117213571D01*
X97384714Y-117737380D02*
X96908523Y-117737380D01*
X96908523Y-116737380D01*
X97384714Y-116737380D01*
X98384714Y-117737380D02*
X98051380Y-117261190D01*
X97813285Y-117737380D02*
X97813285Y-116737380D01*
X98194238Y-116737380D01*
X98289476Y-116785000D01*
X98337095Y-116832619D01*
X98384714Y-116927857D01*
X98384714Y-117070714D01*
X98337095Y-117165952D01*
X98289476Y-117213571D01*
X98194238Y-117261190D01*
X97813285Y-117261190D01*
X88456142Y-119387380D02*
X88456142Y-118387380D01*
X88837095Y-118387380D01*
X88932333Y-118435000D01*
X88979952Y-118482619D01*
X89027571Y-118577857D01*
X89027571Y-118720714D01*
X88979952Y-118815952D01*
X88932333Y-118863571D01*
X88837095Y-118911190D01*
X88456142Y-118911190D01*
X89646619Y-118387380D02*
X89837095Y-118387380D01*
X89932333Y-118435000D01*
X90027571Y-118530238D01*
X90075190Y-118720714D01*
X90075190Y-119054047D01*
X90027571Y-119244523D01*
X89932333Y-119339761D01*
X89837095Y-119387380D01*
X89646619Y-119387380D01*
X89551380Y-119339761D01*
X89456142Y-119244523D01*
X89408523Y-119054047D01*
X89408523Y-118720714D01*
X89456142Y-118530238D01*
X89551380Y-118435000D01*
X89646619Y-118387380D01*
X90408523Y-118387380D02*
X90646619Y-119387380D01*
X90837095Y-118673095D01*
X91027571Y-119387380D01*
X91265666Y-118387380D01*
X91646619Y-118863571D02*
X91979952Y-118863571D01*
X92122809Y-119387380D02*
X91646619Y-119387380D01*
X91646619Y-118387380D01*
X92122809Y-118387380D01*
X93122809Y-119387380D02*
X92789476Y-118911190D01*
X92551380Y-119387380D02*
X92551380Y-118387380D01*
X92932333Y-118387380D01*
X93027571Y-118435000D01*
X93075190Y-118482619D01*
X93122809Y-118577857D01*
X93122809Y-118720714D01*
X93075190Y-118815952D01*
X93027571Y-118863571D01*
X92932333Y-118911190D01*
X92551380Y-118911190D01*
X94646619Y-118863571D02*
X94789476Y-118911190D01*
X94837095Y-118958809D01*
X94884714Y-119054047D01*
X94884714Y-119196904D01*
X94837095Y-119292142D01*
X94789476Y-119339761D01*
X94694238Y-119387380D01*
X94313285Y-119387380D01*
X94313285Y-118387380D01*
X94646619Y-118387380D01*
X94741857Y-118435000D01*
X94789476Y-118482619D01*
X94837095Y-118577857D01*
X94837095Y-118673095D01*
X94789476Y-118768333D01*
X94741857Y-118815952D01*
X94646619Y-118863571D01*
X94313285Y-118863571D01*
X95503761Y-118387380D02*
X95694238Y-118387380D01*
X95789476Y-118435000D01*
X95884714Y-118530238D01*
X95932333Y-118720714D01*
X95932333Y-119054047D01*
X95884714Y-119244523D01*
X95789476Y-119339761D01*
X95694238Y-119387380D01*
X95503761Y-119387380D01*
X95408523Y-119339761D01*
X95313285Y-119244523D01*
X95265666Y-119054047D01*
X95265666Y-118720714D01*
X95313285Y-118530238D01*
X95408523Y-118435000D01*
X95503761Y-118387380D01*
X96313285Y-119101666D02*
X96789476Y-119101666D01*
X96218047Y-119387380D02*
X96551380Y-118387380D01*
X96884714Y-119387380D01*
X97789476Y-119387380D02*
X97456142Y-118911190D01*
X97218047Y-119387380D02*
X97218047Y-118387380D01*
X97599000Y-118387380D01*
X97694238Y-118435000D01*
X97741857Y-118482619D01*
X97789476Y-118577857D01*
X97789476Y-118720714D01*
X97741857Y-118815952D01*
X97694238Y-118863571D01*
X97599000Y-118911190D01*
X97218047Y-118911190D01*
X98218047Y-119387380D02*
X98218047Y-118387380D01*
X98456142Y-118387380D01*
X98599000Y-118435000D01*
X98694238Y-118530238D01*
X98741857Y-118625476D01*
X98789476Y-118815952D01*
X98789476Y-118958809D01*
X98741857Y-119149285D01*
X98694238Y-119244523D01*
X98599000Y-119339761D01*
X98456142Y-119387380D01*
X98218047Y-119387380D01*
D11*
X87122000Y-118237000D02*
X78232000Y-124206000D01*
D10*
X65334355Y-147985370D02*
X65873103Y-148524118D01*
X65334355Y-148524118D02*
X65873103Y-147985370D01*
X66984270Y-148759820D02*
X66647553Y-148423103D01*
X66277164Y-148726148D01*
X66344507Y-148726148D01*
X66445522Y-148759820D01*
X66613881Y-148928179D01*
X66647553Y-149029194D01*
X66647553Y-149096538D01*
X66613881Y-149197553D01*
X66445522Y-149365912D01*
X66344507Y-149399583D01*
X66277164Y-149399583D01*
X66176148Y-149365912D01*
X66007790Y-149197553D01*
X65974118Y-149096538D01*
X65974118Y-149029194D01*
X67219973Y-148995522D02*
X66748568Y-149938331D01*
X67691377Y-149466927D01*
X73819000Y-143327428D02*
X74580904Y-143327428D01*
X74199952Y-143708380D02*
X74199952Y-142946476D01*
X74961857Y-142708380D02*
X75580904Y-142708380D01*
X75247571Y-143089333D01*
X75390428Y-143089333D01*
X75485666Y-143136952D01*
X75533285Y-143184571D01*
X75580904Y-143279809D01*
X75580904Y-143517904D01*
X75533285Y-143613142D01*
X75485666Y-143660761D01*
X75390428Y-143708380D01*
X75104714Y-143708380D01*
X75009476Y-143660761D01*
X74961857Y-143613142D01*
X76009476Y-143613142D02*
X76057095Y-143660761D01*
X76009476Y-143708380D01*
X75961857Y-143660761D01*
X76009476Y-143613142D01*
X76009476Y-143708380D01*
X76390428Y-142708380D02*
X77009476Y-142708380D01*
X76676142Y-143089333D01*
X76819000Y-143089333D01*
X76914238Y-143136952D01*
X76961857Y-143184571D01*
X77009476Y-143279809D01*
X77009476Y-143517904D01*
X76961857Y-143613142D01*
X76914238Y-143660761D01*
X76819000Y-143708380D01*
X76533285Y-143708380D01*
X76438047Y-143660761D01*
X76390428Y-143613142D01*
X77295190Y-142708380D02*
X77628523Y-143708380D01*
X77961857Y-142708380D01*
X92130952Y-133768666D02*
X92607142Y-133768666D01*
X92035714Y-134054380D02*
X92369047Y-133054380D01*
X92702380Y-134054380D01*
X93035714Y-134054380D02*
X93035714Y-133054380D01*
X93273809Y-133054380D01*
X93416666Y-133102000D01*
X93511904Y-133197238D01*
X93559523Y-133292476D01*
X93607142Y-133482952D01*
X93607142Y-133625809D01*
X93559523Y-133816285D01*
X93511904Y-133911523D01*
X93416666Y-134006761D01*
X93273809Y-134054380D01*
X93035714Y-134054380D01*
X93988095Y-134006761D02*
X94130952Y-134054380D01*
X94369047Y-134054380D01*
X94464285Y-134006761D01*
X94511904Y-133959142D01*
X94559523Y-133863904D01*
X94559523Y-133768666D01*
X94511904Y-133673428D01*
X94464285Y-133625809D01*
X94369047Y-133578190D01*
X94178571Y-133530571D01*
X94083333Y-133482952D01*
X94035714Y-133435333D01*
X93988095Y-133340095D01*
X93988095Y-133244857D01*
X94035714Y-133149619D01*
X94083333Y-133102000D01*
X94178571Y-133054380D01*
X94416666Y-133054380D01*
X94559523Y-133102000D01*
X95511904Y-134054380D02*
X94940476Y-134054380D01*
X95226190Y-134054380D02*
X95226190Y-133054380D01*
X95130952Y-133197238D01*
X95035714Y-133292476D01*
X94940476Y-133340095D01*
X96464285Y-134054380D02*
X95892857Y-134054380D01*
X96178571Y-134054380D02*
X96178571Y-133054380D01*
X96083333Y-133197238D01*
X95988095Y-133292476D01*
X95892857Y-133340095D01*
X97416666Y-134054380D02*
X96845238Y-134054380D01*
X97130952Y-134054380D02*
X97130952Y-133054380D01*
X97035714Y-133197238D01*
X96940476Y-133292476D01*
X96845238Y-133340095D01*
X98321428Y-133054380D02*
X97845238Y-133054380D01*
X97797619Y-133530571D01*
X97845238Y-133482952D01*
X97940476Y-133435333D01*
X98178571Y-133435333D01*
X98273809Y-133482952D01*
X98321428Y-133530571D01*
X98369047Y-133625809D01*
X98369047Y-133863904D01*
X98321428Y-133959142D01*
X98273809Y-134006761D01*
X98178571Y-134054380D01*
X97940476Y-134054380D01*
X97845238Y-134006761D01*
X97797619Y-133959142D01*
D11*
X105029000Y-119126000D02*
X110617000Y-124460000D01*
X52324000Y-91186000D02*
X68580000Y-91186000D01*
X68580000Y-84709000D02*
X68580000Y-91186000D01*
X97536000Y-84709000D02*
X97536000Y-107950000D01*
X68580000Y-84709000D02*
X97536000Y-84709000D01*
D10*
X104259571Y-150313000D02*
X104164333Y-150265380D01*
X104021476Y-150265380D01*
X103878619Y-150313000D01*
X103783380Y-150408238D01*
X103735761Y-150503476D01*
X103688142Y-150693952D01*
X103688142Y-150836809D01*
X103735761Y-151027285D01*
X103783380Y-151122523D01*
X103878619Y-151217761D01*
X104021476Y-151265380D01*
X104116714Y-151265380D01*
X104259571Y-151217761D01*
X104307190Y-151170142D01*
X104307190Y-150836809D01*
X104116714Y-150836809D01*
X105307190Y-151265380D02*
X104973857Y-150789190D01*
X104735761Y-151265380D02*
X104735761Y-150265380D01*
X105116714Y-150265380D01*
X105211952Y-150313000D01*
X105259571Y-150360619D01*
X105307190Y-150455857D01*
X105307190Y-150598714D01*
X105259571Y-150693952D01*
X105211952Y-150741571D01*
X105116714Y-150789190D01*
X104735761Y-150789190D01*
X105926238Y-150265380D02*
X106116714Y-150265380D01*
X106211952Y-150313000D01*
X106307190Y-150408238D01*
X106354809Y-150598714D01*
X106354809Y-150932047D01*
X106307190Y-151122523D01*
X106211952Y-151217761D01*
X106116714Y-151265380D01*
X105926238Y-151265380D01*
X105831000Y-151217761D01*
X105735761Y-151122523D01*
X105688142Y-150932047D01*
X105688142Y-150598714D01*
X105735761Y-150408238D01*
X105831000Y-150313000D01*
X105926238Y-150265380D01*
X106640523Y-150265380D02*
X106973857Y-151265380D01*
X107307190Y-150265380D01*
X107640523Y-150741571D02*
X107973857Y-150741571D01*
X108116714Y-151265380D02*
X107640523Y-151265380D01*
X107640523Y-150265380D01*
X108116714Y-150265380D01*
X109164333Y-150265380D02*
X109735761Y-150265380D01*
X109450047Y-151265380D02*
X109450047Y-150265380D01*
X110259571Y-150265380D02*
X110450047Y-150265380D01*
X110545285Y-150313000D01*
X110640523Y-150408238D01*
X110688142Y-150598714D01*
X110688142Y-150932047D01*
X110640523Y-151122523D01*
X110545285Y-151217761D01*
X110450047Y-151265380D01*
X110259571Y-151265380D01*
X110164333Y-151217761D01*
X110069095Y-151122523D01*
X110021476Y-150932047D01*
X110021476Y-150598714D01*
X110069095Y-150408238D01*
X110164333Y-150313000D01*
X110259571Y-150265380D01*
X111878619Y-150265380D02*
X111878619Y-151074904D01*
X111926238Y-151170142D01*
X111973857Y-151217761D01*
X112069095Y-151265380D01*
X112259571Y-151265380D01*
X112354809Y-151217761D01*
X112402428Y-151170142D01*
X112450047Y-151074904D01*
X112450047Y-150265380D01*
X112926238Y-151265380D02*
X112926238Y-150265380D01*
X100402428Y-152867761D02*
X100545285Y-152915380D01*
X100783380Y-152915380D01*
X100878619Y-152867761D01*
X100926238Y-152820142D01*
X100973857Y-152724904D01*
X100973857Y-152629666D01*
X100926238Y-152534428D01*
X100878619Y-152486809D01*
X100783380Y-152439190D01*
X100592904Y-152391571D01*
X100497666Y-152343952D01*
X100450047Y-152296333D01*
X100402428Y-152201095D01*
X100402428Y-152105857D01*
X100450047Y-152010619D01*
X100497666Y-151963000D01*
X100592904Y-151915380D01*
X100831000Y-151915380D01*
X100973857Y-151963000D01*
X101973857Y-152820142D02*
X101926238Y-152867761D01*
X101783380Y-152915380D01*
X101688142Y-152915380D01*
X101545285Y-152867761D01*
X101450047Y-152772523D01*
X101402428Y-152677285D01*
X101354809Y-152486809D01*
X101354809Y-152343952D01*
X101402428Y-152153476D01*
X101450047Y-152058238D01*
X101545285Y-151963000D01*
X101688142Y-151915380D01*
X101783380Y-151915380D01*
X101926238Y-151963000D01*
X101973857Y-152010619D01*
X102878619Y-152915380D02*
X102402428Y-152915380D01*
X102402428Y-151915380D01*
X103926238Y-151867761D02*
X103069095Y-153153476D01*
X104211952Y-152867761D02*
X104354809Y-152915380D01*
X104592904Y-152915380D01*
X104688142Y-152867761D01*
X104735761Y-152820142D01*
X104783380Y-152724904D01*
X104783380Y-152629666D01*
X104735761Y-152534428D01*
X104688142Y-152486809D01*
X104592904Y-152439190D01*
X104402428Y-152391571D01*
X104307190Y-152343952D01*
X104259571Y-152296333D01*
X104211952Y-152201095D01*
X104211952Y-152105857D01*
X104259571Y-152010619D01*
X104307190Y-151963000D01*
X104402428Y-151915380D01*
X104640523Y-151915380D01*
X104783380Y-151963000D01*
X105211952Y-152915380D02*
X105211952Y-151915380D01*
X105450047Y-151915380D01*
X105592904Y-151963000D01*
X105688142Y-152058238D01*
X105735761Y-152153476D01*
X105783380Y-152343952D01*
X105783380Y-152486809D01*
X105735761Y-152677285D01*
X105688142Y-152772523D01*
X105592904Y-152867761D01*
X105450047Y-152915380D01*
X105211952Y-152915380D01*
X106164333Y-152629666D02*
X106640523Y-152629666D01*
X106069095Y-152915380D02*
X106402428Y-151915380D01*
X106735761Y-152915380D01*
X107783380Y-151867761D02*
X106926238Y-153153476D01*
X108116714Y-152534428D02*
X108878619Y-152534428D01*
X108497666Y-152915380D02*
X108497666Y-152153476D01*
X109259571Y-151915380D02*
X109878619Y-151915380D01*
X109545285Y-152296333D01*
X109688142Y-152296333D01*
X109783380Y-152343952D01*
X109831000Y-152391571D01*
X109878619Y-152486809D01*
X109878619Y-152724904D01*
X109831000Y-152820142D01*
X109783380Y-152867761D01*
X109688142Y-152915380D01*
X109402428Y-152915380D01*
X109307190Y-152867761D01*
X109259571Y-152820142D01*
X110307190Y-152820142D02*
X110354809Y-152867761D01*
X110307190Y-152915380D01*
X110259571Y-152867761D01*
X110307190Y-152820142D01*
X110307190Y-152915380D01*
X110688142Y-151915380D02*
X111307190Y-151915380D01*
X110973857Y-152296333D01*
X111116714Y-152296333D01*
X111211952Y-152343952D01*
X111259571Y-152391571D01*
X111307190Y-152486809D01*
X111307190Y-152724904D01*
X111259571Y-152820142D01*
X111211952Y-152867761D01*
X111116714Y-152915380D01*
X110831000Y-152915380D01*
X110735761Y-152867761D01*
X110688142Y-152820142D01*
X111592904Y-151915380D02*
X111926238Y-152915380D01*
X112259571Y-151915380D01*
X113307190Y-151867761D02*
X112450047Y-153153476D01*
X114164333Y-151963000D02*
X114069095Y-151915380D01*
X113926238Y-151915380D01*
X113783380Y-151963000D01*
X113688142Y-152058238D01*
X113640523Y-152153476D01*
X113592904Y-152343952D01*
X113592904Y-152486809D01*
X113640523Y-152677285D01*
X113688142Y-152772523D01*
X113783380Y-152867761D01*
X113926238Y-152915380D01*
X114021476Y-152915380D01*
X114164333Y-152867761D01*
X114211952Y-152820142D01*
X114211952Y-152486809D01*
X114021476Y-152486809D01*
X114640523Y-152915380D02*
X114640523Y-151915380D01*
X115211952Y-152915380D01*
X115211952Y-151915380D01*
X115688142Y-152915380D02*
X115688142Y-151915380D01*
X115926238Y-151915380D01*
X116069095Y-151963000D01*
X116164333Y-152058238D01*
X116211952Y-152153476D01*
X116259571Y-152343952D01*
X116259571Y-152486809D01*
X116211952Y-152677285D01*
X116164333Y-152772523D01*
X116069095Y-152867761D01*
X115926238Y-152915380D01*
X115688142Y-152915380D01*
X108228095Y-120848380D02*
X107894761Y-120372190D01*
X107656666Y-120848380D02*
X107656666Y-119848380D01*
X108037619Y-119848380D01*
X108132857Y-119896000D01*
X108180476Y-119943619D01*
X108228095Y-120038857D01*
X108228095Y-120181714D01*
X108180476Y-120276952D01*
X108132857Y-120324571D01*
X108037619Y-120372190D01*
X107656666Y-120372190D01*
X109132857Y-120848380D02*
X108656666Y-120848380D01*
X108656666Y-119848380D01*
X110228095Y-120848380D02*
X110228095Y-119848380D01*
X110228095Y-120324571D02*
X110799523Y-120324571D01*
X110799523Y-120848380D02*
X110799523Y-119848380D01*
X111275714Y-120324571D02*
X111609047Y-120324571D01*
X111751904Y-120848380D02*
X111275714Y-120848380D01*
X111275714Y-119848380D01*
X111751904Y-119848380D01*
X112132857Y-120562666D02*
X112609047Y-120562666D01*
X112037619Y-120848380D02*
X112370952Y-119848380D01*
X112704285Y-120848380D01*
X112894761Y-119848380D02*
X113466190Y-119848380D01*
X113180476Y-120848380D02*
X113180476Y-119848380D01*
X108132857Y-108656380D02*
X107799523Y-108180190D01*
X107561428Y-108656380D02*
X107561428Y-107656380D01*
X107942380Y-107656380D01*
X108037619Y-107704000D01*
X108085238Y-107751619D01*
X108132857Y-107846857D01*
X108132857Y-107989714D01*
X108085238Y-108084952D01*
X108037619Y-108132571D01*
X107942380Y-108180190D01*
X107561428Y-108180190D01*
X109132857Y-108656380D02*
X108799523Y-108180190D01*
X108561428Y-108656380D02*
X108561428Y-107656380D01*
X108942380Y-107656380D01*
X109037619Y-107704000D01*
X109085238Y-107751619D01*
X109132857Y-107846857D01*
X109132857Y-107989714D01*
X109085238Y-108084952D01*
X109037619Y-108132571D01*
X108942380Y-108180190D01*
X108561428Y-108180190D01*
X110323333Y-108656380D02*
X110323333Y-107656380D01*
X110323333Y-108132571D02*
X110894761Y-108132571D01*
X110894761Y-108656380D02*
X110894761Y-107656380D01*
X111370952Y-108132571D02*
X111704285Y-108132571D01*
X111847142Y-108656380D02*
X111370952Y-108656380D01*
X111370952Y-107656380D01*
X111847142Y-107656380D01*
X112228095Y-108370666D02*
X112704285Y-108370666D01*
X112132857Y-108656380D02*
X112466190Y-107656380D01*
X112799523Y-108656380D01*
X112990000Y-107656380D02*
X113561428Y-107656380D01*
X113275714Y-108656380D02*
X113275714Y-107656380D01*
X108109047Y-117038380D02*
X107775714Y-116562190D01*
X107537619Y-117038380D02*
X107537619Y-116038380D01*
X107918571Y-116038380D01*
X108013809Y-116086000D01*
X108061428Y-116133619D01*
X108109047Y-116228857D01*
X108109047Y-116371714D01*
X108061428Y-116466952D01*
X108013809Y-116514571D01*
X107918571Y-116562190D01*
X107537619Y-116562190D01*
X109013809Y-117038380D02*
X108537619Y-117038380D01*
X108537619Y-116038380D01*
X109966190Y-116038380D02*
X110537619Y-116038380D01*
X110251904Y-117038380D02*
X110251904Y-116038380D01*
X110870952Y-116514571D02*
X111204285Y-116514571D01*
X111347142Y-117038380D02*
X110870952Y-117038380D01*
X110870952Y-116038380D01*
X111347142Y-116038380D01*
X111775714Y-117038380D02*
X111775714Y-116038380D01*
X112109047Y-116752666D01*
X112442380Y-116038380D01*
X112442380Y-117038380D01*
X112918571Y-117038380D02*
X112918571Y-116038380D01*
X113299523Y-116038380D01*
X113394761Y-116086000D01*
X113442380Y-116133619D01*
X113490000Y-116228857D01*
X113490000Y-116371714D01*
X113442380Y-116466952D01*
X113394761Y-116514571D01*
X113299523Y-116562190D01*
X112918571Y-116562190D01*
X108013809Y-112466380D02*
X107680476Y-111990190D01*
X107442380Y-112466380D02*
X107442380Y-111466380D01*
X107823333Y-111466380D01*
X107918571Y-111514000D01*
X107966190Y-111561619D01*
X108013809Y-111656857D01*
X108013809Y-111799714D01*
X107966190Y-111894952D01*
X107918571Y-111942571D01*
X107823333Y-111990190D01*
X107442380Y-111990190D01*
X109013809Y-112466380D02*
X108680476Y-111990190D01*
X108442380Y-112466380D02*
X108442380Y-111466380D01*
X108823333Y-111466380D01*
X108918571Y-111514000D01*
X108966190Y-111561619D01*
X109013809Y-111656857D01*
X109013809Y-111799714D01*
X108966190Y-111894952D01*
X108918571Y-111942571D01*
X108823333Y-111990190D01*
X108442380Y-111990190D01*
X110061428Y-111466380D02*
X110632857Y-111466380D01*
X110347142Y-112466380D02*
X110347142Y-111466380D01*
X110966190Y-111942571D02*
X111299523Y-111942571D01*
X111442380Y-112466380D02*
X110966190Y-112466380D01*
X110966190Y-111466380D01*
X111442380Y-111466380D01*
X111870952Y-112466380D02*
X111870952Y-111466380D01*
X112204285Y-112180666D01*
X112537619Y-111466380D01*
X112537619Y-112466380D01*
X113013809Y-112466380D02*
X113013809Y-111466380D01*
X113394761Y-111466380D01*
X113490000Y-111514000D01*
X113537619Y-111561619D01*
X113585238Y-111656857D01*
X113585238Y-111799714D01*
X113537619Y-111894952D01*
X113490000Y-111942571D01*
X113394761Y-111990190D01*
X113013809Y-111990190D01*
D11*
X116137961Y-108204000D02*
G75*
G03*
X116137961Y-108204000I-567961J0D01*
G01*
X118423961Y-108204000D02*
G75*
G03*
X118423961Y-108204000I-567961J0D01*
G01*
X116137961Y-112014000D02*
G75*
G03*
X116137961Y-112014000I-567961J0D01*
G01*
X117856000Y-108204000D02*
X115570000Y-112014000D01*
X118423961Y-112014000D02*
G75*
G03*
X118423961Y-112014000I-567961J0D01*
G01*
X115570000Y-108204000D02*
X117856000Y-112014000D01*
X118423961Y-120396000D02*
G75*
G03*
X118423961Y-120396000I-567961J0D01*
G01*
X117856000Y-116586000D02*
X115570000Y-120396000D01*
X115570000Y-116586000D02*
X117856000Y-120396000D01*
X118423961Y-116586000D02*
G75*
G03*
X118423961Y-116586000I-567961J0D01*
G01*
X116137961Y-120396000D02*
G75*
G03*
X116137961Y-120396000I-567961J0D01*
G01*
X116137961Y-116586000D02*
G75*
G03*
X116137961Y-116586000I-567961J0D01*
G01*
X75243961Y-116078000D02*
G75*
G03*
X75243961Y-116078000I-567961J0D01*
G01*
X72390000Y-116078000D02*
X74676000Y-119888000D01*
X75243961Y-119888000D02*
G75*
G03*
X75243961Y-119888000I-567961J0D01*
G01*
X72957961Y-116078000D02*
G75*
G03*
X72957961Y-116078000I-567961J0D01*
G01*
X72957961Y-119888000D02*
G75*
G03*
X72957961Y-119888000I-567961J0D01*
G01*
X74676000Y-116078000D02*
X72390000Y-119888000D01*
D10*
X76311428Y-119689571D02*
X75978095Y-119689571D01*
X75978095Y-120213380D02*
X75978095Y-119213380D01*
X76454285Y-119213380D01*
X77311428Y-120213380D02*
X76835238Y-120213380D01*
X76835238Y-119213380D01*
X78406666Y-120213380D02*
X78406666Y-119213380D01*
X78406666Y-119689571D02*
X78978095Y-119689571D01*
X78978095Y-120213380D02*
X78978095Y-119213380D01*
X79454285Y-119689571D02*
X79787619Y-119689571D01*
X79930476Y-120213380D02*
X79454285Y-120213380D01*
X79454285Y-119213380D01*
X79930476Y-119213380D01*
X80311428Y-119927666D02*
X80787619Y-119927666D01*
X80216190Y-120213380D02*
X80549523Y-119213380D01*
X80882857Y-120213380D01*
X81073333Y-119213380D02*
X81644761Y-119213380D01*
X81359047Y-120213380D02*
X81359047Y-119213380D01*
X76446380Y-116260571D02*
X76113047Y-116260571D01*
X76113047Y-116784380D02*
X76113047Y-115784380D01*
X76589238Y-115784380D01*
X77446380Y-116784380D02*
X76970190Y-116784380D01*
X76970190Y-115784380D01*
X78398761Y-115784380D02*
X78970190Y-115784380D01*
X78684476Y-116784380D02*
X78684476Y-115784380D01*
X79303523Y-116260571D02*
X79636857Y-116260571D01*
X79779714Y-116784380D02*
X79303523Y-116784380D01*
X79303523Y-115784380D01*
X79779714Y-115784380D01*
X80208285Y-116784380D02*
X80208285Y-115784380D01*
X80541619Y-116498666D01*
X80874952Y-115784380D01*
X80874952Y-116784380D01*
X81351142Y-116784380D02*
X81351142Y-115784380D01*
X81732095Y-115784380D01*
X81827333Y-115832000D01*
X81874952Y-115879619D01*
X81922571Y-115974857D01*
X81922571Y-116117714D01*
X81874952Y-116212952D01*
X81827333Y-116260571D01*
X81732095Y-116308190D01*
X81351142Y-116308190D01*
X76351142Y-111688571D02*
X76017809Y-111688571D01*
X76017809Y-112212380D02*
X76017809Y-111212380D01*
X76494000Y-111212380D01*
X77446380Y-112212380D02*
X77113047Y-111736190D01*
X76874952Y-112212380D02*
X76874952Y-111212380D01*
X77255904Y-111212380D01*
X77351142Y-111260000D01*
X77398761Y-111307619D01*
X77446380Y-111402857D01*
X77446380Y-111545714D01*
X77398761Y-111640952D01*
X77351142Y-111688571D01*
X77255904Y-111736190D01*
X76874952Y-111736190D01*
X78494000Y-111212380D02*
X79065428Y-111212380D01*
X78779714Y-112212380D02*
X78779714Y-111212380D01*
X79398761Y-111688571D02*
X79732095Y-111688571D01*
X79874952Y-112212380D02*
X79398761Y-112212380D01*
X79398761Y-111212380D01*
X79874952Y-111212380D01*
X80303523Y-112212380D02*
X80303523Y-111212380D01*
X80636857Y-111926666D01*
X80970190Y-111212380D01*
X80970190Y-112212380D01*
X81446380Y-112212380D02*
X81446380Y-111212380D01*
X81827333Y-111212380D01*
X81922571Y-111260000D01*
X81970190Y-111307619D01*
X82017809Y-111402857D01*
X82017809Y-111545714D01*
X81970190Y-111640952D01*
X81922571Y-111688571D01*
X81827333Y-111736190D01*
X81446380Y-111736190D01*
D11*
X74676000Y-107696000D02*
X72390000Y-111506000D01*
X72390000Y-107696000D02*
X74676000Y-111506000D01*
X75243961Y-111506000D02*
G75*
G03*
X75243961Y-111506000I-567961J0D01*
G01*
X72957961Y-107696000D02*
G75*
G03*
X72957961Y-107696000I-567961J0D01*
G01*
X72957961Y-111506000D02*
G75*
G03*
X72957961Y-111506000I-567961J0D01*
G01*
X75243961Y-107696000D02*
G75*
G03*
X75243961Y-107696000I-567961J0D01*
G01*
D10*
X76216190Y-107878571D02*
X75882857Y-107878571D01*
X75882857Y-108402380D02*
X75882857Y-107402380D01*
X76359047Y-107402380D01*
X77311428Y-108402380D02*
X76978095Y-107926190D01*
X76740000Y-108402380D02*
X76740000Y-107402380D01*
X77120952Y-107402380D01*
X77216190Y-107450000D01*
X77263809Y-107497619D01*
X77311428Y-107592857D01*
X77311428Y-107735714D01*
X77263809Y-107830952D01*
X77216190Y-107878571D01*
X77120952Y-107926190D01*
X76740000Y-107926190D01*
X78501904Y-108402380D02*
X78501904Y-107402380D01*
X78501904Y-107878571D02*
X79073333Y-107878571D01*
X79073333Y-108402380D02*
X79073333Y-107402380D01*
X79549523Y-107878571D02*
X79882857Y-107878571D01*
X80025714Y-108402380D02*
X79549523Y-108402380D01*
X79549523Y-107402380D01*
X80025714Y-107402380D01*
X80406666Y-108116666D02*
X80882857Y-108116666D01*
X80311428Y-108402380D02*
X80644761Y-107402380D01*
X80978095Y-108402380D01*
X81168571Y-107402380D02*
X81740000Y-107402380D01*
X81454285Y-108402380D02*
X81454285Y-107402380D01*
X115387571Y-86431380D02*
X115054238Y-85955190D01*
X114816142Y-86431380D02*
X114816142Y-85431380D01*
X115197095Y-85431380D01*
X115292333Y-85479000D01*
X115339952Y-85526619D01*
X115387571Y-85621857D01*
X115387571Y-85764714D01*
X115339952Y-85859952D01*
X115292333Y-85907571D01*
X115197095Y-85955190D01*
X114816142Y-85955190D01*
X115816142Y-85907571D02*
X116149476Y-85907571D01*
X116292333Y-86431380D02*
X115816142Y-86431380D01*
X115816142Y-85431380D01*
X116292333Y-85431380D01*
X116673285Y-86145666D02*
X117149476Y-86145666D01*
X116578047Y-86431380D02*
X116911380Y-85431380D01*
X117244714Y-86431380D01*
X118149476Y-86431380D02*
X117816142Y-85955190D01*
X117578047Y-86431380D02*
X117578047Y-85431380D01*
X117958999Y-85431380D01*
X118054238Y-85479000D01*
X118101857Y-85526619D01*
X118149476Y-85621857D01*
X118149476Y-85764714D01*
X118101857Y-85859952D01*
X118054238Y-85907571D01*
X117958999Y-85955190D01*
X117578047Y-85955190D01*
X108751714Y-86558380D02*
X108418380Y-86082190D01*
X108180285Y-86558380D02*
X108180285Y-85558380D01*
X108561238Y-85558380D01*
X108656476Y-85606000D01*
X108704095Y-85653619D01*
X108751714Y-85748857D01*
X108751714Y-85891714D01*
X108704095Y-85986952D01*
X108656476Y-86034571D01*
X108561238Y-86082190D01*
X108180285Y-86082190D01*
X109180285Y-86558380D02*
X109180285Y-85558380D01*
X109180285Y-86034571D02*
X109751714Y-86034571D01*
X109751714Y-86558380D02*
X109751714Y-85558380D01*
X124118714Y-86558380D02*
X123642523Y-86558380D01*
X123642523Y-85558380D01*
X124452047Y-86558380D02*
X124452047Y-85558380D01*
X124452047Y-86034571D02*
X125023476Y-86034571D01*
X125023476Y-86558380D02*
X125023476Y-85558380D01*
D11*
X137668000Y-84709000D02*
X101092000Y-84709000D01*
X137668000Y-124460000D02*
X137668000Y-84709000D01*
X101092000Y-84709000D02*
X101092000Y-108458000D01*
X110617000Y-124460000D02*
X137668000Y-124460000D01*
D10*
X90336714Y-86558380D02*
X89860523Y-86558380D01*
X89860523Y-85558380D01*
X90670047Y-86558380D02*
X90670047Y-85558380D01*
X90670047Y-86034571D02*
X91241476Y-86034571D01*
X91241476Y-86558380D02*
X91241476Y-85558380D01*
X76112714Y-86558380D02*
X75779380Y-86082190D01*
X75541285Y-86558380D02*
X75541285Y-85558380D01*
X75922238Y-85558380D01*
X76017476Y-85606000D01*
X76065095Y-85653619D01*
X76112714Y-85748857D01*
X76112714Y-85891714D01*
X76065095Y-85986952D01*
X76017476Y-86034571D01*
X75922238Y-86082190D01*
X75541285Y-86082190D01*
X76541285Y-86558380D02*
X76541285Y-85558380D01*
X76541285Y-86034571D02*
X77112714Y-86034571D01*
X77112714Y-86558380D02*
X77112714Y-85558380D01*
X81272285Y-85907571D02*
X80938952Y-85907571D01*
X80938952Y-86431380D02*
X80938952Y-85431380D01*
X81415142Y-85431380D01*
X82367523Y-86431380D02*
X82034190Y-85955190D01*
X81796095Y-86431380D02*
X81796095Y-85431380D01*
X82177047Y-85431380D01*
X82272285Y-85479000D01*
X82319904Y-85526619D01*
X82367523Y-85621857D01*
X82367523Y-85764714D01*
X82319904Y-85859952D01*
X82272285Y-85907571D01*
X82177047Y-85955190D01*
X81796095Y-85955190D01*
X82986571Y-85431380D02*
X83177047Y-85431380D01*
X83272285Y-85479000D01*
X83367523Y-85574238D01*
X83415142Y-85764714D01*
X83415142Y-86098047D01*
X83367523Y-86288523D01*
X83272285Y-86383761D01*
X83177047Y-86431380D01*
X82986571Y-86431380D01*
X82891333Y-86383761D01*
X82796095Y-86288523D01*
X82748476Y-86098047D01*
X82748476Y-85764714D01*
X82796095Y-85574238D01*
X82891333Y-85479000D01*
X82986571Y-85431380D01*
X83843714Y-86431380D02*
X83843714Y-85431380D01*
X84415142Y-86431380D01*
X84415142Y-85431380D01*
X84748476Y-85431380D02*
X85319904Y-85431380D01*
X85034190Y-86431380D02*
X85034190Y-85431380D01*
D11*
X52324000Y-124206000D02*
X78232000Y-124206000D01*
X52324000Y-91186000D02*
X52324000Y-124206000D01*
D12*
G04 #@! TO.C,G\u002A\u002A\u002A*
G36*
X97738586Y-108699966D02*
G01*
X97804514Y-108709352D01*
X97855065Y-108724129D01*
X97865265Y-108728204D01*
X97972266Y-108793432D01*
X98047464Y-108879152D01*
X98075750Y-108967878D01*
X98080499Y-108979608D01*
X98098142Y-108989613D01*
X98133771Y-108998125D01*
X98192479Y-109005379D01*
X98279358Y-109011607D01*
X98399502Y-109017043D01*
X98558002Y-109021920D01*
X98759952Y-109026473D01*
X99010444Y-109030935D01*
X99314570Y-109035539D01*
X99652594Y-109040188D01*
X100027881Y-109044683D01*
X100450558Y-109048850D01*
X100904518Y-109052585D01*
X101373649Y-109055784D01*
X101841845Y-109058342D01*
X102292995Y-109060155D01*
X102710991Y-109061118D01*
X102907989Y-109061249D01*
X103296619Y-109061332D01*
X103626810Y-109061910D01*
X103903625Y-109063479D01*
X104132124Y-109066533D01*
X104317370Y-109071567D01*
X104464424Y-109079077D01*
X104578348Y-109089557D01*
X104664203Y-109103503D01*
X104727050Y-109121409D01*
X104771952Y-109143770D01*
X104803971Y-109171081D01*
X104828166Y-109203838D01*
X104849602Y-109242535D01*
X104854288Y-109251582D01*
X104900841Y-109404327D01*
X104897340Y-109567837D01*
X104855631Y-109693820D01*
X104780849Y-109779359D01*
X104644711Y-109867234D01*
X104449259Y-109956233D01*
X104349347Y-109993881D01*
X104328557Y-110009225D01*
X104334540Y-110037155D01*
X104373032Y-110085200D01*
X104449766Y-110160890D01*
X104539847Y-110243953D01*
X104755113Y-110440851D01*
X104928651Y-110602711D01*
X105066532Y-110736295D01*
X105174828Y-110848368D01*
X105259610Y-110945696D01*
X105326949Y-111035042D01*
X105382915Y-111123170D01*
X105433581Y-111216846D01*
X105458821Y-111267875D01*
X105540596Y-111461262D01*
X105621589Y-111695887D01*
X105695601Y-111949718D01*
X105756430Y-112200724D01*
X105797878Y-112426872D01*
X105807954Y-112508532D01*
X105823508Y-112653725D01*
X105838980Y-112747999D01*
X105860019Y-112803674D01*
X105892272Y-112833071D01*
X105941386Y-112848512D01*
X105966007Y-112853352D01*
X106108853Y-112910661D01*
X106231973Y-113018486D01*
X106322662Y-113164230D01*
X106347343Y-113231425D01*
X106388486Y-113435250D01*
X106400471Y-113658894D01*
X106385001Y-113884439D01*
X106343782Y-114093964D01*
X106278517Y-114269550D01*
X106242763Y-114331230D01*
X106217503Y-114384778D01*
X106199454Y-114465656D01*
X106187037Y-114585115D01*
X106178672Y-114754403D01*
X106177269Y-114797783D01*
X106165595Y-115184442D01*
X106303735Y-115253804D01*
X106479756Y-115362717D01*
X106599729Y-115486265D01*
X106635391Y-115544610D01*
X106677020Y-115685799D01*
X106660300Y-115822573D01*
X106589770Y-115941708D01*
X106469966Y-116029980D01*
X106468636Y-116030614D01*
X106455385Y-116035921D01*
X106437355Y-116040889D01*
X106412474Y-116045531D01*
X106378673Y-116049860D01*
X106333883Y-116053888D01*
X106276034Y-116057628D01*
X106203055Y-116061093D01*
X106112878Y-116064296D01*
X106003433Y-116067249D01*
X105872650Y-116069966D01*
X105718459Y-116072458D01*
X105538790Y-116074739D01*
X105331575Y-116076822D01*
X105094743Y-116078719D01*
X104826225Y-116080443D01*
X104523951Y-116082007D01*
X104185851Y-116083423D01*
X103809856Y-116084704D01*
X103393895Y-116085864D01*
X102935900Y-116086914D01*
X102433801Y-116087868D01*
X101885527Y-116088739D01*
X101289010Y-116089538D01*
X100642179Y-116090279D01*
X99942965Y-116090975D01*
X99189298Y-116091639D01*
X98379109Y-116092282D01*
X97510327Y-116092918D01*
X96580884Y-116093560D01*
X96219924Y-116093803D01*
X95412339Y-116094279D01*
X94616583Y-116094627D01*
X93835299Y-116094848D01*
X93071126Y-116094946D01*
X92326705Y-116094924D01*
X91604677Y-116094785D01*
X90907681Y-116094531D01*
X90238359Y-116094166D01*
X89599350Y-116093693D01*
X88993296Y-116093115D01*
X88422836Y-116092435D01*
X87890612Y-116091655D01*
X87399263Y-116090780D01*
X86951431Y-116089811D01*
X86549756Y-116088752D01*
X86196877Y-116087605D01*
X85895436Y-116086375D01*
X85648074Y-116085063D01*
X85457430Y-116083674D01*
X85326145Y-116082209D01*
X85279000Y-116081344D01*
X85007529Y-116074255D01*
X84792449Y-116066202D01*
X84626655Y-116055541D01*
X84503043Y-116040626D01*
X84414508Y-116019813D01*
X84353943Y-115991455D01*
X84314246Y-115953908D01*
X84288310Y-115905526D01*
X84269842Y-115847647D01*
X84263498Y-115741351D01*
X84613750Y-115741351D01*
X84645030Y-115743040D01*
X84736995Y-115744648D01*
X84886827Y-115746176D01*
X85091710Y-115747623D01*
X85348829Y-115748990D01*
X85655368Y-115750277D01*
X86008509Y-115751484D01*
X86405438Y-115752612D01*
X86843338Y-115753660D01*
X87319392Y-115754629D01*
X87830785Y-115755518D01*
X88374700Y-115756329D01*
X88948322Y-115757061D01*
X89548834Y-115757713D01*
X90173420Y-115758288D01*
X90819265Y-115758784D01*
X91483551Y-115759202D01*
X92163462Y-115759542D01*
X92856184Y-115759804D01*
X93558899Y-115759988D01*
X94268791Y-115760095D01*
X94983044Y-115760124D01*
X95698843Y-115760076D01*
X96413370Y-115759951D01*
X97123810Y-115759749D01*
X97827347Y-115759470D01*
X98521165Y-115759115D01*
X99202447Y-115758684D01*
X99868377Y-115758176D01*
X100516139Y-115757592D01*
X101142918Y-115756932D01*
X101745896Y-115756197D01*
X102322258Y-115755385D01*
X102869188Y-115754499D01*
X103383869Y-115753537D01*
X103863486Y-115752500D01*
X104305222Y-115751388D01*
X104706261Y-115750202D01*
X105063787Y-115748940D01*
X105374983Y-115747605D01*
X105637035Y-115746195D01*
X105847125Y-115744711D01*
X106002438Y-115743153D01*
X106100157Y-115741521D01*
X106135592Y-115740102D01*
X106237342Y-115725513D01*
X106307944Y-115707833D01*
X106330750Y-115692927D01*
X106302948Y-115652812D01*
X106228417Y-115599426D01*
X106120469Y-115540172D01*
X105992414Y-115482452D01*
X105874013Y-115438919D01*
X105655401Y-115367743D01*
X105734017Y-115300120D01*
X105766032Y-115268888D01*
X105788841Y-115231764D01*
X105804831Y-115177062D01*
X105816390Y-115093098D01*
X105825905Y-114968186D01*
X105834963Y-114805936D01*
X105845550Y-114626198D01*
X105857544Y-114493602D01*
X105874069Y-114391810D01*
X105898254Y-114304489D01*
X105933227Y-114215302D01*
X105959083Y-114157593D01*
X106009640Y-114040287D01*
X106040086Y-113943154D01*
X106055342Y-113841478D01*
X106060324Y-113710545D01*
X106060546Y-113647695D01*
X106054465Y-113462494D01*
X106033685Y-113332167D01*
X105993668Y-113248907D01*
X105929876Y-113204907D01*
X105837770Y-113192359D01*
X105796830Y-113194036D01*
X105648849Y-113204625D01*
X105574700Y-113018224D01*
X105534184Y-112890792D01*
X105498244Y-112733254D01*
X105474438Y-112578935D01*
X105473889Y-112573724D01*
X105437930Y-112325463D01*
X105382193Y-112065213D01*
X105311467Y-111809037D01*
X105230540Y-111572997D01*
X105144199Y-111373157D01*
X105083453Y-111263957D01*
X105021417Y-111181157D01*
X104923765Y-111072855D01*
X104787216Y-110935792D01*
X104608489Y-110766711D01*
X104384302Y-110562353D01*
X104308370Y-110494287D01*
X104196263Y-110391198D01*
X104097920Y-110295444D01*
X104025850Y-110219505D01*
X103996791Y-110183409D01*
X103959460Y-110091091D01*
X103945191Y-109979832D01*
X103954507Y-109875255D01*
X103987932Y-109802982D01*
X103989000Y-109801892D01*
X104038784Y-109769381D01*
X104131442Y-109722850D01*
X104250329Y-109670408D01*
X104302347Y-109649256D01*
X104442644Y-109589419D01*
X104529753Y-109541081D01*
X104571814Y-109499273D01*
X104578274Y-109480882D01*
X104578985Y-109466335D01*
X104572730Y-109454137D01*
X104554218Y-109443998D01*
X104518157Y-109435627D01*
X104459255Y-109428736D01*
X104372221Y-109423034D01*
X104251764Y-109418230D01*
X104092592Y-109414035D01*
X103889413Y-109410160D01*
X103636936Y-109406313D01*
X103329870Y-109402205D01*
X103086024Y-109399100D01*
X102805123Y-109395757D01*
X102469708Y-109392113D01*
X102088762Y-109388251D01*
X101671268Y-109384249D01*
X101226212Y-109380187D01*
X100762578Y-109376148D01*
X100289348Y-109372210D01*
X99815507Y-109368454D01*
X99350040Y-109364960D01*
X98951461Y-109362145D01*
X98547406Y-109359083D01*
X98161173Y-109355567D01*
X97797539Y-109351677D01*
X97461284Y-109347490D01*
X97157186Y-109343085D01*
X96890022Y-109338539D01*
X96664571Y-109333933D01*
X96485612Y-109329343D01*
X96357921Y-109324848D01*
X96286279Y-109320527D01*
X96272425Y-109318214D01*
X96281002Y-109301685D01*
X96351575Y-109277727D01*
X96483100Y-109246561D01*
X96674537Y-109208407D01*
X96924842Y-109163485D01*
X97232974Y-109112016D01*
X97297875Y-109101530D01*
X97443891Y-109077264D01*
X97532227Y-109060131D01*
X97568087Y-109048448D01*
X97556675Y-109040531D01*
X97504250Y-109034775D01*
X97422784Y-109033325D01*
X97292948Y-109036352D01*
X97129670Y-109043283D01*
X96947878Y-109053541D01*
X96853375Y-109059832D01*
X96382658Y-109100350D01*
X95962695Y-109153050D01*
X95581559Y-109219958D01*
X95227320Y-109303100D01*
X94959224Y-109381407D01*
X94875673Y-109408781D01*
X94797407Y-109437091D01*
X94718420Y-109469673D01*
X94632709Y-109509864D01*
X94534268Y-109561000D01*
X94417093Y-109626416D01*
X94275178Y-109709450D01*
X94102519Y-109813436D01*
X93893111Y-109941713D01*
X93640949Y-110097615D01*
X93392625Y-110251788D01*
X93176587Y-110385407D01*
X92925310Y-110539777D01*
X92658086Y-110703112D01*
X92394205Y-110863625D01*
X92152959Y-111009531D01*
X92112453Y-111033919D01*
X91905271Y-111157955D01*
X91727062Y-111261821D01*
X91569011Y-111348514D01*
X91422308Y-111421033D01*
X91278140Y-111482373D01*
X91127693Y-111535534D01*
X90962156Y-111583513D01*
X90772716Y-111629307D01*
X90550560Y-111675915D01*
X90286876Y-111726332D01*
X89972851Y-111783559D01*
X89836625Y-111808048D01*
X89374244Y-111895318D01*
X88895642Y-111993539D01*
X88413483Y-112099712D01*
X87940434Y-112210837D01*
X87489162Y-112323914D01*
X87072332Y-112435943D01*
X86702610Y-112543925D01*
X86617071Y-112570553D01*
X86457127Y-112628971D01*
X86324689Y-112698852D01*
X86206557Y-112790919D01*
X86089531Y-112915895D01*
X85960413Y-113084502D01*
X85927523Y-113130715D01*
X85806313Y-113288596D01*
X85700657Y-113394383D01*
X85623035Y-113446175D01*
X85501098Y-113515718D01*
X85420414Y-113586296D01*
X85372796Y-113673197D01*
X85350058Y-113791711D01*
X85344011Y-113957127D01*
X85343999Y-113967269D01*
X85348892Y-114119431D01*
X85362025Y-114259089D01*
X85381083Y-114363825D01*
X85386983Y-114383320D01*
X85429966Y-114506375D01*
X85135576Y-114998500D01*
X85032516Y-115166637D01*
X84931584Y-115323880D01*
X84840602Y-115458575D01*
X84767394Y-115559069D01*
X84727468Y-115606414D01*
X84662664Y-115675835D01*
X84621483Y-115726554D01*
X84613750Y-115741351D01*
X84263498Y-115741351D01*
X84262422Y-115723327D01*
X84308511Y-115590647D01*
X84410585Y-115443711D01*
X84465257Y-115382173D01*
X84533410Y-115298760D01*
X84621608Y-115175683D01*
X84719024Y-115028766D01*
X84814827Y-114873832D01*
X84825600Y-114855625D01*
X85049844Y-114474625D01*
X85016766Y-114160183D01*
X85001960Y-113887964D01*
X85020699Y-113666345D01*
X85073443Y-113491727D01*
X85110874Y-113423700D01*
X85167054Y-113361563D01*
X85257610Y-113284964D01*
X85353432Y-113216892D01*
X85538269Y-113066017D01*
X85691712Y-112880874D01*
X85808038Y-112722761D01*
X85915534Y-112595889D01*
X86024876Y-112493599D01*
X86146738Y-112409231D01*
X86291798Y-112336124D01*
X86470730Y-112267619D01*
X86694210Y-112197055D01*
X86868000Y-112147048D01*
X87329490Y-112020348D01*
X87772712Y-111905648D01*
X88212335Y-111799612D01*
X88663031Y-111698904D01*
X89139468Y-111600190D01*
X89656319Y-111500133D01*
X89963625Y-111443230D01*
X90204117Y-111397995D01*
X90437448Y-111351680D01*
X90652278Y-111306721D01*
X90837266Y-111265551D01*
X90981074Y-111230605D01*
X91064995Y-111206790D01*
X91148280Y-111174640D01*
X91257976Y-111123560D01*
X91396958Y-111051873D01*
X91568102Y-110957903D01*
X91774282Y-110839972D01*
X92018374Y-110696402D01*
X92303252Y-110525517D01*
X92631792Y-110325639D01*
X93006869Y-110095091D01*
X93431357Y-109832196D01*
X93585643Y-109736269D01*
X93844069Y-109576382D01*
X94057689Y-109446769D01*
X94234885Y-109343016D01*
X94384040Y-109260711D01*
X94513536Y-109195441D01*
X94631756Y-109142794D01*
X94747084Y-109098357D01*
X94867901Y-109057716D01*
X94884875Y-109052347D01*
X95263514Y-108947561D01*
X95674083Y-108862092D01*
X96124181Y-108794789D01*
X96621410Y-108744499D01*
X97129201Y-108712162D01*
X97352587Y-108702071D01*
X97522217Y-108696535D01*
X97647685Y-108695764D01*
X97738586Y-108699966D01*
G37*
X97738586Y-108699966D02*
X97804514Y-108709352D01*
X97855065Y-108724129D01*
X97865265Y-108728204D01*
X97972266Y-108793432D01*
X98047464Y-108879152D01*
X98075750Y-108967878D01*
X98080499Y-108979608D01*
X98098142Y-108989613D01*
X98133771Y-108998125D01*
X98192479Y-109005379D01*
X98279358Y-109011607D01*
X98399502Y-109017043D01*
X98558002Y-109021920D01*
X98759952Y-109026473D01*
X99010444Y-109030935D01*
X99314570Y-109035539D01*
X99652594Y-109040188D01*
X100027881Y-109044683D01*
X100450558Y-109048850D01*
X100904518Y-109052585D01*
X101373649Y-109055784D01*
X101841845Y-109058342D01*
X102292995Y-109060155D01*
X102710991Y-109061118D01*
X102907989Y-109061249D01*
X103296619Y-109061332D01*
X103626810Y-109061910D01*
X103903625Y-109063479D01*
X104132124Y-109066533D01*
X104317370Y-109071567D01*
X104464424Y-109079077D01*
X104578348Y-109089557D01*
X104664203Y-109103503D01*
X104727050Y-109121409D01*
X104771952Y-109143770D01*
X104803971Y-109171081D01*
X104828166Y-109203838D01*
X104849602Y-109242535D01*
X104854288Y-109251582D01*
X104900841Y-109404327D01*
X104897340Y-109567837D01*
X104855631Y-109693820D01*
X104780849Y-109779359D01*
X104644711Y-109867234D01*
X104449259Y-109956233D01*
X104349347Y-109993881D01*
X104328557Y-110009225D01*
X104334540Y-110037155D01*
X104373032Y-110085200D01*
X104449766Y-110160890D01*
X104539847Y-110243953D01*
X104755113Y-110440851D01*
X104928651Y-110602711D01*
X105066532Y-110736295D01*
X105174828Y-110848368D01*
X105259610Y-110945696D01*
X105326949Y-111035042D01*
X105382915Y-111123170D01*
X105433581Y-111216846D01*
X105458821Y-111267875D01*
X105540596Y-111461262D01*
X105621589Y-111695887D01*
X105695601Y-111949718D01*
X105756430Y-112200724D01*
X105797878Y-112426872D01*
X105807954Y-112508532D01*
X105823508Y-112653725D01*
X105838980Y-112747999D01*
X105860019Y-112803674D01*
X105892272Y-112833071D01*
X105941386Y-112848512D01*
X105966007Y-112853352D01*
X106108853Y-112910661D01*
X106231973Y-113018486D01*
X106322662Y-113164230D01*
X106347343Y-113231425D01*
X106388486Y-113435250D01*
X106400471Y-113658894D01*
X106385001Y-113884439D01*
X106343782Y-114093964D01*
X106278517Y-114269550D01*
X106242763Y-114331230D01*
X106217503Y-114384778D01*
X106199454Y-114465656D01*
X106187037Y-114585115D01*
X106178672Y-114754403D01*
X106177269Y-114797783D01*
X106165595Y-115184442D01*
X106303735Y-115253804D01*
X106479756Y-115362717D01*
X106599729Y-115486265D01*
X106635391Y-115544610D01*
X106677020Y-115685799D01*
X106660300Y-115822573D01*
X106589770Y-115941708D01*
X106469966Y-116029980D01*
X106468636Y-116030614D01*
X106455385Y-116035921D01*
X106437355Y-116040889D01*
X106412474Y-116045531D01*
X106378673Y-116049860D01*
X106333883Y-116053888D01*
X106276034Y-116057628D01*
X106203055Y-116061093D01*
X106112878Y-116064296D01*
X106003433Y-116067249D01*
X105872650Y-116069966D01*
X105718459Y-116072458D01*
X105538790Y-116074739D01*
X105331575Y-116076822D01*
X105094743Y-116078719D01*
X104826225Y-116080443D01*
X104523951Y-116082007D01*
X104185851Y-116083423D01*
X103809856Y-116084704D01*
X103393895Y-116085864D01*
X102935900Y-116086914D01*
X102433801Y-116087868D01*
X101885527Y-116088739D01*
X101289010Y-116089538D01*
X100642179Y-116090279D01*
X99942965Y-116090975D01*
X99189298Y-116091639D01*
X98379109Y-116092282D01*
X97510327Y-116092918D01*
X96580884Y-116093560D01*
X96219924Y-116093803D01*
X95412339Y-116094279D01*
X94616583Y-116094627D01*
X93835299Y-116094848D01*
X93071126Y-116094946D01*
X92326705Y-116094924D01*
X91604677Y-116094785D01*
X90907681Y-116094531D01*
X90238359Y-116094166D01*
X89599350Y-116093693D01*
X88993296Y-116093115D01*
X88422836Y-116092435D01*
X87890612Y-116091655D01*
X87399263Y-116090780D01*
X86951431Y-116089811D01*
X86549756Y-116088752D01*
X86196877Y-116087605D01*
X85895436Y-116086375D01*
X85648074Y-116085063D01*
X85457430Y-116083674D01*
X85326145Y-116082209D01*
X85279000Y-116081344D01*
X85007529Y-116074255D01*
X84792449Y-116066202D01*
X84626655Y-116055541D01*
X84503043Y-116040626D01*
X84414508Y-116019813D01*
X84353943Y-115991455D01*
X84314246Y-115953908D01*
X84288310Y-115905526D01*
X84269842Y-115847647D01*
X84263498Y-115741351D01*
X84613750Y-115741351D01*
X84645030Y-115743040D01*
X84736995Y-115744648D01*
X84886827Y-115746176D01*
X85091710Y-115747623D01*
X85348829Y-115748990D01*
X85655368Y-115750277D01*
X86008509Y-115751484D01*
X86405438Y-115752612D01*
X86843338Y-115753660D01*
X87319392Y-115754629D01*
X87830785Y-115755518D01*
X88374700Y-115756329D01*
X88948322Y-115757061D01*
X89548834Y-115757713D01*
X90173420Y-115758288D01*
X90819265Y-115758784D01*
X91483551Y-115759202D01*
X92163462Y-115759542D01*
X92856184Y-115759804D01*
X93558899Y-115759988D01*
X94268791Y-115760095D01*
X94983044Y-115760124D01*
X95698843Y-115760076D01*
X96413370Y-115759951D01*
X97123810Y-115759749D01*
X97827347Y-115759470D01*
X98521165Y-115759115D01*
X99202447Y-115758684D01*
X99868377Y-115758176D01*
X100516139Y-115757592D01*
X101142918Y-115756932D01*
X101745896Y-115756197D01*
X102322258Y-115755385D01*
X102869188Y-115754499D01*
X103383869Y-115753537D01*
X103863486Y-115752500D01*
X104305222Y-115751388D01*
X104706261Y-115750202D01*
X105063787Y-115748940D01*
X105374983Y-115747605D01*
X105637035Y-115746195D01*
X105847125Y-115744711D01*
X106002438Y-115743153D01*
X106100157Y-115741521D01*
X106135592Y-115740102D01*
X106237342Y-115725513D01*
X106307944Y-115707833D01*
X106330750Y-115692927D01*
X106302948Y-115652812D01*
X106228417Y-115599426D01*
X106120469Y-115540172D01*
X105992414Y-115482452D01*
X105874013Y-115438919D01*
X105655401Y-115367743D01*
X105734017Y-115300120D01*
X105766032Y-115268888D01*
X105788841Y-115231764D01*
X105804831Y-115177062D01*
X105816390Y-115093098D01*
X105825905Y-114968186D01*
X105834963Y-114805936D01*
X105845550Y-114626198D01*
X105857544Y-114493602D01*
X105874069Y-114391810D01*
X105898254Y-114304489D01*
X105933227Y-114215302D01*
X105959083Y-114157593D01*
X106009640Y-114040287D01*
X106040086Y-113943154D01*
X106055342Y-113841478D01*
X106060324Y-113710545D01*
X106060546Y-113647695D01*
X106054465Y-113462494D01*
X106033685Y-113332167D01*
X105993668Y-113248907D01*
X105929876Y-113204907D01*
X105837770Y-113192359D01*
X105796830Y-113194036D01*
X105648849Y-113204625D01*
X105574700Y-113018224D01*
X105534184Y-112890792D01*
X105498244Y-112733254D01*
X105474438Y-112578935D01*
X105473889Y-112573724D01*
X105437930Y-112325463D01*
X105382193Y-112065213D01*
X105311467Y-111809037D01*
X105230540Y-111572997D01*
X105144199Y-111373157D01*
X105083453Y-111263957D01*
X105021417Y-111181157D01*
X104923765Y-111072855D01*
X104787216Y-110935792D01*
X104608489Y-110766711D01*
X104384302Y-110562353D01*
X104308370Y-110494287D01*
X104196263Y-110391198D01*
X104097920Y-110295444D01*
X104025850Y-110219505D01*
X103996791Y-110183409D01*
X103959460Y-110091091D01*
X103945191Y-109979832D01*
X103954507Y-109875255D01*
X103987932Y-109802982D01*
X103989000Y-109801892D01*
X104038784Y-109769381D01*
X104131442Y-109722850D01*
X104250329Y-109670408D01*
X104302347Y-109649256D01*
X104442644Y-109589419D01*
X104529753Y-109541081D01*
X104571814Y-109499273D01*
X104578274Y-109480882D01*
X104578985Y-109466335D01*
X104572730Y-109454137D01*
X104554218Y-109443998D01*
X104518157Y-109435627D01*
X104459255Y-109428736D01*
X104372221Y-109423034D01*
X104251764Y-109418230D01*
X104092592Y-109414035D01*
X103889413Y-109410160D01*
X103636936Y-109406313D01*
X103329870Y-109402205D01*
X103086024Y-109399100D01*
X102805123Y-109395757D01*
X102469708Y-109392113D01*
X102088762Y-109388251D01*
X101671268Y-109384249D01*
X101226212Y-109380187D01*
X100762578Y-109376148D01*
X100289348Y-109372210D01*
X99815507Y-109368454D01*
X99350040Y-109364960D01*
X98951461Y-109362145D01*
X98547406Y-109359083D01*
X98161173Y-109355567D01*
X97797539Y-109351677D01*
X97461284Y-109347490D01*
X97157186Y-109343085D01*
X96890022Y-109338539D01*
X96664571Y-109333933D01*
X96485612Y-109329343D01*
X96357921Y-109324848D01*
X96286279Y-109320527D01*
X96272425Y-109318214D01*
X96281002Y-109301685D01*
X96351575Y-109277727D01*
X96483100Y-109246561D01*
X96674537Y-109208407D01*
X96924842Y-109163485D01*
X97232974Y-109112016D01*
X97297875Y-109101530D01*
X97443891Y-109077264D01*
X97532227Y-109060131D01*
X97568087Y-109048448D01*
X97556675Y-109040531D01*
X97504250Y-109034775D01*
X97422784Y-109033325D01*
X97292948Y-109036352D01*
X97129670Y-109043283D01*
X96947878Y-109053541D01*
X96853375Y-109059832D01*
X96382658Y-109100350D01*
X95962695Y-109153050D01*
X95581559Y-109219958D01*
X95227320Y-109303100D01*
X94959224Y-109381407D01*
X94875673Y-109408781D01*
X94797407Y-109437091D01*
X94718420Y-109469673D01*
X94632709Y-109509864D01*
X94534268Y-109561000D01*
X94417093Y-109626416D01*
X94275178Y-109709450D01*
X94102519Y-109813436D01*
X93893111Y-109941713D01*
X93640949Y-110097615D01*
X93392625Y-110251788D01*
X93176587Y-110385407D01*
X92925310Y-110539777D01*
X92658086Y-110703112D01*
X92394205Y-110863625D01*
X92152959Y-111009531D01*
X92112453Y-111033919D01*
X91905271Y-111157955D01*
X91727062Y-111261821D01*
X91569011Y-111348514D01*
X91422308Y-111421033D01*
X91278140Y-111482373D01*
X91127693Y-111535534D01*
X90962156Y-111583513D01*
X90772716Y-111629307D01*
X90550560Y-111675915D01*
X90286876Y-111726332D01*
X89972851Y-111783559D01*
X89836625Y-111808048D01*
X89374244Y-111895318D01*
X88895642Y-111993539D01*
X88413483Y-112099712D01*
X87940434Y-112210837D01*
X87489162Y-112323914D01*
X87072332Y-112435943D01*
X86702610Y-112543925D01*
X86617071Y-112570553D01*
X86457127Y-112628971D01*
X86324689Y-112698852D01*
X86206557Y-112790919D01*
X86089531Y-112915895D01*
X85960413Y-113084502D01*
X85927523Y-113130715D01*
X85806313Y-113288596D01*
X85700657Y-113394383D01*
X85623035Y-113446175D01*
X85501098Y-113515718D01*
X85420414Y-113586296D01*
X85372796Y-113673197D01*
X85350058Y-113791711D01*
X85344011Y-113957127D01*
X85343999Y-113967269D01*
X85348892Y-114119431D01*
X85362025Y-114259089D01*
X85381083Y-114363825D01*
X85386983Y-114383320D01*
X85429966Y-114506375D01*
X85135576Y-114998500D01*
X85032516Y-115166637D01*
X84931584Y-115323880D01*
X84840602Y-115458575D01*
X84767394Y-115559069D01*
X84727468Y-115606414D01*
X84662664Y-115675835D01*
X84621483Y-115726554D01*
X84613750Y-115741351D01*
X84263498Y-115741351D01*
X84262422Y-115723327D01*
X84308511Y-115590647D01*
X84410585Y-115443711D01*
X84465257Y-115382173D01*
X84533410Y-115298760D01*
X84621608Y-115175683D01*
X84719024Y-115028766D01*
X84814827Y-114873832D01*
X84825600Y-114855625D01*
X85049844Y-114474625D01*
X85016766Y-114160183D01*
X85001960Y-113887964D01*
X85020699Y-113666345D01*
X85073443Y-113491727D01*
X85110874Y-113423700D01*
X85167054Y-113361563D01*
X85257610Y-113284964D01*
X85353432Y-113216892D01*
X85538269Y-113066017D01*
X85691712Y-112880874D01*
X85808038Y-112722761D01*
X85915534Y-112595889D01*
X86024876Y-112493599D01*
X86146738Y-112409231D01*
X86291798Y-112336124D01*
X86470730Y-112267619D01*
X86694210Y-112197055D01*
X86868000Y-112147048D01*
X87329490Y-112020348D01*
X87772712Y-111905648D01*
X88212335Y-111799612D01*
X88663031Y-111698904D01*
X89139468Y-111600190D01*
X89656319Y-111500133D01*
X89963625Y-111443230D01*
X90204117Y-111397995D01*
X90437448Y-111351680D01*
X90652278Y-111306721D01*
X90837266Y-111265551D01*
X90981074Y-111230605D01*
X91064995Y-111206790D01*
X91148280Y-111174640D01*
X91257976Y-111123560D01*
X91396958Y-111051873D01*
X91568102Y-110957903D01*
X91774282Y-110839972D01*
X92018374Y-110696402D01*
X92303252Y-110525517D01*
X92631792Y-110325639D01*
X93006869Y-110095091D01*
X93431357Y-109832196D01*
X93585643Y-109736269D01*
X93844069Y-109576382D01*
X94057689Y-109446769D01*
X94234885Y-109343016D01*
X94384040Y-109260711D01*
X94513536Y-109195441D01*
X94631756Y-109142794D01*
X94747084Y-109098357D01*
X94867901Y-109057716D01*
X94884875Y-109052347D01*
X95263514Y-108947561D01*
X95674083Y-108862092D01*
X96124181Y-108794789D01*
X96621410Y-108744499D01*
X97129201Y-108712162D01*
X97352587Y-108702071D01*
X97522217Y-108696535D01*
X97647685Y-108695764D01*
X97738586Y-108699966D01*
D11*
G04 #@! TO.C,C13*
X109749000Y-73075748D02*
X109749000Y-74498252D01*
X107929000Y-73075748D02*
X107929000Y-74498252D01*
G04 #@! TO.C,C12*
X124790252Y-75840000D02*
X123367748Y-75840000D01*
X124790252Y-74020000D02*
X123367748Y-74020000D01*
G04 #@! TO.C,C11*
X95779000Y-73202748D02*
X95779000Y-74625252D01*
X93959000Y-73202748D02*
X93959000Y-74625252D01*
G04 #@! TO.C,C10*
X81809000Y-73075748D02*
X81809000Y-74498252D01*
X79989000Y-73075748D02*
X79989000Y-74498252D01*
G04 #@! TO.C,Q7*
X104211000Y-76960000D02*
X105141000Y-76960000D01*
X107371000Y-76960000D02*
X106441000Y-76960000D01*
X107371000Y-76960000D02*
X107371000Y-73800000D01*
X104211000Y-76960000D02*
X104211000Y-75500000D01*
G04 #@! TO.C,Q5*
X118054000Y-76960000D02*
X118984000Y-76960000D01*
X121214000Y-76960000D02*
X120284000Y-76960000D01*
X121214000Y-76960000D02*
X121214000Y-73800000D01*
X118054000Y-76960000D02*
X118054000Y-75500000D01*
G04 #@! TO.C,Q3*
X90241000Y-76960000D02*
X91171000Y-76960000D01*
X93401000Y-76960000D02*
X92471000Y-76960000D01*
X93401000Y-76960000D02*
X93401000Y-73800000D01*
X90241000Y-76960000D02*
X90241000Y-75500000D01*
G04 #@! TO.C,Q1*
X76271000Y-76833000D02*
X77201000Y-76833000D01*
X79431000Y-76833000D02*
X78501000Y-76833000D01*
X79431000Y-76833000D02*
X79431000Y-73673000D01*
X76271000Y-76833000D02*
X76271000Y-75373000D01*
G04 #@! TO.C,R22*
X108479000Y-148021064D02*
X108479000Y-146566936D01*
X106659000Y-148021064D02*
X106659000Y-146566936D01*
G04 #@! TO.C,R21*
X106066000Y-148047064D02*
X106066000Y-146592936D01*
X104246000Y-148047064D02*
X104246000Y-146592936D01*
G04 #@! TO.C,J2*
X128100000Y-105300000D02*
X127800000Y-105900000D01*
X127500000Y-105300000D02*
X128100000Y-105300000D01*
X127800000Y-105900000D02*
X127500000Y-105300000D01*
X128800000Y-117910000D02*
X128800000Y-118890000D01*
X128800000Y-113710000D02*
X128800000Y-114690000D01*
X128800000Y-109510000D02*
X128800000Y-110490000D01*
X125690000Y-120800000D02*
X124410000Y-120800000D01*
X125690000Y-120200000D02*
X124410000Y-120200000D01*
X125690000Y-116600000D02*
X124410000Y-116600000D01*
X125690000Y-116000000D02*
X124410000Y-116000000D01*
X125690000Y-112400000D02*
X124410000Y-112400000D01*
X125690000Y-111800000D02*
X124410000Y-111800000D01*
X125690000Y-108200000D02*
X124410000Y-108200000D01*
X125690000Y-107600000D02*
X124410000Y-107600000D01*
X141810000Y-123310000D02*
X141810000Y-114200000D01*
X128790000Y-123310000D02*
X141810000Y-123310000D01*
X128790000Y-122500000D02*
X128790000Y-123310000D01*
X141810000Y-105090000D02*
X141810000Y-114200000D01*
X128790000Y-105090000D02*
X141810000Y-105090000D01*
X128790000Y-105900000D02*
X128790000Y-105090000D01*
G04 #@! TO.C,J1*
X62500000Y-123100000D02*
X62800000Y-122500000D01*
X63100000Y-123100000D02*
X62500000Y-123100000D01*
X62800000Y-122500000D02*
X63100000Y-123100000D01*
X61800000Y-110490000D02*
X61800000Y-109510000D01*
X61800000Y-114690000D02*
X61800000Y-113710000D01*
X61800000Y-118890000D02*
X61800000Y-117910000D01*
X64910000Y-107600000D02*
X66190000Y-107600000D01*
X64910000Y-108200000D02*
X66190000Y-108200000D01*
X64910000Y-111800000D02*
X66190000Y-111800000D01*
X64910000Y-112400000D02*
X66190000Y-112400000D01*
X64910000Y-116000000D02*
X66190000Y-116000000D01*
X64910000Y-116600000D02*
X66190000Y-116600000D01*
X64910000Y-120200000D02*
X66190000Y-120200000D01*
X64910000Y-120800000D02*
X66190000Y-120800000D01*
X48790000Y-105090000D02*
X48790000Y-114200000D01*
X61810000Y-105090000D02*
X48790000Y-105090000D01*
X61810000Y-105900000D02*
X61810000Y-105090000D01*
X48790000Y-123310000D02*
X48790000Y-114200000D01*
X61810000Y-123310000D02*
X48790000Y-123310000D01*
X61810000Y-122500000D02*
X61810000Y-123310000D01*
D13*
G04 #@! TO.C,J3*
X50000000Y-74500000D02*
X53000000Y-74500000D01*
X53000000Y-84500000D02*
X50000000Y-84500000D01*
X50000000Y-84500000D02*
X50000000Y-74500000D01*
D11*
G04 #@! TO.C,U4*
X71678000Y-144538000D02*
X69248000Y-144538000D01*
X69918000Y-147608000D02*
X71678000Y-147608000D01*
G04 #@! TO.C,R20*
X109159064Y-126217000D02*
X107704936Y-126217000D01*
X109159064Y-128037000D02*
X107704936Y-128037000D01*
G04 #@! TO.C,R19*
X109185064Y-131297000D02*
X107730936Y-131297000D01*
X109185064Y-133117000D02*
X107730936Y-133117000D01*
G04 #@! TO.C,R18*
X81542936Y-133117000D02*
X82997064Y-133117000D01*
X81542936Y-131297000D02*
X82997064Y-131297000D01*
G04 #@! TO.C,R17*
X81542936Y-128037000D02*
X82997064Y-128037000D01*
X81542936Y-126217000D02*
X82997064Y-126217000D01*
G04 #@! TO.C,C9*
X73554000Y-142441252D02*
X73554000Y-141018748D01*
X71734000Y-142441252D02*
X71734000Y-141018748D01*
G04 #@! TO.C,C8*
X68474000Y-142402752D02*
X68474000Y-140980248D01*
X66654000Y-142402752D02*
X66654000Y-140980248D01*
G04 #@! TO.C,C7*
X101612248Y-124818000D02*
X103034752Y-124818000D01*
X101612248Y-126638000D02*
X103034752Y-126638000D01*
G04 #@! TO.C,C6*
X101650748Y-132692000D02*
X103073252Y-132692000D01*
X101650748Y-134512000D02*
X103073252Y-134512000D01*
G04 #@! TO.C,C5*
X89103252Y-134512000D02*
X87680748Y-134512000D01*
X89103252Y-132692000D02*
X87680748Y-132692000D01*
G04 #@! TO.C,C4*
X89103252Y-126638000D02*
X87680748Y-126638000D01*
X89103252Y-124818000D02*
X87680748Y-124818000D01*
D14*
G04 #@! TO.C,J4*
X103203140Y-144301000D02*
X105004000Y-144301000D01*
X105029000Y-144301000D02*
X105029000Y-143510000D01*
X105029000Y-143510000D02*
X106426000Y-143510000D01*
X106426000Y-143510000D02*
X106426000Y-144301000D01*
X106423000Y-144301000D02*
X109979000Y-144301000D01*
X109979000Y-144301000D02*
X109979000Y-143510000D01*
X109982000Y-143510000D02*
X111379000Y-143510000D01*
X111379000Y-143510000D02*
X111379000Y-144301000D01*
X111379000Y-144301000D02*
X113204000Y-144301000D01*
X103205280Y-139151360D02*
X113202720Y-139151360D01*
X113204000Y-144301000D02*
X113204000Y-139151360D01*
X103205280Y-139151360D02*
X103205280Y-144301000D01*
X103205280Y-140352780D02*
X103205280Y-142349220D01*
D11*
G04 #@! TO.C,Q2*
X81146000Y-94054000D02*
X81146000Y-92554000D01*
X81146000Y-92554000D02*
X79336000Y-92554000D01*
X79336000Y-92554000D02*
X79336000Y-87429000D01*
X70746000Y-94054000D02*
X70746000Y-92554000D01*
X70746000Y-92554000D02*
X72556000Y-92554000D01*
X72556000Y-92554000D02*
X72556000Y-91454000D01*
G04 #@! TO.C,R15*
X101634936Y-131718000D02*
X103089064Y-131718000D01*
X101634936Y-129898000D02*
X103089064Y-129898000D01*
G04 #@! TO.C,U2*
X60776000Y-136020000D02*
X59676000Y-136020000D01*
X60776000Y-136290000D02*
X60776000Y-136020000D01*
X62276000Y-136290000D02*
X60776000Y-136290000D01*
X60776000Y-129660000D02*
X57946000Y-129660000D01*
X60776000Y-129390000D02*
X60776000Y-129660000D01*
X62276000Y-129390000D02*
X60776000Y-129390000D01*
G04 #@! TO.C,R16*
X101634936Y-129434000D02*
X103089064Y-129434000D01*
X101634936Y-127614000D02*
X103089064Y-127614000D01*
G04 #@! TO.C,R14*
X89119064Y-129898000D02*
X87664936Y-129898000D01*
X89119064Y-131718000D02*
X87664936Y-131718000D01*
G04 #@! TO.C,R13*
X89119064Y-127614000D02*
X87664936Y-127614000D01*
X89119064Y-129434000D02*
X87664936Y-129434000D01*
G04 #@! TO.C,R12*
X100491936Y-78507000D02*
X101946064Y-78507000D01*
X100491936Y-76687000D02*
X101946064Y-76687000D01*
G04 #@! TO.C,R11*
X110342000Y-73059936D02*
X110342000Y-74514064D01*
X112162000Y-73059936D02*
X112162000Y-74514064D01*
G04 #@! TO.C,R10*
X100618936Y-73046000D02*
X102073064Y-73046000D01*
X100618936Y-71226000D02*
X102073064Y-71226000D01*
G04 #@! TO.C,R9*
X114461936Y-78507000D02*
X115916064Y-78507000D01*
X114461936Y-76687000D02*
X115916064Y-76687000D01*
G04 #@! TO.C,R8*
X124806064Y-76433000D02*
X123351936Y-76433000D01*
X124806064Y-78253000D02*
X123351936Y-78253000D01*
G04 #@! TO.C,R7*
X114461936Y-73046000D02*
X115916064Y-73046000D01*
X114461936Y-71226000D02*
X115916064Y-71226000D01*
G04 #@! TO.C,R6*
X87976064Y-76687000D02*
X86521936Y-76687000D01*
X87976064Y-78507000D02*
X86521936Y-78507000D01*
G04 #@! TO.C,R5*
X96372000Y-73160936D02*
X96372000Y-74615064D01*
X98192000Y-73160936D02*
X98192000Y-74615064D01*
G04 #@! TO.C,R4*
X86521936Y-73046000D02*
X87976064Y-73046000D01*
X86521936Y-71226000D02*
X87976064Y-71226000D01*
G04 #@! TO.C,R3*
X72678936Y-78507000D02*
X74133064Y-78507000D01*
X72678936Y-76687000D02*
X74133064Y-76687000D01*
G04 #@! TO.C,R2*
X82402000Y-73059936D02*
X82402000Y-74514064D01*
X84222000Y-73059936D02*
X84222000Y-74514064D01*
G04 #@! TO.C,R1*
X72678936Y-73046000D02*
X74133064Y-73046000D01*
X72678936Y-71226000D02*
X74133064Y-71226000D01*
G04 #@! TO.C,FB2*
X67383242Y-126090000D02*
X65712758Y-126090000D01*
X67383242Y-127910000D02*
X65712758Y-127910000D01*
G04 #@! TO.C,FB1*
X61541242Y-137010000D02*
X59870758Y-137010000D01*
X61541242Y-138830000D02*
X59870758Y-138830000D01*
G04 #@! TO.C,D4*
X98759000Y-75811000D02*
X102819000Y-75811000D01*
X98759000Y-73541000D02*
X98759000Y-75811000D01*
X102819000Y-73541000D02*
X98759000Y-73541000D01*
G04 #@! TO.C,D3*
X112729000Y-75811000D02*
X116789000Y-75811000D01*
X112729000Y-73541000D02*
X112729000Y-75811000D01*
X116789000Y-73541000D02*
X112729000Y-73541000D01*
G04 #@! TO.C,D2*
X84789000Y-75811000D02*
X88849000Y-75811000D01*
X84789000Y-73541000D02*
X84789000Y-75811000D01*
X88849000Y-73541000D02*
X84789000Y-73541000D01*
G04 #@! TO.C,D1*
X70946000Y-75811000D02*
X75006000Y-75811000D01*
X70946000Y-73541000D02*
X70946000Y-75811000D01*
X75006000Y-73541000D02*
X70946000Y-73541000D01*
G04 #@! TO.C,C3*
X95961252Y-124818000D02*
X94538748Y-124818000D01*
X95961252Y-126638000D02*
X94538748Y-126638000D01*
G04 #@! TO.C,C2*
X65328748Y-138830000D02*
X66751252Y-138830000D01*
X65328748Y-137010000D02*
X66751252Y-137010000D01*
G04 #@! TO.C,C1*
X59486748Y-127910000D02*
X60909252Y-127910000D01*
X59486748Y-126090000D02*
X60909252Y-126090000D01*
G04 #@! TO.C,Q8*
X105830000Y-92481000D02*
X105830000Y-91381000D01*
X104020000Y-92481000D02*
X105830000Y-92481000D01*
X104020000Y-93981000D02*
X104020000Y-92481000D01*
X112610000Y-92481000D02*
X112610000Y-87356000D01*
X114420000Y-92481000D02*
X112610000Y-92481000D01*
X114420000Y-93981000D02*
X114420000Y-92481000D01*
G04 #@! TO.C,Q6*
X120816000Y-92735000D02*
X120816000Y-91635000D01*
X119006000Y-92735000D02*
X120816000Y-92735000D01*
X119006000Y-94235000D02*
X119006000Y-92735000D01*
X127596000Y-92735000D02*
X127596000Y-87610000D01*
X129406000Y-92735000D02*
X127596000Y-92735000D01*
X129406000Y-94235000D02*
X129406000Y-92735000D01*
G04 #@! TO.C,Q4*
X87034000Y-92554000D02*
X87034000Y-91454000D01*
X85224000Y-92554000D02*
X87034000Y-92554000D01*
X85224000Y-94054000D02*
X85224000Y-92554000D01*
X93814000Y-92554000D02*
X93814000Y-87429000D01*
X95624000Y-92554000D02*
X93814000Y-92554000D01*
X95624000Y-94054000D02*
X95624000Y-92554000D01*
D10*
G04 #@! TO.C,U3*
X93625000Y-127659000D02*
X93625000Y-127834000D01*
X96875000Y-127659000D02*
X96875000Y-127934000D01*
X96875000Y-130909000D02*
X96875000Y-130634000D01*
X93625000Y-130909000D02*
X93625000Y-130634000D01*
X93625000Y-127659000D02*
X96875000Y-127659000D01*
X93625000Y-130909000D02*
X96875000Y-130909000D01*
X93625000Y-127834000D02*
X92550000Y-127834000D01*
D15*
G04 #@! TO.C,U1*
X134780000Y-137920000D02*
X134780000Y-143000000D01*
X134780000Y-143000000D02*
X137320000Y-143000000D01*
X137320000Y-137920000D02*
X137320000Y-143000000D01*
X134780000Y-137920000D02*
X137320000Y-137920000D01*
X117635000Y-137920000D02*
X117635000Y-143635000D01*
X117635000Y-143635000D02*
X120175000Y-143635000D01*
X120175000Y-137920000D02*
X120175000Y-143635000D01*
X117635000Y-137920000D02*
X120175000Y-137920000D01*
X135415000Y-135253000D02*
X135415000Y-137031000D01*
X135415000Y-137031000D02*
X138082000Y-137031000D01*
X138082000Y-135253000D02*
X138082000Y-137031000D01*
X135415000Y-135253000D02*
X138082000Y-135253000D01*
X131348460Y-135253000D02*
X131348460Y-137031000D01*
X131348460Y-137031000D02*
X134018000Y-137031000D01*
X134018000Y-135253000D02*
X134018000Y-137031000D01*
X131348460Y-135253000D02*
X134018000Y-135253000D01*
X131348460Y-143889000D02*
X131348460Y-145667000D01*
X131348460Y-145667000D02*
X134018000Y-145667000D01*
X134018000Y-143889000D02*
X134018000Y-145667000D01*
X131348460Y-143889000D02*
X134018000Y-143889000D01*
X135415000Y-143889000D02*
X135415000Y-145667000D01*
X135415000Y-145667000D02*
X138082000Y-145667000D01*
X138082000Y-143889000D02*
X138082000Y-145667000D01*
X135415000Y-143889000D02*
X138082000Y-143889000D01*
D14*
X117000000Y-131570000D02*
X117000000Y-149367780D01*
X117000000Y-149367780D02*
X137998180Y-149367780D01*
X137998180Y-149367780D02*
X137998180Y-132240560D01*
X137998180Y-132240560D02*
X137327620Y-131570000D01*
X137327620Y-131570000D02*
X117000000Y-131570000D01*
X139423120Y-135969280D02*
X139423120Y-144963420D01*
X139423120Y-144963420D02*
X132069820Y-144963420D01*
X132069820Y-144963420D02*
X132069820Y-135964200D01*
X132069820Y-135964200D02*
X139423120Y-135964200D01*
D16*
X135415000Y-130681000D02*
G75*
G03*
X135415000Y-130681000I-254000J0D01*
G01*
D11*
G04 #@! TO.C,BZ1*
X102630000Y-145034000D02*
G75*
G03*
X102630000Y-145034000I-6100000J0D01*
G01*
G04 #@! TO.C,C13*
D10*
X109196142Y-70238857D02*
X109243761Y-70286476D01*
X109291380Y-70429333D01*
X109291380Y-70524571D01*
X109243761Y-70667428D01*
X109148523Y-70762666D01*
X109053285Y-70810285D01*
X108862809Y-70857904D01*
X108719952Y-70857904D01*
X108529476Y-70810285D01*
X108434238Y-70762666D01*
X108339000Y-70667428D01*
X108291380Y-70524571D01*
X108291380Y-70429333D01*
X108339000Y-70286476D01*
X108386619Y-70238857D01*
X109291380Y-69286476D02*
X109291380Y-69857904D01*
X109291380Y-69572190D02*
X108291380Y-69572190D01*
X108434238Y-69667428D01*
X108529476Y-69762666D01*
X108577095Y-69857904D01*
X108291380Y-68953142D02*
X108291380Y-68334095D01*
X108672333Y-68667428D01*
X108672333Y-68524571D01*
X108719952Y-68429333D01*
X108767571Y-68381714D01*
X108862809Y-68334095D01*
X109100904Y-68334095D01*
X109196142Y-68381714D01*
X109243761Y-68429333D01*
X109291380Y-68524571D01*
X109291380Y-68810285D01*
X109243761Y-68905523D01*
X109196142Y-68953142D01*
G04 #@! TO.C,C12*
X123309142Y-71477142D02*
X123261523Y-71524761D01*
X123118666Y-71572380D01*
X123023428Y-71572380D01*
X122880571Y-71524761D01*
X122785333Y-71429523D01*
X122737714Y-71334285D01*
X122690095Y-71143809D01*
X122690095Y-71000952D01*
X122737714Y-70810476D01*
X122785333Y-70715238D01*
X122880571Y-70620000D01*
X123023428Y-70572380D01*
X123118666Y-70572380D01*
X123261523Y-70620000D01*
X123309142Y-70667619D01*
X124261523Y-71572380D02*
X123690095Y-71572380D01*
X123975809Y-71572380D02*
X123975809Y-70572380D01*
X123880571Y-70715238D01*
X123785333Y-70810476D01*
X123690095Y-70858095D01*
X124642476Y-70667619D02*
X124690095Y-70620000D01*
X124785333Y-70572380D01*
X125023428Y-70572380D01*
X125118666Y-70620000D01*
X125166285Y-70667619D01*
X125213904Y-70762857D01*
X125213904Y-70858095D01*
X125166285Y-71000952D01*
X124594857Y-71572380D01*
X125213904Y-71572380D01*
G04 #@! TO.C,C11*
X95353142Y-70238857D02*
X95400761Y-70286476D01*
X95448380Y-70429333D01*
X95448380Y-70524571D01*
X95400761Y-70667428D01*
X95305523Y-70762666D01*
X95210285Y-70810285D01*
X95019809Y-70857904D01*
X94876952Y-70857904D01*
X94686476Y-70810285D01*
X94591238Y-70762666D01*
X94496000Y-70667428D01*
X94448380Y-70524571D01*
X94448380Y-70429333D01*
X94496000Y-70286476D01*
X94543619Y-70238857D01*
X95448380Y-69286476D02*
X95448380Y-69857904D01*
X95448380Y-69572190D02*
X94448380Y-69572190D01*
X94591238Y-69667428D01*
X94686476Y-69762666D01*
X94734095Y-69857904D01*
X95448380Y-68334095D02*
X95448380Y-68905523D01*
X95448380Y-68619809D02*
X94448380Y-68619809D01*
X94591238Y-68715047D01*
X94686476Y-68810285D01*
X94734095Y-68905523D01*
G04 #@! TO.C,C10*
X81256142Y-70365857D02*
X81303761Y-70413476D01*
X81351380Y-70556333D01*
X81351380Y-70651571D01*
X81303761Y-70794428D01*
X81208523Y-70889666D01*
X81113285Y-70937285D01*
X80922809Y-70984904D01*
X80779952Y-70984904D01*
X80589476Y-70937285D01*
X80494238Y-70889666D01*
X80399000Y-70794428D01*
X80351380Y-70651571D01*
X80351380Y-70556333D01*
X80399000Y-70413476D01*
X80446619Y-70365857D01*
X81351380Y-69413476D02*
X81351380Y-69984904D01*
X81351380Y-69699190D02*
X80351380Y-69699190D01*
X80494238Y-69794428D01*
X80589476Y-69889666D01*
X80637095Y-69984904D01*
X80351380Y-68794428D02*
X80351380Y-68699190D01*
X80399000Y-68603952D01*
X80446619Y-68556333D01*
X80541857Y-68508714D01*
X80732333Y-68461095D01*
X80970428Y-68461095D01*
X81160904Y-68508714D01*
X81256142Y-68556333D01*
X81303761Y-68603952D01*
X81351380Y-68699190D01*
X81351380Y-68794428D01*
X81303761Y-68889666D01*
X81256142Y-68937285D01*
X81160904Y-68984904D01*
X80970428Y-69032523D01*
X80732333Y-69032523D01*
X80541857Y-68984904D01*
X80446619Y-68937285D01*
X80399000Y-68889666D01*
X80351380Y-68794428D01*
G04 #@! TO.C,Q7*
X105695761Y-80303619D02*
X105600523Y-80256000D01*
X105505285Y-80160761D01*
X105362428Y-80017904D01*
X105267190Y-79970285D01*
X105171952Y-79970285D01*
X105219571Y-80208380D02*
X105124333Y-80160761D01*
X105029095Y-80065523D01*
X104981476Y-79875047D01*
X104981476Y-79541714D01*
X105029095Y-79351238D01*
X105124333Y-79256000D01*
X105219571Y-79208380D01*
X105410047Y-79208380D01*
X105505285Y-79256000D01*
X105600523Y-79351238D01*
X105648142Y-79541714D01*
X105648142Y-79875047D01*
X105600523Y-80065523D01*
X105505285Y-80160761D01*
X105410047Y-80208380D01*
X105219571Y-80208380D01*
X105981476Y-79208380D02*
X106648142Y-79208380D01*
X106219571Y-80208380D01*
G04 #@! TO.C,Q5*
X119538761Y-80303619D02*
X119443523Y-80256000D01*
X119348285Y-80160761D01*
X119205428Y-80017904D01*
X119110190Y-79970285D01*
X119014952Y-79970285D01*
X119062571Y-80208380D02*
X118967333Y-80160761D01*
X118872095Y-80065523D01*
X118824476Y-79875047D01*
X118824476Y-79541714D01*
X118872095Y-79351238D01*
X118967333Y-79256000D01*
X119062571Y-79208380D01*
X119253047Y-79208380D01*
X119348285Y-79256000D01*
X119443523Y-79351238D01*
X119491142Y-79541714D01*
X119491142Y-79875047D01*
X119443523Y-80065523D01*
X119348285Y-80160761D01*
X119253047Y-80208380D01*
X119062571Y-80208380D01*
X120395904Y-79208380D02*
X119919714Y-79208380D01*
X119872095Y-79684571D01*
X119919714Y-79636952D01*
X120014952Y-79589333D01*
X120253047Y-79589333D01*
X120348285Y-79636952D01*
X120395904Y-79684571D01*
X120443523Y-79779809D01*
X120443523Y-80017904D01*
X120395904Y-80113142D01*
X120348285Y-80160761D01*
X120253047Y-80208380D01*
X120014952Y-80208380D01*
X119919714Y-80160761D01*
X119872095Y-80113142D01*
G04 #@! TO.C,Q3*
X91725761Y-80303619D02*
X91630523Y-80256000D01*
X91535285Y-80160761D01*
X91392428Y-80017904D01*
X91297190Y-79970285D01*
X91201952Y-79970285D01*
X91249571Y-80208380D02*
X91154333Y-80160761D01*
X91059095Y-80065523D01*
X91011476Y-79875047D01*
X91011476Y-79541714D01*
X91059095Y-79351238D01*
X91154333Y-79256000D01*
X91249571Y-79208380D01*
X91440047Y-79208380D01*
X91535285Y-79256000D01*
X91630523Y-79351238D01*
X91678142Y-79541714D01*
X91678142Y-79875047D01*
X91630523Y-80065523D01*
X91535285Y-80160761D01*
X91440047Y-80208380D01*
X91249571Y-80208380D01*
X92011476Y-79208380D02*
X92630523Y-79208380D01*
X92297190Y-79589333D01*
X92440047Y-79589333D01*
X92535285Y-79636952D01*
X92582904Y-79684571D01*
X92630523Y-79779809D01*
X92630523Y-80017904D01*
X92582904Y-80113142D01*
X92535285Y-80160761D01*
X92440047Y-80208380D01*
X92154333Y-80208380D01*
X92059095Y-80160761D01*
X92011476Y-80113142D01*
G04 #@! TO.C,Q1*
X77882761Y-80176619D02*
X77787523Y-80129000D01*
X77692285Y-80033761D01*
X77549428Y-79890904D01*
X77454190Y-79843285D01*
X77358952Y-79843285D01*
X77406571Y-80081380D02*
X77311333Y-80033761D01*
X77216095Y-79938523D01*
X77168476Y-79748047D01*
X77168476Y-79414714D01*
X77216095Y-79224238D01*
X77311333Y-79129000D01*
X77406571Y-79081380D01*
X77597047Y-79081380D01*
X77692285Y-79129000D01*
X77787523Y-79224238D01*
X77835142Y-79414714D01*
X77835142Y-79748047D01*
X77787523Y-79938523D01*
X77692285Y-80033761D01*
X77597047Y-80081380D01*
X77406571Y-80081380D01*
X78787523Y-80081380D02*
X78216095Y-80081380D01*
X78501809Y-80081380D02*
X78501809Y-79081380D01*
X78406571Y-79224238D01*
X78311333Y-79319476D01*
X78216095Y-79367095D01*
G04 #@! TO.C,R22*
X110180380Y-147708857D02*
X109704190Y-148042190D01*
X110180380Y-148280285D02*
X109180380Y-148280285D01*
X109180380Y-147899333D01*
X109228000Y-147804095D01*
X109275619Y-147756476D01*
X109370857Y-147708857D01*
X109513714Y-147708857D01*
X109608952Y-147756476D01*
X109656571Y-147804095D01*
X109704190Y-147899333D01*
X109704190Y-148280285D01*
X109275619Y-147327904D02*
X109228000Y-147280285D01*
X109180380Y-147185047D01*
X109180380Y-146946952D01*
X109228000Y-146851714D01*
X109275619Y-146804095D01*
X109370857Y-146756476D01*
X109466095Y-146756476D01*
X109608952Y-146804095D01*
X110180380Y-147375523D01*
X110180380Y-146756476D01*
X109275619Y-146375523D02*
X109228000Y-146327904D01*
X109180380Y-146232666D01*
X109180380Y-145994571D01*
X109228000Y-145899333D01*
X109275619Y-145851714D01*
X109370857Y-145804095D01*
X109466095Y-145804095D01*
X109608952Y-145851714D01*
X110180380Y-146423142D01*
X110180380Y-145804095D01*
G04 #@! TO.C,R21*
X103788380Y-147962857D02*
X103312190Y-148296190D01*
X103788380Y-148534285D02*
X102788380Y-148534285D01*
X102788380Y-148153333D01*
X102836000Y-148058095D01*
X102883619Y-148010476D01*
X102978857Y-147962857D01*
X103121714Y-147962857D01*
X103216952Y-148010476D01*
X103264571Y-148058095D01*
X103312190Y-148153333D01*
X103312190Y-148534285D01*
X102883619Y-147581904D02*
X102836000Y-147534285D01*
X102788380Y-147439047D01*
X102788380Y-147200952D01*
X102836000Y-147105714D01*
X102883619Y-147058095D01*
X102978857Y-147010476D01*
X103074095Y-147010476D01*
X103216952Y-147058095D01*
X103788380Y-147629523D01*
X103788380Y-147010476D01*
X103788380Y-146058095D02*
X103788380Y-146629523D01*
X103788380Y-146343809D02*
X102788380Y-146343809D01*
X102931238Y-146439047D01*
X103026476Y-146534285D01*
X103074095Y-146629523D01*
G04 #@! TO.C,J2*
X134286666Y-103592380D02*
X134286666Y-104306666D01*
X134239047Y-104449523D01*
X134143809Y-104544761D01*
X134000952Y-104592380D01*
X133905714Y-104592380D01*
X134715238Y-103687619D02*
X134762857Y-103640000D01*
X134858095Y-103592380D01*
X135096190Y-103592380D01*
X135191428Y-103640000D01*
X135239047Y-103687619D01*
X135286666Y-103782857D01*
X135286666Y-103878095D01*
X135239047Y-104020952D01*
X134667619Y-104592380D01*
X135286666Y-104592380D01*
G04 #@! TO.C,J1*
X55165666Y-103465380D02*
X55165666Y-104179666D01*
X55118047Y-104322523D01*
X55022809Y-104417761D01*
X54879952Y-104465380D01*
X54784714Y-104465380D01*
X56165666Y-104465380D02*
X55594238Y-104465380D01*
X55879952Y-104465380D02*
X55879952Y-103465380D01*
X55784714Y-103608238D01*
X55689476Y-103703476D01*
X55594238Y-103751095D01*
G04 #@! TO.C,J3*
X52006519Y-72649139D02*
X52006519Y-73363740D01*
X51958879Y-73506660D01*
X51863599Y-73601940D01*
X51720679Y-73649580D01*
X51625399Y-73649580D01*
X52387640Y-72649139D02*
X53006960Y-72649139D01*
X52673480Y-73030259D01*
X52816400Y-73030259D01*
X52911680Y-73077899D01*
X52959320Y-73125539D01*
X53006960Y-73220820D01*
X53006960Y-73459020D01*
X52959320Y-73554300D01*
X52911680Y-73601940D01*
X52816400Y-73649580D01*
X52530560Y-73649580D01*
X52435280Y-73601940D01*
X52387640Y-73554300D01*
G04 #@! TO.C,U4*
X70036095Y-148614380D02*
X70036095Y-149423904D01*
X70083714Y-149519142D01*
X70131333Y-149566761D01*
X70226571Y-149614380D01*
X70417047Y-149614380D01*
X70512285Y-149566761D01*
X70559904Y-149519142D01*
X70607523Y-149423904D01*
X70607523Y-148614380D01*
X71512285Y-148947714D02*
X71512285Y-149614380D01*
X71274190Y-148566761D02*
X71036095Y-149281047D01*
X71655142Y-149281047D01*
G04 #@! TO.C,R20*
X107815142Y-125801380D02*
X107481809Y-125325190D01*
X107243714Y-125801380D02*
X107243714Y-124801380D01*
X107624666Y-124801380D01*
X107719904Y-124849000D01*
X107767523Y-124896619D01*
X107815142Y-124991857D01*
X107815142Y-125134714D01*
X107767523Y-125229952D01*
X107719904Y-125277571D01*
X107624666Y-125325190D01*
X107243714Y-125325190D01*
X108196095Y-124896619D02*
X108243714Y-124849000D01*
X108338952Y-124801380D01*
X108577047Y-124801380D01*
X108672285Y-124849000D01*
X108719904Y-124896619D01*
X108767523Y-124991857D01*
X108767523Y-125087095D01*
X108719904Y-125229952D01*
X108148476Y-125801380D01*
X108767523Y-125801380D01*
X109386571Y-124801380D02*
X109481809Y-124801380D01*
X109577047Y-124849000D01*
X109624666Y-124896619D01*
X109672285Y-124991857D01*
X109719904Y-125182333D01*
X109719904Y-125420428D01*
X109672285Y-125610904D01*
X109624666Y-125706142D01*
X109577047Y-125753761D01*
X109481809Y-125801380D01*
X109386571Y-125801380D01*
X109291333Y-125753761D01*
X109243714Y-125706142D01*
X109196095Y-125610904D01*
X109148476Y-125420428D01*
X109148476Y-125182333D01*
X109196095Y-124991857D01*
X109243714Y-124896619D01*
X109291333Y-124849000D01*
X109386571Y-124801380D01*
G04 #@! TO.C,R19*
X107789142Y-130881380D02*
X107455809Y-130405190D01*
X107217714Y-130881380D02*
X107217714Y-129881380D01*
X107598666Y-129881380D01*
X107693904Y-129929000D01*
X107741523Y-129976619D01*
X107789142Y-130071857D01*
X107789142Y-130214714D01*
X107741523Y-130309952D01*
X107693904Y-130357571D01*
X107598666Y-130405190D01*
X107217714Y-130405190D01*
X108741523Y-130881380D02*
X108170095Y-130881380D01*
X108455809Y-130881380D02*
X108455809Y-129881380D01*
X108360571Y-130024238D01*
X108265333Y-130119476D01*
X108170095Y-130167095D01*
X109217714Y-130881380D02*
X109408190Y-130881380D01*
X109503428Y-130833761D01*
X109551047Y-130786142D01*
X109646285Y-130643285D01*
X109693904Y-130452809D01*
X109693904Y-130071857D01*
X109646285Y-129976619D01*
X109598666Y-129929000D01*
X109503428Y-129881380D01*
X109312952Y-129881380D01*
X109217714Y-129929000D01*
X109170095Y-129976619D01*
X109122476Y-130071857D01*
X109122476Y-130309952D01*
X109170095Y-130405190D01*
X109217714Y-130452809D01*
X109312952Y-130500428D01*
X109503428Y-130500428D01*
X109598666Y-130452809D01*
X109646285Y-130405190D01*
X109693904Y-130309952D01*
G04 #@! TO.C,R18*
X81627142Y-130839380D02*
X81293809Y-130363190D01*
X81055714Y-130839380D02*
X81055714Y-129839380D01*
X81436666Y-129839380D01*
X81531904Y-129887000D01*
X81579523Y-129934619D01*
X81627142Y-130029857D01*
X81627142Y-130172714D01*
X81579523Y-130267952D01*
X81531904Y-130315571D01*
X81436666Y-130363190D01*
X81055714Y-130363190D01*
X82579523Y-130839380D02*
X82008095Y-130839380D01*
X82293809Y-130839380D02*
X82293809Y-129839380D01*
X82198571Y-129982238D01*
X82103333Y-130077476D01*
X82008095Y-130125095D01*
X83150952Y-130267952D02*
X83055714Y-130220333D01*
X83008095Y-130172714D01*
X82960476Y-130077476D01*
X82960476Y-130029857D01*
X83008095Y-129934619D01*
X83055714Y-129887000D01*
X83150952Y-129839380D01*
X83341428Y-129839380D01*
X83436666Y-129887000D01*
X83484285Y-129934619D01*
X83531904Y-130029857D01*
X83531904Y-130077476D01*
X83484285Y-130172714D01*
X83436666Y-130220333D01*
X83341428Y-130267952D01*
X83150952Y-130267952D01*
X83055714Y-130315571D01*
X83008095Y-130363190D01*
X82960476Y-130458428D01*
X82960476Y-130648904D01*
X83008095Y-130744142D01*
X83055714Y-130791761D01*
X83150952Y-130839380D01*
X83341428Y-130839380D01*
X83436666Y-130791761D01*
X83484285Y-130744142D01*
X83531904Y-130648904D01*
X83531904Y-130458428D01*
X83484285Y-130363190D01*
X83436666Y-130315571D01*
X83341428Y-130267952D01*
G04 #@! TO.C,R17*
X81627142Y-125759380D02*
X81293809Y-125283190D01*
X81055714Y-125759380D02*
X81055714Y-124759380D01*
X81436666Y-124759380D01*
X81531904Y-124807000D01*
X81579523Y-124854619D01*
X81627142Y-124949857D01*
X81627142Y-125092714D01*
X81579523Y-125187952D01*
X81531904Y-125235571D01*
X81436666Y-125283190D01*
X81055714Y-125283190D01*
X82579523Y-125759380D02*
X82008095Y-125759380D01*
X82293809Y-125759380D02*
X82293809Y-124759380D01*
X82198571Y-124902238D01*
X82103333Y-124997476D01*
X82008095Y-125045095D01*
X82912857Y-124759380D02*
X83579523Y-124759380D01*
X83150952Y-125759380D01*
G04 #@! TO.C,C9*
X71151142Y-141896666D02*
X71198761Y-141944285D01*
X71246380Y-142087142D01*
X71246380Y-142182380D01*
X71198761Y-142325238D01*
X71103523Y-142420476D01*
X71008285Y-142468095D01*
X70817809Y-142515714D01*
X70674952Y-142515714D01*
X70484476Y-142468095D01*
X70389238Y-142420476D01*
X70294000Y-142325238D01*
X70246380Y-142182380D01*
X70246380Y-142087142D01*
X70294000Y-141944285D01*
X70341619Y-141896666D01*
X71246380Y-141420476D02*
X71246380Y-141230000D01*
X71198761Y-141134761D01*
X71151142Y-141087142D01*
X71008285Y-140991904D01*
X70817809Y-140944285D01*
X70436857Y-140944285D01*
X70341619Y-140991904D01*
X70294000Y-141039523D01*
X70246380Y-141134761D01*
X70246380Y-141325238D01*
X70294000Y-141420476D01*
X70341619Y-141468095D01*
X70436857Y-141515714D01*
X70674952Y-141515714D01*
X70770190Y-141468095D01*
X70817809Y-141420476D01*
X70865428Y-141325238D01*
X70865428Y-141134761D01*
X70817809Y-141039523D01*
X70770190Y-140991904D01*
X70674952Y-140944285D01*
G04 #@! TO.C,C8*
X66071142Y-142658666D02*
X66118761Y-142706285D01*
X66166380Y-142849142D01*
X66166380Y-142944380D01*
X66118761Y-143087238D01*
X66023523Y-143182476D01*
X65928285Y-143230095D01*
X65737809Y-143277714D01*
X65594952Y-143277714D01*
X65404476Y-143230095D01*
X65309238Y-143182476D01*
X65214000Y-143087238D01*
X65166380Y-142944380D01*
X65166380Y-142849142D01*
X65214000Y-142706285D01*
X65261619Y-142658666D01*
X65594952Y-142087238D02*
X65547333Y-142182476D01*
X65499714Y-142230095D01*
X65404476Y-142277714D01*
X65356857Y-142277714D01*
X65261619Y-142230095D01*
X65214000Y-142182476D01*
X65166380Y-142087238D01*
X65166380Y-141896761D01*
X65214000Y-141801523D01*
X65261619Y-141753904D01*
X65356857Y-141706285D01*
X65404476Y-141706285D01*
X65499714Y-141753904D01*
X65547333Y-141801523D01*
X65594952Y-141896761D01*
X65594952Y-142087238D01*
X65642571Y-142182476D01*
X65690190Y-142230095D01*
X65785428Y-142277714D01*
X65975904Y-142277714D01*
X66071142Y-142230095D01*
X66118761Y-142182476D01*
X66166380Y-142087238D01*
X66166380Y-141896761D01*
X66118761Y-141801523D01*
X66071142Y-141753904D01*
X65975904Y-141706285D01*
X65785428Y-141706285D01*
X65690190Y-141753904D01*
X65642571Y-141801523D01*
X65594952Y-141896761D01*
G04 #@! TO.C,C7*
X102195333Y-122531142D02*
X102147714Y-122578761D01*
X102004857Y-122626380D01*
X101909619Y-122626380D01*
X101766761Y-122578761D01*
X101671523Y-122483523D01*
X101623904Y-122388285D01*
X101576285Y-122197809D01*
X101576285Y-122054952D01*
X101623904Y-121864476D01*
X101671523Y-121769238D01*
X101766761Y-121674000D01*
X101909619Y-121626380D01*
X102004857Y-121626380D01*
X102147714Y-121674000D01*
X102195333Y-121721619D01*
X102528666Y-121626380D02*
X103195333Y-121626380D01*
X102766761Y-122626380D01*
G04 #@! TO.C,C6*
X102195333Y-137261142D02*
X102147714Y-137308761D01*
X102004857Y-137356380D01*
X101909619Y-137356380D01*
X101766761Y-137308761D01*
X101671523Y-137213523D01*
X101623904Y-137118285D01*
X101576285Y-136927809D01*
X101576285Y-136784952D01*
X101623904Y-136594476D01*
X101671523Y-136499238D01*
X101766761Y-136404000D01*
X101909619Y-136356380D01*
X102004857Y-136356380D01*
X102147714Y-136404000D01*
X102195333Y-136451619D01*
X103052476Y-136356380D02*
X102862000Y-136356380D01*
X102766761Y-136404000D01*
X102719142Y-136451619D01*
X102623904Y-136594476D01*
X102576285Y-136784952D01*
X102576285Y-137165904D01*
X102623904Y-137261142D01*
X102671523Y-137308761D01*
X102766761Y-137356380D01*
X102957238Y-137356380D01*
X103052476Y-137308761D01*
X103100095Y-137261142D01*
X103147714Y-137165904D01*
X103147714Y-136927809D01*
X103100095Y-136832571D01*
X103052476Y-136784952D01*
X102957238Y-136737333D01*
X102766761Y-136737333D01*
X102671523Y-136784952D01*
X102623904Y-136832571D01*
X102576285Y-136927809D01*
G04 #@! TO.C,C5*
X88225333Y-137261142D02*
X88177714Y-137308761D01*
X88034857Y-137356380D01*
X87939619Y-137356380D01*
X87796761Y-137308761D01*
X87701523Y-137213523D01*
X87653904Y-137118285D01*
X87606285Y-136927809D01*
X87606285Y-136784952D01*
X87653904Y-136594476D01*
X87701523Y-136499238D01*
X87796761Y-136404000D01*
X87939619Y-136356380D01*
X88034857Y-136356380D01*
X88177714Y-136404000D01*
X88225333Y-136451619D01*
X89130095Y-136356380D02*
X88653904Y-136356380D01*
X88606285Y-136832571D01*
X88653904Y-136784952D01*
X88749142Y-136737333D01*
X88987238Y-136737333D01*
X89082476Y-136784952D01*
X89130095Y-136832571D01*
X89177714Y-136927809D01*
X89177714Y-137165904D01*
X89130095Y-137261142D01*
X89082476Y-137308761D01*
X88987238Y-137356380D01*
X88749142Y-137356380D01*
X88653904Y-137308761D01*
X88606285Y-137261142D01*
G04 #@! TO.C,C4*
X88225333Y-122531142D02*
X88177714Y-122578761D01*
X88034857Y-122626380D01*
X87939619Y-122626380D01*
X87796761Y-122578761D01*
X87701523Y-122483523D01*
X87653904Y-122388285D01*
X87606285Y-122197809D01*
X87606285Y-122054952D01*
X87653904Y-121864476D01*
X87701523Y-121769238D01*
X87796761Y-121674000D01*
X87939619Y-121626380D01*
X88034857Y-121626380D01*
X88177714Y-121674000D01*
X88225333Y-121721619D01*
X89082476Y-121959714D02*
X89082476Y-122626380D01*
X88844380Y-121578761D02*
X88606285Y-122293047D01*
X89225333Y-122293047D01*
G04 #@! TO.C,J4*
X107845666Y-137428380D02*
X107845666Y-138142666D01*
X107798047Y-138285523D01*
X107702809Y-138380761D01*
X107559952Y-138428380D01*
X107464714Y-138428380D01*
X108750428Y-137761714D02*
X108750428Y-138428380D01*
X108512333Y-137380761D02*
X108274238Y-138095047D01*
X108893285Y-138095047D01*
G04 #@! TO.C,Q2*
X75850761Y-105068619D02*
X75755523Y-105021000D01*
X75660285Y-104925761D01*
X75517428Y-104782904D01*
X75422190Y-104735285D01*
X75326952Y-104735285D01*
X75374571Y-104973380D02*
X75279333Y-104925761D01*
X75184095Y-104830523D01*
X75136476Y-104640047D01*
X75136476Y-104306714D01*
X75184095Y-104116238D01*
X75279333Y-104021000D01*
X75374571Y-103973380D01*
X75565047Y-103973380D01*
X75660285Y-104021000D01*
X75755523Y-104116238D01*
X75803142Y-104306714D01*
X75803142Y-104640047D01*
X75755523Y-104830523D01*
X75660285Y-104925761D01*
X75565047Y-104973380D01*
X75374571Y-104973380D01*
X76184095Y-104068619D02*
X76231714Y-104021000D01*
X76326952Y-103973380D01*
X76565047Y-103973380D01*
X76660285Y-104021000D01*
X76707904Y-104068619D01*
X76755523Y-104163857D01*
X76755523Y-104259095D01*
X76707904Y-104401952D01*
X76136476Y-104973380D01*
X76755523Y-104973380D01*
G04 #@! TO.C,R15*
X101719142Y-135961380D02*
X101385809Y-135485190D01*
X101147714Y-135961380D02*
X101147714Y-134961380D01*
X101528666Y-134961380D01*
X101623904Y-135009000D01*
X101671523Y-135056619D01*
X101719142Y-135151857D01*
X101719142Y-135294714D01*
X101671523Y-135389952D01*
X101623904Y-135437571D01*
X101528666Y-135485190D01*
X101147714Y-135485190D01*
X102671523Y-135961380D02*
X102100095Y-135961380D01*
X102385809Y-135961380D02*
X102385809Y-134961380D01*
X102290571Y-135104238D01*
X102195333Y-135199476D01*
X102100095Y-135247095D01*
X103576285Y-134961380D02*
X103100095Y-134961380D01*
X103052476Y-135437571D01*
X103100095Y-135389952D01*
X103195333Y-135342333D01*
X103433428Y-135342333D01*
X103528666Y-135389952D01*
X103576285Y-135437571D01*
X103623904Y-135532809D01*
X103623904Y-135770904D01*
X103576285Y-135866142D01*
X103528666Y-135913761D01*
X103433428Y-135961380D01*
X103195333Y-135961380D01*
X103100095Y-135913761D01*
X103052476Y-135866142D01*
G04 #@! TO.C,U2*
X55372095Y-132292380D02*
X55372095Y-133101904D01*
X55419714Y-133197142D01*
X55467333Y-133244761D01*
X55562571Y-133292380D01*
X55753047Y-133292380D01*
X55848285Y-133244761D01*
X55895904Y-133197142D01*
X55943523Y-133101904D01*
X55943523Y-132292380D01*
X56372095Y-132387619D02*
X56419714Y-132340000D01*
X56514952Y-132292380D01*
X56753047Y-132292380D01*
X56848285Y-132340000D01*
X56895904Y-132387619D01*
X56943523Y-132482857D01*
X56943523Y-132578095D01*
X56895904Y-132720952D01*
X56324476Y-133292380D01*
X56943523Y-133292380D01*
G04 #@! TO.C,R16*
X101719142Y-124277380D02*
X101385809Y-123801190D01*
X101147714Y-124277380D02*
X101147714Y-123277380D01*
X101528666Y-123277380D01*
X101623904Y-123325000D01*
X101671523Y-123372619D01*
X101719142Y-123467857D01*
X101719142Y-123610714D01*
X101671523Y-123705952D01*
X101623904Y-123753571D01*
X101528666Y-123801190D01*
X101147714Y-123801190D01*
X102671523Y-124277380D02*
X102100095Y-124277380D01*
X102385809Y-124277380D02*
X102385809Y-123277380D01*
X102290571Y-123420238D01*
X102195333Y-123515476D01*
X102100095Y-123563095D01*
X103528666Y-123277380D02*
X103338190Y-123277380D01*
X103242952Y-123325000D01*
X103195333Y-123372619D01*
X103100095Y-123515476D01*
X103052476Y-123705952D01*
X103052476Y-124086904D01*
X103100095Y-124182142D01*
X103147714Y-124229761D01*
X103242952Y-124277380D01*
X103433428Y-124277380D01*
X103528666Y-124229761D01*
X103576285Y-124182142D01*
X103623904Y-124086904D01*
X103623904Y-123848809D01*
X103576285Y-123753571D01*
X103528666Y-123705952D01*
X103433428Y-123658333D01*
X103242952Y-123658333D01*
X103147714Y-123705952D01*
X103100095Y-123753571D01*
X103052476Y-123848809D01*
G04 #@! TO.C,R14*
X87749142Y-135961380D02*
X87415809Y-135485190D01*
X87177714Y-135961380D02*
X87177714Y-134961380D01*
X87558666Y-134961380D01*
X87653904Y-135009000D01*
X87701523Y-135056619D01*
X87749142Y-135151857D01*
X87749142Y-135294714D01*
X87701523Y-135389952D01*
X87653904Y-135437571D01*
X87558666Y-135485190D01*
X87177714Y-135485190D01*
X88701523Y-135961380D02*
X88130095Y-135961380D01*
X88415809Y-135961380D02*
X88415809Y-134961380D01*
X88320571Y-135104238D01*
X88225333Y-135199476D01*
X88130095Y-135247095D01*
X89558666Y-135294714D02*
X89558666Y-135961380D01*
X89320571Y-134913761D02*
X89082476Y-135628047D01*
X89701523Y-135628047D01*
G04 #@! TO.C,R13*
X87749142Y-124277380D02*
X87415809Y-123801190D01*
X87177714Y-124277380D02*
X87177714Y-123277380D01*
X87558666Y-123277380D01*
X87653904Y-123325000D01*
X87701523Y-123372619D01*
X87749142Y-123467857D01*
X87749142Y-123610714D01*
X87701523Y-123705952D01*
X87653904Y-123753571D01*
X87558666Y-123801190D01*
X87177714Y-123801190D01*
X88701523Y-124277380D02*
X88130095Y-124277380D01*
X88415809Y-124277380D02*
X88415809Y-123277380D01*
X88320571Y-123420238D01*
X88225333Y-123515476D01*
X88130095Y-123563095D01*
X89034857Y-123277380D02*
X89653904Y-123277380D01*
X89320571Y-123658333D01*
X89463428Y-123658333D01*
X89558666Y-123705952D01*
X89606285Y-123753571D01*
X89653904Y-123848809D01*
X89653904Y-124086904D01*
X89606285Y-124182142D01*
X89558666Y-124229761D01*
X89463428Y-124277380D01*
X89177714Y-124277380D01*
X89082476Y-124229761D01*
X89034857Y-124182142D01*
G04 #@! TO.C,R12*
X100703142Y-70302380D02*
X100369809Y-69826190D01*
X100131714Y-70302380D02*
X100131714Y-69302380D01*
X100512666Y-69302380D01*
X100607904Y-69350000D01*
X100655523Y-69397619D01*
X100703142Y-69492857D01*
X100703142Y-69635714D01*
X100655523Y-69730952D01*
X100607904Y-69778571D01*
X100512666Y-69826190D01*
X100131714Y-69826190D01*
X101655523Y-70302380D02*
X101084095Y-70302380D01*
X101369809Y-70302380D02*
X101369809Y-69302380D01*
X101274571Y-69445238D01*
X101179333Y-69540476D01*
X101084095Y-69588095D01*
X102036476Y-69397619D02*
X102084095Y-69350000D01*
X102179333Y-69302380D01*
X102417428Y-69302380D01*
X102512666Y-69350000D01*
X102560285Y-69397619D01*
X102607904Y-69492857D01*
X102607904Y-69588095D01*
X102560285Y-69730952D01*
X101988857Y-70302380D01*
X102607904Y-70302380D01*
G04 #@! TO.C,R11*
X111704380Y-70111857D02*
X111228190Y-70445190D01*
X111704380Y-70683285D02*
X110704380Y-70683285D01*
X110704380Y-70302333D01*
X110752000Y-70207095D01*
X110799619Y-70159476D01*
X110894857Y-70111857D01*
X111037714Y-70111857D01*
X111132952Y-70159476D01*
X111180571Y-70207095D01*
X111228190Y-70302333D01*
X111228190Y-70683285D01*
X111704380Y-69159476D02*
X111704380Y-69730904D01*
X111704380Y-69445190D02*
X110704380Y-69445190D01*
X110847238Y-69540428D01*
X110942476Y-69635666D01*
X110990095Y-69730904D01*
X111704380Y-68207095D02*
X111704380Y-68778523D01*
X111704380Y-68492809D02*
X110704380Y-68492809D01*
X110847238Y-68588047D01*
X110942476Y-68683285D01*
X110990095Y-68778523D01*
G04 #@! TO.C,R10*
X100576142Y-66873380D02*
X100242809Y-66397190D01*
X100004714Y-66873380D02*
X100004714Y-65873380D01*
X100385666Y-65873380D01*
X100480904Y-65921000D01*
X100528523Y-65968619D01*
X100576142Y-66063857D01*
X100576142Y-66206714D01*
X100528523Y-66301952D01*
X100480904Y-66349571D01*
X100385666Y-66397190D01*
X100004714Y-66397190D01*
X101528523Y-66873380D02*
X100957095Y-66873380D01*
X101242809Y-66873380D02*
X101242809Y-65873380D01*
X101147571Y-66016238D01*
X101052333Y-66111476D01*
X100957095Y-66159095D01*
X102147571Y-65873380D02*
X102242809Y-65873380D01*
X102338047Y-65921000D01*
X102385666Y-65968619D01*
X102433285Y-66063857D01*
X102480904Y-66254333D01*
X102480904Y-66492428D01*
X102433285Y-66682904D01*
X102385666Y-66778142D01*
X102338047Y-66825761D01*
X102242809Y-66873380D01*
X102147571Y-66873380D01*
X102052333Y-66825761D01*
X102004714Y-66778142D01*
X101957095Y-66682904D01*
X101909476Y-66492428D01*
X101909476Y-66254333D01*
X101957095Y-66063857D01*
X102004714Y-65968619D01*
X102052333Y-65921000D01*
X102147571Y-65873380D01*
G04 #@! TO.C,R9*
X114895333Y-70302380D02*
X114562000Y-69826190D01*
X114323904Y-70302380D02*
X114323904Y-69302380D01*
X114704857Y-69302380D01*
X114800095Y-69350000D01*
X114847714Y-69397619D01*
X114895333Y-69492857D01*
X114895333Y-69635714D01*
X114847714Y-69730952D01*
X114800095Y-69778571D01*
X114704857Y-69826190D01*
X114323904Y-69826190D01*
X115371523Y-70302380D02*
X115562000Y-70302380D01*
X115657238Y-70254761D01*
X115704857Y-70207142D01*
X115800095Y-70064285D01*
X115847714Y-69873809D01*
X115847714Y-69492857D01*
X115800095Y-69397619D01*
X115752476Y-69350000D01*
X115657238Y-69302380D01*
X115466761Y-69302380D01*
X115371523Y-69350000D01*
X115323904Y-69397619D01*
X115276285Y-69492857D01*
X115276285Y-69730952D01*
X115323904Y-69826190D01*
X115371523Y-69873809D01*
X115466761Y-69921428D01*
X115657238Y-69921428D01*
X115752476Y-69873809D01*
X115800095Y-69826190D01*
X115847714Y-69730952D01*
G04 #@! TO.C,R8*
X123912333Y-73223380D02*
X123579000Y-72747190D01*
X123340904Y-73223380D02*
X123340904Y-72223380D01*
X123721857Y-72223380D01*
X123817095Y-72271000D01*
X123864714Y-72318619D01*
X123912333Y-72413857D01*
X123912333Y-72556714D01*
X123864714Y-72651952D01*
X123817095Y-72699571D01*
X123721857Y-72747190D01*
X123340904Y-72747190D01*
X124483761Y-72651952D02*
X124388523Y-72604333D01*
X124340904Y-72556714D01*
X124293285Y-72461476D01*
X124293285Y-72413857D01*
X124340904Y-72318619D01*
X124388523Y-72271000D01*
X124483761Y-72223380D01*
X124674238Y-72223380D01*
X124769476Y-72271000D01*
X124817095Y-72318619D01*
X124864714Y-72413857D01*
X124864714Y-72461476D01*
X124817095Y-72556714D01*
X124769476Y-72604333D01*
X124674238Y-72651952D01*
X124483761Y-72651952D01*
X124388523Y-72699571D01*
X124340904Y-72747190D01*
X124293285Y-72842428D01*
X124293285Y-73032904D01*
X124340904Y-73128142D01*
X124388523Y-73175761D01*
X124483761Y-73223380D01*
X124674238Y-73223380D01*
X124769476Y-73175761D01*
X124817095Y-73128142D01*
X124864714Y-73032904D01*
X124864714Y-72842428D01*
X124817095Y-72747190D01*
X124769476Y-72699571D01*
X124674238Y-72651952D01*
G04 #@! TO.C,R7*
X114895333Y-67000380D02*
X114562000Y-66524190D01*
X114323904Y-67000380D02*
X114323904Y-66000380D01*
X114704857Y-66000380D01*
X114800095Y-66048000D01*
X114847714Y-66095619D01*
X114895333Y-66190857D01*
X114895333Y-66333714D01*
X114847714Y-66428952D01*
X114800095Y-66476571D01*
X114704857Y-66524190D01*
X114323904Y-66524190D01*
X115228666Y-66000380D02*
X115895333Y-66000380D01*
X115466761Y-67000380D01*
G04 #@! TO.C,R6*
X86955333Y-70429380D02*
X86622000Y-69953190D01*
X86383904Y-70429380D02*
X86383904Y-69429380D01*
X86764857Y-69429380D01*
X86860095Y-69477000D01*
X86907714Y-69524619D01*
X86955333Y-69619857D01*
X86955333Y-69762714D01*
X86907714Y-69857952D01*
X86860095Y-69905571D01*
X86764857Y-69953190D01*
X86383904Y-69953190D01*
X87812476Y-69429380D02*
X87622000Y-69429380D01*
X87526761Y-69477000D01*
X87479142Y-69524619D01*
X87383904Y-69667476D01*
X87336285Y-69857952D01*
X87336285Y-70238904D01*
X87383904Y-70334142D01*
X87431523Y-70381761D01*
X87526761Y-70429380D01*
X87717238Y-70429380D01*
X87812476Y-70381761D01*
X87860095Y-70334142D01*
X87907714Y-70238904D01*
X87907714Y-70000809D01*
X87860095Y-69905571D01*
X87812476Y-69857952D01*
X87717238Y-69810333D01*
X87526761Y-69810333D01*
X87431523Y-69857952D01*
X87383904Y-69905571D01*
X87336285Y-70000809D01*
G04 #@! TO.C,R5*
X97861380Y-70143666D02*
X97385190Y-70477000D01*
X97861380Y-70715095D02*
X96861380Y-70715095D01*
X96861380Y-70334142D01*
X96909000Y-70238904D01*
X96956619Y-70191285D01*
X97051857Y-70143666D01*
X97194714Y-70143666D01*
X97289952Y-70191285D01*
X97337571Y-70238904D01*
X97385190Y-70334142D01*
X97385190Y-70715095D01*
X96861380Y-69238904D02*
X96861380Y-69715095D01*
X97337571Y-69762714D01*
X97289952Y-69715095D01*
X97242333Y-69619857D01*
X97242333Y-69381761D01*
X97289952Y-69286523D01*
X97337571Y-69238904D01*
X97432809Y-69191285D01*
X97670904Y-69191285D01*
X97766142Y-69238904D01*
X97813761Y-69286523D01*
X97861380Y-69381761D01*
X97861380Y-69619857D01*
X97813761Y-69715095D01*
X97766142Y-69762714D01*
G04 #@! TO.C,R4*
X86955333Y-67000380D02*
X86622000Y-66524190D01*
X86383904Y-67000380D02*
X86383904Y-66000380D01*
X86764857Y-66000380D01*
X86860095Y-66048000D01*
X86907714Y-66095619D01*
X86955333Y-66190857D01*
X86955333Y-66333714D01*
X86907714Y-66428952D01*
X86860095Y-66476571D01*
X86764857Y-66524190D01*
X86383904Y-66524190D01*
X87812476Y-66333714D02*
X87812476Y-67000380D01*
X87574380Y-65952761D02*
X87336285Y-66667047D01*
X87955333Y-66667047D01*
G04 #@! TO.C,R3*
X73239333Y-70556380D02*
X72906000Y-70080190D01*
X72667904Y-70556380D02*
X72667904Y-69556380D01*
X73048857Y-69556380D01*
X73144095Y-69604000D01*
X73191714Y-69651619D01*
X73239333Y-69746857D01*
X73239333Y-69889714D01*
X73191714Y-69984952D01*
X73144095Y-70032571D01*
X73048857Y-70080190D01*
X72667904Y-70080190D01*
X73572666Y-69556380D02*
X74191714Y-69556380D01*
X73858380Y-69937333D01*
X74001238Y-69937333D01*
X74096476Y-69984952D01*
X74144095Y-70032571D01*
X74191714Y-70127809D01*
X74191714Y-70365904D01*
X74144095Y-70461142D01*
X74096476Y-70508761D01*
X74001238Y-70556380D01*
X73715523Y-70556380D01*
X73620285Y-70508761D01*
X73572666Y-70461142D01*
G04 #@! TO.C,R2*
X83891380Y-70270666D02*
X83415190Y-70604000D01*
X83891380Y-70842095D02*
X82891380Y-70842095D01*
X82891380Y-70461142D01*
X82939000Y-70365904D01*
X82986619Y-70318285D01*
X83081857Y-70270666D01*
X83224714Y-70270666D01*
X83319952Y-70318285D01*
X83367571Y-70365904D01*
X83415190Y-70461142D01*
X83415190Y-70842095D01*
X82986619Y-69889714D02*
X82939000Y-69842095D01*
X82891380Y-69746857D01*
X82891380Y-69508761D01*
X82939000Y-69413523D01*
X82986619Y-69365904D01*
X83081857Y-69318285D01*
X83177095Y-69318285D01*
X83319952Y-69365904D01*
X83891380Y-69937333D01*
X83891380Y-69318285D01*
G04 #@! TO.C,R1*
X73239333Y-67127380D02*
X72906000Y-66651190D01*
X72667904Y-67127380D02*
X72667904Y-66127380D01*
X73048857Y-66127380D01*
X73144095Y-66175000D01*
X73191714Y-66222619D01*
X73239333Y-66317857D01*
X73239333Y-66460714D01*
X73191714Y-66555952D01*
X73144095Y-66603571D01*
X73048857Y-66651190D01*
X72667904Y-66651190D01*
X74191714Y-67127380D02*
X73620285Y-67127380D01*
X73906000Y-67127380D02*
X73906000Y-66127380D01*
X73810761Y-66270238D01*
X73715523Y-66365476D01*
X73620285Y-66413095D01*
G04 #@! TO.C,FB2*
X65587666Y-125023571D02*
X65254333Y-125023571D01*
X65254333Y-125547380D02*
X65254333Y-124547380D01*
X65730523Y-124547380D01*
X66444809Y-125023571D02*
X66587666Y-125071190D01*
X66635285Y-125118809D01*
X66682904Y-125214047D01*
X66682904Y-125356904D01*
X66635285Y-125452142D01*
X66587666Y-125499761D01*
X66492428Y-125547380D01*
X66111476Y-125547380D01*
X66111476Y-124547380D01*
X66444809Y-124547380D01*
X66540047Y-124595000D01*
X66587666Y-124642619D01*
X66635285Y-124737857D01*
X66635285Y-124833095D01*
X66587666Y-124928333D01*
X66540047Y-124975952D01*
X66444809Y-125023571D01*
X66111476Y-125023571D01*
X67063857Y-124642619D02*
X67111476Y-124595000D01*
X67206714Y-124547380D01*
X67444809Y-124547380D01*
X67540047Y-124595000D01*
X67587666Y-124642619D01*
X67635285Y-124737857D01*
X67635285Y-124833095D01*
X67587666Y-124975952D01*
X67016238Y-125547380D01*
X67635285Y-125547380D01*
G04 #@! TO.C,FB1*
X59872666Y-140134571D02*
X59539333Y-140134571D01*
X59539333Y-140658380D02*
X59539333Y-139658380D01*
X60015523Y-139658380D01*
X60729809Y-140134571D02*
X60872666Y-140182190D01*
X60920285Y-140229809D01*
X60967904Y-140325047D01*
X60967904Y-140467904D01*
X60920285Y-140563142D01*
X60872666Y-140610761D01*
X60777428Y-140658380D01*
X60396476Y-140658380D01*
X60396476Y-139658380D01*
X60729809Y-139658380D01*
X60825047Y-139706000D01*
X60872666Y-139753619D01*
X60920285Y-139848857D01*
X60920285Y-139944095D01*
X60872666Y-140039333D01*
X60825047Y-140086952D01*
X60729809Y-140134571D01*
X60396476Y-140134571D01*
X61920285Y-140658380D02*
X61348857Y-140658380D01*
X61634571Y-140658380D02*
X61634571Y-139658380D01*
X61539333Y-139801238D01*
X61444095Y-139896476D01*
X61348857Y-139944095D01*
G04 #@! TO.C,D4*
X100353904Y-68651380D02*
X100353904Y-67651380D01*
X100592000Y-67651380D01*
X100734857Y-67699000D01*
X100830095Y-67794238D01*
X100877714Y-67889476D01*
X100925333Y-68079952D01*
X100925333Y-68222809D01*
X100877714Y-68413285D01*
X100830095Y-68508523D01*
X100734857Y-68603761D01*
X100592000Y-68651380D01*
X100353904Y-68651380D01*
X101782476Y-67984714D02*
X101782476Y-68651380D01*
X101544380Y-67603761D02*
X101306285Y-68318047D01*
X101925333Y-68318047D01*
G04 #@! TO.C,D3*
X114323904Y-68651380D02*
X114323904Y-67651380D01*
X114562000Y-67651380D01*
X114704857Y-67699000D01*
X114800095Y-67794238D01*
X114847714Y-67889476D01*
X114895333Y-68079952D01*
X114895333Y-68222809D01*
X114847714Y-68413285D01*
X114800095Y-68508523D01*
X114704857Y-68603761D01*
X114562000Y-68651380D01*
X114323904Y-68651380D01*
X115228666Y-67651380D02*
X115847714Y-67651380D01*
X115514380Y-68032333D01*
X115657238Y-68032333D01*
X115752476Y-68079952D01*
X115800095Y-68127571D01*
X115847714Y-68222809D01*
X115847714Y-68460904D01*
X115800095Y-68556142D01*
X115752476Y-68603761D01*
X115657238Y-68651380D01*
X115371523Y-68651380D01*
X115276285Y-68603761D01*
X115228666Y-68556142D01*
G04 #@! TO.C,D2*
X86383904Y-68651380D02*
X86383904Y-67651380D01*
X86622000Y-67651380D01*
X86764857Y-67699000D01*
X86860095Y-67794238D01*
X86907714Y-67889476D01*
X86955333Y-68079952D01*
X86955333Y-68222809D01*
X86907714Y-68413285D01*
X86860095Y-68508523D01*
X86764857Y-68603761D01*
X86622000Y-68651380D01*
X86383904Y-68651380D01*
X87336285Y-67746619D02*
X87383904Y-67699000D01*
X87479142Y-67651380D01*
X87717238Y-67651380D01*
X87812476Y-67699000D01*
X87860095Y-67746619D01*
X87907714Y-67841857D01*
X87907714Y-67937095D01*
X87860095Y-68079952D01*
X87288666Y-68651380D01*
X87907714Y-68651380D01*
G04 #@! TO.C,D1*
X72667904Y-68778380D02*
X72667904Y-67778380D01*
X72906000Y-67778380D01*
X73048857Y-67826000D01*
X73144095Y-67921238D01*
X73191714Y-68016476D01*
X73239333Y-68206952D01*
X73239333Y-68349809D01*
X73191714Y-68540285D01*
X73144095Y-68635523D01*
X73048857Y-68730761D01*
X72906000Y-68778380D01*
X72667904Y-68778380D01*
X74191714Y-68778380D02*
X73620285Y-68778380D01*
X73906000Y-68778380D02*
X73906000Y-67778380D01*
X73810761Y-67921238D01*
X73715523Y-68016476D01*
X73620285Y-68064095D01*
G04 #@! TO.C,C3*
X95083333Y-124182142D02*
X95035714Y-124229761D01*
X94892857Y-124277380D01*
X94797619Y-124277380D01*
X94654761Y-124229761D01*
X94559523Y-124134523D01*
X94511904Y-124039285D01*
X94464285Y-123848809D01*
X94464285Y-123705952D01*
X94511904Y-123515476D01*
X94559523Y-123420238D01*
X94654761Y-123325000D01*
X94797619Y-123277380D01*
X94892857Y-123277380D01*
X95035714Y-123325000D01*
X95083333Y-123372619D01*
X95416666Y-123277380D02*
X96035714Y-123277380D01*
X95702380Y-123658333D01*
X95845238Y-123658333D01*
X95940476Y-123705952D01*
X95988095Y-123753571D01*
X96035714Y-123848809D01*
X96035714Y-124086904D01*
X95988095Y-124182142D01*
X95940476Y-124229761D01*
X95845238Y-124277380D01*
X95559523Y-124277380D01*
X95464285Y-124229761D01*
X95416666Y-124182142D01*
G04 #@! TO.C,C2*
X65111333Y-140565142D02*
X65063714Y-140612761D01*
X64920857Y-140660380D01*
X64825619Y-140660380D01*
X64682761Y-140612761D01*
X64587523Y-140517523D01*
X64539904Y-140422285D01*
X64492285Y-140231809D01*
X64492285Y-140088952D01*
X64539904Y-139898476D01*
X64587523Y-139803238D01*
X64682761Y-139708000D01*
X64825619Y-139660380D01*
X64920857Y-139660380D01*
X65063714Y-139708000D01*
X65111333Y-139755619D01*
X65492285Y-139755619D02*
X65539904Y-139708000D01*
X65635142Y-139660380D01*
X65873238Y-139660380D01*
X65968476Y-139708000D01*
X66016095Y-139755619D01*
X66063714Y-139850857D01*
X66063714Y-139946095D01*
X66016095Y-140088952D01*
X65444666Y-140660380D01*
X66063714Y-140660380D01*
G04 #@! TO.C,C1*
X60031333Y-125579142D02*
X59983714Y-125626761D01*
X59840857Y-125674380D01*
X59745619Y-125674380D01*
X59602761Y-125626761D01*
X59507523Y-125531523D01*
X59459904Y-125436285D01*
X59412285Y-125245809D01*
X59412285Y-125102952D01*
X59459904Y-124912476D01*
X59507523Y-124817238D01*
X59602761Y-124722000D01*
X59745619Y-124674380D01*
X59840857Y-124674380D01*
X59983714Y-124722000D01*
X60031333Y-124769619D01*
X60983714Y-125674380D02*
X60412285Y-125674380D01*
X60698000Y-125674380D02*
X60698000Y-124674380D01*
X60602761Y-124817238D01*
X60507523Y-124912476D01*
X60412285Y-124960095D01*
G04 #@! TO.C,Q8*
X109124761Y-104941619D02*
X109029523Y-104894000D01*
X108934285Y-104798761D01*
X108791428Y-104655904D01*
X108696190Y-104608285D01*
X108600952Y-104608285D01*
X108648571Y-104846380D02*
X108553333Y-104798761D01*
X108458095Y-104703523D01*
X108410476Y-104513047D01*
X108410476Y-104179714D01*
X108458095Y-103989238D01*
X108553333Y-103894000D01*
X108648571Y-103846380D01*
X108839047Y-103846380D01*
X108934285Y-103894000D01*
X109029523Y-103989238D01*
X109077142Y-104179714D01*
X109077142Y-104513047D01*
X109029523Y-104703523D01*
X108934285Y-104798761D01*
X108839047Y-104846380D01*
X108648571Y-104846380D01*
X109648571Y-104274952D02*
X109553333Y-104227333D01*
X109505714Y-104179714D01*
X109458095Y-104084476D01*
X109458095Y-104036857D01*
X109505714Y-103941619D01*
X109553333Y-103894000D01*
X109648571Y-103846380D01*
X109839047Y-103846380D01*
X109934285Y-103894000D01*
X109981904Y-103941619D01*
X110029523Y-104036857D01*
X110029523Y-104084476D01*
X109981904Y-104179714D01*
X109934285Y-104227333D01*
X109839047Y-104274952D01*
X109648571Y-104274952D01*
X109553333Y-104322571D01*
X109505714Y-104370190D01*
X109458095Y-104465428D01*
X109458095Y-104655904D01*
X109505714Y-104751142D01*
X109553333Y-104798761D01*
X109648571Y-104846380D01*
X109839047Y-104846380D01*
X109934285Y-104798761D01*
X109981904Y-104751142D01*
X110029523Y-104655904D01*
X110029523Y-104465428D01*
X109981904Y-104370190D01*
X109934285Y-104322571D01*
X109839047Y-104274952D01*
G04 #@! TO.C,Q6*
X123983761Y-105195619D02*
X123888523Y-105148000D01*
X123793285Y-105052761D01*
X123650428Y-104909904D01*
X123555190Y-104862285D01*
X123459952Y-104862285D01*
X123507571Y-105100380D02*
X123412333Y-105052761D01*
X123317095Y-104957523D01*
X123269476Y-104767047D01*
X123269476Y-104433714D01*
X123317095Y-104243238D01*
X123412333Y-104148000D01*
X123507571Y-104100380D01*
X123698047Y-104100380D01*
X123793285Y-104148000D01*
X123888523Y-104243238D01*
X123936142Y-104433714D01*
X123936142Y-104767047D01*
X123888523Y-104957523D01*
X123793285Y-105052761D01*
X123698047Y-105100380D01*
X123507571Y-105100380D01*
X124793285Y-104100380D02*
X124602809Y-104100380D01*
X124507571Y-104148000D01*
X124459952Y-104195619D01*
X124364714Y-104338476D01*
X124317095Y-104528952D01*
X124317095Y-104909904D01*
X124364714Y-105005142D01*
X124412333Y-105052761D01*
X124507571Y-105100380D01*
X124698047Y-105100380D01*
X124793285Y-105052761D01*
X124840904Y-105005142D01*
X124888523Y-104909904D01*
X124888523Y-104671809D01*
X124840904Y-104576571D01*
X124793285Y-104528952D01*
X124698047Y-104481333D01*
X124507571Y-104481333D01*
X124412333Y-104528952D01*
X124364714Y-104576571D01*
X124317095Y-104671809D01*
G04 #@! TO.C,Q4*
X90455761Y-105068619D02*
X90360523Y-105021000D01*
X90265285Y-104925761D01*
X90122428Y-104782904D01*
X90027190Y-104735285D01*
X89931952Y-104735285D01*
X89979571Y-104973380D02*
X89884333Y-104925761D01*
X89789095Y-104830523D01*
X89741476Y-104640047D01*
X89741476Y-104306714D01*
X89789095Y-104116238D01*
X89884333Y-104021000D01*
X89979571Y-103973380D01*
X90170047Y-103973380D01*
X90265285Y-104021000D01*
X90360523Y-104116238D01*
X90408142Y-104306714D01*
X90408142Y-104640047D01*
X90360523Y-104830523D01*
X90265285Y-104925761D01*
X90170047Y-104973380D01*
X89979571Y-104973380D01*
X91265285Y-104306714D02*
X91265285Y-104973380D01*
X91027190Y-103925761D02*
X90789095Y-104640047D01*
X91408142Y-104640047D01*
G04 #@! TO.C,U3*
X94488095Y-131530380D02*
X94488095Y-132339904D01*
X94535714Y-132435142D01*
X94583333Y-132482761D01*
X94678571Y-132530380D01*
X94869047Y-132530380D01*
X94964285Y-132482761D01*
X95011904Y-132435142D01*
X95059523Y-132339904D01*
X95059523Y-131530380D01*
X95440476Y-131530380D02*
X96059523Y-131530380D01*
X95726190Y-131911333D01*
X95869047Y-131911333D01*
X95964285Y-131958952D01*
X96011904Y-132006571D01*
X96059523Y-132101809D01*
X96059523Y-132339904D01*
X96011904Y-132435142D01*
X95964285Y-132482761D01*
X95869047Y-132530380D01*
X95583333Y-132530380D01*
X95488095Y-132482761D01*
X95440476Y-132435142D01*
G04 #@! TO.C,U1*
X128199761Y-145745714D02*
X128247380Y-145602857D01*
X128247380Y-145364761D01*
X128199761Y-145269523D01*
X128152142Y-145221904D01*
X128056904Y-145174285D01*
X127961666Y-145174285D01*
X127866428Y-145221904D01*
X127818809Y-145269523D01*
X127771190Y-145364761D01*
X127723571Y-145555238D01*
X127675952Y-145650476D01*
X127628333Y-145698095D01*
X127533095Y-145745714D01*
X127437857Y-145745714D01*
X127342619Y-145698095D01*
X127295000Y-145650476D01*
X127247380Y-145555238D01*
X127247380Y-145317142D01*
X127295000Y-145174285D01*
X128199761Y-144364761D02*
X128247380Y-144460000D01*
X128247380Y-144650476D01*
X128199761Y-144745714D01*
X128104523Y-144793333D01*
X127723571Y-144793333D01*
X127628333Y-144745714D01*
X127580714Y-144650476D01*
X127580714Y-144460000D01*
X127628333Y-144364761D01*
X127723571Y-144317142D01*
X127818809Y-144317142D01*
X127914047Y-144793333D01*
X128199761Y-143507619D02*
X128247380Y-143602857D01*
X128247380Y-143793333D01*
X128199761Y-143888571D01*
X128104523Y-143936190D01*
X127723571Y-143936190D01*
X127628333Y-143888571D01*
X127580714Y-143793333D01*
X127580714Y-143602857D01*
X127628333Y-143507619D01*
X127723571Y-143460000D01*
X127818809Y-143460000D01*
X127914047Y-143936190D01*
X128199761Y-142650476D02*
X128247380Y-142745714D01*
X128247380Y-142936190D01*
X128199761Y-143031428D01*
X128104523Y-143079047D01*
X127723571Y-143079047D01*
X127628333Y-143031428D01*
X127580714Y-142936190D01*
X127580714Y-142745714D01*
X127628333Y-142650476D01*
X127723571Y-142602857D01*
X127818809Y-142602857D01*
X127914047Y-143079047D01*
X128247380Y-141745714D02*
X127247380Y-141745714D01*
X128199761Y-141745714D02*
X128247380Y-141840952D01*
X128247380Y-142031428D01*
X128199761Y-142126666D01*
X128152142Y-142174285D01*
X128056904Y-142221904D01*
X127771190Y-142221904D01*
X127675952Y-142174285D01*
X127628333Y-142126666D01*
X127580714Y-142031428D01*
X127580714Y-141840952D01*
X127628333Y-141745714D01*
X127580714Y-140840952D02*
X128247380Y-140840952D01*
X127580714Y-141269523D02*
X128104523Y-141269523D01*
X128199761Y-141221904D01*
X128247380Y-141126666D01*
X128247380Y-140983809D01*
X128199761Y-140888571D01*
X128152142Y-140840952D01*
X128247380Y-140364761D02*
X127580714Y-140364761D01*
X127247380Y-140364761D02*
X127295000Y-140412380D01*
X127342619Y-140364761D01*
X127295000Y-140317142D01*
X127247380Y-140364761D01*
X127342619Y-140364761D01*
X127580714Y-139888571D02*
X128247380Y-139888571D01*
X127675952Y-139888571D02*
X127628333Y-139840952D01*
X127580714Y-139745714D01*
X127580714Y-139602857D01*
X127628333Y-139507619D01*
X127723571Y-139460000D01*
X128247380Y-139460000D01*
X128247380Y-138840952D02*
X128199761Y-138936190D01*
X128152142Y-138983809D01*
X128056904Y-139031428D01*
X127771190Y-139031428D01*
X127675952Y-138983809D01*
X127628333Y-138936190D01*
X127580714Y-138840952D01*
X127580714Y-138698095D01*
X127628333Y-138602857D01*
X127675952Y-138555238D01*
X127771190Y-138507619D01*
X128056904Y-138507619D01*
X128152142Y-138555238D01*
X128199761Y-138602857D01*
X128247380Y-138698095D01*
X128247380Y-138840952D01*
X127247380Y-138174285D02*
X128247380Y-137507619D01*
X127247380Y-137507619D02*
X128247380Y-138174285D01*
X128247380Y-137126666D02*
X127247380Y-137126666D01*
X127961666Y-136698095D02*
X127961666Y-136221904D01*
X128247380Y-136793333D02*
X127247380Y-136460000D01*
X128247380Y-136126666D01*
X127247380Y-135602857D02*
X127247380Y-135412380D01*
X127295000Y-135317142D01*
X127390238Y-135221904D01*
X127580714Y-135174285D01*
X127914047Y-135174285D01*
X128104523Y-135221904D01*
X128199761Y-135317142D01*
X128247380Y-135412380D01*
X128247380Y-135602857D01*
X128199761Y-135698095D01*
X128104523Y-135793333D01*
X127914047Y-135840952D01*
X127580714Y-135840952D01*
X127390238Y-135793333D01*
X127295000Y-135698095D01*
X127247380Y-135602857D01*
G04 #@! TO.C,BZ1*
X95649047Y-137762571D02*
X95791904Y-137810190D01*
X95839523Y-137857809D01*
X95887142Y-137953047D01*
X95887142Y-138095904D01*
X95839523Y-138191142D01*
X95791904Y-138238761D01*
X95696666Y-138286380D01*
X95315714Y-138286380D01*
X95315714Y-137286380D01*
X95649047Y-137286380D01*
X95744285Y-137334000D01*
X95791904Y-137381619D01*
X95839523Y-137476857D01*
X95839523Y-137572095D01*
X95791904Y-137667333D01*
X95744285Y-137714952D01*
X95649047Y-137762571D01*
X95315714Y-137762571D01*
X96220476Y-137286380D02*
X96887142Y-137286380D01*
X96220476Y-138286380D01*
X96887142Y-138286380D01*
X97791904Y-138286380D02*
X97220476Y-138286380D01*
X97506190Y-138286380D02*
X97506190Y-137286380D01*
X97410952Y-137429238D01*
X97315714Y-137524476D01*
X97220476Y-137572095D01*
X92339047Y-142565428D02*
X93100952Y-142565428D01*
X92720000Y-142946380D02*
X92720000Y-142184476D01*
G04 #@! TD*
M02*
