M48
; DRILL file {KiCad (5.1.10-1-10_14)} date Friday, January 28, 2022 at 12:16:27 AM
; FORMAT={-:-/ absolute / metric / decimal}
; #@! TF.CreationDate,2022-01-28T00:16:27+09:00
; #@! TF.GenerationSoftware,Kicad,Pcbnew,(5.1.10-1-10_14)
FMAT,2
METRIC
T1C0.400
T2C0.798
T3C0.800
T4C1.000
T5C1.700
T6C1.800
T7C3.200
T8C1.600
%
G90
G05
T1
X63.5Y-127.0
X67.31Y-146.048
X69.088Y-137.92
X70.358Y-77.597
X72.644Y-137.92
X76.962Y-72.136
X78.994Y-72.644
X79.756Y-80.391
X79.756Y-87.503
X82.169Y-77.597
X85.344Y-125.728
X85.344Y-128.524
X85.344Y-130.808
X85.344Y-133.602
X87.884Y-84.201
X90.297Y-71.247
X91.694Y-87.884
X91.821Y-80.391
X91.948Y-125.728
X92.837Y-72.644
X97.409Y-77.597
X104.394Y-71.247
X105.283Y-139.446
X105.41Y-125.728
X105.41Y-128.524
X105.41Y-130.808
X105.41Y-133.602
X106.68Y-84.201
X106.934Y-72.644
X108.839Y-80.264
X110.363Y-87.757
X111.76Y-77.597
X113.792Y-145.032
X118.237Y-71.247
X121.666Y-84.328
X127.019Y-76.308
X130.302Y-151.128
X134.747Y-77.978
T2
X105.204Y-141.351
X107.206Y-141.351
X109.202Y-141.351
X111.204Y-141.351
T4
X92.73Y-145.034
X100.33Y-145.034
T5
X62.0Y-79.5
T6
X62.8Y-107.9
X62.8Y-112.1
X62.8Y-116.3
X62.8Y-120.5
X68.3Y-107.9
X68.3Y-112.1
X68.3Y-116.3
X68.3Y-120.5
X122.3Y-107.9
X122.3Y-112.1
X122.3Y-116.3
X122.3Y-120.5
X127.8Y-107.9
X127.8Y-112.1
X127.8Y-116.3
X127.8Y-120.5
T7
X59.3Y-70.0
X68.3Y-157.0
X122.3Y-157.0
X131.3Y-70.0
T8
X52.75Y-79.5
T3
G00X56.0Y-78.85
M15
G01X56.0Y-80.15
M16
G05
T4
G00X55.0Y-74.75
M15
G01X56.0Y-74.75
M16
G05
G00X55.0Y-84.25
M15
G01X56.0Y-84.25
M16
G05
G00X59.7Y-74.75
M15
G01X60.7Y-74.75
M16
G05
G00X59.7Y-84.25
M15
G01X60.7Y-84.25
M16
G05
T0
M30
