G04 #@! TF.GenerationSoftware,KiCad,Pcbnew,(5.1.10-1-10_14)*
G04 #@! TF.CreationDate,2022-01-28T00:17:02+09:00*
G04 #@! TF.ProjectId,TireWarmer power board,54697265-5761-4726-9d65-7220706f7765,2.0*
G04 #@! TF.SameCoordinates,Original*
G04 #@! TF.FileFunction,Soldermask,Top*
G04 #@! TF.FilePolarity,Negative*
%FSLAX46Y46*%
G04 Gerber Fmt 4.6, Leading zero omitted, Abs format (unit mm)*
G04 Created by KiCad (PCBNEW (5.1.10-1-10_14)) date 2022-01-28 00:17:02*
%MOMM*%
%LPD*%
G01*
G04 APERTURE LIST*
%ADD10C,0.100000*%
%ADD11C,0.010000*%
%ADD12C,5.600000*%
%ADD13C,3.600000*%
%ADD14R,0.800000X1.900000*%
%ADD15O,3.700000X2.700000*%
%ADD16R,3.000000X1.500000*%
%ADD17R,2.000000X3.000000*%
%ADD18C,2.700000*%
%ADD19C,1.600000*%
%ADD20R,2.000000X0.650000*%
%ADD21C,1.270000*%
%ADD22R,1.270000X1.270000*%
%ADD23R,10.800000X9.400000*%
%ADD24R,1.100000X4.600000*%
%ADD25R,6.400000X5.800000*%
%ADD26R,2.200000X1.200000*%
%ADD27C,5.700000*%
%ADD28R,1.100000X0.250000*%
%ADD29C,1.143000*%
%ADD30O,2.032000X1.016000*%
%ADD31O,1.998980X2.748280*%
%ADD32C,2.000000*%
%ADD33R,2.000000X2.000000*%
G04 APERTURE END LIST*
D10*
G36*
X122682000Y-82550000D02*
G01*
X122682000Y-83566000D01*
X64643000Y-82994500D01*
X64643000Y-81343500D01*
X122682000Y-82550000D01*
G37*
X122682000Y-82550000D02*
X122682000Y-83566000D01*
X64643000Y-82994500D01*
X64643000Y-81343500D01*
X122682000Y-82550000D01*
D11*
G04 #@! TO.C,REF\u002A\u002A*
G36*
X99883665Y-159497034D02*
G01*
X99903255Y-159504035D01*
X99904010Y-159504377D01*
X99930613Y-159524678D01*
X99945270Y-159545561D01*
X99948138Y-159555352D01*
X99947996Y-159568361D01*
X99943961Y-159586895D01*
X99935146Y-159613257D01*
X99920669Y-159649752D01*
X99899645Y-159698687D01*
X99871188Y-159762365D01*
X99834415Y-159843093D01*
X99814175Y-159887216D01*
X99777625Y-159965985D01*
X99743315Y-160038423D01*
X99712552Y-160101880D01*
X99686648Y-160153708D01*
X99666910Y-160191259D01*
X99654650Y-160211884D01*
X99652224Y-160214733D01*
X99621183Y-160227302D01*
X99586121Y-160225619D01*
X99558000Y-160210332D01*
X99556854Y-160209089D01*
X99545668Y-160192154D01*
X99526904Y-160159170D01*
X99502875Y-160114380D01*
X99475897Y-160062032D01*
X99466201Y-160042742D01*
X99393014Y-159896150D01*
X99313240Y-160055393D01*
X99284767Y-160110415D01*
X99258350Y-160158132D01*
X99236148Y-160194893D01*
X99220319Y-160217044D01*
X99214954Y-160221741D01*
X99173257Y-160228102D01*
X99138849Y-160214733D01*
X99128728Y-160200446D01*
X99111214Y-160168692D01*
X99087735Y-160122597D01*
X99059720Y-160065285D01*
X99028599Y-159999880D01*
X98995799Y-159929507D01*
X98962750Y-159857291D01*
X98930881Y-159786355D01*
X98901619Y-159719825D01*
X98876395Y-159660826D01*
X98856636Y-159612481D01*
X98843772Y-159577915D01*
X98839231Y-159560253D01*
X98839277Y-159559613D01*
X98850326Y-159537388D01*
X98872410Y-159514753D01*
X98873710Y-159513768D01*
X98900853Y-159498425D01*
X98925958Y-159498574D01*
X98935368Y-159501466D01*
X98946834Y-159507718D01*
X98959010Y-159520014D01*
X98973357Y-159540908D01*
X98991336Y-159572949D01*
X99014407Y-159618688D01*
X99044030Y-159680677D01*
X99070745Y-159737898D01*
X99101480Y-159804226D01*
X99129021Y-159863874D01*
X99151938Y-159913725D01*
X99168798Y-159950664D01*
X99178173Y-159971573D01*
X99179540Y-159974845D01*
X99185689Y-159969497D01*
X99199822Y-159947109D01*
X99220057Y-159910946D01*
X99244515Y-159864277D01*
X99254248Y-159845022D01*
X99287217Y-159780004D01*
X99312643Y-159732654D01*
X99332612Y-159700219D01*
X99349210Y-159679946D01*
X99364524Y-159669082D01*
X99380640Y-159664875D01*
X99391143Y-159664400D01*
X99409670Y-159666042D01*
X99425904Y-159672831D01*
X99442035Y-159687566D01*
X99460251Y-159713044D01*
X99482739Y-159752061D01*
X99511689Y-159807414D01*
X99527662Y-159838903D01*
X99553570Y-159889087D01*
X99576167Y-159930704D01*
X99593458Y-159960242D01*
X99603450Y-159974189D01*
X99604809Y-159974770D01*
X99611261Y-159963793D01*
X99625708Y-159935290D01*
X99646703Y-159892244D01*
X99672797Y-159837638D01*
X99702546Y-159774454D01*
X99717180Y-159743071D01*
X99755250Y-159662078D01*
X99785905Y-159599756D01*
X99810737Y-159554071D01*
X99831337Y-159522989D01*
X99849298Y-159504478D01*
X99866210Y-159496504D01*
X99883665Y-159497034D01*
G37*
X99883665Y-159497034D02*
X99903255Y-159504035D01*
X99904010Y-159504377D01*
X99930613Y-159524678D01*
X99945270Y-159545561D01*
X99948138Y-159555352D01*
X99947996Y-159568361D01*
X99943961Y-159586895D01*
X99935146Y-159613257D01*
X99920669Y-159649752D01*
X99899645Y-159698687D01*
X99871188Y-159762365D01*
X99834415Y-159843093D01*
X99814175Y-159887216D01*
X99777625Y-159965985D01*
X99743315Y-160038423D01*
X99712552Y-160101880D01*
X99686648Y-160153708D01*
X99666910Y-160191259D01*
X99654650Y-160211884D01*
X99652224Y-160214733D01*
X99621183Y-160227302D01*
X99586121Y-160225619D01*
X99558000Y-160210332D01*
X99556854Y-160209089D01*
X99545668Y-160192154D01*
X99526904Y-160159170D01*
X99502875Y-160114380D01*
X99475897Y-160062032D01*
X99466201Y-160042742D01*
X99393014Y-159896150D01*
X99313240Y-160055393D01*
X99284767Y-160110415D01*
X99258350Y-160158132D01*
X99236148Y-160194893D01*
X99220319Y-160217044D01*
X99214954Y-160221741D01*
X99173257Y-160228102D01*
X99138849Y-160214733D01*
X99128728Y-160200446D01*
X99111214Y-160168692D01*
X99087735Y-160122597D01*
X99059720Y-160065285D01*
X99028599Y-159999880D01*
X98995799Y-159929507D01*
X98962750Y-159857291D01*
X98930881Y-159786355D01*
X98901619Y-159719825D01*
X98876395Y-159660826D01*
X98856636Y-159612481D01*
X98843772Y-159577915D01*
X98839231Y-159560253D01*
X98839277Y-159559613D01*
X98850326Y-159537388D01*
X98872410Y-159514753D01*
X98873710Y-159513768D01*
X98900853Y-159498425D01*
X98925958Y-159498574D01*
X98935368Y-159501466D01*
X98946834Y-159507718D01*
X98959010Y-159520014D01*
X98973357Y-159540908D01*
X98991336Y-159572949D01*
X99014407Y-159618688D01*
X99044030Y-159680677D01*
X99070745Y-159737898D01*
X99101480Y-159804226D01*
X99129021Y-159863874D01*
X99151938Y-159913725D01*
X99168798Y-159950664D01*
X99178173Y-159971573D01*
X99179540Y-159974845D01*
X99185689Y-159969497D01*
X99199822Y-159947109D01*
X99220057Y-159910946D01*
X99244515Y-159864277D01*
X99254248Y-159845022D01*
X99287217Y-159780004D01*
X99312643Y-159732654D01*
X99332612Y-159700219D01*
X99349210Y-159679946D01*
X99364524Y-159669082D01*
X99380640Y-159664875D01*
X99391143Y-159664400D01*
X99409670Y-159666042D01*
X99425904Y-159672831D01*
X99442035Y-159687566D01*
X99460251Y-159713044D01*
X99482739Y-159752061D01*
X99511689Y-159807414D01*
X99527662Y-159838903D01*
X99553570Y-159889087D01*
X99576167Y-159930704D01*
X99593458Y-159960242D01*
X99603450Y-159974189D01*
X99604809Y-159974770D01*
X99611261Y-159963793D01*
X99625708Y-159935290D01*
X99646703Y-159892244D01*
X99672797Y-159837638D01*
X99702546Y-159774454D01*
X99717180Y-159743071D01*
X99755250Y-159662078D01*
X99785905Y-159599756D01*
X99810737Y-159554071D01*
X99831337Y-159522989D01*
X99849298Y-159504478D01*
X99866210Y-159496504D01*
X99883665Y-159497034D01*
G36*
X100327614Y-159501877D02*
G01*
X100351327Y-159516647D01*
X100377978Y-159538227D01*
X100377978Y-159859773D01*
X100377893Y-159953830D01*
X100377529Y-160027932D01*
X100376724Y-160084704D01*
X100375313Y-160126768D01*
X100373133Y-160156748D01*
X100370021Y-160177267D01*
X100365814Y-160190949D01*
X100360348Y-160200416D01*
X100356472Y-160205082D01*
X100325034Y-160225575D01*
X100289233Y-160224739D01*
X100257873Y-160207264D01*
X100231222Y-160185684D01*
X100231222Y-159538227D01*
X100257873Y-159516647D01*
X100283594Y-159500949D01*
X100304600Y-159495067D01*
X100327614Y-159501877D01*
G37*
X100327614Y-159501877D02*
X100351327Y-159516647D01*
X100377978Y-159538227D01*
X100377978Y-159859773D01*
X100377893Y-159953830D01*
X100377529Y-160027932D01*
X100376724Y-160084704D01*
X100375313Y-160126768D01*
X100373133Y-160156748D01*
X100370021Y-160177267D01*
X100365814Y-160190949D01*
X100360348Y-160200416D01*
X100356472Y-160205082D01*
X100325034Y-160225575D01*
X100289233Y-160224739D01*
X100257873Y-160207264D01*
X100231222Y-160185684D01*
X100231222Y-159538227D01*
X100257873Y-159516647D01*
X100283594Y-159500949D01*
X100304600Y-159495067D01*
X100327614Y-159501877D01*
G36*
X101102065Y-159495163D02*
G01*
X101180772Y-159495542D01*
X101241863Y-159496333D01*
X101287817Y-159497670D01*
X101321114Y-159499683D01*
X101344236Y-159502506D01*
X101359662Y-159506269D01*
X101369871Y-159511105D01*
X101374813Y-159514822D01*
X101400457Y-159547358D01*
X101403559Y-159581138D01*
X101387711Y-159611826D01*
X101377348Y-159624089D01*
X101366196Y-159632450D01*
X101350035Y-159637657D01*
X101324642Y-159640457D01*
X101285798Y-159641596D01*
X101229280Y-159641821D01*
X101218180Y-159641822D01*
X101072244Y-159641822D01*
X101072244Y-159912756D01*
X101072148Y-159998154D01*
X101071711Y-160063864D01*
X101070712Y-160112774D01*
X101068928Y-160147773D01*
X101066137Y-160171749D01*
X101062117Y-160187593D01*
X101056645Y-160198191D01*
X101049666Y-160206267D01*
X101016734Y-160226112D01*
X100982354Y-160224548D01*
X100951176Y-160201906D01*
X100948886Y-160199100D01*
X100941429Y-160188492D01*
X100935747Y-160176081D01*
X100931601Y-160158850D01*
X100928750Y-160133784D01*
X100926954Y-160097867D01*
X100925972Y-160048083D01*
X100925564Y-159981417D01*
X100925489Y-159905589D01*
X100925489Y-159641822D01*
X100786127Y-159641822D01*
X100726322Y-159641418D01*
X100684918Y-159639840D01*
X100657748Y-159636547D01*
X100640646Y-159630992D01*
X100629443Y-159622631D01*
X100628083Y-159621178D01*
X100611725Y-159587939D01*
X100613172Y-159550362D01*
X100631978Y-159517645D01*
X100639250Y-159511298D01*
X100648627Y-159506266D01*
X100662609Y-159502396D01*
X100683696Y-159499537D01*
X100714389Y-159497535D01*
X100757189Y-159496239D01*
X100814595Y-159495498D01*
X100889110Y-159495158D01*
X100983233Y-159495068D01*
X101003260Y-159495067D01*
X101102065Y-159495163D01*
G37*
X101102065Y-159495163D02*
X101180772Y-159495542D01*
X101241863Y-159496333D01*
X101287817Y-159497670D01*
X101321114Y-159499683D01*
X101344236Y-159502506D01*
X101359662Y-159506269D01*
X101369871Y-159511105D01*
X101374813Y-159514822D01*
X101400457Y-159547358D01*
X101403559Y-159581138D01*
X101387711Y-159611826D01*
X101377348Y-159624089D01*
X101366196Y-159632450D01*
X101350035Y-159637657D01*
X101324642Y-159640457D01*
X101285798Y-159641596D01*
X101229280Y-159641821D01*
X101218180Y-159641822D01*
X101072244Y-159641822D01*
X101072244Y-159912756D01*
X101072148Y-159998154D01*
X101071711Y-160063864D01*
X101070712Y-160112774D01*
X101068928Y-160147773D01*
X101066137Y-160171749D01*
X101062117Y-160187593D01*
X101056645Y-160198191D01*
X101049666Y-160206267D01*
X101016734Y-160226112D01*
X100982354Y-160224548D01*
X100951176Y-160201906D01*
X100948886Y-160199100D01*
X100941429Y-160188492D01*
X100935747Y-160176081D01*
X100931601Y-160158850D01*
X100928750Y-160133784D01*
X100926954Y-160097867D01*
X100925972Y-160048083D01*
X100925564Y-159981417D01*
X100925489Y-159905589D01*
X100925489Y-159641822D01*
X100786127Y-159641822D01*
X100726322Y-159641418D01*
X100684918Y-159639840D01*
X100657748Y-159636547D01*
X100640646Y-159630992D01*
X100629443Y-159622631D01*
X100628083Y-159621178D01*
X100611725Y-159587939D01*
X100613172Y-159550362D01*
X100631978Y-159517645D01*
X100639250Y-159511298D01*
X100648627Y-159506266D01*
X100662609Y-159502396D01*
X100683696Y-159499537D01*
X100714389Y-159497535D01*
X100757189Y-159496239D01*
X100814595Y-159495498D01*
X100889110Y-159495158D01*
X100983233Y-159495068D01*
X101003260Y-159495067D01*
X101102065Y-159495163D01*
G36*
X102367823Y-159500533D02*
G01*
X102399202Y-159522776D01*
X102426911Y-159550485D01*
X102426911Y-159859920D01*
X102426838Y-159951799D01*
X102426495Y-160023840D01*
X102425692Y-160078780D01*
X102424241Y-160119360D01*
X102421952Y-160148317D01*
X102418636Y-160168391D01*
X102414105Y-160182321D01*
X102408169Y-160192845D01*
X102403514Y-160199100D01*
X102372783Y-160223673D01*
X102337496Y-160226341D01*
X102305245Y-160211271D01*
X102294588Y-160202374D01*
X102287464Y-160190557D01*
X102283167Y-160171526D01*
X102280991Y-160140992D01*
X102280228Y-160094662D01*
X102280155Y-160058871D01*
X102280155Y-159924045D01*
X101783444Y-159924045D01*
X101783444Y-160046700D01*
X101782931Y-160102787D01*
X101780876Y-160141333D01*
X101776508Y-160167361D01*
X101769056Y-160185897D01*
X101760047Y-160199100D01*
X101729144Y-160223604D01*
X101694196Y-160226506D01*
X101660738Y-160209089D01*
X101651604Y-160199959D01*
X101645152Y-160187855D01*
X101640897Y-160169001D01*
X101638352Y-160139620D01*
X101637029Y-160095937D01*
X101636443Y-160034175D01*
X101636375Y-160020000D01*
X101635891Y-159903631D01*
X101635641Y-159807727D01*
X101635723Y-159730177D01*
X101636231Y-159668869D01*
X101637262Y-159621690D01*
X101638913Y-159586530D01*
X101641279Y-159561276D01*
X101644457Y-159543817D01*
X101648544Y-159532041D01*
X101653634Y-159523835D01*
X101659266Y-159517645D01*
X101691128Y-159497844D01*
X101724357Y-159500533D01*
X101755735Y-159522776D01*
X101768433Y-159537126D01*
X101776526Y-159552978D01*
X101781042Y-159575554D01*
X101783006Y-159610078D01*
X101783444Y-159661776D01*
X101783444Y-159777289D01*
X102280155Y-159777289D01*
X102280155Y-159658756D01*
X102280662Y-159604148D01*
X102282698Y-159567275D01*
X102287035Y-159543307D01*
X102294447Y-159527415D01*
X102302733Y-159517645D01*
X102334594Y-159497844D01*
X102367823Y-159500533D01*
G37*
X102367823Y-159500533D02*
X102399202Y-159522776D01*
X102426911Y-159550485D01*
X102426911Y-159859920D01*
X102426838Y-159951799D01*
X102426495Y-160023840D01*
X102425692Y-160078780D01*
X102424241Y-160119360D01*
X102421952Y-160148317D01*
X102418636Y-160168391D01*
X102414105Y-160182321D01*
X102408169Y-160192845D01*
X102403514Y-160199100D01*
X102372783Y-160223673D01*
X102337496Y-160226341D01*
X102305245Y-160211271D01*
X102294588Y-160202374D01*
X102287464Y-160190557D01*
X102283167Y-160171526D01*
X102280991Y-160140992D01*
X102280228Y-160094662D01*
X102280155Y-160058871D01*
X102280155Y-159924045D01*
X101783444Y-159924045D01*
X101783444Y-160046700D01*
X101782931Y-160102787D01*
X101780876Y-160141333D01*
X101776508Y-160167361D01*
X101769056Y-160185897D01*
X101760047Y-160199100D01*
X101729144Y-160223604D01*
X101694196Y-160226506D01*
X101660738Y-160209089D01*
X101651604Y-160199959D01*
X101645152Y-160187855D01*
X101640897Y-160169001D01*
X101638352Y-160139620D01*
X101637029Y-160095937D01*
X101636443Y-160034175D01*
X101636375Y-160020000D01*
X101635891Y-159903631D01*
X101635641Y-159807727D01*
X101635723Y-159730177D01*
X101636231Y-159668869D01*
X101637262Y-159621690D01*
X101638913Y-159586530D01*
X101641279Y-159561276D01*
X101644457Y-159543817D01*
X101648544Y-159532041D01*
X101653634Y-159523835D01*
X101659266Y-159517645D01*
X101691128Y-159497844D01*
X101724357Y-159500533D01*
X101755735Y-159522776D01*
X101768433Y-159537126D01*
X101776526Y-159552978D01*
X101781042Y-159575554D01*
X101783006Y-159610078D01*
X101783444Y-159661776D01*
X101783444Y-159777289D01*
X102280155Y-159777289D01*
X102280155Y-159658756D01*
X102280662Y-159604148D01*
X102282698Y-159567275D01*
X102287035Y-159543307D01*
X102294447Y-159527415D01*
X102302733Y-159517645D01*
X102334594Y-159497844D01*
X102367823Y-159500533D01*
G36*
X93192600Y-154713187D02*
G01*
X93203465Y-154827126D01*
X93235082Y-154934749D01*
X93285985Y-155033748D01*
X93354707Y-155121817D01*
X93439781Y-155196649D01*
X93536768Y-155254517D01*
X93643036Y-155294138D01*
X93750050Y-155312706D01*
X93855700Y-155311567D01*
X93957875Y-155292063D01*
X94054466Y-155255539D01*
X94143362Y-155203338D01*
X94222454Y-155136806D01*
X94289631Y-155057285D01*
X94342783Y-154966120D01*
X94379801Y-154864656D01*
X94398573Y-154754235D01*
X94400511Y-154704339D01*
X94400511Y-154616400D01*
X94452440Y-154616400D01*
X94488747Y-154619244D01*
X94515645Y-154631044D01*
X94542751Y-154654782D01*
X94581133Y-154693164D01*
X94581133Y-156884735D01*
X94581124Y-157146872D01*
X94581092Y-157387374D01*
X94581028Y-157607181D01*
X94580924Y-157807234D01*
X94580773Y-157988477D01*
X94580566Y-158151849D01*
X94580294Y-158298293D01*
X94579950Y-158428750D01*
X94579526Y-158544162D01*
X94579013Y-158645471D01*
X94578403Y-158733617D01*
X94577688Y-158809543D01*
X94576860Y-158874190D01*
X94575911Y-158928500D01*
X94574833Y-158973413D01*
X94573617Y-159009873D01*
X94572255Y-159038820D01*
X94570739Y-159061196D01*
X94569062Y-159077942D01*
X94567214Y-159090001D01*
X94565187Y-159098313D01*
X94562975Y-159103820D01*
X94561892Y-159105670D01*
X94557729Y-159112682D01*
X94554195Y-159119129D01*
X94550365Y-159125033D01*
X94545318Y-159130419D01*
X94538129Y-159135311D01*
X94527877Y-159139731D01*
X94513636Y-159143705D01*
X94494486Y-159147254D01*
X94469501Y-159150403D01*
X94437760Y-159153175D01*
X94398338Y-159155594D01*
X94350314Y-159157684D01*
X94292763Y-159159468D01*
X94224763Y-159160970D01*
X94145390Y-159162213D01*
X94053721Y-159163222D01*
X93948834Y-159164018D01*
X93829804Y-159164627D01*
X93695710Y-159165072D01*
X93545627Y-159165376D01*
X93378633Y-159165563D01*
X93193804Y-159165657D01*
X92990217Y-159165681D01*
X92766950Y-159165658D01*
X92523078Y-159165613D01*
X92257679Y-159165570D01*
X92219296Y-159165565D01*
X91952318Y-159165522D01*
X91706998Y-159165451D01*
X91482417Y-159165346D01*
X91277655Y-159165199D01*
X91091794Y-159165002D01*
X90923912Y-159164749D01*
X90773092Y-159164433D01*
X90638413Y-159164046D01*
X90518956Y-159163580D01*
X90413801Y-159163030D01*
X90322029Y-159162386D01*
X90242721Y-159161644D01*
X90174957Y-159160794D01*
X90117818Y-159159830D01*
X90070383Y-159158744D01*
X90031734Y-159157530D01*
X90000951Y-159156180D01*
X89977115Y-159154688D01*
X89959306Y-159153044D01*
X89946605Y-159151244D01*
X89938092Y-159149278D01*
X89933734Y-159147610D01*
X89925272Y-159144039D01*
X89917503Y-159141403D01*
X89910398Y-159138767D01*
X89903927Y-159135195D01*
X89898061Y-159129754D01*
X89892771Y-159121508D01*
X89888026Y-159109523D01*
X89883798Y-159092864D01*
X89880057Y-159070596D01*
X89876773Y-159041785D01*
X89873917Y-159005496D01*
X89871460Y-158960794D01*
X89869371Y-158906744D01*
X89867622Y-158842412D01*
X89866183Y-158766863D01*
X89865024Y-158679163D01*
X89864117Y-158578376D01*
X89863431Y-158463567D01*
X89862937Y-158333803D01*
X89862605Y-158188148D01*
X89862407Y-158025668D01*
X89862313Y-157845428D01*
X89862292Y-157646493D01*
X89862315Y-157427929D01*
X89862354Y-157188801D01*
X89862378Y-156928173D01*
X89862378Y-156886022D01*
X89862364Y-156623125D01*
X89862339Y-156381865D01*
X89862329Y-156161298D01*
X89862358Y-155960485D01*
X89862452Y-155778482D01*
X89862638Y-155614349D01*
X89862941Y-155467144D01*
X89863386Y-155335925D01*
X89863966Y-155226000D01*
X90166803Y-155226000D01*
X90206593Y-155283844D01*
X90217764Y-155299612D01*
X90227834Y-155313574D01*
X90236862Y-155326917D01*
X90244903Y-155340826D01*
X90252014Y-155356489D01*
X90258253Y-155375091D01*
X90263675Y-155397819D01*
X90268338Y-155425860D01*
X90272299Y-155460400D01*
X90275615Y-155502625D01*
X90278341Y-155553722D01*
X90280536Y-155614877D01*
X90282255Y-155687277D01*
X90283556Y-155772108D01*
X90284495Y-155870555D01*
X90285130Y-155983807D01*
X90285516Y-156113049D01*
X90285712Y-156259467D01*
X90285773Y-156424249D01*
X90285757Y-156608580D01*
X90285720Y-156813646D01*
X90285711Y-156936266D01*
X90285735Y-157153215D01*
X90285769Y-157348775D01*
X90285757Y-157524132D01*
X90285642Y-157680474D01*
X90285370Y-157818990D01*
X90284882Y-157940867D01*
X90284124Y-158047293D01*
X90283038Y-158139455D01*
X90281569Y-158218542D01*
X90279660Y-158285741D01*
X90277256Y-158342240D01*
X90274299Y-158389226D01*
X90270734Y-158427888D01*
X90266505Y-158459413D01*
X90261554Y-158484988D01*
X90255827Y-158505803D01*
X90249267Y-158523044D01*
X90241817Y-158537898D01*
X90233421Y-158551555D01*
X90224024Y-158565202D01*
X90213568Y-158580026D01*
X90207477Y-158588916D01*
X90168704Y-158646533D01*
X90700268Y-158646533D01*
X90823517Y-158646498D01*
X90926013Y-158646348D01*
X91009580Y-158646011D01*
X91076044Y-158645419D01*
X91127229Y-158644500D01*
X91164959Y-158643184D01*
X91191060Y-158641402D01*
X91207356Y-158639084D01*
X91215672Y-158636159D01*
X91217832Y-158632557D01*
X91215661Y-158628208D01*
X91214465Y-158626778D01*
X91189315Y-158589706D01*
X91163417Y-158536905D01*
X91139808Y-158474903D01*
X91131539Y-158448490D01*
X91126922Y-158430549D01*
X91123021Y-158409488D01*
X91119752Y-158383222D01*
X91117034Y-158349665D01*
X91114785Y-158306732D01*
X91112923Y-158252337D01*
X91111364Y-158184395D01*
X91110028Y-158100821D01*
X91108831Y-157999528D01*
X91107692Y-157878433D01*
X91107315Y-157833733D01*
X91106298Y-157708582D01*
X91105540Y-157604215D01*
X91105097Y-157518840D01*
X91105030Y-157450666D01*
X91105395Y-157397898D01*
X91106252Y-157358747D01*
X91107659Y-157331418D01*
X91109675Y-157314119D01*
X91112357Y-157305059D01*
X91115764Y-157302445D01*
X91119956Y-157304484D01*
X91124429Y-157308800D01*
X91134784Y-157321735D01*
X91156842Y-157350809D01*
X91189043Y-157393892D01*
X91229826Y-157448851D01*
X91277630Y-157513556D01*
X91330895Y-157585875D01*
X91388060Y-157663677D01*
X91447563Y-157744831D01*
X91507845Y-157827205D01*
X91567345Y-157908669D01*
X91624502Y-157987090D01*
X91677755Y-158060337D01*
X91725543Y-158126280D01*
X91766307Y-158182787D01*
X91798484Y-158227726D01*
X91820515Y-158258967D01*
X91825083Y-158265599D01*
X91848004Y-158302502D01*
X91874812Y-158350492D01*
X91900211Y-158400030D01*
X91903432Y-158406710D01*
X91925110Y-158454905D01*
X91937696Y-158492467D01*
X91943426Y-158528293D01*
X91944544Y-158570333D01*
X91943910Y-158646533D01*
X93098349Y-158646533D01*
X93007185Y-158552802D01*
X92960388Y-158502908D01*
X92910101Y-158446428D01*
X92864056Y-158392159D01*
X92843631Y-158366806D01*
X92813193Y-158327261D01*
X92773138Y-158274049D01*
X92724639Y-158208800D01*
X92668865Y-158133144D01*
X92606989Y-158048710D01*
X92540181Y-157957127D01*
X92469613Y-157860025D01*
X92396455Y-157759034D01*
X92321879Y-157655783D01*
X92247056Y-157551901D01*
X92173157Y-157449018D01*
X92101354Y-157348764D01*
X92032816Y-157252769D01*
X91968716Y-157162660D01*
X91910225Y-157080069D01*
X91858514Y-157006625D01*
X91814753Y-156943957D01*
X91780115Y-156893694D01*
X91755770Y-156857467D01*
X91742889Y-156836904D01*
X91741131Y-156832801D01*
X91749090Y-156821475D01*
X91769885Y-156794295D01*
X91802153Y-156752962D01*
X91844530Y-156699177D01*
X91895653Y-156634639D01*
X91954159Y-156561051D01*
X92018686Y-156480111D01*
X92087869Y-156393521D01*
X92160347Y-156302981D01*
X92234754Y-156210193D01*
X92294483Y-156135835D01*
X93305489Y-156135835D01*
X93311398Y-156148792D01*
X93325728Y-156171041D01*
X93326775Y-156172524D01*
X93345562Y-156202677D01*
X93365209Y-156239508D01*
X93369108Y-156247644D01*
X93372644Y-156256073D01*
X93375770Y-156266192D01*
X93378514Y-156279393D01*
X93380908Y-156297071D01*
X93382981Y-156320617D01*
X93384765Y-156351426D01*
X93386288Y-156390890D01*
X93387581Y-156440402D01*
X93388674Y-156501356D01*
X93389597Y-156575144D01*
X93390381Y-156663161D01*
X93391055Y-156766798D01*
X93391650Y-156887449D01*
X93392195Y-157026507D01*
X93392721Y-157185365D01*
X93393255Y-157364222D01*
X93393794Y-157549340D01*
X93394228Y-157713278D01*
X93394491Y-157857436D01*
X93394516Y-157983212D01*
X93394235Y-158092004D01*
X93393581Y-158185210D01*
X93392486Y-158264230D01*
X93390882Y-158330461D01*
X93388703Y-158385303D01*
X93385881Y-158430154D01*
X93382349Y-158466411D01*
X93378039Y-158495474D01*
X93372883Y-158518742D01*
X93366815Y-158537612D01*
X93359767Y-158553484D01*
X93351671Y-158567755D01*
X93342460Y-158581824D01*
X93333960Y-158594291D01*
X93316824Y-158620585D01*
X93306678Y-158638170D01*
X93305489Y-158641390D01*
X93316396Y-158642467D01*
X93347589Y-158643468D01*
X93396777Y-158644368D01*
X93461667Y-158645143D01*
X93539970Y-158645770D01*
X93629393Y-158646224D01*
X93727644Y-158646482D01*
X93796555Y-158646533D01*
X93901548Y-158646313D01*
X93998390Y-158645681D01*
X94084893Y-158644682D01*
X94158868Y-158643360D01*
X94218126Y-158641759D01*
X94260480Y-158639924D01*
X94283740Y-158637898D01*
X94287622Y-158636626D01*
X94279924Y-158621724D01*
X94271926Y-158613693D01*
X94258754Y-158596567D01*
X94241515Y-158566316D01*
X94229593Y-158541755D01*
X94202955Y-158482844D01*
X94199880Y-157305978D01*
X94196805Y-156129111D01*
X93751147Y-156129111D01*
X93653330Y-156129275D01*
X93562936Y-156129744D01*
X93482370Y-156130480D01*
X93414038Y-156131449D01*
X93360344Y-156132613D01*
X93323695Y-156133936D01*
X93306496Y-156135382D01*
X93305489Y-156135835D01*
X92294483Y-156135835D01*
X92309730Y-156116855D01*
X92383910Y-156024670D01*
X92455931Y-155935337D01*
X92524431Y-155850557D01*
X92588045Y-155772031D01*
X92645412Y-155701459D01*
X92695167Y-155640542D01*
X92735948Y-155590980D01*
X92753112Y-155570311D01*
X92839404Y-155469649D01*
X92916003Y-155386392D01*
X92984817Y-155318571D01*
X93047752Y-155264222D01*
X93057133Y-155256855D01*
X93096644Y-155226250D01*
X91964884Y-155226000D01*
X91970173Y-155273977D01*
X91966870Y-155331321D01*
X91945339Y-155399596D01*
X91905365Y-155479345D01*
X91860057Y-155551628D01*
X91843839Y-155574273D01*
X91815786Y-155611829D01*
X91777570Y-155662154D01*
X91730863Y-155723106D01*
X91677339Y-155792544D01*
X91618669Y-155868327D01*
X91556525Y-155948313D01*
X91492579Y-156030361D01*
X91428505Y-156112329D01*
X91365973Y-156192076D01*
X91306657Y-156267460D01*
X91252229Y-156336340D01*
X91204361Y-156396575D01*
X91164725Y-156446022D01*
X91134994Y-156482541D01*
X91116839Y-156503991D01*
X91113780Y-156507289D01*
X91110921Y-156499282D01*
X91108707Y-156468988D01*
X91107143Y-156416689D01*
X91106233Y-156342664D01*
X91105980Y-156247196D01*
X91106387Y-156130567D01*
X91107296Y-156010578D01*
X91108618Y-155878466D01*
X91110143Y-155766727D01*
X91112119Y-155673158D01*
X91114794Y-155595552D01*
X91118418Y-155531707D01*
X91123239Y-155479416D01*
X91129506Y-155436477D01*
X91137468Y-155400684D01*
X91147373Y-155369833D01*
X91159469Y-155341719D01*
X91174007Y-155314138D01*
X91188689Y-155289099D01*
X91226686Y-155226000D01*
X90166803Y-155226000D01*
X89863966Y-155226000D01*
X89863999Y-155219750D01*
X89864805Y-155117677D01*
X89865830Y-155028766D01*
X89867100Y-154952074D01*
X89868640Y-154886660D01*
X89870476Y-154831582D01*
X89872633Y-154785898D01*
X89875137Y-154748667D01*
X89878013Y-154718946D01*
X89881287Y-154695795D01*
X89884985Y-154678272D01*
X89889131Y-154665434D01*
X89893753Y-154656341D01*
X89898874Y-154650051D01*
X89904522Y-154645621D01*
X89910721Y-154642111D01*
X89917496Y-154638578D01*
X89923492Y-154635009D01*
X89928725Y-154632433D01*
X89936901Y-154630105D01*
X89949114Y-154628011D01*
X89966459Y-154626140D01*
X89990031Y-154624480D01*
X90020923Y-154623017D01*
X90060232Y-154621741D01*
X90109050Y-154620637D01*
X90168473Y-154619694D01*
X90239596Y-154618900D01*
X90323512Y-154618242D01*
X90421317Y-154617708D01*
X90534106Y-154617286D01*
X90662971Y-154616962D01*
X90809009Y-154616725D01*
X90973314Y-154616563D01*
X91156980Y-154616463D01*
X91361103Y-154616413D01*
X91572247Y-154616400D01*
X93192600Y-154616400D01*
X93192600Y-154713187D01*
G37*
X93192600Y-154713187D02*
X93203465Y-154827126D01*
X93235082Y-154934749D01*
X93285985Y-155033748D01*
X93354707Y-155121817D01*
X93439781Y-155196649D01*
X93536768Y-155254517D01*
X93643036Y-155294138D01*
X93750050Y-155312706D01*
X93855700Y-155311567D01*
X93957875Y-155292063D01*
X94054466Y-155255539D01*
X94143362Y-155203338D01*
X94222454Y-155136806D01*
X94289631Y-155057285D01*
X94342783Y-154966120D01*
X94379801Y-154864656D01*
X94398573Y-154754235D01*
X94400511Y-154704339D01*
X94400511Y-154616400D01*
X94452440Y-154616400D01*
X94488747Y-154619244D01*
X94515645Y-154631044D01*
X94542751Y-154654782D01*
X94581133Y-154693164D01*
X94581133Y-156884735D01*
X94581124Y-157146872D01*
X94581092Y-157387374D01*
X94581028Y-157607181D01*
X94580924Y-157807234D01*
X94580773Y-157988477D01*
X94580566Y-158151849D01*
X94580294Y-158298293D01*
X94579950Y-158428750D01*
X94579526Y-158544162D01*
X94579013Y-158645471D01*
X94578403Y-158733617D01*
X94577688Y-158809543D01*
X94576860Y-158874190D01*
X94575911Y-158928500D01*
X94574833Y-158973413D01*
X94573617Y-159009873D01*
X94572255Y-159038820D01*
X94570739Y-159061196D01*
X94569062Y-159077942D01*
X94567214Y-159090001D01*
X94565187Y-159098313D01*
X94562975Y-159103820D01*
X94561892Y-159105670D01*
X94557729Y-159112682D01*
X94554195Y-159119129D01*
X94550365Y-159125033D01*
X94545318Y-159130419D01*
X94538129Y-159135311D01*
X94527877Y-159139731D01*
X94513636Y-159143705D01*
X94494486Y-159147254D01*
X94469501Y-159150403D01*
X94437760Y-159153175D01*
X94398338Y-159155594D01*
X94350314Y-159157684D01*
X94292763Y-159159468D01*
X94224763Y-159160970D01*
X94145390Y-159162213D01*
X94053721Y-159163222D01*
X93948834Y-159164018D01*
X93829804Y-159164627D01*
X93695710Y-159165072D01*
X93545627Y-159165376D01*
X93378633Y-159165563D01*
X93193804Y-159165657D01*
X92990217Y-159165681D01*
X92766950Y-159165658D01*
X92523078Y-159165613D01*
X92257679Y-159165570D01*
X92219296Y-159165565D01*
X91952318Y-159165522D01*
X91706998Y-159165451D01*
X91482417Y-159165346D01*
X91277655Y-159165199D01*
X91091794Y-159165002D01*
X90923912Y-159164749D01*
X90773092Y-159164433D01*
X90638413Y-159164046D01*
X90518956Y-159163580D01*
X90413801Y-159163030D01*
X90322029Y-159162386D01*
X90242721Y-159161644D01*
X90174957Y-159160794D01*
X90117818Y-159159830D01*
X90070383Y-159158744D01*
X90031734Y-159157530D01*
X90000951Y-159156180D01*
X89977115Y-159154688D01*
X89959306Y-159153044D01*
X89946605Y-159151244D01*
X89938092Y-159149278D01*
X89933734Y-159147610D01*
X89925272Y-159144039D01*
X89917503Y-159141403D01*
X89910398Y-159138767D01*
X89903927Y-159135195D01*
X89898061Y-159129754D01*
X89892771Y-159121508D01*
X89888026Y-159109523D01*
X89883798Y-159092864D01*
X89880057Y-159070596D01*
X89876773Y-159041785D01*
X89873917Y-159005496D01*
X89871460Y-158960794D01*
X89869371Y-158906744D01*
X89867622Y-158842412D01*
X89866183Y-158766863D01*
X89865024Y-158679163D01*
X89864117Y-158578376D01*
X89863431Y-158463567D01*
X89862937Y-158333803D01*
X89862605Y-158188148D01*
X89862407Y-158025668D01*
X89862313Y-157845428D01*
X89862292Y-157646493D01*
X89862315Y-157427929D01*
X89862354Y-157188801D01*
X89862378Y-156928173D01*
X89862378Y-156886022D01*
X89862364Y-156623125D01*
X89862339Y-156381865D01*
X89862329Y-156161298D01*
X89862358Y-155960485D01*
X89862452Y-155778482D01*
X89862638Y-155614349D01*
X89862941Y-155467144D01*
X89863386Y-155335925D01*
X89863966Y-155226000D01*
X90166803Y-155226000D01*
X90206593Y-155283844D01*
X90217764Y-155299612D01*
X90227834Y-155313574D01*
X90236862Y-155326917D01*
X90244903Y-155340826D01*
X90252014Y-155356489D01*
X90258253Y-155375091D01*
X90263675Y-155397819D01*
X90268338Y-155425860D01*
X90272299Y-155460400D01*
X90275615Y-155502625D01*
X90278341Y-155553722D01*
X90280536Y-155614877D01*
X90282255Y-155687277D01*
X90283556Y-155772108D01*
X90284495Y-155870555D01*
X90285130Y-155983807D01*
X90285516Y-156113049D01*
X90285712Y-156259467D01*
X90285773Y-156424249D01*
X90285757Y-156608580D01*
X90285720Y-156813646D01*
X90285711Y-156936266D01*
X90285735Y-157153215D01*
X90285769Y-157348775D01*
X90285757Y-157524132D01*
X90285642Y-157680474D01*
X90285370Y-157818990D01*
X90284882Y-157940867D01*
X90284124Y-158047293D01*
X90283038Y-158139455D01*
X90281569Y-158218542D01*
X90279660Y-158285741D01*
X90277256Y-158342240D01*
X90274299Y-158389226D01*
X90270734Y-158427888D01*
X90266505Y-158459413D01*
X90261554Y-158484988D01*
X90255827Y-158505803D01*
X90249267Y-158523044D01*
X90241817Y-158537898D01*
X90233421Y-158551555D01*
X90224024Y-158565202D01*
X90213568Y-158580026D01*
X90207477Y-158588916D01*
X90168704Y-158646533D01*
X90700268Y-158646533D01*
X90823517Y-158646498D01*
X90926013Y-158646348D01*
X91009580Y-158646011D01*
X91076044Y-158645419D01*
X91127229Y-158644500D01*
X91164959Y-158643184D01*
X91191060Y-158641402D01*
X91207356Y-158639084D01*
X91215672Y-158636159D01*
X91217832Y-158632557D01*
X91215661Y-158628208D01*
X91214465Y-158626778D01*
X91189315Y-158589706D01*
X91163417Y-158536905D01*
X91139808Y-158474903D01*
X91131539Y-158448490D01*
X91126922Y-158430549D01*
X91123021Y-158409488D01*
X91119752Y-158383222D01*
X91117034Y-158349665D01*
X91114785Y-158306732D01*
X91112923Y-158252337D01*
X91111364Y-158184395D01*
X91110028Y-158100821D01*
X91108831Y-157999528D01*
X91107692Y-157878433D01*
X91107315Y-157833733D01*
X91106298Y-157708582D01*
X91105540Y-157604215D01*
X91105097Y-157518840D01*
X91105030Y-157450666D01*
X91105395Y-157397898D01*
X91106252Y-157358747D01*
X91107659Y-157331418D01*
X91109675Y-157314119D01*
X91112357Y-157305059D01*
X91115764Y-157302445D01*
X91119956Y-157304484D01*
X91124429Y-157308800D01*
X91134784Y-157321735D01*
X91156842Y-157350809D01*
X91189043Y-157393892D01*
X91229826Y-157448851D01*
X91277630Y-157513556D01*
X91330895Y-157585875D01*
X91388060Y-157663677D01*
X91447563Y-157744831D01*
X91507845Y-157827205D01*
X91567345Y-157908669D01*
X91624502Y-157987090D01*
X91677755Y-158060337D01*
X91725543Y-158126280D01*
X91766307Y-158182787D01*
X91798484Y-158227726D01*
X91820515Y-158258967D01*
X91825083Y-158265599D01*
X91848004Y-158302502D01*
X91874812Y-158350492D01*
X91900211Y-158400030D01*
X91903432Y-158406710D01*
X91925110Y-158454905D01*
X91937696Y-158492467D01*
X91943426Y-158528293D01*
X91944544Y-158570333D01*
X91943910Y-158646533D01*
X93098349Y-158646533D01*
X93007185Y-158552802D01*
X92960388Y-158502908D01*
X92910101Y-158446428D01*
X92864056Y-158392159D01*
X92843631Y-158366806D01*
X92813193Y-158327261D01*
X92773138Y-158274049D01*
X92724639Y-158208800D01*
X92668865Y-158133144D01*
X92606989Y-158048710D01*
X92540181Y-157957127D01*
X92469613Y-157860025D01*
X92396455Y-157759034D01*
X92321879Y-157655783D01*
X92247056Y-157551901D01*
X92173157Y-157449018D01*
X92101354Y-157348764D01*
X92032816Y-157252769D01*
X91968716Y-157162660D01*
X91910225Y-157080069D01*
X91858514Y-157006625D01*
X91814753Y-156943957D01*
X91780115Y-156893694D01*
X91755770Y-156857467D01*
X91742889Y-156836904D01*
X91741131Y-156832801D01*
X91749090Y-156821475D01*
X91769885Y-156794295D01*
X91802153Y-156752962D01*
X91844530Y-156699177D01*
X91895653Y-156634639D01*
X91954159Y-156561051D01*
X92018686Y-156480111D01*
X92087869Y-156393521D01*
X92160347Y-156302981D01*
X92234754Y-156210193D01*
X92294483Y-156135835D01*
X93305489Y-156135835D01*
X93311398Y-156148792D01*
X93325728Y-156171041D01*
X93326775Y-156172524D01*
X93345562Y-156202677D01*
X93365209Y-156239508D01*
X93369108Y-156247644D01*
X93372644Y-156256073D01*
X93375770Y-156266192D01*
X93378514Y-156279393D01*
X93380908Y-156297071D01*
X93382981Y-156320617D01*
X93384765Y-156351426D01*
X93386288Y-156390890D01*
X93387581Y-156440402D01*
X93388674Y-156501356D01*
X93389597Y-156575144D01*
X93390381Y-156663161D01*
X93391055Y-156766798D01*
X93391650Y-156887449D01*
X93392195Y-157026507D01*
X93392721Y-157185365D01*
X93393255Y-157364222D01*
X93393794Y-157549340D01*
X93394228Y-157713278D01*
X93394491Y-157857436D01*
X93394516Y-157983212D01*
X93394235Y-158092004D01*
X93393581Y-158185210D01*
X93392486Y-158264230D01*
X93390882Y-158330461D01*
X93388703Y-158385303D01*
X93385881Y-158430154D01*
X93382349Y-158466411D01*
X93378039Y-158495474D01*
X93372883Y-158518742D01*
X93366815Y-158537612D01*
X93359767Y-158553484D01*
X93351671Y-158567755D01*
X93342460Y-158581824D01*
X93333960Y-158594291D01*
X93316824Y-158620585D01*
X93306678Y-158638170D01*
X93305489Y-158641390D01*
X93316396Y-158642467D01*
X93347589Y-158643468D01*
X93396777Y-158644368D01*
X93461667Y-158645143D01*
X93539970Y-158645770D01*
X93629393Y-158646224D01*
X93727644Y-158646482D01*
X93796555Y-158646533D01*
X93901548Y-158646313D01*
X93998390Y-158645681D01*
X94084893Y-158644682D01*
X94158868Y-158643360D01*
X94218126Y-158641759D01*
X94260480Y-158639924D01*
X94283740Y-158637898D01*
X94287622Y-158636626D01*
X94279924Y-158621724D01*
X94271926Y-158613693D01*
X94258754Y-158596567D01*
X94241515Y-158566316D01*
X94229593Y-158541755D01*
X94202955Y-158482844D01*
X94199880Y-157305978D01*
X94196805Y-156129111D01*
X93751147Y-156129111D01*
X93653330Y-156129275D01*
X93562936Y-156129744D01*
X93482370Y-156130480D01*
X93414038Y-156131449D01*
X93360344Y-156132613D01*
X93323695Y-156133936D01*
X93306496Y-156135382D01*
X93305489Y-156135835D01*
X92294483Y-156135835D01*
X92309730Y-156116855D01*
X92383910Y-156024670D01*
X92455931Y-155935337D01*
X92524431Y-155850557D01*
X92588045Y-155772031D01*
X92645412Y-155701459D01*
X92695167Y-155640542D01*
X92735948Y-155590980D01*
X92753112Y-155570311D01*
X92839404Y-155469649D01*
X92916003Y-155386392D01*
X92984817Y-155318571D01*
X93047752Y-155264222D01*
X93057133Y-155256855D01*
X93096644Y-155226250D01*
X91964884Y-155226000D01*
X91970173Y-155273977D01*
X91966870Y-155331321D01*
X91945339Y-155399596D01*
X91905365Y-155479345D01*
X91860057Y-155551628D01*
X91843839Y-155574273D01*
X91815786Y-155611829D01*
X91777570Y-155662154D01*
X91730863Y-155723106D01*
X91677339Y-155792544D01*
X91618669Y-155868327D01*
X91556525Y-155948313D01*
X91492579Y-156030361D01*
X91428505Y-156112329D01*
X91365973Y-156192076D01*
X91306657Y-156267460D01*
X91252229Y-156336340D01*
X91204361Y-156396575D01*
X91164725Y-156446022D01*
X91134994Y-156482541D01*
X91116839Y-156503991D01*
X91113780Y-156507289D01*
X91110921Y-156499282D01*
X91108707Y-156468988D01*
X91107143Y-156416689D01*
X91106233Y-156342664D01*
X91105980Y-156247196D01*
X91106387Y-156130567D01*
X91107296Y-156010578D01*
X91108618Y-155878466D01*
X91110143Y-155766727D01*
X91112119Y-155673158D01*
X91114794Y-155595552D01*
X91118418Y-155531707D01*
X91123239Y-155479416D01*
X91129506Y-155436477D01*
X91137468Y-155400684D01*
X91147373Y-155369833D01*
X91159469Y-155341719D01*
X91174007Y-155314138D01*
X91188689Y-155289099D01*
X91226686Y-155226000D01*
X90166803Y-155226000D01*
X89863966Y-155226000D01*
X89863999Y-155219750D01*
X89864805Y-155117677D01*
X89865830Y-155028766D01*
X89867100Y-154952074D01*
X89868640Y-154886660D01*
X89870476Y-154831582D01*
X89872633Y-154785898D01*
X89875137Y-154748667D01*
X89878013Y-154718946D01*
X89881287Y-154695795D01*
X89884985Y-154678272D01*
X89889131Y-154665434D01*
X89893753Y-154656341D01*
X89898874Y-154650051D01*
X89904522Y-154645621D01*
X89910721Y-154642111D01*
X89917496Y-154638578D01*
X89923492Y-154635009D01*
X89928725Y-154632433D01*
X89936901Y-154630105D01*
X89949114Y-154628011D01*
X89966459Y-154626140D01*
X89990031Y-154624480D01*
X90020923Y-154623017D01*
X90060232Y-154621741D01*
X90109050Y-154620637D01*
X90168473Y-154619694D01*
X90239596Y-154618900D01*
X90323512Y-154618242D01*
X90421317Y-154617708D01*
X90534106Y-154617286D01*
X90662971Y-154616962D01*
X90809009Y-154616725D01*
X90973314Y-154616563D01*
X91156980Y-154616463D01*
X91361103Y-154616413D01*
X91572247Y-154616400D01*
X93192600Y-154616400D01*
X93192600Y-154713187D01*
G36*
X93865957Y-154252571D02*
G01*
X93962232Y-154276809D01*
X94048816Y-154319641D01*
X94123627Y-154379419D01*
X94184582Y-154454494D01*
X94229601Y-154543220D01*
X94255864Y-154639530D01*
X94261714Y-154736795D01*
X94246860Y-154830654D01*
X94213160Y-154918511D01*
X94162472Y-154997770D01*
X94096655Y-155065836D01*
X94017566Y-155120112D01*
X93927066Y-155158002D01*
X93875800Y-155170426D01*
X93831302Y-155177947D01*
X93797001Y-155180919D01*
X93764040Y-155179094D01*
X93723566Y-155172225D01*
X93690469Y-155165250D01*
X93597053Y-155133741D01*
X93513381Y-155082617D01*
X93441335Y-155013429D01*
X93382800Y-154927728D01*
X93368852Y-154900489D01*
X93352414Y-154864122D01*
X93342106Y-154833582D01*
X93336540Y-154801450D01*
X93334331Y-154760307D01*
X93334052Y-154714222D01*
X93338139Y-154629865D01*
X93351554Y-154560586D01*
X93376744Y-154499961D01*
X93416154Y-154441567D01*
X93454702Y-154397302D01*
X93526594Y-154331484D01*
X93601687Y-154286053D01*
X93684438Y-154258850D01*
X93762072Y-154248576D01*
X93865957Y-154252571D01*
G37*
X93865957Y-154252571D02*
X93962232Y-154276809D01*
X94048816Y-154319641D01*
X94123627Y-154379419D01*
X94184582Y-154454494D01*
X94229601Y-154543220D01*
X94255864Y-154639530D01*
X94261714Y-154736795D01*
X94246860Y-154830654D01*
X94213160Y-154918511D01*
X94162472Y-154997770D01*
X94096655Y-155065836D01*
X94017566Y-155120112D01*
X93927066Y-155158002D01*
X93875800Y-155170426D01*
X93831302Y-155177947D01*
X93797001Y-155180919D01*
X93764040Y-155179094D01*
X93723566Y-155172225D01*
X93690469Y-155165250D01*
X93597053Y-155133741D01*
X93513381Y-155082617D01*
X93441335Y-155013429D01*
X93382800Y-154927728D01*
X93368852Y-154900489D01*
X93352414Y-154864122D01*
X93342106Y-154833582D01*
X93336540Y-154801450D01*
X93334331Y-154760307D01*
X93334052Y-154714222D01*
X93338139Y-154629865D01*
X93351554Y-154560586D01*
X93376744Y-154499961D01*
X93416154Y-154441567D01*
X93454702Y-154397302D01*
X93526594Y-154331484D01*
X93601687Y-154286053D01*
X93684438Y-154258850D01*
X93762072Y-154248576D01*
X93865957Y-154252571D01*
G36*
X96467429Y-155175071D02*
G01*
X96627570Y-155196245D01*
X96791510Y-155236385D01*
X96961313Y-155295889D01*
X97139043Y-155375154D01*
X97150310Y-155380699D01*
X97208005Y-155408725D01*
X97259552Y-155432802D01*
X97301191Y-155451249D01*
X97329162Y-155462386D01*
X97338733Y-155464933D01*
X97357950Y-155469941D01*
X97362561Y-155474147D01*
X97357458Y-155484580D01*
X97341418Y-155510868D01*
X97316288Y-155550257D01*
X97283914Y-155599991D01*
X97246143Y-155657315D01*
X97204822Y-155719476D01*
X97161798Y-155783718D01*
X97118917Y-155847285D01*
X97078026Y-155907425D01*
X97040971Y-155961380D01*
X97009600Y-156006397D01*
X96985759Y-156039721D01*
X96971294Y-156058597D01*
X96969309Y-156060787D01*
X96959191Y-156056138D01*
X96936850Y-156038962D01*
X96906280Y-156012440D01*
X96890536Y-155997964D01*
X96794047Y-155922682D01*
X96687336Y-155867241D01*
X96571832Y-155832141D01*
X96448962Y-155817880D01*
X96379561Y-155819051D01*
X96258423Y-155836212D01*
X96149205Y-155872094D01*
X96051582Y-155926959D01*
X95965228Y-156001070D01*
X95889815Y-156094688D01*
X95825018Y-156208076D01*
X95787601Y-156294667D01*
X95743748Y-156430366D01*
X95711428Y-156577850D01*
X95690557Y-156733314D01*
X95681051Y-156892956D01*
X95682827Y-157052973D01*
X95695803Y-157209561D01*
X95719894Y-157358918D01*
X95755018Y-157497240D01*
X95801092Y-157620724D01*
X95817373Y-157654978D01*
X95885620Y-157769064D01*
X95966079Y-157865557D01*
X96057570Y-157943670D01*
X96158911Y-158002617D01*
X96268920Y-158041612D01*
X96386415Y-158059868D01*
X96427883Y-158061211D01*
X96549441Y-158050290D01*
X96669878Y-158017474D01*
X96787666Y-157963439D01*
X96901277Y-157888865D01*
X96992685Y-157810539D01*
X97039215Y-157766008D01*
X97220483Y-158063271D01*
X97265580Y-158137433D01*
X97306819Y-158205646D01*
X97342735Y-158265459D01*
X97371866Y-158314420D01*
X97392750Y-158350079D01*
X97403924Y-158369984D01*
X97405375Y-158373079D01*
X97397146Y-158382718D01*
X97371567Y-158399999D01*
X97331873Y-158423283D01*
X97281297Y-158450934D01*
X97223074Y-158481315D01*
X97160437Y-158512790D01*
X97096621Y-158543722D01*
X97034860Y-158572473D01*
X96978388Y-158597408D01*
X96930438Y-158616889D01*
X96906986Y-158625318D01*
X96773221Y-158663133D01*
X96635327Y-158688136D01*
X96487622Y-158701140D01*
X96360833Y-158703468D01*
X96292878Y-158702373D01*
X96227277Y-158700275D01*
X96169847Y-158697434D01*
X96126403Y-158694106D01*
X96112298Y-158692422D01*
X95973284Y-158663587D01*
X95831757Y-158618468D01*
X95694275Y-158559750D01*
X95567394Y-158490120D01*
X95489889Y-158437441D01*
X95362481Y-158329239D01*
X95244178Y-158202671D01*
X95137172Y-158060866D01*
X95043652Y-157906951D01*
X94965810Y-157744053D01*
X94921956Y-157626756D01*
X94871708Y-157443128D01*
X94838209Y-157248581D01*
X94821449Y-157047325D01*
X94821416Y-156843568D01*
X94838101Y-156641521D01*
X94871493Y-156445392D01*
X94921580Y-156259391D01*
X94925397Y-156247803D01*
X94988281Y-156085750D01*
X95065028Y-155937832D01*
X95158242Y-155799865D01*
X95270527Y-155667661D01*
X95314392Y-155622399D01*
X95450534Y-155498457D01*
X95590491Y-155395915D01*
X95736411Y-155313656D01*
X95890442Y-155250564D01*
X96054732Y-155205523D01*
X96150289Y-155188033D01*
X96309023Y-155172466D01*
X96467429Y-155175071D01*
G37*
X96467429Y-155175071D02*
X96627570Y-155196245D01*
X96791510Y-155236385D01*
X96961313Y-155295889D01*
X97139043Y-155375154D01*
X97150310Y-155380699D01*
X97208005Y-155408725D01*
X97259552Y-155432802D01*
X97301191Y-155451249D01*
X97329162Y-155462386D01*
X97338733Y-155464933D01*
X97357950Y-155469941D01*
X97362561Y-155474147D01*
X97357458Y-155484580D01*
X97341418Y-155510868D01*
X97316288Y-155550257D01*
X97283914Y-155599991D01*
X97246143Y-155657315D01*
X97204822Y-155719476D01*
X97161798Y-155783718D01*
X97118917Y-155847285D01*
X97078026Y-155907425D01*
X97040971Y-155961380D01*
X97009600Y-156006397D01*
X96985759Y-156039721D01*
X96971294Y-156058597D01*
X96969309Y-156060787D01*
X96959191Y-156056138D01*
X96936850Y-156038962D01*
X96906280Y-156012440D01*
X96890536Y-155997964D01*
X96794047Y-155922682D01*
X96687336Y-155867241D01*
X96571832Y-155832141D01*
X96448962Y-155817880D01*
X96379561Y-155819051D01*
X96258423Y-155836212D01*
X96149205Y-155872094D01*
X96051582Y-155926959D01*
X95965228Y-156001070D01*
X95889815Y-156094688D01*
X95825018Y-156208076D01*
X95787601Y-156294667D01*
X95743748Y-156430366D01*
X95711428Y-156577850D01*
X95690557Y-156733314D01*
X95681051Y-156892956D01*
X95682827Y-157052973D01*
X95695803Y-157209561D01*
X95719894Y-157358918D01*
X95755018Y-157497240D01*
X95801092Y-157620724D01*
X95817373Y-157654978D01*
X95885620Y-157769064D01*
X95966079Y-157865557D01*
X96057570Y-157943670D01*
X96158911Y-158002617D01*
X96268920Y-158041612D01*
X96386415Y-158059868D01*
X96427883Y-158061211D01*
X96549441Y-158050290D01*
X96669878Y-158017474D01*
X96787666Y-157963439D01*
X96901277Y-157888865D01*
X96992685Y-157810539D01*
X97039215Y-157766008D01*
X97220483Y-158063271D01*
X97265580Y-158137433D01*
X97306819Y-158205646D01*
X97342735Y-158265459D01*
X97371866Y-158314420D01*
X97392750Y-158350079D01*
X97403924Y-158369984D01*
X97405375Y-158373079D01*
X97397146Y-158382718D01*
X97371567Y-158399999D01*
X97331873Y-158423283D01*
X97281297Y-158450934D01*
X97223074Y-158481315D01*
X97160437Y-158512790D01*
X97096621Y-158543722D01*
X97034860Y-158572473D01*
X96978388Y-158597408D01*
X96930438Y-158616889D01*
X96906986Y-158625318D01*
X96773221Y-158663133D01*
X96635327Y-158688136D01*
X96487622Y-158701140D01*
X96360833Y-158703468D01*
X96292878Y-158702373D01*
X96227277Y-158700275D01*
X96169847Y-158697434D01*
X96126403Y-158694106D01*
X96112298Y-158692422D01*
X95973284Y-158663587D01*
X95831757Y-158618468D01*
X95694275Y-158559750D01*
X95567394Y-158490120D01*
X95489889Y-158437441D01*
X95362481Y-158329239D01*
X95244178Y-158202671D01*
X95137172Y-158060866D01*
X95043652Y-157906951D01*
X94965810Y-157744053D01*
X94921956Y-157626756D01*
X94871708Y-157443128D01*
X94838209Y-157248581D01*
X94821449Y-157047325D01*
X94821416Y-156843568D01*
X94838101Y-156641521D01*
X94871493Y-156445392D01*
X94921580Y-156259391D01*
X94925397Y-156247803D01*
X94988281Y-156085750D01*
X95065028Y-155937832D01*
X95158242Y-155799865D01*
X95270527Y-155667661D01*
X95314392Y-155622399D01*
X95450534Y-155498457D01*
X95590491Y-155395915D01*
X95736411Y-155313656D01*
X95890442Y-155250564D01*
X96054732Y-155205523D01*
X96150289Y-155188033D01*
X96309023Y-155172466D01*
X96467429Y-155175071D01*
G36*
X98812574Y-156092552D02*
G01*
X98964492Y-156112567D01*
X99099756Y-156146202D01*
X99219239Y-156193725D01*
X99323815Y-156255405D01*
X99401424Y-156318965D01*
X99470265Y-156393099D01*
X99524006Y-156472871D01*
X99566910Y-156565091D01*
X99582384Y-156608161D01*
X99595244Y-156647142D01*
X99606446Y-156683289D01*
X99616120Y-156718434D01*
X99624396Y-156754410D01*
X99631403Y-156793050D01*
X99637272Y-156836185D01*
X99642131Y-156885649D01*
X99646110Y-156943273D01*
X99649340Y-157010891D01*
X99651949Y-157090334D01*
X99654067Y-157183436D01*
X99655824Y-157292027D01*
X99657349Y-157417942D01*
X99658772Y-157563012D01*
X99660025Y-157705778D01*
X99661351Y-157861968D01*
X99662556Y-157997239D01*
X99663766Y-158113246D01*
X99665106Y-158211645D01*
X99666700Y-158294093D01*
X99668675Y-158362246D01*
X99671156Y-158417760D01*
X99674269Y-158462292D01*
X99678138Y-158497498D01*
X99682889Y-158525034D01*
X99688648Y-158546556D01*
X99695539Y-158563722D01*
X99703689Y-158578186D01*
X99713223Y-158591606D01*
X99724266Y-158605638D01*
X99728566Y-158611071D01*
X99744386Y-158633910D01*
X99751422Y-158649463D01*
X99751444Y-158649922D01*
X99740567Y-158652121D01*
X99709582Y-158654147D01*
X99660957Y-158655942D01*
X99597163Y-158657451D01*
X99520669Y-158658616D01*
X99433944Y-158659380D01*
X99339457Y-158659686D01*
X99328550Y-158659689D01*
X98905657Y-158659689D01*
X98902395Y-158563622D01*
X98899133Y-158467556D01*
X98837044Y-158518543D01*
X98739714Y-158586057D01*
X98629813Y-158640749D01*
X98543349Y-158670978D01*
X98474278Y-158685666D01*
X98390925Y-158695659D01*
X98301159Y-158700646D01*
X98212845Y-158700313D01*
X98133851Y-158694351D01*
X98097622Y-158688638D01*
X97957603Y-158650776D01*
X97831178Y-158595932D01*
X97719260Y-158524924D01*
X97622762Y-158438568D01*
X97542600Y-158337679D01*
X97479687Y-158223076D01*
X97435312Y-158096984D01*
X97422978Y-158040401D01*
X97415368Y-157978202D01*
X97411739Y-157903363D01*
X97411245Y-157869467D01*
X97411310Y-157866282D01*
X98171248Y-157866282D01*
X98180541Y-157941333D01*
X98208728Y-158005160D01*
X98257197Y-158060798D01*
X98262254Y-158065211D01*
X98310548Y-158100037D01*
X98362257Y-158122620D01*
X98422989Y-158134540D01*
X98498352Y-158137383D01*
X98516459Y-158136978D01*
X98570278Y-158134325D01*
X98610308Y-158128909D01*
X98645324Y-158118745D01*
X98684103Y-158101850D01*
X98694745Y-158096672D01*
X98755396Y-158060844D01*
X98802215Y-158018212D01*
X98814952Y-158002973D01*
X98859622Y-157946462D01*
X98859622Y-157750586D01*
X98859086Y-157671939D01*
X98857396Y-157613988D01*
X98854428Y-157574875D01*
X98850057Y-157552741D01*
X98845972Y-157546274D01*
X98830047Y-157543111D01*
X98796264Y-157540488D01*
X98749340Y-157538655D01*
X98693993Y-157537857D01*
X98685106Y-157537842D01*
X98564330Y-157543096D01*
X98461660Y-157559263D01*
X98375106Y-157586961D01*
X98302681Y-157626808D01*
X98247751Y-157673758D01*
X98203204Y-157731645D01*
X98178480Y-157794693D01*
X98171248Y-157866282D01*
X97411310Y-157866282D01*
X97413178Y-157775712D01*
X97421522Y-157696812D01*
X97437768Y-157625590D01*
X97463405Y-157554864D01*
X97487401Y-157502493D01*
X97546020Y-157407196D01*
X97624117Y-157319170D01*
X97719315Y-157240017D01*
X97829238Y-157171340D01*
X97951510Y-157114741D01*
X98083755Y-157071821D01*
X98148422Y-157056882D01*
X98284604Y-157034777D01*
X98433049Y-157020194D01*
X98584505Y-157013813D01*
X98711064Y-157015445D01*
X98872950Y-157022224D01*
X98865530Y-156963245D01*
X98846238Y-156864092D01*
X98815104Y-156783372D01*
X98771269Y-156720466D01*
X98713871Y-156674756D01*
X98642048Y-156645622D01*
X98554941Y-156632447D01*
X98451686Y-156634611D01*
X98413711Y-156638612D01*
X98272520Y-156663780D01*
X98135707Y-156704814D01*
X98041178Y-156742815D01*
X97996018Y-156762190D01*
X97957585Y-156777760D01*
X97931234Y-156787405D01*
X97923546Y-156789452D01*
X97913802Y-156780374D01*
X97897083Y-156751405D01*
X97873232Y-156702217D01*
X97842093Y-156632484D01*
X97803507Y-156541879D01*
X97796910Y-156526089D01*
X97766853Y-156453772D01*
X97739874Y-156388425D01*
X97717136Y-156332906D01*
X97699806Y-156290072D01*
X97689048Y-156262781D01*
X97685941Y-156253942D01*
X97695940Y-156249187D01*
X97722217Y-156243910D01*
X97750489Y-156240231D01*
X97780646Y-156235474D01*
X97828433Y-156226028D01*
X97889612Y-156212820D01*
X97959946Y-156196776D01*
X98035194Y-156178820D01*
X98063755Y-156171797D01*
X98168816Y-156146209D01*
X98256480Y-156126147D01*
X98331068Y-156110969D01*
X98396903Y-156100035D01*
X98458307Y-156092704D01*
X98519602Y-156088335D01*
X98585110Y-156086287D01*
X98643128Y-156085889D01*
X98812574Y-156092552D01*
G37*
X98812574Y-156092552D02*
X98964492Y-156112567D01*
X99099756Y-156146202D01*
X99219239Y-156193725D01*
X99323815Y-156255405D01*
X99401424Y-156318965D01*
X99470265Y-156393099D01*
X99524006Y-156472871D01*
X99566910Y-156565091D01*
X99582384Y-156608161D01*
X99595244Y-156647142D01*
X99606446Y-156683289D01*
X99616120Y-156718434D01*
X99624396Y-156754410D01*
X99631403Y-156793050D01*
X99637272Y-156836185D01*
X99642131Y-156885649D01*
X99646110Y-156943273D01*
X99649340Y-157010891D01*
X99651949Y-157090334D01*
X99654067Y-157183436D01*
X99655824Y-157292027D01*
X99657349Y-157417942D01*
X99658772Y-157563012D01*
X99660025Y-157705778D01*
X99661351Y-157861968D01*
X99662556Y-157997239D01*
X99663766Y-158113246D01*
X99665106Y-158211645D01*
X99666700Y-158294093D01*
X99668675Y-158362246D01*
X99671156Y-158417760D01*
X99674269Y-158462292D01*
X99678138Y-158497498D01*
X99682889Y-158525034D01*
X99688648Y-158546556D01*
X99695539Y-158563722D01*
X99703689Y-158578186D01*
X99713223Y-158591606D01*
X99724266Y-158605638D01*
X99728566Y-158611071D01*
X99744386Y-158633910D01*
X99751422Y-158649463D01*
X99751444Y-158649922D01*
X99740567Y-158652121D01*
X99709582Y-158654147D01*
X99660957Y-158655942D01*
X99597163Y-158657451D01*
X99520669Y-158658616D01*
X99433944Y-158659380D01*
X99339457Y-158659686D01*
X99328550Y-158659689D01*
X98905657Y-158659689D01*
X98902395Y-158563622D01*
X98899133Y-158467556D01*
X98837044Y-158518543D01*
X98739714Y-158586057D01*
X98629813Y-158640749D01*
X98543349Y-158670978D01*
X98474278Y-158685666D01*
X98390925Y-158695659D01*
X98301159Y-158700646D01*
X98212845Y-158700313D01*
X98133851Y-158694351D01*
X98097622Y-158688638D01*
X97957603Y-158650776D01*
X97831178Y-158595932D01*
X97719260Y-158524924D01*
X97622762Y-158438568D01*
X97542600Y-158337679D01*
X97479687Y-158223076D01*
X97435312Y-158096984D01*
X97422978Y-158040401D01*
X97415368Y-157978202D01*
X97411739Y-157903363D01*
X97411245Y-157869467D01*
X97411310Y-157866282D01*
X98171248Y-157866282D01*
X98180541Y-157941333D01*
X98208728Y-158005160D01*
X98257197Y-158060798D01*
X98262254Y-158065211D01*
X98310548Y-158100037D01*
X98362257Y-158122620D01*
X98422989Y-158134540D01*
X98498352Y-158137383D01*
X98516459Y-158136978D01*
X98570278Y-158134325D01*
X98610308Y-158128909D01*
X98645324Y-158118745D01*
X98684103Y-158101850D01*
X98694745Y-158096672D01*
X98755396Y-158060844D01*
X98802215Y-158018212D01*
X98814952Y-158002973D01*
X98859622Y-157946462D01*
X98859622Y-157750586D01*
X98859086Y-157671939D01*
X98857396Y-157613988D01*
X98854428Y-157574875D01*
X98850057Y-157552741D01*
X98845972Y-157546274D01*
X98830047Y-157543111D01*
X98796264Y-157540488D01*
X98749340Y-157538655D01*
X98693993Y-157537857D01*
X98685106Y-157537842D01*
X98564330Y-157543096D01*
X98461660Y-157559263D01*
X98375106Y-157586961D01*
X98302681Y-157626808D01*
X98247751Y-157673758D01*
X98203204Y-157731645D01*
X98178480Y-157794693D01*
X98171248Y-157866282D01*
X97411310Y-157866282D01*
X97413178Y-157775712D01*
X97421522Y-157696812D01*
X97437768Y-157625590D01*
X97463405Y-157554864D01*
X97487401Y-157502493D01*
X97546020Y-157407196D01*
X97624117Y-157319170D01*
X97719315Y-157240017D01*
X97829238Y-157171340D01*
X97951510Y-157114741D01*
X98083755Y-157071821D01*
X98148422Y-157056882D01*
X98284604Y-157034777D01*
X98433049Y-157020194D01*
X98584505Y-157013813D01*
X98711064Y-157015445D01*
X98872950Y-157022224D01*
X98865530Y-156963245D01*
X98846238Y-156864092D01*
X98815104Y-156783372D01*
X98771269Y-156720466D01*
X98713871Y-156674756D01*
X98642048Y-156645622D01*
X98554941Y-156632447D01*
X98451686Y-156634611D01*
X98413711Y-156638612D01*
X98272520Y-156663780D01*
X98135707Y-156704814D01*
X98041178Y-156742815D01*
X97996018Y-156762190D01*
X97957585Y-156777760D01*
X97931234Y-156787405D01*
X97923546Y-156789452D01*
X97913802Y-156780374D01*
X97897083Y-156751405D01*
X97873232Y-156702217D01*
X97842093Y-156632484D01*
X97803507Y-156541879D01*
X97796910Y-156526089D01*
X97766853Y-156453772D01*
X97739874Y-156388425D01*
X97717136Y-156332906D01*
X97699806Y-156290072D01*
X97689048Y-156262781D01*
X97685941Y-156253942D01*
X97695940Y-156249187D01*
X97722217Y-156243910D01*
X97750489Y-156240231D01*
X97780646Y-156235474D01*
X97828433Y-156226028D01*
X97889612Y-156212820D01*
X97959946Y-156196776D01*
X98035194Y-156178820D01*
X98063755Y-156171797D01*
X98168816Y-156146209D01*
X98256480Y-156126147D01*
X98331068Y-156110969D01*
X98396903Y-156100035D01*
X98458307Y-156092704D01*
X98519602Y-156088335D01*
X98585110Y-156086287D01*
X98643128Y-156085889D01*
X98812574Y-156092552D01*
G36*
X102325507Y-156698245D02*
G01*
X102325526Y-156932662D01*
X102325552Y-157145603D01*
X102325625Y-157338168D01*
X102325782Y-157511459D01*
X102326064Y-157666576D01*
X102326509Y-157804620D01*
X102327156Y-157926692D01*
X102328045Y-158033894D01*
X102329213Y-158127326D01*
X102330701Y-158208090D01*
X102332546Y-158277286D01*
X102334789Y-158336015D01*
X102337469Y-158385379D01*
X102340623Y-158426478D01*
X102344292Y-158460413D01*
X102348513Y-158488286D01*
X102353327Y-158511198D01*
X102358773Y-158530249D01*
X102364888Y-158546540D01*
X102371712Y-158561173D01*
X102379285Y-158575249D01*
X102387645Y-158589868D01*
X102392839Y-158598974D01*
X102427104Y-158659689D01*
X101568955Y-158659689D01*
X101568955Y-158563733D01*
X101568224Y-158520370D01*
X101566272Y-158487205D01*
X101563463Y-158469424D01*
X101562221Y-158467778D01*
X101550799Y-158474662D01*
X101528084Y-158492505D01*
X101505385Y-158511879D01*
X101450800Y-158552614D01*
X101381321Y-158593617D01*
X101304270Y-158631123D01*
X101226965Y-158661364D01*
X101196113Y-158671012D01*
X101127616Y-158685578D01*
X101044764Y-158695539D01*
X100955371Y-158700583D01*
X100867248Y-158700396D01*
X100788207Y-158694666D01*
X100750511Y-158688858D01*
X100612414Y-158650797D01*
X100485113Y-158593073D01*
X100369292Y-158516211D01*
X100265637Y-158420739D01*
X100174833Y-158307179D01*
X100108031Y-158196381D01*
X100053164Y-158079625D01*
X100011163Y-157960276D01*
X99981167Y-157834283D01*
X99962311Y-157697594D01*
X99953732Y-157546158D01*
X99953006Y-157468711D01*
X99955100Y-157411934D01*
X100784217Y-157411934D01*
X100784424Y-157505002D01*
X100787337Y-157592692D01*
X100793000Y-157669772D01*
X100801455Y-157731009D01*
X100804038Y-157743350D01*
X100835840Y-157850633D01*
X100877498Y-157937658D01*
X100929363Y-158004642D01*
X100991781Y-158051805D01*
X101065100Y-158079365D01*
X101149669Y-158087541D01*
X101245835Y-158076551D01*
X101309311Y-158060829D01*
X101358454Y-158042639D01*
X101412583Y-158016791D01*
X101453244Y-157993089D01*
X101523800Y-157946721D01*
X101523800Y-156796530D01*
X101456392Y-156752962D01*
X101377867Y-156712040D01*
X101293681Y-156685389D01*
X101208557Y-156673465D01*
X101127216Y-156676722D01*
X101054380Y-156695615D01*
X101022426Y-156711184D01*
X100964501Y-156754181D01*
X100915544Y-156810953D01*
X100874390Y-156883575D01*
X100839874Y-156974121D01*
X100810833Y-157084666D01*
X100809552Y-157090533D01*
X100799381Y-157152788D01*
X100791739Y-157230594D01*
X100786670Y-157318720D01*
X100784217Y-157411934D01*
X99955100Y-157411934D01*
X99960857Y-157255895D01*
X99982802Y-157060059D01*
X100018786Y-156881332D01*
X100068759Y-156719845D01*
X100132668Y-156575726D01*
X100210462Y-156449106D01*
X100302089Y-156340115D01*
X100407497Y-156248883D01*
X100452662Y-156217932D01*
X100553611Y-156161785D01*
X100656901Y-156122174D01*
X100766989Y-156098014D01*
X100888330Y-156088219D01*
X100980836Y-156089265D01*
X101110490Y-156100231D01*
X101223084Y-156122046D01*
X101321875Y-156155714D01*
X101410121Y-156202236D01*
X101458986Y-156236448D01*
X101488353Y-156258362D01*
X101510043Y-156273333D01*
X101518253Y-156277733D01*
X101519868Y-156266904D01*
X101521159Y-156236251D01*
X101522138Y-156188526D01*
X101522817Y-156126479D01*
X101523210Y-156052862D01*
X101523330Y-155970427D01*
X101523188Y-155881925D01*
X101522797Y-155790107D01*
X101522171Y-155697724D01*
X101521320Y-155607528D01*
X101520260Y-155522271D01*
X101519001Y-155444703D01*
X101517556Y-155377576D01*
X101515938Y-155323641D01*
X101514161Y-155285650D01*
X101513669Y-155278667D01*
X101506092Y-155208251D01*
X101494531Y-155153102D01*
X101476792Y-155105981D01*
X101450682Y-155059647D01*
X101444415Y-155050067D01*
X101419983Y-155013378D01*
X102325311Y-155013378D01*
X102325507Y-156698245D01*
G37*
X102325507Y-156698245D02*
X102325526Y-156932662D01*
X102325552Y-157145603D01*
X102325625Y-157338168D01*
X102325782Y-157511459D01*
X102326064Y-157666576D01*
X102326509Y-157804620D01*
X102327156Y-157926692D01*
X102328045Y-158033894D01*
X102329213Y-158127326D01*
X102330701Y-158208090D01*
X102332546Y-158277286D01*
X102334789Y-158336015D01*
X102337469Y-158385379D01*
X102340623Y-158426478D01*
X102344292Y-158460413D01*
X102348513Y-158488286D01*
X102353327Y-158511198D01*
X102358773Y-158530249D01*
X102364888Y-158546540D01*
X102371712Y-158561173D01*
X102379285Y-158575249D01*
X102387645Y-158589868D01*
X102392839Y-158598974D01*
X102427104Y-158659689D01*
X101568955Y-158659689D01*
X101568955Y-158563733D01*
X101568224Y-158520370D01*
X101566272Y-158487205D01*
X101563463Y-158469424D01*
X101562221Y-158467778D01*
X101550799Y-158474662D01*
X101528084Y-158492505D01*
X101505385Y-158511879D01*
X101450800Y-158552614D01*
X101381321Y-158593617D01*
X101304270Y-158631123D01*
X101226965Y-158661364D01*
X101196113Y-158671012D01*
X101127616Y-158685578D01*
X101044764Y-158695539D01*
X100955371Y-158700583D01*
X100867248Y-158700396D01*
X100788207Y-158694666D01*
X100750511Y-158688858D01*
X100612414Y-158650797D01*
X100485113Y-158593073D01*
X100369292Y-158516211D01*
X100265637Y-158420739D01*
X100174833Y-158307179D01*
X100108031Y-158196381D01*
X100053164Y-158079625D01*
X100011163Y-157960276D01*
X99981167Y-157834283D01*
X99962311Y-157697594D01*
X99953732Y-157546158D01*
X99953006Y-157468711D01*
X99955100Y-157411934D01*
X100784217Y-157411934D01*
X100784424Y-157505002D01*
X100787337Y-157592692D01*
X100793000Y-157669772D01*
X100801455Y-157731009D01*
X100804038Y-157743350D01*
X100835840Y-157850633D01*
X100877498Y-157937658D01*
X100929363Y-158004642D01*
X100991781Y-158051805D01*
X101065100Y-158079365D01*
X101149669Y-158087541D01*
X101245835Y-158076551D01*
X101309311Y-158060829D01*
X101358454Y-158042639D01*
X101412583Y-158016791D01*
X101453244Y-157993089D01*
X101523800Y-157946721D01*
X101523800Y-156796530D01*
X101456392Y-156752962D01*
X101377867Y-156712040D01*
X101293681Y-156685389D01*
X101208557Y-156673465D01*
X101127216Y-156676722D01*
X101054380Y-156695615D01*
X101022426Y-156711184D01*
X100964501Y-156754181D01*
X100915544Y-156810953D01*
X100874390Y-156883575D01*
X100839874Y-156974121D01*
X100810833Y-157084666D01*
X100809552Y-157090533D01*
X100799381Y-157152788D01*
X100791739Y-157230594D01*
X100786670Y-157318720D01*
X100784217Y-157411934D01*
X99955100Y-157411934D01*
X99960857Y-157255895D01*
X99982802Y-157060059D01*
X100018786Y-156881332D01*
X100068759Y-156719845D01*
X100132668Y-156575726D01*
X100210462Y-156449106D01*
X100302089Y-156340115D01*
X100407497Y-156248883D01*
X100452662Y-156217932D01*
X100553611Y-156161785D01*
X100656901Y-156122174D01*
X100766989Y-156098014D01*
X100888330Y-156088219D01*
X100980836Y-156089265D01*
X101110490Y-156100231D01*
X101223084Y-156122046D01*
X101321875Y-156155714D01*
X101410121Y-156202236D01*
X101458986Y-156236448D01*
X101488353Y-156258362D01*
X101510043Y-156273333D01*
X101518253Y-156277733D01*
X101519868Y-156266904D01*
X101521159Y-156236251D01*
X101522138Y-156188526D01*
X101522817Y-156126479D01*
X101523210Y-156052862D01*
X101523330Y-155970427D01*
X101523188Y-155881925D01*
X101522797Y-155790107D01*
X101522171Y-155697724D01*
X101521320Y-155607528D01*
X101520260Y-155522271D01*
X101519001Y-155444703D01*
X101517556Y-155377576D01*
X101515938Y-155323641D01*
X101514161Y-155285650D01*
X101513669Y-155278667D01*
X101506092Y-155208251D01*
X101494531Y-155153102D01*
X101476792Y-155105981D01*
X101450682Y-155059647D01*
X101444415Y-155050067D01*
X101419983Y-155013378D01*
X102325311Y-155013378D01*
X102325507Y-156698245D01*
G36*
X90017629Y-159495066D02*
G01*
X90057111Y-159495467D01*
X90172800Y-159498259D01*
X90269689Y-159506550D01*
X90351081Y-159521232D01*
X90420277Y-159543193D01*
X90480580Y-159573322D01*
X90535292Y-159612510D01*
X90554833Y-159629532D01*
X90587250Y-159669363D01*
X90616480Y-159723413D01*
X90639009Y-159783323D01*
X90651321Y-159840739D01*
X90652600Y-159861956D01*
X90644583Y-159920769D01*
X90623101Y-159985013D01*
X90592001Y-160045821D01*
X90555134Y-160094330D01*
X90549146Y-160100182D01*
X90498421Y-160141321D01*
X90442875Y-160173435D01*
X90379304Y-160197365D01*
X90304506Y-160213953D01*
X90215278Y-160224041D01*
X90108418Y-160228469D01*
X90059472Y-160228845D01*
X89997238Y-160228545D01*
X89953472Y-160227292D01*
X89924069Y-160224554D01*
X89904921Y-160219801D01*
X89891923Y-160212501D01*
X89884955Y-160206267D01*
X89878374Y-160198694D01*
X89873212Y-160188924D01*
X89869297Y-160174340D01*
X89866457Y-160152326D01*
X89864520Y-160120264D01*
X89863316Y-160075536D01*
X89862672Y-160015526D01*
X89862417Y-159937617D01*
X89862378Y-159861956D01*
X89862130Y-159761041D01*
X89862183Y-159680427D01*
X89863143Y-159641822D01*
X90009133Y-159641822D01*
X90009133Y-160082089D01*
X90102266Y-160082004D01*
X90158307Y-160080396D01*
X90217001Y-160076256D01*
X90265972Y-160070464D01*
X90267462Y-160070226D01*
X90346608Y-160051090D01*
X90407998Y-160021287D01*
X90454695Y-159978878D01*
X90484365Y-159932961D01*
X90502647Y-159882026D01*
X90501229Y-159834200D01*
X90480012Y-159782933D01*
X90438511Y-159729899D01*
X90381002Y-159690600D01*
X90306250Y-159664331D01*
X90256292Y-159655035D01*
X90199584Y-159648507D01*
X90139481Y-159643782D01*
X90088361Y-159641817D01*
X90085333Y-159641808D01*
X90009133Y-159641822D01*
X89863143Y-159641822D01*
X89863740Y-159617851D01*
X89868002Y-159571055D01*
X89876170Y-159537778D01*
X89889444Y-159515759D01*
X89909026Y-159502739D01*
X89936117Y-159496457D01*
X89971918Y-159494653D01*
X90017629Y-159495066D01*
G37*
X90017629Y-159495066D02*
X90057111Y-159495467D01*
X90172800Y-159498259D01*
X90269689Y-159506550D01*
X90351081Y-159521232D01*
X90420277Y-159543193D01*
X90480580Y-159573322D01*
X90535292Y-159612510D01*
X90554833Y-159629532D01*
X90587250Y-159669363D01*
X90616480Y-159723413D01*
X90639009Y-159783323D01*
X90651321Y-159840739D01*
X90652600Y-159861956D01*
X90644583Y-159920769D01*
X90623101Y-159985013D01*
X90592001Y-160045821D01*
X90555134Y-160094330D01*
X90549146Y-160100182D01*
X90498421Y-160141321D01*
X90442875Y-160173435D01*
X90379304Y-160197365D01*
X90304506Y-160213953D01*
X90215278Y-160224041D01*
X90108418Y-160228469D01*
X90059472Y-160228845D01*
X89997238Y-160228545D01*
X89953472Y-160227292D01*
X89924069Y-160224554D01*
X89904921Y-160219801D01*
X89891923Y-160212501D01*
X89884955Y-160206267D01*
X89878374Y-160198694D01*
X89873212Y-160188924D01*
X89869297Y-160174340D01*
X89866457Y-160152326D01*
X89864520Y-160120264D01*
X89863316Y-160075536D01*
X89862672Y-160015526D01*
X89862417Y-159937617D01*
X89862378Y-159861956D01*
X89862130Y-159761041D01*
X89862183Y-159680427D01*
X89863143Y-159641822D01*
X90009133Y-159641822D01*
X90009133Y-160082089D01*
X90102266Y-160082004D01*
X90158307Y-160080396D01*
X90217001Y-160076256D01*
X90265972Y-160070464D01*
X90267462Y-160070226D01*
X90346608Y-160051090D01*
X90407998Y-160021287D01*
X90454695Y-159978878D01*
X90484365Y-159932961D01*
X90502647Y-159882026D01*
X90501229Y-159834200D01*
X90480012Y-159782933D01*
X90438511Y-159729899D01*
X90381002Y-159690600D01*
X90306250Y-159664331D01*
X90256292Y-159655035D01*
X90199584Y-159648507D01*
X90139481Y-159643782D01*
X90088361Y-159641817D01*
X90085333Y-159641808D01*
X90009133Y-159641822D01*
X89863143Y-159641822D01*
X89863740Y-159617851D01*
X89868002Y-159571055D01*
X89876170Y-159537778D01*
X89889444Y-159515759D01*
X89909026Y-159502739D01*
X89936117Y-159496457D01*
X89971918Y-159494653D01*
X90017629Y-159495066D01*
G36*
X91426206Y-159495146D02*
G01*
X91495614Y-159495518D01*
X91548003Y-159496385D01*
X91586153Y-159497946D01*
X91612841Y-159500403D01*
X91630847Y-159503957D01*
X91642951Y-159508810D01*
X91651931Y-159515161D01*
X91655182Y-159518084D01*
X91674957Y-159549142D01*
X91678518Y-159584828D01*
X91665509Y-159616510D01*
X91659494Y-159622913D01*
X91649765Y-159629121D01*
X91634099Y-159633910D01*
X91609592Y-159637514D01*
X91573339Y-159640164D01*
X91522435Y-159642095D01*
X91453974Y-159643539D01*
X91391383Y-159644418D01*
X91143666Y-159647467D01*
X91140281Y-159712378D01*
X91136895Y-159777289D01*
X91305042Y-159777289D01*
X91378041Y-159777919D01*
X91431483Y-159780553D01*
X91468372Y-159786309D01*
X91491712Y-159796304D01*
X91504506Y-159811656D01*
X91509758Y-159833482D01*
X91510555Y-159853738D01*
X91508077Y-159878592D01*
X91498723Y-159896906D01*
X91479617Y-159909637D01*
X91447882Y-159917741D01*
X91400641Y-159922176D01*
X91335017Y-159923899D01*
X91299199Y-159924045D01*
X91138022Y-159924045D01*
X91138022Y-160082089D01*
X91386378Y-160082089D01*
X91467787Y-160082202D01*
X91529658Y-160082712D01*
X91575032Y-160083870D01*
X91606946Y-160085930D01*
X91628441Y-160089146D01*
X91642557Y-160093772D01*
X91652332Y-160100059D01*
X91657311Y-160104667D01*
X91674390Y-160131560D01*
X91679889Y-160155467D01*
X91672037Y-160184667D01*
X91657311Y-160206267D01*
X91649454Y-160213066D01*
X91639312Y-160218346D01*
X91624156Y-160222298D01*
X91601259Y-160225113D01*
X91567891Y-160226982D01*
X91521325Y-160228098D01*
X91458833Y-160228651D01*
X91377686Y-160228833D01*
X91335578Y-160228845D01*
X91245402Y-160228765D01*
X91175076Y-160228398D01*
X91121871Y-160227552D01*
X91083060Y-160226036D01*
X91055913Y-160223659D01*
X91037702Y-160220229D01*
X91025700Y-160215554D01*
X91017178Y-160209444D01*
X91013844Y-160206267D01*
X91007245Y-160198670D01*
X91002073Y-160188870D01*
X90998154Y-160174239D01*
X90995316Y-160152152D01*
X90993385Y-160119982D01*
X90992188Y-160075103D01*
X90991552Y-160014889D01*
X90991303Y-159936713D01*
X90991266Y-159863923D01*
X90991300Y-159770707D01*
X90991535Y-159697431D01*
X90992170Y-159641458D01*
X90993406Y-159600151D01*
X90995444Y-159570872D01*
X90998483Y-159550984D01*
X91002723Y-159537850D01*
X91008365Y-159528832D01*
X91015609Y-159521293D01*
X91017394Y-159519612D01*
X91026055Y-159512172D01*
X91036118Y-159506409D01*
X91050375Y-159502112D01*
X91071617Y-159499064D01*
X91102636Y-159497051D01*
X91146223Y-159495860D01*
X91205169Y-159495275D01*
X91282266Y-159495083D01*
X91336999Y-159495067D01*
X91426206Y-159495146D01*
G37*
X91426206Y-159495146D02*
X91495614Y-159495518D01*
X91548003Y-159496385D01*
X91586153Y-159497946D01*
X91612841Y-159500403D01*
X91630847Y-159503957D01*
X91642951Y-159508810D01*
X91651931Y-159515161D01*
X91655182Y-159518084D01*
X91674957Y-159549142D01*
X91678518Y-159584828D01*
X91665509Y-159616510D01*
X91659494Y-159622913D01*
X91649765Y-159629121D01*
X91634099Y-159633910D01*
X91609592Y-159637514D01*
X91573339Y-159640164D01*
X91522435Y-159642095D01*
X91453974Y-159643539D01*
X91391383Y-159644418D01*
X91143666Y-159647467D01*
X91140281Y-159712378D01*
X91136895Y-159777289D01*
X91305042Y-159777289D01*
X91378041Y-159777919D01*
X91431483Y-159780553D01*
X91468372Y-159786309D01*
X91491712Y-159796304D01*
X91504506Y-159811656D01*
X91509758Y-159833482D01*
X91510555Y-159853738D01*
X91508077Y-159878592D01*
X91498723Y-159896906D01*
X91479617Y-159909637D01*
X91447882Y-159917741D01*
X91400641Y-159922176D01*
X91335017Y-159923899D01*
X91299199Y-159924045D01*
X91138022Y-159924045D01*
X91138022Y-160082089D01*
X91386378Y-160082089D01*
X91467787Y-160082202D01*
X91529658Y-160082712D01*
X91575032Y-160083870D01*
X91606946Y-160085930D01*
X91628441Y-160089146D01*
X91642557Y-160093772D01*
X91652332Y-160100059D01*
X91657311Y-160104667D01*
X91674390Y-160131560D01*
X91679889Y-160155467D01*
X91672037Y-160184667D01*
X91657311Y-160206267D01*
X91649454Y-160213066D01*
X91639312Y-160218346D01*
X91624156Y-160222298D01*
X91601259Y-160225113D01*
X91567891Y-160226982D01*
X91521325Y-160228098D01*
X91458833Y-160228651D01*
X91377686Y-160228833D01*
X91335578Y-160228845D01*
X91245402Y-160228765D01*
X91175076Y-160228398D01*
X91121871Y-160227552D01*
X91083060Y-160226036D01*
X91055913Y-160223659D01*
X91037702Y-160220229D01*
X91025700Y-160215554D01*
X91017178Y-160209444D01*
X91013844Y-160206267D01*
X91007245Y-160198670D01*
X91002073Y-160188870D01*
X90998154Y-160174239D01*
X90995316Y-160152152D01*
X90993385Y-160119982D01*
X90992188Y-160075103D01*
X90991552Y-160014889D01*
X90991303Y-159936713D01*
X90991266Y-159863923D01*
X90991300Y-159770707D01*
X90991535Y-159697431D01*
X90992170Y-159641458D01*
X90993406Y-159600151D01*
X90995444Y-159570872D01*
X90998483Y-159550984D01*
X91002723Y-159537850D01*
X91008365Y-159528832D01*
X91015609Y-159521293D01*
X91017394Y-159519612D01*
X91026055Y-159512172D01*
X91036118Y-159506409D01*
X91050375Y-159502112D01*
X91071617Y-159499064D01*
X91102636Y-159497051D01*
X91146223Y-159495860D01*
X91205169Y-159495275D01*
X91282266Y-159495083D01*
X91336999Y-159495067D01*
X91426206Y-159495146D01*
G36*
X92447297Y-159496351D02*
G01*
X92522112Y-159501581D01*
X92591694Y-159509750D01*
X92651998Y-159520550D01*
X92698980Y-159533673D01*
X92728594Y-159548813D01*
X92733140Y-159553269D01*
X92748946Y-159587850D01*
X92744153Y-159623351D01*
X92719636Y-159653725D01*
X92718466Y-159654596D01*
X92704046Y-159663954D01*
X92688992Y-159668876D01*
X92667995Y-159669473D01*
X92635743Y-159665861D01*
X92586927Y-159658154D01*
X92583000Y-159657505D01*
X92510261Y-159648569D01*
X92431783Y-159644161D01*
X92353073Y-159644119D01*
X92279639Y-159648279D01*
X92216989Y-159656479D01*
X92170630Y-159668557D01*
X92167584Y-159669771D01*
X92133952Y-159688615D01*
X92122136Y-159707685D01*
X92131386Y-159726439D01*
X92160953Y-159744337D01*
X92210089Y-159760837D01*
X92278043Y-159775396D01*
X92323355Y-159782406D01*
X92417544Y-159795889D01*
X92492456Y-159808214D01*
X92551283Y-159820449D01*
X92597215Y-159833661D01*
X92633445Y-159848917D01*
X92663162Y-159867285D01*
X92689558Y-159889831D01*
X92710770Y-159911971D01*
X92735935Y-159942819D01*
X92748319Y-159969345D01*
X92752192Y-160002026D01*
X92752333Y-160013995D01*
X92749424Y-160053712D01*
X92737798Y-160083259D01*
X92717677Y-160109486D01*
X92676784Y-160149576D01*
X92631183Y-160180149D01*
X92577487Y-160202203D01*
X92512308Y-160216735D01*
X92432256Y-160224741D01*
X92333943Y-160227218D01*
X92317711Y-160227177D01*
X92252151Y-160225818D01*
X92187134Y-160222730D01*
X92129748Y-160218356D01*
X92087078Y-160213140D01*
X92083628Y-160212541D01*
X92041204Y-160202491D01*
X92005220Y-160189796D01*
X91984850Y-160178190D01*
X91965893Y-160147572D01*
X91964573Y-160111918D01*
X91980915Y-160080144D01*
X91984571Y-160076551D01*
X91999685Y-160065876D01*
X92018585Y-160061276D01*
X92047838Y-160062059D01*
X92083349Y-160066127D01*
X92123030Y-160069762D01*
X92178655Y-160072828D01*
X92243594Y-160075053D01*
X92311215Y-160076164D01*
X92329000Y-160076237D01*
X92396872Y-160075964D01*
X92446546Y-160074646D01*
X92482390Y-160071827D01*
X92508776Y-160067050D01*
X92530074Y-160059857D01*
X92542874Y-160053867D01*
X92571000Y-160037233D01*
X92588932Y-160022168D01*
X92591553Y-160017897D01*
X92586024Y-160000263D01*
X92559740Y-159983192D01*
X92514522Y-159967458D01*
X92452192Y-159953838D01*
X92433829Y-159950804D01*
X92337910Y-159935738D01*
X92261359Y-159923146D01*
X92201220Y-159912111D01*
X92154540Y-159901720D01*
X92118363Y-159891056D01*
X92089735Y-159879205D01*
X92065702Y-159865251D01*
X92043308Y-159848281D01*
X92019598Y-159827378D01*
X92011620Y-159820049D01*
X91983647Y-159792699D01*
X91968840Y-159771029D01*
X91963048Y-159746232D01*
X91962111Y-159714983D01*
X91972425Y-159653705D01*
X92003248Y-159601640D01*
X92054405Y-159558958D01*
X92125717Y-159525825D01*
X92176600Y-159510964D01*
X92231900Y-159501366D01*
X92298147Y-159495936D01*
X92371294Y-159494367D01*
X92447297Y-159496351D01*
G37*
X92447297Y-159496351D02*
X92522112Y-159501581D01*
X92591694Y-159509750D01*
X92651998Y-159520550D01*
X92698980Y-159533673D01*
X92728594Y-159548813D01*
X92733140Y-159553269D01*
X92748946Y-159587850D01*
X92744153Y-159623351D01*
X92719636Y-159653725D01*
X92718466Y-159654596D01*
X92704046Y-159663954D01*
X92688992Y-159668876D01*
X92667995Y-159669473D01*
X92635743Y-159665861D01*
X92586927Y-159658154D01*
X92583000Y-159657505D01*
X92510261Y-159648569D01*
X92431783Y-159644161D01*
X92353073Y-159644119D01*
X92279639Y-159648279D01*
X92216989Y-159656479D01*
X92170630Y-159668557D01*
X92167584Y-159669771D01*
X92133952Y-159688615D01*
X92122136Y-159707685D01*
X92131386Y-159726439D01*
X92160953Y-159744337D01*
X92210089Y-159760837D01*
X92278043Y-159775396D01*
X92323355Y-159782406D01*
X92417544Y-159795889D01*
X92492456Y-159808214D01*
X92551283Y-159820449D01*
X92597215Y-159833661D01*
X92633445Y-159848917D01*
X92663162Y-159867285D01*
X92689558Y-159889831D01*
X92710770Y-159911971D01*
X92735935Y-159942819D01*
X92748319Y-159969345D01*
X92752192Y-160002026D01*
X92752333Y-160013995D01*
X92749424Y-160053712D01*
X92737798Y-160083259D01*
X92717677Y-160109486D01*
X92676784Y-160149576D01*
X92631183Y-160180149D01*
X92577487Y-160202203D01*
X92512308Y-160216735D01*
X92432256Y-160224741D01*
X92333943Y-160227218D01*
X92317711Y-160227177D01*
X92252151Y-160225818D01*
X92187134Y-160222730D01*
X92129748Y-160218356D01*
X92087078Y-160213140D01*
X92083628Y-160212541D01*
X92041204Y-160202491D01*
X92005220Y-160189796D01*
X91984850Y-160178190D01*
X91965893Y-160147572D01*
X91964573Y-160111918D01*
X91980915Y-160080144D01*
X91984571Y-160076551D01*
X91999685Y-160065876D01*
X92018585Y-160061276D01*
X92047838Y-160062059D01*
X92083349Y-160066127D01*
X92123030Y-160069762D01*
X92178655Y-160072828D01*
X92243594Y-160075053D01*
X92311215Y-160076164D01*
X92329000Y-160076237D01*
X92396872Y-160075964D01*
X92446546Y-160074646D01*
X92482390Y-160071827D01*
X92508776Y-160067050D01*
X92530074Y-160059857D01*
X92542874Y-160053867D01*
X92571000Y-160037233D01*
X92588932Y-160022168D01*
X92591553Y-160017897D01*
X92586024Y-160000263D01*
X92559740Y-159983192D01*
X92514522Y-159967458D01*
X92452192Y-159953838D01*
X92433829Y-159950804D01*
X92337910Y-159935738D01*
X92261359Y-159923146D01*
X92201220Y-159912111D01*
X92154540Y-159901720D01*
X92118363Y-159891056D01*
X92089735Y-159879205D01*
X92065702Y-159865251D01*
X92043308Y-159848281D01*
X92019598Y-159827378D01*
X92011620Y-159820049D01*
X91983647Y-159792699D01*
X91968840Y-159771029D01*
X91963048Y-159746232D01*
X91962111Y-159714983D01*
X91972425Y-159653705D01*
X92003248Y-159601640D01*
X92054405Y-159558958D01*
X92125717Y-159525825D01*
X92176600Y-159510964D01*
X92231900Y-159501366D01*
X92298147Y-159495936D01*
X92371294Y-159494367D01*
X92447297Y-159496351D01*
G36*
X93215178Y-159517645D02*
G01*
X93221758Y-159525218D01*
X93226921Y-159534987D01*
X93230836Y-159549571D01*
X93233676Y-159571585D01*
X93235613Y-159603648D01*
X93236817Y-159648375D01*
X93237461Y-159708385D01*
X93237716Y-159786294D01*
X93237755Y-159861956D01*
X93237686Y-159955802D01*
X93237362Y-160029689D01*
X93236614Y-160086232D01*
X93235268Y-160128049D01*
X93233154Y-160157757D01*
X93230100Y-160177973D01*
X93225934Y-160191314D01*
X93220484Y-160200398D01*
X93215178Y-160206267D01*
X93182174Y-160225947D01*
X93147009Y-160224181D01*
X93115545Y-160202717D01*
X93108316Y-160194337D01*
X93102666Y-160184614D01*
X93098401Y-160170861D01*
X93095327Y-160150389D01*
X93093248Y-160120512D01*
X93091970Y-160078541D01*
X93091299Y-160021789D01*
X93091041Y-159947567D01*
X93091000Y-159863537D01*
X93091000Y-159550485D01*
X93118709Y-159522776D01*
X93152863Y-159499463D01*
X93185994Y-159498623D01*
X93215178Y-159517645D01*
G37*
X93215178Y-159517645D02*
X93221758Y-159525218D01*
X93226921Y-159534987D01*
X93230836Y-159549571D01*
X93233676Y-159571585D01*
X93235613Y-159603648D01*
X93236817Y-159648375D01*
X93237461Y-159708385D01*
X93237716Y-159786294D01*
X93237755Y-159861956D01*
X93237686Y-159955802D01*
X93237362Y-160029689D01*
X93236614Y-160086232D01*
X93235268Y-160128049D01*
X93233154Y-160157757D01*
X93230100Y-160177973D01*
X93225934Y-160191314D01*
X93220484Y-160200398D01*
X93215178Y-160206267D01*
X93182174Y-160225947D01*
X93147009Y-160224181D01*
X93115545Y-160202717D01*
X93108316Y-160194337D01*
X93102666Y-160184614D01*
X93098401Y-160170861D01*
X93095327Y-160150389D01*
X93093248Y-160120512D01*
X93091970Y-160078541D01*
X93091299Y-160021789D01*
X93091041Y-159947567D01*
X93091000Y-159863537D01*
X93091000Y-159550485D01*
X93118709Y-159522776D01*
X93152863Y-159499463D01*
X93185994Y-159498623D01*
X93215178Y-159517645D01*
G36*
X94188919Y-159500599D02*
G01*
X94257435Y-159512095D01*
X94310057Y-159529967D01*
X94344292Y-159553499D01*
X94353621Y-159566924D01*
X94363107Y-159598148D01*
X94356723Y-159626395D01*
X94336570Y-159653182D01*
X94305255Y-159665713D01*
X94259817Y-159664696D01*
X94224674Y-159657906D01*
X94146581Y-159644971D01*
X94066774Y-159643742D01*
X93977445Y-159654241D01*
X93952771Y-159658690D01*
X93869709Y-159682108D01*
X93804727Y-159716945D01*
X93758539Y-159762604D01*
X93731855Y-159818494D01*
X93726337Y-159847388D01*
X93729949Y-159906012D01*
X93753271Y-159957879D01*
X93794176Y-160001978D01*
X93850541Y-160037299D01*
X93920240Y-160062829D01*
X94001148Y-160077559D01*
X94091140Y-160080478D01*
X94188090Y-160070575D01*
X94193564Y-160069641D01*
X94232125Y-160062459D01*
X94253506Y-160055521D01*
X94262773Y-160045227D01*
X94264994Y-160027976D01*
X94265044Y-160018841D01*
X94265044Y-159980489D01*
X94196569Y-159980489D01*
X94136100Y-159976347D01*
X94094835Y-159963147D01*
X94070825Y-159939730D01*
X94062123Y-159904936D01*
X94062017Y-159900394D01*
X94067108Y-159870654D01*
X94084567Y-159849419D01*
X94117061Y-159835366D01*
X94167257Y-159827173D01*
X94215877Y-159824161D01*
X94286544Y-159822433D01*
X94337802Y-159825070D01*
X94372761Y-159834800D01*
X94394530Y-159854353D01*
X94406220Y-159886456D01*
X94410940Y-159933838D01*
X94411800Y-159996071D01*
X94410391Y-160065535D01*
X94406152Y-160112786D01*
X94399064Y-160138012D01*
X94397689Y-160139988D01*
X94358772Y-160171508D01*
X94301714Y-160196470D01*
X94230131Y-160214340D01*
X94147642Y-160224586D01*
X94057861Y-160226673D01*
X93964408Y-160220068D01*
X93909444Y-160211956D01*
X93823234Y-160187554D01*
X93743108Y-160147662D01*
X93676023Y-160095887D01*
X93665827Y-160085539D01*
X93632698Y-160042035D01*
X93602806Y-159988118D01*
X93579643Y-159931592D01*
X93566702Y-159880259D01*
X93565142Y-159860544D01*
X93571782Y-159819419D01*
X93589432Y-159768252D01*
X93614703Y-159714394D01*
X93644211Y-159665195D01*
X93670281Y-159632334D01*
X93731235Y-159583452D01*
X93810031Y-159544545D01*
X93903843Y-159516494D01*
X94009850Y-159500179D01*
X94107000Y-159496192D01*
X94188919Y-159500599D01*
G37*
X94188919Y-159500599D02*
X94257435Y-159512095D01*
X94310057Y-159529967D01*
X94344292Y-159553499D01*
X94353621Y-159566924D01*
X94363107Y-159598148D01*
X94356723Y-159626395D01*
X94336570Y-159653182D01*
X94305255Y-159665713D01*
X94259817Y-159664696D01*
X94224674Y-159657906D01*
X94146581Y-159644971D01*
X94066774Y-159643742D01*
X93977445Y-159654241D01*
X93952771Y-159658690D01*
X93869709Y-159682108D01*
X93804727Y-159716945D01*
X93758539Y-159762604D01*
X93731855Y-159818494D01*
X93726337Y-159847388D01*
X93729949Y-159906012D01*
X93753271Y-159957879D01*
X93794176Y-160001978D01*
X93850541Y-160037299D01*
X93920240Y-160062829D01*
X94001148Y-160077559D01*
X94091140Y-160080478D01*
X94188090Y-160070575D01*
X94193564Y-160069641D01*
X94232125Y-160062459D01*
X94253506Y-160055521D01*
X94262773Y-160045227D01*
X94264994Y-160027976D01*
X94265044Y-160018841D01*
X94265044Y-159980489D01*
X94196569Y-159980489D01*
X94136100Y-159976347D01*
X94094835Y-159963147D01*
X94070825Y-159939730D01*
X94062123Y-159904936D01*
X94062017Y-159900394D01*
X94067108Y-159870654D01*
X94084567Y-159849419D01*
X94117061Y-159835366D01*
X94167257Y-159827173D01*
X94215877Y-159824161D01*
X94286544Y-159822433D01*
X94337802Y-159825070D01*
X94372761Y-159834800D01*
X94394530Y-159854353D01*
X94406220Y-159886456D01*
X94410940Y-159933838D01*
X94411800Y-159996071D01*
X94410391Y-160065535D01*
X94406152Y-160112786D01*
X94399064Y-160138012D01*
X94397689Y-160139988D01*
X94358772Y-160171508D01*
X94301714Y-160196470D01*
X94230131Y-160214340D01*
X94147642Y-160224586D01*
X94057861Y-160226673D01*
X93964408Y-160220068D01*
X93909444Y-160211956D01*
X93823234Y-160187554D01*
X93743108Y-160147662D01*
X93676023Y-160095887D01*
X93665827Y-160085539D01*
X93632698Y-160042035D01*
X93602806Y-159988118D01*
X93579643Y-159931592D01*
X93566702Y-159880259D01*
X93565142Y-159860544D01*
X93571782Y-159819419D01*
X93589432Y-159768252D01*
X93614703Y-159714394D01*
X93644211Y-159665195D01*
X93670281Y-159632334D01*
X93731235Y-159583452D01*
X93810031Y-159544545D01*
X93903843Y-159516494D01*
X94009850Y-159500179D01*
X94107000Y-159496192D01*
X94188919Y-159500599D01*
G36*
X94838886Y-159499448D02*
G01*
X94862452Y-159513273D01*
X94893265Y-159535881D01*
X94932922Y-159568338D01*
X94983020Y-159611708D01*
X95045157Y-159667058D01*
X95120928Y-159735451D01*
X95207666Y-159814084D01*
X95388289Y-159977878D01*
X95393933Y-159758029D01*
X95395971Y-159682351D01*
X95397937Y-159625994D01*
X95400266Y-159585706D01*
X95403394Y-159558235D01*
X95407755Y-159540329D01*
X95413784Y-159528737D01*
X95421916Y-159520208D01*
X95426228Y-159516623D01*
X95460759Y-159497670D01*
X95493617Y-159500441D01*
X95519682Y-159516633D01*
X95546333Y-159538199D01*
X95549648Y-159853151D01*
X95550565Y-159945779D01*
X95551032Y-160018544D01*
X95550887Y-160074161D01*
X95549968Y-160115342D01*
X95548113Y-160144803D01*
X95545161Y-160165255D01*
X95540950Y-160179413D01*
X95535318Y-160189991D01*
X95529073Y-160198474D01*
X95515561Y-160214207D01*
X95502117Y-160224636D01*
X95486876Y-160228639D01*
X95467974Y-160225094D01*
X95443545Y-160212879D01*
X95411727Y-160190871D01*
X95370652Y-160157949D01*
X95318458Y-160112991D01*
X95253278Y-160054875D01*
X95179444Y-159988099D01*
X94914155Y-159747458D01*
X94908511Y-159966589D01*
X94906469Y-160042128D01*
X94904498Y-160098354D01*
X94902161Y-160138524D01*
X94899019Y-160165896D01*
X94894636Y-160183728D01*
X94888576Y-160195279D01*
X94880400Y-160203807D01*
X94876216Y-160207282D01*
X94839235Y-160226372D01*
X94804292Y-160223493D01*
X94773864Y-160199100D01*
X94766903Y-160189286D01*
X94761477Y-160177826D01*
X94757397Y-160161968D01*
X94754471Y-160138963D01*
X94752508Y-160106062D01*
X94751317Y-160060516D01*
X94750708Y-159999573D01*
X94750489Y-159920486D01*
X94750466Y-159861956D01*
X94750540Y-159770407D01*
X94750887Y-159698687D01*
X94751699Y-159644045D01*
X94753167Y-159603732D01*
X94755481Y-159574998D01*
X94758833Y-159555093D01*
X94763412Y-159541268D01*
X94769411Y-159530772D01*
X94773864Y-159524811D01*
X94785150Y-159510691D01*
X94795699Y-159500029D01*
X94807107Y-159493892D01*
X94820970Y-159493343D01*
X94838886Y-159499448D01*
G37*
X94838886Y-159499448D02*
X94862452Y-159513273D01*
X94893265Y-159535881D01*
X94932922Y-159568338D01*
X94983020Y-159611708D01*
X95045157Y-159667058D01*
X95120928Y-159735451D01*
X95207666Y-159814084D01*
X95388289Y-159977878D01*
X95393933Y-159758029D01*
X95395971Y-159682351D01*
X95397937Y-159625994D01*
X95400266Y-159585706D01*
X95403394Y-159558235D01*
X95407755Y-159540329D01*
X95413784Y-159528737D01*
X95421916Y-159520208D01*
X95426228Y-159516623D01*
X95460759Y-159497670D01*
X95493617Y-159500441D01*
X95519682Y-159516633D01*
X95546333Y-159538199D01*
X95549648Y-159853151D01*
X95550565Y-159945779D01*
X95551032Y-160018544D01*
X95550887Y-160074161D01*
X95549968Y-160115342D01*
X95548113Y-160144803D01*
X95545161Y-160165255D01*
X95540950Y-160179413D01*
X95535318Y-160189991D01*
X95529073Y-160198474D01*
X95515561Y-160214207D01*
X95502117Y-160224636D01*
X95486876Y-160228639D01*
X95467974Y-160225094D01*
X95443545Y-160212879D01*
X95411727Y-160190871D01*
X95370652Y-160157949D01*
X95318458Y-160112991D01*
X95253278Y-160054875D01*
X95179444Y-159988099D01*
X94914155Y-159747458D01*
X94908511Y-159966589D01*
X94906469Y-160042128D01*
X94904498Y-160098354D01*
X94902161Y-160138524D01*
X94899019Y-160165896D01*
X94894636Y-160183728D01*
X94888576Y-160195279D01*
X94880400Y-160203807D01*
X94876216Y-160207282D01*
X94839235Y-160226372D01*
X94804292Y-160223493D01*
X94773864Y-160199100D01*
X94766903Y-160189286D01*
X94761477Y-160177826D01*
X94757397Y-160161968D01*
X94754471Y-160138963D01*
X94752508Y-160106062D01*
X94751317Y-160060516D01*
X94750708Y-159999573D01*
X94750489Y-159920486D01*
X94750466Y-159861956D01*
X94750540Y-159770407D01*
X94750887Y-159698687D01*
X94751699Y-159644045D01*
X94753167Y-159603732D01*
X94755481Y-159574998D01*
X94758833Y-159555093D01*
X94763412Y-159541268D01*
X94769411Y-159530772D01*
X94773864Y-159524811D01*
X94785150Y-159510691D01*
X94795699Y-159500029D01*
X94807107Y-159493892D01*
X94820970Y-159493343D01*
X94838886Y-159499448D01*
G36*
X96369343Y-159495260D02*
G01*
X96445701Y-159496174D01*
X96504217Y-159498311D01*
X96547255Y-159502175D01*
X96577183Y-159508267D01*
X96596368Y-159517090D01*
X96607176Y-159529146D01*
X96611973Y-159544939D01*
X96613127Y-159564970D01*
X96613133Y-159567335D01*
X96612131Y-159589992D01*
X96607396Y-159607503D01*
X96596333Y-159620574D01*
X96576348Y-159629913D01*
X96544846Y-159636227D01*
X96499232Y-159640222D01*
X96436913Y-159642606D01*
X96355293Y-159644086D01*
X96330277Y-159644414D01*
X96088200Y-159647467D01*
X96084814Y-159712378D01*
X96081429Y-159777289D01*
X96249576Y-159777289D01*
X96315266Y-159777531D01*
X96362172Y-159778556D01*
X96394083Y-159780811D01*
X96414791Y-159784742D01*
X96428084Y-159790798D01*
X96437755Y-159799424D01*
X96437817Y-159799493D01*
X96455356Y-159833112D01*
X96454722Y-159869448D01*
X96436314Y-159900423D01*
X96432671Y-159903607D01*
X96419741Y-159911812D01*
X96402024Y-159917521D01*
X96375570Y-159921162D01*
X96336432Y-159923167D01*
X96280662Y-159923964D01*
X96244994Y-159924045D01*
X96082555Y-159924045D01*
X96082555Y-160082089D01*
X96329161Y-160082089D01*
X96410580Y-160082231D01*
X96472410Y-160082814D01*
X96517637Y-160084068D01*
X96549248Y-160086227D01*
X96570231Y-160089523D01*
X96583573Y-160094189D01*
X96592261Y-160100457D01*
X96594450Y-160102733D01*
X96610614Y-160134280D01*
X96611797Y-160170168D01*
X96598536Y-160201285D01*
X96588043Y-160211271D01*
X96577129Y-160216769D01*
X96560217Y-160221022D01*
X96534633Y-160224180D01*
X96497701Y-160226392D01*
X96446746Y-160227806D01*
X96379094Y-160228572D01*
X96292069Y-160228838D01*
X96272394Y-160228845D01*
X96183911Y-160228787D01*
X96115227Y-160228467D01*
X96063564Y-160227667D01*
X96026145Y-160226167D01*
X96000190Y-160223749D01*
X95982922Y-160220194D01*
X95971562Y-160215282D01*
X95963332Y-160208795D01*
X95958817Y-160204138D01*
X95952021Y-160195889D01*
X95946712Y-160185669D01*
X95942706Y-160170800D01*
X95939821Y-160148602D01*
X95937874Y-160116393D01*
X95936681Y-160071496D01*
X95936061Y-160011228D01*
X95935829Y-159932911D01*
X95935800Y-159866994D01*
X95935871Y-159774628D01*
X95936208Y-159702117D01*
X95936998Y-159646737D01*
X95938426Y-159605765D01*
X95940679Y-159576478D01*
X95943943Y-159556153D01*
X95948404Y-159542066D01*
X95954248Y-159531495D01*
X95959197Y-159524811D01*
X95982594Y-159495067D01*
X96272774Y-159495067D01*
X96369343Y-159495260D01*
G37*
X96369343Y-159495260D02*
X96445701Y-159496174D01*
X96504217Y-159498311D01*
X96547255Y-159502175D01*
X96577183Y-159508267D01*
X96596368Y-159517090D01*
X96607176Y-159529146D01*
X96611973Y-159544939D01*
X96613127Y-159564970D01*
X96613133Y-159567335D01*
X96612131Y-159589992D01*
X96607396Y-159607503D01*
X96596333Y-159620574D01*
X96576348Y-159629913D01*
X96544846Y-159636227D01*
X96499232Y-159640222D01*
X96436913Y-159642606D01*
X96355293Y-159644086D01*
X96330277Y-159644414D01*
X96088200Y-159647467D01*
X96084814Y-159712378D01*
X96081429Y-159777289D01*
X96249576Y-159777289D01*
X96315266Y-159777531D01*
X96362172Y-159778556D01*
X96394083Y-159780811D01*
X96414791Y-159784742D01*
X96428084Y-159790798D01*
X96437755Y-159799424D01*
X96437817Y-159799493D01*
X96455356Y-159833112D01*
X96454722Y-159869448D01*
X96436314Y-159900423D01*
X96432671Y-159903607D01*
X96419741Y-159911812D01*
X96402024Y-159917521D01*
X96375570Y-159921162D01*
X96336432Y-159923167D01*
X96280662Y-159923964D01*
X96244994Y-159924045D01*
X96082555Y-159924045D01*
X96082555Y-160082089D01*
X96329161Y-160082089D01*
X96410580Y-160082231D01*
X96472410Y-160082814D01*
X96517637Y-160084068D01*
X96549248Y-160086227D01*
X96570231Y-160089523D01*
X96583573Y-160094189D01*
X96592261Y-160100457D01*
X96594450Y-160102733D01*
X96610614Y-160134280D01*
X96611797Y-160170168D01*
X96598536Y-160201285D01*
X96588043Y-160211271D01*
X96577129Y-160216769D01*
X96560217Y-160221022D01*
X96534633Y-160224180D01*
X96497701Y-160226392D01*
X96446746Y-160227806D01*
X96379094Y-160228572D01*
X96292069Y-160228838D01*
X96272394Y-160228845D01*
X96183911Y-160228787D01*
X96115227Y-160228467D01*
X96063564Y-160227667D01*
X96026145Y-160226167D01*
X96000190Y-160223749D01*
X95982922Y-160220194D01*
X95971562Y-160215282D01*
X95963332Y-160208795D01*
X95958817Y-160204138D01*
X95952021Y-160195889D01*
X95946712Y-160185669D01*
X95942706Y-160170800D01*
X95939821Y-160148602D01*
X95937874Y-160116393D01*
X95936681Y-160071496D01*
X95936061Y-160011228D01*
X95935829Y-159932911D01*
X95935800Y-159866994D01*
X95935871Y-159774628D01*
X95936208Y-159702117D01*
X95936998Y-159646737D01*
X95938426Y-159605765D01*
X95940679Y-159576478D01*
X95943943Y-159556153D01*
X95948404Y-159542066D01*
X95954248Y-159531495D01*
X95959197Y-159524811D01*
X95982594Y-159495067D01*
X96272774Y-159495067D01*
X96369343Y-159495260D01*
G36*
X97157309Y-159495275D02*
G01*
X97286288Y-159499636D01*
X97395991Y-159512861D01*
X97488226Y-159535741D01*
X97564802Y-159569070D01*
X97627527Y-159613638D01*
X97678212Y-159670236D01*
X97718663Y-159739658D01*
X97719459Y-159741351D01*
X97743601Y-159803483D01*
X97752203Y-159858509D01*
X97745231Y-159913887D01*
X97722654Y-159977073D01*
X97718372Y-159986689D01*
X97689172Y-160042966D01*
X97656356Y-160086451D01*
X97614002Y-160123417D01*
X97556190Y-160160135D01*
X97552831Y-160162052D01*
X97502504Y-160186227D01*
X97445621Y-160204282D01*
X97378527Y-160216839D01*
X97297565Y-160224522D01*
X97199082Y-160227953D01*
X97164286Y-160228251D01*
X96998594Y-160228845D01*
X96975197Y-160199100D01*
X96968257Y-160189319D01*
X96962842Y-160177897D01*
X96958765Y-160162095D01*
X96955837Y-160139175D01*
X96953867Y-160106396D01*
X96953225Y-160082089D01*
X97109844Y-160082089D01*
X97203726Y-160082089D01*
X97258664Y-160080483D01*
X97315060Y-160076255D01*
X97361345Y-160070292D01*
X97364139Y-160069790D01*
X97446348Y-160047736D01*
X97510114Y-160014600D01*
X97557452Y-159968847D01*
X97590382Y-159908939D01*
X97596108Y-159893061D01*
X97601721Y-159868333D01*
X97599291Y-159843902D01*
X97587467Y-159811400D01*
X97580340Y-159795434D01*
X97557000Y-159753006D01*
X97528880Y-159723240D01*
X97497940Y-159702511D01*
X97435966Y-159675537D01*
X97356651Y-159655998D01*
X97264253Y-159644746D01*
X97197333Y-159642270D01*
X97109844Y-159641822D01*
X97109844Y-160082089D01*
X96953225Y-160082089D01*
X96952668Y-160061021D01*
X96952050Y-160000311D01*
X96951825Y-159921526D01*
X96951800Y-159859920D01*
X96951800Y-159550485D01*
X96979509Y-159522776D01*
X96991806Y-159511544D01*
X97005103Y-159503853D01*
X97023672Y-159499040D01*
X97051786Y-159496446D01*
X97093717Y-159495410D01*
X97153737Y-159495270D01*
X97157309Y-159495275D01*
G37*
X97157309Y-159495275D02*
X97286288Y-159499636D01*
X97395991Y-159512861D01*
X97488226Y-159535741D01*
X97564802Y-159569070D01*
X97627527Y-159613638D01*
X97678212Y-159670236D01*
X97718663Y-159739658D01*
X97719459Y-159741351D01*
X97743601Y-159803483D01*
X97752203Y-159858509D01*
X97745231Y-159913887D01*
X97722654Y-159977073D01*
X97718372Y-159986689D01*
X97689172Y-160042966D01*
X97656356Y-160086451D01*
X97614002Y-160123417D01*
X97556190Y-160160135D01*
X97552831Y-160162052D01*
X97502504Y-160186227D01*
X97445621Y-160204282D01*
X97378527Y-160216839D01*
X97297565Y-160224522D01*
X97199082Y-160227953D01*
X97164286Y-160228251D01*
X96998594Y-160228845D01*
X96975197Y-160199100D01*
X96968257Y-160189319D01*
X96962842Y-160177897D01*
X96958765Y-160162095D01*
X96955837Y-160139175D01*
X96953867Y-160106396D01*
X96953225Y-160082089D01*
X97109844Y-160082089D01*
X97203726Y-160082089D01*
X97258664Y-160080483D01*
X97315060Y-160076255D01*
X97361345Y-160070292D01*
X97364139Y-160069790D01*
X97446348Y-160047736D01*
X97510114Y-160014600D01*
X97557452Y-159968847D01*
X97590382Y-159908939D01*
X97596108Y-159893061D01*
X97601721Y-159868333D01*
X97599291Y-159843902D01*
X97587467Y-159811400D01*
X97580340Y-159795434D01*
X97557000Y-159753006D01*
X97528880Y-159723240D01*
X97497940Y-159702511D01*
X97435966Y-159675537D01*
X97356651Y-159655998D01*
X97264253Y-159644746D01*
X97197333Y-159642270D01*
X97109844Y-159641822D01*
X97109844Y-160082089D01*
X96953225Y-160082089D01*
X96952668Y-160061021D01*
X96952050Y-160000311D01*
X96951825Y-159921526D01*
X96951800Y-159859920D01*
X96951800Y-159550485D01*
X96979509Y-159522776D01*
X96991806Y-159511544D01*
X97005103Y-159503853D01*
X97023672Y-159499040D01*
X97051786Y-159496446D01*
X97093717Y-159495410D01*
X97153737Y-159495270D01*
X97157309Y-159495275D01*
G04 #@! TO.C,G\u002A\u002A\u002A*
G36*
X100765002Y-113789800D02*
G01*
X100834112Y-113799871D01*
X100863259Y-113819715D01*
X100866500Y-113834625D01*
X100845528Y-113867740D01*
X100776011Y-113881385D01*
X100739500Y-113882250D01*
X100612500Y-113882250D01*
X100612500Y-114023016D01*
X100616086Y-114110891D01*
X100634015Y-114153941D01*
X100677037Y-114170738D01*
X100699812Y-114173828D01*
X100766904Y-114197048D01*
X100787125Y-114231500D01*
X100758707Y-114271365D01*
X100699812Y-114289171D01*
X100643075Y-114302642D01*
X100618233Y-114338508D01*
X100612514Y-114416509D01*
X100612500Y-114424108D01*
X100615644Y-114504049D01*
X100637300Y-114539571D01*
X100695796Y-114548699D01*
X100739500Y-114549000D01*
X100822588Y-114554325D01*
X100859309Y-114575847D01*
X100866500Y-114612500D01*
X100860503Y-114645871D01*
X100833463Y-114664989D01*
X100771802Y-114673733D01*
X100661941Y-114675982D01*
X100644250Y-114676000D01*
X100422000Y-114676000D01*
X100422000Y-113787000D01*
X100644250Y-113787000D01*
X100765002Y-113789800D01*
G37*
X100765002Y-113789800D02*
X100834112Y-113799871D01*
X100863259Y-113819715D01*
X100866500Y-113834625D01*
X100845528Y-113867740D01*
X100776011Y-113881385D01*
X100739500Y-113882250D01*
X100612500Y-113882250D01*
X100612500Y-114023016D01*
X100616086Y-114110891D01*
X100634015Y-114153941D01*
X100677037Y-114170738D01*
X100699812Y-114173828D01*
X100766904Y-114197048D01*
X100787125Y-114231500D01*
X100758707Y-114271365D01*
X100699812Y-114289171D01*
X100643075Y-114302642D01*
X100618233Y-114338508D01*
X100612514Y-114416509D01*
X100612500Y-114424108D01*
X100615644Y-114504049D01*
X100637300Y-114539571D01*
X100695796Y-114548699D01*
X100739500Y-114549000D01*
X100822588Y-114554325D01*
X100859309Y-114575847D01*
X100866500Y-114612500D01*
X100860503Y-114645871D01*
X100833463Y-114664989D01*
X100771802Y-114673733D01*
X100661941Y-114675982D01*
X100644250Y-114676000D01*
X100422000Y-114676000D01*
X100422000Y-113787000D01*
X100644250Y-113787000D01*
X100765002Y-113789800D01*
G36*
X91676128Y-113924628D02*
G01*
X91775063Y-113960553D01*
X91829999Y-114027830D01*
X91849193Y-114132516D01*
X91849500Y-114152051D01*
X91842768Y-114241264D01*
X91825841Y-114300966D01*
X91817409Y-114311085D01*
X91807796Y-114350043D01*
X91833284Y-114399398D01*
X91863795Y-114477600D01*
X91879975Y-114592000D01*
X91881249Y-114635439D01*
X91879455Y-114732695D01*
X91868026Y-114782405D01*
X91837896Y-114800522D01*
X91786000Y-114803000D01*
X91727043Y-114798731D01*
X91699382Y-114774336D01*
X91691213Y-114712432D01*
X91690749Y-114662721D01*
X91683867Y-114533543D01*
X91660685Y-114457345D01*
X91617402Y-114424848D01*
X91592103Y-114422000D01*
X91558403Y-114429951D01*
X91540193Y-114463345D01*
X91532957Y-114536491D01*
X91532000Y-114612500D01*
X91532000Y-114803000D01*
X91341500Y-114803000D01*
X91341500Y-114168000D01*
X91532000Y-114168000D01*
X91537655Y-114251642D01*
X91559691Y-114288456D01*
X91592103Y-114295000D01*
X91650098Y-114275732D01*
X91668207Y-114253300D01*
X91677805Y-114175067D01*
X91657951Y-114098687D01*
X91617432Y-114048576D01*
X91591798Y-114040999D01*
X91552387Y-114053082D01*
X91535049Y-114099994D01*
X91532000Y-114168000D01*
X91341500Y-114168000D01*
X91341500Y-113914000D01*
X91524935Y-113913999D01*
X91676128Y-113924628D01*
G37*
X91676128Y-113924628D02*
X91775063Y-113960553D01*
X91829999Y-114027830D01*
X91849193Y-114132516D01*
X91849500Y-114152051D01*
X91842768Y-114241264D01*
X91825841Y-114300966D01*
X91817409Y-114311085D01*
X91807796Y-114350043D01*
X91833284Y-114399398D01*
X91863795Y-114477600D01*
X91879975Y-114592000D01*
X91881249Y-114635439D01*
X91879455Y-114732695D01*
X91868026Y-114782405D01*
X91837896Y-114800522D01*
X91786000Y-114803000D01*
X91727043Y-114798731D01*
X91699382Y-114774336D01*
X91691213Y-114712432D01*
X91690749Y-114662721D01*
X91683867Y-114533543D01*
X91660685Y-114457345D01*
X91617402Y-114424848D01*
X91592103Y-114422000D01*
X91558403Y-114429951D01*
X91540193Y-114463345D01*
X91532957Y-114536491D01*
X91532000Y-114612500D01*
X91532000Y-114803000D01*
X91341500Y-114803000D01*
X91341500Y-114168000D01*
X91532000Y-114168000D01*
X91537655Y-114251642D01*
X91559691Y-114288456D01*
X91592103Y-114295000D01*
X91650098Y-114275732D01*
X91668207Y-114253300D01*
X91677805Y-114175067D01*
X91657951Y-114098687D01*
X91617432Y-114048576D01*
X91591798Y-114040999D01*
X91552387Y-114053082D01*
X91535049Y-114099994D01*
X91532000Y-114168000D01*
X91341500Y-114168000D01*
X91341500Y-113914000D01*
X91524935Y-113913999D01*
X91676128Y-113924628D01*
G36*
X99481032Y-113829270D02*
G01*
X99509187Y-113849781D01*
X99546091Y-113880938D01*
X99570783Y-113913696D01*
X99585716Y-113960628D01*
X99593344Y-114034310D01*
X99596121Y-114147318D01*
X99596500Y-114297304D01*
X99596500Y-114676000D01*
X99406000Y-114676000D01*
X99406000Y-114485500D01*
X99404319Y-114379922D01*
X99395135Y-114322921D01*
X99372235Y-114299585D01*
X99329407Y-114295004D01*
X99326625Y-114295000D01*
X99282306Y-114299141D01*
X99258567Y-114321600D01*
X99249014Y-114377427D01*
X99247250Y-114481674D01*
X99247250Y-114481798D01*
X99245080Y-114586971D01*
X99234334Y-114645003D01*
X99208652Y-114672213D01*
X99168621Y-114683628D01*
X99102982Y-114689201D01*
X99073371Y-114682037D01*
X99066721Y-114645455D01*
X99061338Y-114558864D01*
X99057822Y-114435755D01*
X99056750Y-114309100D01*
X99060355Y-114122040D01*
X99062996Y-114096562D01*
X99247736Y-114096562D01*
X99254406Y-114168196D01*
X99285062Y-114196073D01*
X99326625Y-114199750D01*
X99377619Y-114192890D01*
X99400386Y-114160446D01*
X99405962Y-114084621D01*
X99406000Y-114071753D01*
X99394428Y-113972178D01*
X99358222Y-113925528D01*
X99355170Y-113924252D01*
X99298319Y-113928848D01*
X99261216Y-113988722D01*
X99247736Y-114096562D01*
X99062996Y-114096562D01*
X99074200Y-113988483D01*
X99102826Y-113898690D01*
X99150778Y-113842921D01*
X99222598Y-113811435D01*
X99295199Y-113797851D01*
X99399481Y-113795817D01*
X99481032Y-113829270D01*
G37*
X99481032Y-113829270D02*
X99509187Y-113849781D01*
X99546091Y-113880938D01*
X99570783Y-113913696D01*
X99585716Y-113960628D01*
X99593344Y-114034310D01*
X99596121Y-114147318D01*
X99596500Y-114297304D01*
X99596500Y-114676000D01*
X99406000Y-114676000D01*
X99406000Y-114485500D01*
X99404319Y-114379922D01*
X99395135Y-114322921D01*
X99372235Y-114299585D01*
X99329407Y-114295004D01*
X99326625Y-114295000D01*
X99282306Y-114299141D01*
X99258567Y-114321600D01*
X99249014Y-114377427D01*
X99247250Y-114481674D01*
X99247250Y-114481798D01*
X99245080Y-114586971D01*
X99234334Y-114645003D01*
X99208652Y-114672213D01*
X99168621Y-114683628D01*
X99102982Y-114689201D01*
X99073371Y-114682037D01*
X99066721Y-114645455D01*
X99061338Y-114558864D01*
X99057822Y-114435755D01*
X99056750Y-114309100D01*
X99060355Y-114122040D01*
X99062996Y-114096562D01*
X99247736Y-114096562D01*
X99254406Y-114168196D01*
X99285062Y-114196073D01*
X99326625Y-114199750D01*
X99377619Y-114192890D01*
X99400386Y-114160446D01*
X99405962Y-114084621D01*
X99406000Y-114071753D01*
X99394428Y-113972178D01*
X99358222Y-113925528D01*
X99355170Y-113924252D01*
X99298319Y-113928848D01*
X99261216Y-113988722D01*
X99247736Y-114096562D01*
X99062996Y-114096562D01*
X99074200Y-113988483D01*
X99102826Y-113898690D01*
X99150778Y-113842921D01*
X99222598Y-113811435D01*
X99295199Y-113797851D01*
X99399481Y-113795817D01*
X99481032Y-113829270D01*
G36*
X100131309Y-113798694D02*
G01*
X100208336Y-113832277D01*
X100213357Y-113836892D01*
X100254369Y-113904374D01*
X100263250Y-113948017D01*
X100242633Y-113998006D01*
X100198877Y-114005751D01*
X100159124Y-113967794D01*
X100156518Y-113961624D01*
X100112716Y-113925922D01*
X100041996Y-113913999D01*
X99945750Y-113914000D01*
X99945750Y-114231500D01*
X99946730Y-114376309D01*
X99951110Y-114469047D01*
X99961053Y-114521130D01*
X99978719Y-114543975D01*
X100005853Y-114549000D01*
X100065503Y-114525692D01*
X100085199Y-114498852D01*
X100093046Y-114434610D01*
X100081708Y-114361816D01*
X100057510Y-114307535D01*
X100037558Y-114295000D01*
X100014548Y-114268377D01*
X100009250Y-114231500D01*
X100019900Y-114189955D01*
X100062945Y-114171595D01*
X100136250Y-114168000D01*
X100263250Y-114168000D01*
X100268280Y-114302937D01*
X100270226Y-114434091D01*
X100261949Y-114520025D01*
X100240145Y-114578640D01*
X100209971Y-114618746D01*
X100135844Y-114660788D01*
X100030056Y-114677747D01*
X99919258Y-114669679D01*
X99830102Y-114636637D01*
X99807795Y-114617937D01*
X99783042Y-114577451D01*
X99767144Y-114513463D01*
X99758461Y-114413632D01*
X99755349Y-114265619D01*
X99755250Y-114222862D01*
X99756225Y-114071578D01*
X99760734Y-113970773D01*
X99771154Y-113907438D01*
X99789859Y-113868563D01*
X99819226Y-113841140D01*
X99825814Y-113836425D01*
X99913567Y-113800737D01*
X100024225Y-113788170D01*
X100131309Y-113798694D01*
G37*
X100131309Y-113798694D02*
X100208336Y-113832277D01*
X100213357Y-113836892D01*
X100254369Y-113904374D01*
X100263250Y-113948017D01*
X100242633Y-113998006D01*
X100198877Y-114005751D01*
X100159124Y-113967794D01*
X100156518Y-113961624D01*
X100112716Y-113925922D01*
X100041996Y-113913999D01*
X99945750Y-113914000D01*
X99945750Y-114231500D01*
X99946730Y-114376309D01*
X99951110Y-114469047D01*
X99961053Y-114521130D01*
X99978719Y-114543975D01*
X100005853Y-114549000D01*
X100065503Y-114525692D01*
X100085199Y-114498852D01*
X100093046Y-114434610D01*
X100081708Y-114361816D01*
X100057510Y-114307535D01*
X100037558Y-114295000D01*
X100014548Y-114268377D01*
X100009250Y-114231500D01*
X100019900Y-114189955D01*
X100062945Y-114171595D01*
X100136250Y-114168000D01*
X100263250Y-114168000D01*
X100268280Y-114302937D01*
X100270226Y-114434091D01*
X100261949Y-114520025D01*
X100240145Y-114578640D01*
X100209971Y-114618746D01*
X100135844Y-114660788D01*
X100030056Y-114677747D01*
X99919258Y-114669679D01*
X99830102Y-114636637D01*
X99807795Y-114617937D01*
X99783042Y-114577451D01*
X99767144Y-114513463D01*
X99758461Y-114413632D01*
X99755349Y-114265619D01*
X99755250Y-114222862D01*
X99756225Y-114071578D01*
X99760734Y-113970773D01*
X99771154Y-113907438D01*
X99789859Y-113868563D01*
X99819226Y-113841140D01*
X99825814Y-113836425D01*
X99913567Y-113800737D01*
X100024225Y-113788170D01*
X100131309Y-113798694D01*
G36*
X97411354Y-113841999D02*
G01*
X97448522Y-113860275D01*
X97510572Y-113917017D01*
X97542481Y-113977170D01*
X97539356Y-114024019D01*
X97501424Y-114040999D01*
X97443135Y-114016765D01*
X97425202Y-113991248D01*
X97378953Y-113953779D01*
X97318618Y-113951561D01*
X97231125Y-113961625D01*
X97221926Y-114260596D01*
X97221543Y-114428863D01*
X97233537Y-114538409D01*
X97259257Y-114593051D01*
X97300054Y-114596605D01*
X97333247Y-114575046D01*
X97363467Y-114522791D01*
X97374563Y-114448635D01*
X97367207Y-114376886D01*
X97342073Y-114331851D01*
X97326375Y-114326750D01*
X97284234Y-114303470D01*
X97278750Y-114283279D01*
X97306292Y-114253284D01*
X97372177Y-114227188D01*
X97451290Y-114211255D01*
X97518518Y-114211750D01*
X97537709Y-114218690D01*
X97557742Y-114262609D01*
X97565069Y-114346822D01*
X97560863Y-114449656D01*
X97546294Y-114549440D01*
X97522536Y-114624501D01*
X97515074Y-114637185D01*
X97472936Y-114680148D01*
X97411231Y-114701457D01*
X97309377Y-114707700D01*
X97294625Y-114707750D01*
X97187015Y-114702780D01*
X97121850Y-114683478D01*
X97078549Y-114643257D01*
X97074175Y-114637185D01*
X97048224Y-114578463D01*
X97032491Y-114484779D01*
X97025469Y-114344678D01*
X97024750Y-114261106D01*
X97026563Y-114113620D01*
X97033524Y-114015791D01*
X97047918Y-113953841D01*
X97072026Y-113913994D01*
X97084312Y-113901688D01*
X97181958Y-113847102D01*
X97300486Y-113826123D01*
X97411354Y-113841999D01*
G37*
X97411354Y-113841999D02*
X97448522Y-113860275D01*
X97510572Y-113917017D01*
X97542481Y-113977170D01*
X97539356Y-114024019D01*
X97501424Y-114040999D01*
X97443135Y-114016765D01*
X97425202Y-113991248D01*
X97378953Y-113953779D01*
X97318618Y-113951561D01*
X97231125Y-113961625D01*
X97221926Y-114260596D01*
X97221543Y-114428863D01*
X97233537Y-114538409D01*
X97259257Y-114593051D01*
X97300054Y-114596605D01*
X97333247Y-114575046D01*
X97363467Y-114522791D01*
X97374563Y-114448635D01*
X97367207Y-114376886D01*
X97342073Y-114331851D01*
X97326375Y-114326750D01*
X97284234Y-114303470D01*
X97278750Y-114283279D01*
X97306292Y-114253284D01*
X97372177Y-114227188D01*
X97451290Y-114211255D01*
X97518518Y-114211750D01*
X97537709Y-114218690D01*
X97557742Y-114262609D01*
X97565069Y-114346822D01*
X97560863Y-114449656D01*
X97546294Y-114549440D01*
X97522536Y-114624501D01*
X97515074Y-114637185D01*
X97472936Y-114680148D01*
X97411231Y-114701457D01*
X97309377Y-114707700D01*
X97294625Y-114707750D01*
X97187015Y-114702780D01*
X97121850Y-114683478D01*
X97078549Y-114643257D01*
X97074175Y-114637185D01*
X97048224Y-114578463D01*
X97032491Y-114484779D01*
X97025469Y-114344678D01*
X97024750Y-114261106D01*
X97026563Y-114113620D01*
X97033524Y-114015791D01*
X97047918Y-113953841D01*
X97072026Y-113913994D01*
X97084312Y-113901688D01*
X97181958Y-113847102D01*
X97300486Y-113826123D01*
X97411354Y-113841999D01*
G36*
X92393602Y-113920800D02*
G01*
X92464458Y-113947398D01*
X92510031Y-114003090D01*
X92535587Y-114097168D01*
X92546391Y-114238929D01*
X92548000Y-114365564D01*
X92543148Y-114541893D01*
X92524832Y-114664434D01*
X92487405Y-114742415D01*
X92425223Y-114785064D01*
X92332641Y-114801611D01*
X92280429Y-114803000D01*
X92179859Y-114794609D01*
X92113917Y-114762003D01*
X92074054Y-114719343D01*
X92042059Y-114669381D01*
X92022271Y-114608149D01*
X92011964Y-114519852D01*
X92010519Y-114466545D01*
X92202453Y-114466545D01*
X92211449Y-114582262D01*
X92233543Y-114648236D01*
X92270151Y-114670927D01*
X92287196Y-114669737D01*
X92312880Y-114656716D01*
X92329080Y-114621764D01*
X92337859Y-114553071D01*
X92341279Y-114438829D01*
X92341625Y-114358065D01*
X92340663Y-114217996D01*
X92336122Y-114129630D01*
X92325516Y-114081181D01*
X92306360Y-114060860D01*
X92278125Y-114056875D01*
X92245316Y-114063141D01*
X92225123Y-114090665D01*
X92213528Y-114152538D01*
X92206513Y-114261849D01*
X92205143Y-114294626D01*
X92202453Y-114466545D01*
X92010519Y-114466545D01*
X92008408Y-114388694D01*
X92008250Y-114338343D01*
X92013252Y-114165470D01*
X92032471Y-114046161D01*
X92072226Y-113970970D01*
X92138838Y-113930454D01*
X92238626Y-113915168D01*
X92292199Y-113913999D01*
X92393602Y-113920800D01*
G37*
X92393602Y-113920800D02*
X92464458Y-113947398D01*
X92510031Y-114003090D01*
X92535587Y-114097168D01*
X92546391Y-114238929D01*
X92548000Y-114365564D01*
X92543148Y-114541893D01*
X92524832Y-114664434D01*
X92487405Y-114742415D01*
X92425223Y-114785064D01*
X92332641Y-114801611D01*
X92280429Y-114803000D01*
X92179859Y-114794609D01*
X92113917Y-114762003D01*
X92074054Y-114719343D01*
X92042059Y-114669381D01*
X92022271Y-114608149D01*
X92011964Y-114519852D01*
X92010519Y-114466545D01*
X92202453Y-114466545D01*
X92211449Y-114582262D01*
X92233543Y-114648236D01*
X92270151Y-114670927D01*
X92287196Y-114669737D01*
X92312880Y-114656716D01*
X92329080Y-114621764D01*
X92337859Y-114553071D01*
X92341279Y-114438829D01*
X92341625Y-114358065D01*
X92340663Y-114217996D01*
X92336122Y-114129630D01*
X92325516Y-114081181D01*
X92306360Y-114060860D01*
X92278125Y-114056875D01*
X92245316Y-114063141D01*
X92225123Y-114090665D01*
X92213528Y-114152538D01*
X92206513Y-114261849D01*
X92205143Y-114294626D01*
X92202453Y-114466545D01*
X92010519Y-114466545D01*
X92008408Y-114388694D01*
X92008250Y-114338343D01*
X92013252Y-114165470D01*
X92032471Y-114046161D01*
X92072226Y-113970970D01*
X92138838Y-113930454D01*
X92238626Y-113915168D01*
X92292199Y-113913999D01*
X92393602Y-113920800D01*
G36*
X93182077Y-113888116D02*
G01*
X93197699Y-113911386D01*
X93207410Y-113962530D01*
X93212570Y-114051530D01*
X93214537Y-114188372D01*
X93214750Y-114291112D01*
X93212593Y-114479175D01*
X93205690Y-114610835D01*
X93193394Y-114693060D01*
X93175054Y-114732813D01*
X93173487Y-114734219D01*
X93109500Y-114762613D01*
X93012039Y-114783091D01*
X92911024Y-114791414D01*
X92836374Y-114783339D01*
X92833750Y-114782382D01*
X92782168Y-114753860D01*
X92746423Y-114708022D01*
X92723798Y-114634305D01*
X92711573Y-114522144D01*
X92707029Y-114360975D01*
X92706750Y-114288931D01*
X92706750Y-113914000D01*
X92895234Y-113914000D01*
X92904179Y-114287062D01*
X92909417Y-114450033D01*
X92916844Y-114559142D01*
X92927920Y-114624024D01*
X92944107Y-114654313D01*
X92960750Y-114660125D01*
X92982045Y-114649551D01*
X92996990Y-114611348D01*
X93007098Y-114535795D01*
X93013883Y-114413168D01*
X93017415Y-114296192D01*
X93023433Y-114126818D01*
X93033859Y-114010957D01*
X93052114Y-113938632D01*
X93081620Y-113899863D01*
X93125799Y-113884673D01*
X93159187Y-113882736D01*
X93182077Y-113888116D01*
G37*
X93182077Y-113888116D02*
X93197699Y-113911386D01*
X93207410Y-113962530D01*
X93212570Y-114051530D01*
X93214537Y-114188372D01*
X93214750Y-114291112D01*
X93212593Y-114479175D01*
X93205690Y-114610835D01*
X93193394Y-114693060D01*
X93175054Y-114732813D01*
X93173487Y-114734219D01*
X93109500Y-114762613D01*
X93012039Y-114783091D01*
X92911024Y-114791414D01*
X92836374Y-114783339D01*
X92833750Y-114782382D01*
X92782168Y-114753860D01*
X92746423Y-114708022D01*
X92723798Y-114634305D01*
X92711573Y-114522144D01*
X92707029Y-114360975D01*
X92706750Y-114288931D01*
X92706750Y-113914000D01*
X92895234Y-113914000D01*
X92904179Y-114287062D01*
X92909417Y-114450033D01*
X92916844Y-114559142D01*
X92927920Y-114624024D01*
X92944107Y-114654313D01*
X92960750Y-114660125D01*
X92982045Y-114649551D01*
X92996990Y-114611348D01*
X93007098Y-114535795D01*
X93013883Y-114413168D01*
X93017415Y-114296192D01*
X93023433Y-114126818D01*
X93033859Y-114010957D01*
X93052114Y-113938632D01*
X93081620Y-113899863D01*
X93125799Y-113884673D01*
X93159187Y-113882736D01*
X93182077Y-113888116D01*
G36*
X93762646Y-113888066D02*
G01*
X93802274Y-113899410D01*
X93816446Y-113922179D01*
X93818000Y-113944465D01*
X93800029Y-113995082D01*
X93738625Y-114009250D01*
X93659250Y-114009250D01*
X93659250Y-114771250D01*
X93468750Y-114771250D01*
X93468750Y-114009250D01*
X93371171Y-114009249D01*
X93302570Y-114000994D01*
X93282453Y-113970461D01*
X93284210Y-113953687D01*
X93299144Y-113925409D01*
X93339155Y-113907239D01*
X93416735Y-113896206D01*
X93544371Y-113889337D01*
X93556413Y-113888903D01*
X93684909Y-113885459D01*
X93762646Y-113888066D01*
G37*
X93762646Y-113888066D02*
X93802274Y-113899410D01*
X93816446Y-113922179D01*
X93818000Y-113944465D01*
X93800029Y-113995082D01*
X93738625Y-114009250D01*
X93659250Y-114009250D01*
X93659250Y-114771250D01*
X93468750Y-114771250D01*
X93468750Y-114009250D01*
X93371171Y-114009249D01*
X93302570Y-114000994D01*
X93282453Y-113970461D01*
X93284210Y-113953687D01*
X93299144Y-113925409D01*
X93339155Y-113907239D01*
X93416735Y-113896206D01*
X93544371Y-113889337D01*
X93556413Y-113888903D01*
X93684909Y-113885459D01*
X93762646Y-113888066D01*
G36*
X94220549Y-113883963D02*
G01*
X94287461Y-113891688D01*
X94318065Y-113909306D01*
X94325938Y-113940695D01*
X94326000Y-113945750D01*
X94315349Y-113987294D01*
X94272304Y-114005654D01*
X94199000Y-114009250D01*
X94117709Y-114012342D01*
X94081587Y-114033638D01*
X94072305Y-114091163D01*
X94072000Y-114134141D01*
X94076853Y-114215855D01*
X94099929Y-114254044D01*
X94154000Y-114268447D01*
X94159312Y-114269078D01*
X94226404Y-114292298D01*
X94246625Y-114326750D01*
X94218207Y-114366615D01*
X94159312Y-114384421D01*
X94102575Y-114397892D01*
X94077733Y-114433758D01*
X94072014Y-114511759D01*
X94072000Y-114519358D01*
X94075144Y-114599299D01*
X94096800Y-114634821D01*
X94155296Y-114643949D01*
X94199000Y-114644250D01*
X94282088Y-114649575D01*
X94318809Y-114671097D01*
X94326000Y-114707750D01*
X94320003Y-114741121D01*
X94292963Y-114760239D01*
X94231302Y-114768983D01*
X94121441Y-114771232D01*
X94103750Y-114771250D01*
X93881500Y-114771250D01*
X93881500Y-113882250D01*
X94103750Y-113882250D01*
X94220549Y-113883963D01*
G37*
X94220549Y-113883963D02*
X94287461Y-113891688D01*
X94318065Y-113909306D01*
X94325938Y-113940695D01*
X94326000Y-113945750D01*
X94315349Y-113987294D01*
X94272304Y-114005654D01*
X94199000Y-114009250D01*
X94117709Y-114012342D01*
X94081587Y-114033638D01*
X94072305Y-114091163D01*
X94072000Y-114134141D01*
X94076853Y-114215855D01*
X94099929Y-114254044D01*
X94154000Y-114268447D01*
X94159312Y-114269078D01*
X94226404Y-114292298D01*
X94246625Y-114326750D01*
X94218207Y-114366615D01*
X94159312Y-114384421D01*
X94102575Y-114397892D01*
X94077733Y-114433758D01*
X94072014Y-114511759D01*
X94072000Y-114519358D01*
X94075144Y-114599299D01*
X94096800Y-114634821D01*
X94155296Y-114643949D01*
X94199000Y-114644250D01*
X94282088Y-114649575D01*
X94318809Y-114671097D01*
X94326000Y-114707750D01*
X94320003Y-114741121D01*
X94292963Y-114760239D01*
X94231302Y-114768983D01*
X94121441Y-114771232D01*
X94103750Y-114771250D01*
X93881500Y-114771250D01*
X93881500Y-113882250D01*
X94103750Y-113882250D01*
X94220549Y-113883963D01*
G36*
X95117420Y-113889876D02*
G01*
X95196374Y-113918429D01*
X95235705Y-113976414D01*
X95246737Y-114072341D01*
X95246750Y-114076997D01*
X95237782Y-114152291D01*
X95205281Y-114229569D01*
X95140845Y-114325570D01*
X95088000Y-114393350D01*
X95013617Y-114489147D01*
X94957903Y-114566833D01*
X94930531Y-114612738D01*
X94929250Y-114617703D01*
X94957963Y-114632242D01*
X95032031Y-114641885D01*
X95103875Y-114644250D01*
X95212835Y-114649459D01*
X95267676Y-114666511D01*
X95278500Y-114687452D01*
X95248918Y-114715605D01*
X95168831Y-114740348D01*
X95051229Y-114759195D01*
X94909100Y-114769663D01*
X94841937Y-114770974D01*
X94770765Y-114764685D01*
X94742978Y-114733552D01*
X94738750Y-114678776D01*
X94760284Y-114594575D01*
X94827377Y-114484222D01*
X94892452Y-114400963D01*
X94993689Y-114269884D01*
X95050981Y-114170647D01*
X95068442Y-114093587D01*
X95050520Y-114029634D01*
X95000039Y-113989722D01*
X94928979Y-113979227D01*
X94866572Y-113998791D01*
X94845481Y-114025125D01*
X94811094Y-114062919D01*
X94766263Y-114071316D01*
X94739464Y-114046637D01*
X94738750Y-114038912D01*
X94752665Y-113985308D01*
X94771617Y-113943662D01*
X94803613Y-113907338D01*
X94861034Y-113888540D01*
X94961027Y-113882391D01*
X94987517Y-113882249D01*
X95117420Y-113889876D01*
G37*
X95117420Y-113889876D02*
X95196374Y-113918429D01*
X95235705Y-113976414D01*
X95246737Y-114072341D01*
X95246750Y-114076997D01*
X95237782Y-114152291D01*
X95205281Y-114229569D01*
X95140845Y-114325570D01*
X95088000Y-114393350D01*
X95013617Y-114489147D01*
X94957903Y-114566833D01*
X94930531Y-114612738D01*
X94929250Y-114617703D01*
X94957963Y-114632242D01*
X95032031Y-114641885D01*
X95103875Y-114644250D01*
X95212835Y-114649459D01*
X95267676Y-114666511D01*
X95278500Y-114687452D01*
X95248918Y-114715605D01*
X95168831Y-114740348D01*
X95051229Y-114759195D01*
X94909100Y-114769663D01*
X94841937Y-114770974D01*
X94770765Y-114764685D01*
X94742978Y-114733552D01*
X94738750Y-114678776D01*
X94760284Y-114594575D01*
X94827377Y-114484222D01*
X94892452Y-114400963D01*
X94993689Y-114269884D01*
X95050981Y-114170647D01*
X95068442Y-114093587D01*
X95050520Y-114029634D01*
X95000039Y-113989722D01*
X94928979Y-113979227D01*
X94866572Y-113998791D01*
X94845481Y-114025125D01*
X94811094Y-114062919D01*
X94766263Y-114071316D01*
X94739464Y-114046637D01*
X94738750Y-114038912D01*
X94752665Y-113985308D01*
X94771617Y-113943662D01*
X94803613Y-113907338D01*
X94861034Y-113888540D01*
X94961027Y-113882391D01*
X94987517Y-113882249D01*
X95117420Y-113889876D01*
G36*
X95850000Y-114088625D02*
G01*
X95852494Y-114214229D01*
X95861510Y-114287958D01*
X95879342Y-114321294D01*
X95897625Y-114326750D01*
X95936410Y-114353219D01*
X95945250Y-114390250D01*
X95925397Y-114441964D01*
X95897625Y-114453750D01*
X95866234Y-114472448D01*
X95851936Y-114536026D01*
X95850000Y-114596625D01*
X95847238Y-114684481D01*
X95831296Y-114726092D01*
X95790684Y-114738692D01*
X95754750Y-114739500D01*
X95696179Y-114735358D01*
X95668438Y-114711444D01*
X95660038Y-114650526D01*
X95659500Y-114596625D01*
X95659500Y-114453750D01*
X95500750Y-114453750D01*
X95411338Y-114448893D01*
X95359899Y-114429326D01*
X95346587Y-114387551D01*
X95367826Y-114326750D01*
X95461696Y-114326750D01*
X95560598Y-114326750D01*
X95620353Y-114323215D01*
X95649346Y-114301375D01*
X95658692Y-114244375D01*
X95659500Y-114176810D01*
X95658881Y-114099976D01*
X95652317Y-114063381D01*
X95632744Y-114070147D01*
X95593098Y-114123398D01*
X95526315Y-114226255D01*
X95517842Y-114239437D01*
X95461696Y-114326750D01*
X95367826Y-114326750D01*
X95371557Y-114316070D01*
X95434961Y-114207387D01*
X95508092Y-114096562D01*
X95591071Y-113977785D01*
X95651721Y-113903816D01*
X95700146Y-113864868D01*
X95746446Y-113851156D01*
X95762102Y-113850500D01*
X95850000Y-113850500D01*
X95850000Y-114088625D01*
G37*
X95850000Y-114088625D02*
X95852494Y-114214229D01*
X95861510Y-114287958D01*
X95879342Y-114321294D01*
X95897625Y-114326750D01*
X95936410Y-114353219D01*
X95945250Y-114390250D01*
X95925397Y-114441964D01*
X95897625Y-114453750D01*
X95866234Y-114472448D01*
X95851936Y-114536026D01*
X95850000Y-114596625D01*
X95847238Y-114684481D01*
X95831296Y-114726092D01*
X95790684Y-114738692D01*
X95754750Y-114739500D01*
X95696179Y-114735358D01*
X95668438Y-114711444D01*
X95660038Y-114650526D01*
X95659500Y-114596625D01*
X95659500Y-114453750D01*
X95500750Y-114453750D01*
X95411338Y-114448893D01*
X95359899Y-114429326D01*
X95346587Y-114387551D01*
X95367826Y-114326750D01*
X95461696Y-114326750D01*
X95560598Y-114326750D01*
X95620353Y-114323215D01*
X95649346Y-114301375D01*
X95658692Y-114244375D01*
X95659500Y-114176810D01*
X95658881Y-114099976D01*
X95652317Y-114063381D01*
X95632744Y-114070147D01*
X95593098Y-114123398D01*
X95526315Y-114226255D01*
X95517842Y-114239437D01*
X95461696Y-114326750D01*
X95367826Y-114326750D01*
X95371557Y-114316070D01*
X95434961Y-114207387D01*
X95508092Y-114096562D01*
X95591071Y-113977785D01*
X95651721Y-113903816D01*
X95700146Y-113864868D01*
X95746446Y-113851156D01*
X95762102Y-113850500D01*
X95850000Y-113850500D01*
X95850000Y-114088625D01*
G36*
X98064367Y-113824662D02*
G01*
X98136378Y-113848321D01*
X98184390Y-113898607D01*
X98213079Y-113984403D01*
X98227126Y-114114590D01*
X98231207Y-114298050D01*
X98231250Y-114326750D01*
X98231250Y-114707750D01*
X98040750Y-114707750D01*
X98040750Y-114517250D01*
X98039153Y-114411720D01*
X98030072Y-114354750D01*
X98007073Y-114331408D01*
X97963718Y-114326761D01*
X97958645Y-114326750D01*
X97912694Y-114330131D01*
X97889375Y-114350421D01*
X97882734Y-114402834D01*
X97886816Y-114502588D01*
X97887208Y-114509312D01*
X97891525Y-114612219D01*
X97885055Y-114667846D01*
X97861788Y-114692231D01*
X97815710Y-114701414D01*
X97815181Y-114701475D01*
X97766725Y-114702319D01*
X97739156Y-114680603D01*
X97722916Y-114621577D01*
X97712270Y-114542725D01*
X97690758Y-114301107D01*
X97692370Y-114114381D01*
X97692745Y-114112437D01*
X97882486Y-114112437D01*
X97892527Y-114176729D01*
X97935227Y-114198579D01*
X97961375Y-114199750D01*
X98014880Y-114191547D01*
X98036913Y-114154518D01*
X98040750Y-114087628D01*
X98025655Y-113993771D01*
X97989920Y-113956002D01*
X97933141Y-113960970D01*
X97895311Y-114019246D01*
X97882486Y-114112437D01*
X97692745Y-114112437D01*
X97718802Y-113977665D01*
X97771750Y-113886076D01*
X97852908Y-113834732D01*
X97963679Y-113818750D01*
X98064367Y-113824662D01*
G37*
X98064367Y-113824662D02*
X98136378Y-113848321D01*
X98184390Y-113898607D01*
X98213079Y-113984403D01*
X98227126Y-114114590D01*
X98231207Y-114298050D01*
X98231250Y-114326750D01*
X98231250Y-114707750D01*
X98040750Y-114707750D01*
X98040750Y-114517250D01*
X98039153Y-114411720D01*
X98030072Y-114354750D01*
X98007073Y-114331408D01*
X97963718Y-114326761D01*
X97958645Y-114326750D01*
X97912694Y-114330131D01*
X97889375Y-114350421D01*
X97882734Y-114402834D01*
X97886816Y-114502588D01*
X97887208Y-114509312D01*
X97891525Y-114612219D01*
X97885055Y-114667846D01*
X97861788Y-114692231D01*
X97815710Y-114701414D01*
X97815181Y-114701475D01*
X97766725Y-114702319D01*
X97739156Y-114680603D01*
X97722916Y-114621577D01*
X97712270Y-114542725D01*
X97690758Y-114301107D01*
X97692370Y-114114381D01*
X97692745Y-114112437D01*
X97882486Y-114112437D01*
X97892527Y-114176729D01*
X97935227Y-114198579D01*
X97961375Y-114199750D01*
X98014880Y-114191547D01*
X98036913Y-114154518D01*
X98040750Y-114087628D01*
X98025655Y-113993771D01*
X97989920Y-113956002D01*
X97933141Y-113960970D01*
X97895311Y-114019246D01*
X97882486Y-114112437D01*
X97692745Y-114112437D01*
X97718802Y-113977665D01*
X97771750Y-113886076D01*
X97852908Y-113834732D01*
X97963679Y-113818750D01*
X98064367Y-113824662D01*
G36*
X98588437Y-113819236D02*
G01*
X98698932Y-113823131D01*
X98785715Y-113832762D01*
X98824576Y-113843694D01*
X98878866Y-113910458D01*
X98906881Y-114008680D01*
X98901274Y-114109203D01*
X98895780Y-114126212D01*
X98881586Y-114236924D01*
X98898495Y-114296196D01*
X98917738Y-114379546D01*
X98925096Y-114490284D01*
X98923741Y-114536420D01*
X98914582Y-114630110D01*
X98895773Y-114677880D01*
X98856996Y-114697306D01*
X98826562Y-114701921D01*
X98772856Y-114703839D01*
X98747423Y-114682531D01*
X98739733Y-114622037D01*
X98739250Y-114569580D01*
X98732520Y-114439865D01*
X98709795Y-114363107D01*
X98667272Y-114329944D01*
X98640603Y-114326750D01*
X98606903Y-114334701D01*
X98588693Y-114368095D01*
X98581457Y-114441241D01*
X98580500Y-114517250D01*
X98580500Y-114707750D01*
X98390000Y-114707750D01*
X98390000Y-114056875D01*
X98580500Y-114056875D01*
X98592317Y-114154094D01*
X98623103Y-114200732D01*
X98665858Y-114192258D01*
X98706382Y-114138337D01*
X98736343Y-114059527D01*
X98720181Y-113999793D01*
X98689357Y-113963892D01*
X98632307Y-113920309D01*
X98597870Y-113930856D01*
X98582337Y-113998700D01*
X98580500Y-114056875D01*
X98390000Y-114056875D01*
X98390000Y-113818750D01*
X98588437Y-113819236D01*
G37*
X98588437Y-113819236D02*
X98698932Y-113823131D01*
X98785715Y-113832762D01*
X98824576Y-113843694D01*
X98878866Y-113910458D01*
X98906881Y-114008680D01*
X98901274Y-114109203D01*
X98895780Y-114126212D01*
X98881586Y-114236924D01*
X98898495Y-114296196D01*
X98917738Y-114379546D01*
X98925096Y-114490284D01*
X98923741Y-114536420D01*
X98914582Y-114630110D01*
X98895773Y-114677880D01*
X98856996Y-114697306D01*
X98826562Y-114701921D01*
X98772856Y-114703839D01*
X98747423Y-114682531D01*
X98739733Y-114622037D01*
X98739250Y-114569580D01*
X98732520Y-114439865D01*
X98709795Y-114363107D01*
X98667272Y-114329944D01*
X98640603Y-114326750D01*
X98606903Y-114334701D01*
X98588693Y-114368095D01*
X98581457Y-114441241D01*
X98580500Y-114517250D01*
X98580500Y-114707750D01*
X98390000Y-114707750D01*
X98390000Y-114056875D01*
X98580500Y-114056875D01*
X98592317Y-114154094D01*
X98623103Y-114200732D01*
X98665858Y-114192258D01*
X98706382Y-114138337D01*
X98736343Y-114059527D01*
X98720181Y-113999793D01*
X98689357Y-113963892D01*
X98632307Y-113920309D01*
X98597870Y-113930856D01*
X98582337Y-113998700D01*
X98580500Y-114056875D01*
X98390000Y-114056875D01*
X98390000Y-113818750D01*
X98588437Y-113819236D01*
G36*
X96514607Y-113856484D02*
G01*
X96543091Y-113879478D01*
X96542566Y-113906062D01*
X96505942Y-113952986D01*
X96452925Y-113972604D01*
X96350856Y-114006413D01*
X96299464Y-114069584D01*
X96294500Y-114102888D01*
X96308776Y-114139819D01*
X96361962Y-114146319D01*
X96391002Y-114142838D01*
X96493447Y-114146496D01*
X96562216Y-114195786D01*
X96600622Y-114295176D01*
X96612000Y-114440995D01*
X96608671Y-114555956D01*
X96595187Y-114626131D01*
X96566300Y-114670045D01*
X96541435Y-114690074D01*
X96439852Y-114731192D01*
X96321939Y-114737100D01*
X96214967Y-114708826D01*
X96167500Y-114676000D01*
X96134562Y-114632528D01*
X96115162Y-114572836D01*
X96106061Y-114480650D01*
X96104996Y-114416708D01*
X96294500Y-114416708D01*
X96298550Y-114510764D01*
X96308839Y-114576265D01*
X96315666Y-114591333D01*
X96370627Y-114612112D01*
X96417993Y-114581318D01*
X96428418Y-114556937D01*
X96434359Y-114489036D01*
X96430103Y-114395662D01*
X96428647Y-114382312D01*
X96410413Y-114299711D01*
X96376335Y-114266128D01*
X96354526Y-114263250D01*
X96317850Y-114273073D01*
X96299878Y-114312830D01*
X96294575Y-114397947D01*
X96294500Y-114416708D01*
X96104996Y-114416708D01*
X96104000Y-114356923D01*
X96114892Y-114158695D01*
X96150123Y-114014751D01*
X96213522Y-113919280D01*
X96308916Y-113866468D01*
X96437615Y-113850500D01*
X96514607Y-113856484D01*
G37*
X96514607Y-113856484D02*
X96543091Y-113879478D01*
X96542566Y-113906062D01*
X96505942Y-113952986D01*
X96452925Y-113972604D01*
X96350856Y-114006413D01*
X96299464Y-114069584D01*
X96294500Y-114102888D01*
X96308776Y-114139819D01*
X96361962Y-114146319D01*
X96391002Y-114142838D01*
X96493447Y-114146496D01*
X96562216Y-114195786D01*
X96600622Y-114295176D01*
X96612000Y-114440995D01*
X96608671Y-114555956D01*
X96595187Y-114626131D01*
X96566300Y-114670045D01*
X96541435Y-114690074D01*
X96439852Y-114731192D01*
X96321939Y-114737100D01*
X96214967Y-114708826D01*
X96167500Y-114676000D01*
X96134562Y-114632528D01*
X96115162Y-114572836D01*
X96106061Y-114480650D01*
X96104996Y-114416708D01*
X96294500Y-114416708D01*
X96298550Y-114510764D01*
X96308839Y-114576265D01*
X96315666Y-114591333D01*
X96370627Y-114612112D01*
X96417993Y-114581318D01*
X96428418Y-114556937D01*
X96434359Y-114489036D01*
X96430103Y-114395662D01*
X96428647Y-114382312D01*
X96410413Y-114299711D01*
X96376335Y-114266128D01*
X96354526Y-114263250D01*
X96317850Y-114273073D01*
X96299878Y-114312830D01*
X96294575Y-114397947D01*
X96294500Y-114416708D01*
X96104996Y-114416708D01*
X96104000Y-114356923D01*
X96114892Y-114158695D01*
X96150123Y-114014751D01*
X96213522Y-113919280D01*
X96308916Y-113866468D01*
X96437615Y-113850500D01*
X96514607Y-113856484D01*
G36*
X102970112Y-113065385D02*
G01*
X103077989Y-113075192D01*
X103169520Y-113097864D01*
X103268221Y-113137841D01*
X103305589Y-113155216D01*
X103535829Y-113296361D01*
X103720245Y-113475612D01*
X103856646Y-113684940D01*
X103942841Y-113916316D01*
X103976639Y-114161708D01*
X103955847Y-114413089D01*
X103878275Y-114662428D01*
X103770787Y-114859688D01*
X103601215Y-115061244D01*
X103393688Y-115211987D01*
X103147921Y-115312095D01*
X102992896Y-115346199D01*
X102886516Y-115362589D01*
X102807553Y-115373126D01*
X102774750Y-115375525D01*
X102736744Y-115368666D01*
X102657704Y-115355103D01*
X102604958Y-115346203D01*
X102492968Y-115324265D01*
X102444096Y-115306834D01*
X102458101Y-115294177D01*
X102534745Y-115286566D01*
X102660299Y-115284250D01*
X102813428Y-115278809D01*
X102931339Y-115258974D01*
X103041655Y-115219473D01*
X103071587Y-115205764D01*
X103294697Y-115073037D01*
X103468748Y-114906139D01*
X103602926Y-114696186D01*
X103606854Y-114688272D01*
X103660091Y-114572934D01*
X103691516Y-114477883D01*
X103706708Y-114377333D01*
X103711249Y-114245503D01*
X103711375Y-114205417D01*
X103707734Y-114054377D01*
X103693723Y-113941701D01*
X103664706Y-113842509D01*
X103627708Y-113756439D01*
X103488158Y-113525520D01*
X103308086Y-113343000D01*
X103116275Y-113221651D01*
X103003066Y-113170046D01*
X102903656Y-113140349D01*
X102790864Y-113126599D01*
X102666491Y-113123018D01*
X102537180Y-113119259D01*
X102470480Y-113110706D01*
X102465674Y-113097247D01*
X102473125Y-113093500D01*
X102532586Y-113080966D01*
X102636859Y-113070912D01*
X102767262Y-113064914D01*
X102822375Y-113064006D01*
X102970112Y-113065385D01*
G37*
X102970112Y-113065385D02*
X103077989Y-113075192D01*
X103169520Y-113097864D01*
X103268221Y-113137841D01*
X103305589Y-113155216D01*
X103535829Y-113296361D01*
X103720245Y-113475612D01*
X103856646Y-113684940D01*
X103942841Y-113916316D01*
X103976639Y-114161708D01*
X103955847Y-114413089D01*
X103878275Y-114662428D01*
X103770787Y-114859688D01*
X103601215Y-115061244D01*
X103393688Y-115211987D01*
X103147921Y-115312095D01*
X102992896Y-115346199D01*
X102886516Y-115362589D01*
X102807553Y-115373126D01*
X102774750Y-115375525D01*
X102736744Y-115368666D01*
X102657704Y-115355103D01*
X102604958Y-115346203D01*
X102492968Y-115324265D01*
X102444096Y-115306834D01*
X102458101Y-115294177D01*
X102534745Y-115286566D01*
X102660299Y-115284250D01*
X102813428Y-115278809D01*
X102931339Y-115258974D01*
X103041655Y-115219473D01*
X103071587Y-115205764D01*
X103294697Y-115073037D01*
X103468748Y-114906139D01*
X103602926Y-114696186D01*
X103606854Y-114688272D01*
X103660091Y-114572934D01*
X103691516Y-114477883D01*
X103706708Y-114377333D01*
X103711249Y-114245503D01*
X103711375Y-114205417D01*
X103707734Y-114054377D01*
X103693723Y-113941701D01*
X103664706Y-113842509D01*
X103627708Y-113756439D01*
X103488158Y-113525520D01*
X103308086Y-113343000D01*
X103116275Y-113221651D01*
X103003066Y-113170046D01*
X102903656Y-113140349D01*
X102790864Y-113126599D01*
X102666491Y-113123018D01*
X102537180Y-113119259D01*
X102470480Y-113110706D01*
X102465674Y-113097247D01*
X102473125Y-113093500D01*
X102532586Y-113080966D01*
X102636859Y-113070912D01*
X102767262Y-113064914D01*
X102822375Y-113064006D01*
X102970112Y-113065385D01*
G36*
X89399624Y-113054663D02*
G01*
X89517683Y-113065362D01*
X89529503Y-113066904D01*
X89793015Y-113132202D01*
X90024824Y-113252233D01*
X90223169Y-113425735D01*
X90386291Y-113651444D01*
X90414051Y-113701823D01*
X90455934Y-113787544D01*
X90482273Y-113864456D01*
X90496595Y-113951793D01*
X90502427Y-114068789D01*
X90503350Y-114188875D01*
X90501366Y-114343741D01*
X90492884Y-114456198D01*
X90474151Y-114547276D01*
X90441415Y-114638005D01*
X90411007Y-114706415D01*
X90281855Y-114915022D01*
X90104191Y-115097157D01*
X89891693Y-115239183D01*
X89861391Y-115254391D01*
X89769619Y-115291907D01*
X89669227Y-115316095D01*
X89541137Y-115330323D01*
X89392125Y-115337226D01*
X89249976Y-115338503D01*
X89126536Y-115334148D01*
X89039035Y-115325044D01*
X89011125Y-115317746D01*
X88998229Y-115302637D01*
X89040176Y-115292735D01*
X89140463Y-115287475D01*
X89204491Y-115286481D01*
X89349180Y-115281516D01*
X89457814Y-115265605D01*
X89557642Y-115232751D01*
X89655631Y-115187170D01*
X89859369Y-115054359D01*
X90033942Y-114879670D01*
X90165174Y-114678512D01*
X90203089Y-114592151D01*
X90251654Y-114395586D01*
X90264276Y-114176351D01*
X90242036Y-113957839D01*
X90186017Y-113763444D01*
X90162422Y-113712625D01*
X90041067Y-113531043D01*
X89882790Y-113371893D01*
X89701225Y-113244631D01*
X89510007Y-113158715D01*
X89322771Y-113123600D01*
X89312750Y-113123328D01*
X89209822Y-113116238D01*
X89125057Y-113101575D01*
X89106375Y-113095665D01*
X89085774Y-113077559D01*
X89116692Y-113063598D01*
X89187236Y-113054589D01*
X89285511Y-113051341D01*
X89399624Y-113054663D01*
G37*
X89399624Y-113054663D02*
X89517683Y-113065362D01*
X89529503Y-113066904D01*
X89793015Y-113132202D01*
X90024824Y-113252233D01*
X90223169Y-113425735D01*
X90386291Y-113651444D01*
X90414051Y-113701823D01*
X90455934Y-113787544D01*
X90482273Y-113864456D01*
X90496595Y-113951793D01*
X90502427Y-114068789D01*
X90503350Y-114188875D01*
X90501366Y-114343741D01*
X90492884Y-114456198D01*
X90474151Y-114547276D01*
X90441415Y-114638005D01*
X90411007Y-114706415D01*
X90281855Y-114915022D01*
X90104191Y-115097157D01*
X89891693Y-115239183D01*
X89861391Y-115254391D01*
X89769619Y-115291907D01*
X89669227Y-115316095D01*
X89541137Y-115330323D01*
X89392125Y-115337226D01*
X89249976Y-115338503D01*
X89126536Y-115334148D01*
X89039035Y-115325044D01*
X89011125Y-115317746D01*
X88998229Y-115302637D01*
X89040176Y-115292735D01*
X89140463Y-115287475D01*
X89204491Y-115286481D01*
X89349180Y-115281516D01*
X89457814Y-115265605D01*
X89557642Y-115232751D01*
X89655631Y-115187170D01*
X89859369Y-115054359D01*
X90033942Y-114879670D01*
X90165174Y-114678512D01*
X90203089Y-114592151D01*
X90251654Y-114395586D01*
X90264276Y-114176351D01*
X90242036Y-113957839D01*
X90186017Y-113763444D01*
X90162422Y-113712625D01*
X90041067Y-113531043D01*
X89882790Y-113371893D01*
X89701225Y-113244631D01*
X89510007Y-113158715D01*
X89322771Y-113123600D01*
X89312750Y-113123328D01*
X89209822Y-113116238D01*
X89125057Y-113101575D01*
X89106375Y-113095665D01*
X89085774Y-113077559D01*
X89116692Y-113063598D01*
X89187236Y-113054589D01*
X89285511Y-113051341D01*
X89399624Y-113054663D01*
G36*
X85532530Y-114731708D02*
G01*
X85534500Y-114784577D01*
X85512056Y-114889506D01*
X85441544Y-115000929D01*
X85318191Y-115125620D01*
X85258621Y-115176133D01*
X85107047Y-115300125D01*
X85175448Y-115189000D01*
X85226011Y-115105387D01*
X85294090Y-114990929D01*
X85365359Y-114869719D01*
X85368605Y-114864160D01*
X85440349Y-114748417D01*
X85489297Y-114688857D01*
X85518880Y-114683837D01*
X85532530Y-114731708D01*
G37*
X85532530Y-114731708D02*
X85534500Y-114784577D01*
X85512056Y-114889506D01*
X85441544Y-115000929D01*
X85318191Y-115125620D01*
X85258621Y-115176133D01*
X85107047Y-115300125D01*
X85175448Y-115189000D01*
X85226011Y-115105387D01*
X85294090Y-114990929D01*
X85365359Y-114869719D01*
X85368605Y-114864160D01*
X85440349Y-114748417D01*
X85489297Y-114688857D01*
X85518880Y-114683837D01*
X85532530Y-114731708D01*
G36*
X97857637Y-109543573D02*
G01*
X98354641Y-109544987D01*
X98908513Y-109547686D01*
X99335156Y-109550320D01*
X99783152Y-109553449D01*
X100229172Y-109556879D01*
X100666928Y-109560544D01*
X101090132Y-109564378D01*
X101492497Y-109568315D01*
X101867734Y-109572289D01*
X102209558Y-109576234D01*
X102511680Y-109580084D01*
X102767813Y-109583773D01*
X102971669Y-109587235D01*
X103090967Y-109589750D01*
X103925778Y-109609857D01*
X103859647Y-109680251D01*
X103795790Y-109791710D01*
X103768328Y-109945412D01*
X103778174Y-110122727D01*
X103787122Y-110170360D01*
X103802359Y-110214466D01*
X103829686Y-110261651D01*
X103874903Y-110318516D01*
X103943811Y-110391666D01*
X104042211Y-110487704D01*
X104175904Y-110613234D01*
X104350691Y-110774860D01*
X104352461Y-110776492D01*
X104550670Y-110961218D01*
X104707307Y-111113644D01*
X104828933Y-111242892D01*
X104922104Y-111358083D01*
X104993379Y-111468339D01*
X105049318Y-111582781D01*
X105096478Y-111710532D01*
X105141419Y-111860713D01*
X105147348Y-111882026D01*
X105177109Y-112006489D01*
X105176681Y-112082978D01*
X105137894Y-112123077D01*
X105052583Y-112138373D01*
X104965111Y-112140513D01*
X104850411Y-112152464D01*
X104774228Y-112184058D01*
X104767870Y-112189696D01*
X104718531Y-112269668D01*
X104674012Y-112400334D01*
X104638484Y-112568890D01*
X104633317Y-112602606D01*
X104628085Y-112690104D01*
X104647869Y-112751373D01*
X104701403Y-112791646D01*
X104797418Y-112816155D01*
X104944646Y-112830131D01*
X105019378Y-112833924D01*
X105315406Y-112846871D01*
X105398033Y-113069787D01*
X105435524Y-113179098D01*
X105458959Y-113263899D01*
X105464040Y-113308229D01*
X105462825Y-113310538D01*
X105423223Y-113320929D01*
X105331476Y-113332131D01*
X105198923Y-113343445D01*
X105036902Y-113354167D01*
X104856751Y-113363599D01*
X104669807Y-113371039D01*
X104487408Y-113375785D01*
X104387266Y-113377034D01*
X104041877Y-113379249D01*
X103819014Y-113169012D01*
X103641371Y-113019112D01*
X103462563Y-112899964D01*
X103386528Y-112860132D01*
X103281161Y-112813859D01*
X103187947Y-112783599D01*
X103086348Y-112765198D01*
X102955823Y-112754503D01*
X102839469Y-112749490D01*
X102536189Y-112756121D01*
X102272366Y-112802651D01*
X102034399Y-112894095D01*
X101808685Y-113035466D01*
X101613279Y-113201481D01*
X101398906Y-113403704D01*
X96445906Y-113486569D01*
X95884394Y-113495985D01*
X95336732Y-113505210D01*
X94806622Y-113514180D01*
X94297767Y-113522832D01*
X93813868Y-113531099D01*
X93358627Y-113538920D01*
X92935748Y-113546228D01*
X92548932Y-113552960D01*
X92201882Y-113559052D01*
X91898300Y-113564439D01*
X91641888Y-113569057D01*
X91436348Y-113572841D01*
X91285384Y-113575727D01*
X91192696Y-113577652D01*
X91172460Y-113578146D01*
X90852014Y-113586859D01*
X90659233Y-113377798D01*
X90433467Y-113170077D01*
X90182976Y-113012710D01*
X89901082Y-112902872D01*
X89581110Y-112837741D01*
X89333906Y-112817361D01*
X88993674Y-112818442D01*
X88697871Y-112854358D01*
X88435568Y-112928830D01*
X88195838Y-113045582D01*
X87967751Y-113208337D01*
X87832930Y-113328674D01*
X87580599Y-113569750D01*
X87250752Y-113569029D01*
X87089211Y-113566224D01*
X86900810Y-113559076D01*
X86699905Y-113548546D01*
X86500853Y-113535595D01*
X86318012Y-113521183D01*
X86165739Y-113506272D01*
X86058390Y-113491823D01*
X86037573Y-113487827D01*
X85972081Y-113469597D01*
X85964339Y-113455499D01*
X86015431Y-113445437D01*
X86126439Y-113439316D01*
X86298444Y-113437042D01*
X86532529Y-113438519D01*
X86591227Y-113439319D01*
X87196421Y-113448225D01*
X87175173Y-113231175D01*
X87160010Y-113082907D01*
X87141363Y-112982300D01*
X87107960Y-112919140D01*
X87048528Y-112883217D01*
X86951792Y-112864317D01*
X86806480Y-112852228D01*
X86752692Y-112848471D01*
X86636290Y-112837502D01*
X86552556Y-112824266D01*
X86514385Y-112811038D01*
X86514567Y-112806434D01*
X86557385Y-112787004D01*
X86654746Y-112754400D01*
X86799535Y-112710624D01*
X86984635Y-112657681D01*
X87202931Y-112597573D01*
X87447306Y-112532304D01*
X87710645Y-112463877D01*
X87921031Y-112410505D01*
X88583234Y-112252956D01*
X89274048Y-112104586D01*
X89480355Y-112064842D01*
X92302531Y-112064842D01*
X92330550Y-112071469D01*
X92401089Y-112068680D01*
X92437468Y-112064830D01*
X92506910Y-112059447D01*
X92629154Y-112053258D01*
X92793512Y-112046668D01*
X92989300Y-112040079D01*
X93205829Y-112033895D01*
X93350281Y-112030339D01*
X93746307Y-112020922D01*
X94155086Y-112010662D01*
X94571781Y-111999717D01*
X94991556Y-111988242D01*
X95409573Y-111976394D01*
X95820995Y-111964330D01*
X96220986Y-111952206D01*
X96604708Y-111940178D01*
X96967325Y-111928402D01*
X97304000Y-111917036D01*
X97609896Y-111906234D01*
X97880176Y-111896155D01*
X98110004Y-111886954D01*
X98294541Y-111878787D01*
X98428952Y-111871811D01*
X98508399Y-111866182D01*
X98529045Y-111862899D01*
X98529712Y-111859714D01*
X99128781Y-111859714D01*
X99565343Y-111840538D01*
X99689069Y-111835155D01*
X99867386Y-111827470D01*
X100091441Y-111817861D01*
X100352382Y-111806706D01*
X100641355Y-111794384D01*
X100949509Y-111781272D01*
X101267991Y-111767748D01*
X101494156Y-111758161D01*
X101973223Y-111737524D01*
X102392923Y-111718572D01*
X102757353Y-111700928D01*
X103070613Y-111684217D01*
X103336801Y-111668064D01*
X103560016Y-111652092D01*
X103744356Y-111635926D01*
X103893920Y-111619189D01*
X104012807Y-111601507D01*
X104105116Y-111582502D01*
X104174944Y-111561800D01*
X104226391Y-111539024D01*
X104263556Y-111513799D01*
X104275121Y-111503159D01*
X104322954Y-111436370D01*
X104337147Y-111360417D01*
X104314937Y-111270726D01*
X104253562Y-111162721D01*
X104150258Y-111031829D01*
X104002263Y-110873475D01*
X103806814Y-110683085D01*
X103744546Y-110624658D01*
X103499048Y-110400245D01*
X103290131Y-110219366D01*
X103112511Y-110077807D01*
X102960908Y-109971354D01*
X102832863Y-109897219D01*
X102768948Y-109869658D01*
X102690773Y-109845976D01*
X102593493Y-109825895D01*
X102472267Y-109809134D01*
X102322251Y-109795417D01*
X102138603Y-109784464D01*
X101916479Y-109775996D01*
X101651036Y-109769736D01*
X101337433Y-109765404D01*
X100970825Y-109762722D01*
X100546370Y-109761412D01*
X100470218Y-109761308D01*
X99128781Y-109759750D01*
X99128781Y-111859714D01*
X98529712Y-111859714D01*
X98536482Y-111827423D01*
X98548192Y-111737888D01*
X98563325Y-111603527D01*
X98581032Y-111433574D01*
X98600466Y-111237264D01*
X98620777Y-111023830D01*
X98641117Y-110802506D01*
X98660637Y-110582527D01*
X98678488Y-110373125D01*
X98693822Y-110183535D01*
X98705790Y-110022991D01*
X98713544Y-109900726D01*
X98716234Y-109826251D01*
X98716031Y-109718127D01*
X97438093Y-109738409D01*
X97035367Y-109745520D01*
X96690354Y-109753398D01*
X96397271Y-109762500D01*
X96150330Y-109773283D01*
X95943748Y-109786203D01*
X95771738Y-109801717D01*
X95628515Y-109820282D01*
X95508295Y-109842356D01*
X95405291Y-109868394D01*
X95313719Y-109898853D01*
X95289799Y-109908055D01*
X95056717Y-110013734D01*
X94788013Y-110160836D01*
X94481852Y-110350511D01*
X94136399Y-110583912D01*
X93749819Y-110862189D01*
X93643684Y-110941034D01*
X93444070Y-111092378D01*
X93242444Y-111249237D01*
X93045118Y-111406321D01*
X92858407Y-111558337D01*
X92688624Y-111699997D01*
X92542083Y-111826009D01*
X92425098Y-111931084D01*
X92343982Y-112009929D01*
X92305049Y-112057256D01*
X92302531Y-112064842D01*
X89480355Y-112064842D01*
X89958609Y-111972709D01*
X90254656Y-111920810D01*
X90446551Y-111887579D01*
X90624689Y-111855408D01*
X90776357Y-111826693D01*
X90888844Y-111803831D01*
X90944049Y-111790820D01*
X91028007Y-111773451D01*
X91082409Y-111785592D01*
X91125879Y-111821598D01*
X91225633Y-111892923D01*
X91369441Y-111958559D01*
X91537931Y-112009802D01*
X91551953Y-112013031D01*
X91583283Y-112019260D01*
X91614131Y-112020927D01*
X91649797Y-112014972D01*
X91695582Y-111998335D01*
X91756785Y-111967956D01*
X91838706Y-111920775D01*
X91946645Y-111853731D01*
X92085903Y-111763765D01*
X92261777Y-111647817D01*
X92479569Y-111502827D01*
X92744579Y-111325734D01*
X92758831Y-111316204D01*
X93170308Y-111040481D01*
X93530456Y-110797850D01*
X93841263Y-110586911D01*
X94104715Y-110406266D01*
X94322799Y-110254514D01*
X94497502Y-110130254D01*
X94630811Y-110032088D01*
X94724711Y-109958614D01*
X94781191Y-109908434D01*
X94802237Y-109880146D01*
X94802208Y-109876372D01*
X94765772Y-109851113D01*
X94689288Y-109832745D01*
X94657500Y-109829361D01*
X94575940Y-109817509D01*
X94529283Y-109799410D01*
X94525031Y-109792226D01*
X94554145Y-109764860D01*
X94632625Y-109731325D01*
X94747176Y-109695743D01*
X94884503Y-109662237D01*
X95031313Y-109634931D01*
X95033031Y-109634665D01*
X95160836Y-109616909D01*
X95302784Y-109601277D01*
X95462760Y-109587691D01*
X95644648Y-109576077D01*
X95852330Y-109566358D01*
X96089692Y-109558458D01*
X96360618Y-109552300D01*
X96668991Y-109547809D01*
X97018696Y-109544908D01*
X97413616Y-109543522D01*
X97857637Y-109543573D01*
G37*
X97857637Y-109543573D02*
X98354641Y-109544987D01*
X98908513Y-109547686D01*
X99335156Y-109550320D01*
X99783152Y-109553449D01*
X100229172Y-109556879D01*
X100666928Y-109560544D01*
X101090132Y-109564378D01*
X101492497Y-109568315D01*
X101867734Y-109572289D01*
X102209558Y-109576234D01*
X102511680Y-109580084D01*
X102767813Y-109583773D01*
X102971669Y-109587235D01*
X103090967Y-109589750D01*
X103925778Y-109609857D01*
X103859647Y-109680251D01*
X103795790Y-109791710D01*
X103768328Y-109945412D01*
X103778174Y-110122727D01*
X103787122Y-110170360D01*
X103802359Y-110214466D01*
X103829686Y-110261651D01*
X103874903Y-110318516D01*
X103943811Y-110391666D01*
X104042211Y-110487704D01*
X104175904Y-110613234D01*
X104350691Y-110774860D01*
X104352461Y-110776492D01*
X104550670Y-110961218D01*
X104707307Y-111113644D01*
X104828933Y-111242892D01*
X104922104Y-111358083D01*
X104993379Y-111468339D01*
X105049318Y-111582781D01*
X105096478Y-111710532D01*
X105141419Y-111860713D01*
X105147348Y-111882026D01*
X105177109Y-112006489D01*
X105176681Y-112082978D01*
X105137894Y-112123077D01*
X105052583Y-112138373D01*
X104965111Y-112140513D01*
X104850411Y-112152464D01*
X104774228Y-112184058D01*
X104767870Y-112189696D01*
X104718531Y-112269668D01*
X104674012Y-112400334D01*
X104638484Y-112568890D01*
X104633317Y-112602606D01*
X104628085Y-112690104D01*
X104647869Y-112751373D01*
X104701403Y-112791646D01*
X104797418Y-112816155D01*
X104944646Y-112830131D01*
X105019378Y-112833924D01*
X105315406Y-112846871D01*
X105398033Y-113069787D01*
X105435524Y-113179098D01*
X105458959Y-113263899D01*
X105464040Y-113308229D01*
X105462825Y-113310538D01*
X105423223Y-113320929D01*
X105331476Y-113332131D01*
X105198923Y-113343445D01*
X105036902Y-113354167D01*
X104856751Y-113363599D01*
X104669807Y-113371039D01*
X104487408Y-113375785D01*
X104387266Y-113377034D01*
X104041877Y-113379249D01*
X103819014Y-113169012D01*
X103641371Y-113019112D01*
X103462563Y-112899964D01*
X103386528Y-112860132D01*
X103281161Y-112813859D01*
X103187947Y-112783599D01*
X103086348Y-112765198D01*
X102955823Y-112754503D01*
X102839469Y-112749490D01*
X102536189Y-112756121D01*
X102272366Y-112802651D01*
X102034399Y-112894095D01*
X101808685Y-113035466D01*
X101613279Y-113201481D01*
X101398906Y-113403704D01*
X96445906Y-113486569D01*
X95884394Y-113495985D01*
X95336732Y-113505210D01*
X94806622Y-113514180D01*
X94297767Y-113522832D01*
X93813868Y-113531099D01*
X93358627Y-113538920D01*
X92935748Y-113546228D01*
X92548932Y-113552960D01*
X92201882Y-113559052D01*
X91898300Y-113564439D01*
X91641888Y-113569057D01*
X91436348Y-113572841D01*
X91285384Y-113575727D01*
X91192696Y-113577652D01*
X91172460Y-113578146D01*
X90852014Y-113586859D01*
X90659233Y-113377798D01*
X90433467Y-113170077D01*
X90182976Y-113012710D01*
X89901082Y-112902872D01*
X89581110Y-112837741D01*
X89333906Y-112817361D01*
X88993674Y-112818442D01*
X88697871Y-112854358D01*
X88435568Y-112928830D01*
X88195838Y-113045582D01*
X87967751Y-113208337D01*
X87832930Y-113328674D01*
X87580599Y-113569750D01*
X87250752Y-113569029D01*
X87089211Y-113566224D01*
X86900810Y-113559076D01*
X86699905Y-113548546D01*
X86500853Y-113535595D01*
X86318012Y-113521183D01*
X86165739Y-113506272D01*
X86058390Y-113491823D01*
X86037573Y-113487827D01*
X85972081Y-113469597D01*
X85964339Y-113455499D01*
X86015431Y-113445437D01*
X86126439Y-113439316D01*
X86298444Y-113437042D01*
X86532529Y-113438519D01*
X86591227Y-113439319D01*
X87196421Y-113448225D01*
X87175173Y-113231175D01*
X87160010Y-113082907D01*
X87141363Y-112982300D01*
X87107960Y-112919140D01*
X87048528Y-112883217D01*
X86951792Y-112864317D01*
X86806480Y-112852228D01*
X86752692Y-112848471D01*
X86636290Y-112837502D01*
X86552556Y-112824266D01*
X86514385Y-112811038D01*
X86514567Y-112806434D01*
X86557385Y-112787004D01*
X86654746Y-112754400D01*
X86799535Y-112710624D01*
X86984635Y-112657681D01*
X87202931Y-112597573D01*
X87447306Y-112532304D01*
X87710645Y-112463877D01*
X87921031Y-112410505D01*
X88583234Y-112252956D01*
X89274048Y-112104586D01*
X89480355Y-112064842D01*
X92302531Y-112064842D01*
X92330550Y-112071469D01*
X92401089Y-112068680D01*
X92437468Y-112064830D01*
X92506910Y-112059447D01*
X92629154Y-112053258D01*
X92793512Y-112046668D01*
X92989300Y-112040079D01*
X93205829Y-112033895D01*
X93350281Y-112030339D01*
X93746307Y-112020922D01*
X94155086Y-112010662D01*
X94571781Y-111999717D01*
X94991556Y-111988242D01*
X95409573Y-111976394D01*
X95820995Y-111964330D01*
X96220986Y-111952206D01*
X96604708Y-111940178D01*
X96967325Y-111928402D01*
X97304000Y-111917036D01*
X97609896Y-111906234D01*
X97880176Y-111896155D01*
X98110004Y-111886954D01*
X98294541Y-111878787D01*
X98428952Y-111871811D01*
X98508399Y-111866182D01*
X98529045Y-111862899D01*
X98529712Y-111859714D01*
X99128781Y-111859714D01*
X99565343Y-111840538D01*
X99689069Y-111835155D01*
X99867386Y-111827470D01*
X100091441Y-111817861D01*
X100352382Y-111806706D01*
X100641355Y-111794384D01*
X100949509Y-111781272D01*
X101267991Y-111767748D01*
X101494156Y-111758161D01*
X101973223Y-111737524D01*
X102392923Y-111718572D01*
X102757353Y-111700928D01*
X103070613Y-111684217D01*
X103336801Y-111668064D01*
X103560016Y-111652092D01*
X103744356Y-111635926D01*
X103893920Y-111619189D01*
X104012807Y-111601507D01*
X104105116Y-111582502D01*
X104174944Y-111561800D01*
X104226391Y-111539024D01*
X104263556Y-111513799D01*
X104275121Y-111503159D01*
X104322954Y-111436370D01*
X104337147Y-111360417D01*
X104314937Y-111270726D01*
X104253562Y-111162721D01*
X104150258Y-111031829D01*
X104002263Y-110873475D01*
X103806814Y-110683085D01*
X103744546Y-110624658D01*
X103499048Y-110400245D01*
X103290131Y-110219366D01*
X103112511Y-110077807D01*
X102960908Y-109971354D01*
X102832863Y-109897219D01*
X102768948Y-109869658D01*
X102690773Y-109845976D01*
X102593493Y-109825895D01*
X102472267Y-109809134D01*
X102322251Y-109795417D01*
X102138603Y-109784464D01*
X101916479Y-109775996D01*
X101651036Y-109769736D01*
X101337433Y-109765404D01*
X100970825Y-109762722D01*
X100546370Y-109761412D01*
X100470218Y-109761308D01*
X99128781Y-109759750D01*
X99128781Y-111859714D01*
X98529712Y-111859714D01*
X98536482Y-111827423D01*
X98548192Y-111737888D01*
X98563325Y-111603527D01*
X98581032Y-111433574D01*
X98600466Y-111237264D01*
X98620777Y-111023830D01*
X98641117Y-110802506D01*
X98660637Y-110582527D01*
X98678488Y-110373125D01*
X98693822Y-110183535D01*
X98705790Y-110022991D01*
X98713544Y-109900726D01*
X98716234Y-109826251D01*
X98716031Y-109718127D01*
X97438093Y-109738409D01*
X97035367Y-109745520D01*
X96690354Y-109753398D01*
X96397271Y-109762500D01*
X96150330Y-109773283D01*
X95943748Y-109786203D01*
X95771738Y-109801717D01*
X95628515Y-109820282D01*
X95508295Y-109842356D01*
X95405291Y-109868394D01*
X95313719Y-109898853D01*
X95289799Y-109908055D01*
X95056717Y-110013734D01*
X94788013Y-110160836D01*
X94481852Y-110350511D01*
X94136399Y-110583912D01*
X93749819Y-110862189D01*
X93643684Y-110941034D01*
X93444070Y-111092378D01*
X93242444Y-111249237D01*
X93045118Y-111406321D01*
X92858407Y-111558337D01*
X92688624Y-111699997D01*
X92542083Y-111826009D01*
X92425098Y-111931084D01*
X92343982Y-112009929D01*
X92305049Y-112057256D01*
X92302531Y-112064842D01*
X89480355Y-112064842D01*
X89958609Y-111972709D01*
X90254656Y-111920810D01*
X90446551Y-111887579D01*
X90624689Y-111855408D01*
X90776357Y-111826693D01*
X90888844Y-111803831D01*
X90944049Y-111790820D01*
X91028007Y-111773451D01*
X91082409Y-111785592D01*
X91125879Y-111821598D01*
X91225633Y-111892923D01*
X91369441Y-111958559D01*
X91537931Y-112009802D01*
X91551953Y-112013031D01*
X91583283Y-112019260D01*
X91614131Y-112020927D01*
X91649797Y-112014972D01*
X91695582Y-111998335D01*
X91756785Y-111967956D01*
X91838706Y-111920775D01*
X91946645Y-111853731D01*
X92085903Y-111763765D01*
X92261777Y-111647817D01*
X92479569Y-111502827D01*
X92744579Y-111325734D01*
X92758831Y-111316204D01*
X93170308Y-111040481D01*
X93530456Y-110797850D01*
X93841263Y-110586911D01*
X94104715Y-110406266D01*
X94322799Y-110254514D01*
X94497502Y-110130254D01*
X94630811Y-110032088D01*
X94724711Y-109958614D01*
X94781191Y-109908434D01*
X94802237Y-109880146D01*
X94802208Y-109876372D01*
X94765772Y-109851113D01*
X94689288Y-109832745D01*
X94657500Y-109829361D01*
X94575940Y-109817509D01*
X94529283Y-109799410D01*
X94525031Y-109792226D01*
X94554145Y-109764860D01*
X94632625Y-109731325D01*
X94747176Y-109695743D01*
X94884503Y-109662237D01*
X95031313Y-109634931D01*
X95033031Y-109634665D01*
X95160836Y-109616909D01*
X95302784Y-109601277D01*
X95462760Y-109587691D01*
X95644648Y-109576077D01*
X95852330Y-109566358D01*
X96089692Y-109558458D01*
X96360618Y-109552300D01*
X96668991Y-109547809D01*
X97018696Y-109544908D01*
X97413616Y-109543522D01*
X97857637Y-109543573D01*
G04 #@! TD*
D12*
G04 #@! TO.C,REF\u002A\u002A*
X122300000Y-157000000D03*
D13*
X122300000Y-157000000D03*
G04 #@! TD*
D12*
G04 #@! TO.C,REF\u002A\u002A*
X68300000Y-157000000D03*
D13*
X68300000Y-157000000D03*
G04 #@! TD*
D12*
G04 #@! TO.C,REF\u002A\u002A*
X59300000Y-70000000D03*
D13*
X59300000Y-70000000D03*
G04 #@! TD*
G04 #@! TO.C,C13*
G36*
G01*
X108188999Y-74687000D02*
X109489001Y-74687000D01*
G75*
G02*
X109739000Y-74936999I0J-249999D01*
G01*
X109739000Y-75762001D01*
G75*
G02*
X109489001Y-76012000I-249999J0D01*
G01*
X108188999Y-76012000D01*
G75*
G02*
X107939000Y-75762001I0J249999D01*
G01*
X107939000Y-74936999D01*
G75*
G02*
X108188999Y-74687000I249999J0D01*
G01*
G37*
G36*
G01*
X108188999Y-71562000D02*
X109489001Y-71562000D01*
G75*
G02*
X109739000Y-71811999I0J-249999D01*
G01*
X109739000Y-72637001D01*
G75*
G02*
X109489001Y-72887000I-249999J0D01*
G01*
X108188999Y-72887000D01*
G75*
G02*
X107939000Y-72637001I0J249999D01*
G01*
X107939000Y-71811999D01*
G75*
G02*
X108188999Y-71562000I249999J0D01*
G01*
G37*
G04 #@! TD*
G04 #@! TO.C,C12*
G36*
G01*
X123179000Y-74279999D02*
X123179000Y-75580001D01*
G75*
G02*
X122929001Y-75830000I-249999J0D01*
G01*
X122103999Y-75830000D01*
G75*
G02*
X121854000Y-75580001I0J249999D01*
G01*
X121854000Y-74279999D01*
G75*
G02*
X122103999Y-74030000I249999J0D01*
G01*
X122929001Y-74030000D01*
G75*
G02*
X123179000Y-74279999I0J-249999D01*
G01*
G37*
G36*
G01*
X126304000Y-74279999D02*
X126304000Y-75580001D01*
G75*
G02*
X126054001Y-75830000I-249999J0D01*
G01*
X125228999Y-75830000D01*
G75*
G02*
X124979000Y-75580001I0J249999D01*
G01*
X124979000Y-74279999D01*
G75*
G02*
X125228999Y-74030000I249999J0D01*
G01*
X126054001Y-74030000D01*
G75*
G02*
X126304000Y-74279999I0J-249999D01*
G01*
G37*
G04 #@! TD*
G04 #@! TO.C,C11*
G36*
G01*
X94218999Y-74814000D02*
X95519001Y-74814000D01*
G75*
G02*
X95769000Y-75063999I0J-249999D01*
G01*
X95769000Y-75889001D01*
G75*
G02*
X95519001Y-76139000I-249999J0D01*
G01*
X94218999Y-76139000D01*
G75*
G02*
X93969000Y-75889001I0J249999D01*
G01*
X93969000Y-75063999D01*
G75*
G02*
X94218999Y-74814000I249999J0D01*
G01*
G37*
G36*
G01*
X94218999Y-71689000D02*
X95519001Y-71689000D01*
G75*
G02*
X95769000Y-71938999I0J-249999D01*
G01*
X95769000Y-72764001D01*
G75*
G02*
X95519001Y-73014000I-249999J0D01*
G01*
X94218999Y-73014000D01*
G75*
G02*
X93969000Y-72764001I0J249999D01*
G01*
X93969000Y-71938999D01*
G75*
G02*
X94218999Y-71689000I249999J0D01*
G01*
G37*
G04 #@! TD*
G04 #@! TO.C,C10*
G36*
G01*
X80248999Y-74687000D02*
X81549001Y-74687000D01*
G75*
G02*
X81799000Y-74936999I0J-249999D01*
G01*
X81799000Y-75762001D01*
G75*
G02*
X81549001Y-76012000I-249999J0D01*
G01*
X80248999Y-76012000D01*
G75*
G02*
X79999000Y-75762001I0J249999D01*
G01*
X79999000Y-74936999D01*
G75*
G02*
X80248999Y-74687000I249999J0D01*
G01*
G37*
G36*
G01*
X80248999Y-71562000D02*
X81549001Y-71562000D01*
G75*
G02*
X81799000Y-71811999I0J-249999D01*
G01*
X81799000Y-72637001D01*
G75*
G02*
X81549001Y-72887000I-249999J0D01*
G01*
X80248999Y-72887000D01*
G75*
G02*
X79999000Y-72637001I0J249999D01*
G01*
X79999000Y-71811999D01*
G75*
G02*
X80248999Y-71562000I249999J0D01*
G01*
G37*
G04 #@! TD*
D14*
G04 #@! TO.C,Q7*
X105791000Y-77700000D03*
X104841000Y-74700000D03*
X106741000Y-74700000D03*
G04 #@! TD*
G04 #@! TO.C,Q5*
X119634000Y-77700000D03*
X118684000Y-74700000D03*
X120584000Y-74700000D03*
G04 #@! TD*
G04 #@! TO.C,Q3*
X91821000Y-77700000D03*
X90871000Y-74700000D03*
X92771000Y-74700000D03*
G04 #@! TD*
G04 #@! TO.C,Q1*
X77851000Y-77573000D03*
X76901000Y-74573000D03*
X78801000Y-74573000D03*
G04 #@! TD*
G04 #@! TO.C,R22*
G36*
G01*
X108194000Y-146394000D02*
X106944000Y-146394000D01*
G75*
G02*
X106694000Y-146144000I0J250000D01*
G01*
X106694000Y-145344000D01*
G75*
G02*
X106944000Y-145094000I250000J0D01*
G01*
X108194000Y-145094000D01*
G75*
G02*
X108444000Y-145344000I0J-250000D01*
G01*
X108444000Y-146144000D01*
G75*
G02*
X108194000Y-146394000I-250000J0D01*
G01*
G37*
G36*
G01*
X108194000Y-149494000D02*
X106944000Y-149494000D01*
G75*
G02*
X106694000Y-149244000I0J250000D01*
G01*
X106694000Y-148444000D01*
G75*
G02*
X106944000Y-148194000I250000J0D01*
G01*
X108194000Y-148194000D01*
G75*
G02*
X108444000Y-148444000I0J-250000D01*
G01*
X108444000Y-149244000D01*
G75*
G02*
X108194000Y-149494000I-250000J0D01*
G01*
G37*
G04 #@! TD*
G04 #@! TO.C,R21*
G36*
G01*
X105781000Y-146420000D02*
X104531000Y-146420000D01*
G75*
G02*
X104281000Y-146170000I0J250000D01*
G01*
X104281000Y-145370000D01*
G75*
G02*
X104531000Y-145120000I250000J0D01*
G01*
X105781000Y-145120000D01*
G75*
G02*
X106031000Y-145370000I0J-250000D01*
G01*
X106031000Y-146170000D01*
G75*
G02*
X105781000Y-146420000I-250000J0D01*
G01*
G37*
G36*
G01*
X105781000Y-149520000D02*
X104531000Y-149520000D01*
G75*
G02*
X104281000Y-149270000I0J250000D01*
G01*
X104281000Y-148470000D01*
G75*
G02*
X104531000Y-148220000I250000J0D01*
G01*
X105781000Y-148220000D01*
G75*
G02*
X106031000Y-148470000I0J-250000D01*
G01*
X106031000Y-149270000D01*
G75*
G02*
X105781000Y-149520000I-250000J0D01*
G01*
G37*
G04 #@! TD*
D15*
G04 #@! TO.C,J2*
X122300000Y-120500000D03*
X122300000Y-116300000D03*
X122300000Y-112100000D03*
X122300000Y-107900000D03*
X127800000Y-120500000D03*
X127800000Y-116300000D03*
X127800000Y-112100000D03*
G36*
G01*
X126200001Y-106550000D02*
X129399999Y-106550000D01*
G75*
G02*
X129650000Y-106800001I0J-250001D01*
G01*
X129650000Y-108999999D01*
G75*
G02*
X129399999Y-109250000I-250001J0D01*
G01*
X126200001Y-109250000D01*
G75*
G02*
X125950000Y-108999999I0J250001D01*
G01*
X125950000Y-106800001D01*
G75*
G02*
X126200001Y-106550000I250001J0D01*
G01*
G37*
G04 #@! TD*
G04 #@! TO.C,J1*
X68300000Y-107900000D03*
X68300000Y-112100000D03*
X68300000Y-116300000D03*
X68300000Y-120500000D03*
X62800000Y-107900000D03*
X62800000Y-112100000D03*
X62800000Y-116300000D03*
G36*
G01*
X64399999Y-121850000D02*
X61200001Y-121850000D01*
G75*
G02*
X60950000Y-121599999I0J250001D01*
G01*
X60950000Y-119400001D01*
G75*
G02*
X61200001Y-119150000I250001J0D01*
G01*
X64399999Y-119150000D01*
G75*
G02*
X64650000Y-119400001I0J-250001D01*
G01*
X64650000Y-121599999D01*
G75*
G02*
X64399999Y-121850000I-250001J0D01*
G01*
G37*
G04 #@! TD*
D16*
G04 #@! TO.C,J3*
X60200000Y-84250000D03*
X60200000Y-74750000D03*
X55500000Y-84250000D03*
X55500000Y-74750000D03*
D17*
X56000000Y-79500000D03*
D18*
X62000000Y-79500000D03*
D19*
X52750000Y-79500000D03*
G04 #@! TD*
D20*
G04 #@! TO.C,U4*
X72508000Y-145098000D03*
X72508000Y-146998000D03*
X69088000Y-146998000D03*
X69088000Y-146048000D03*
X69088000Y-145098000D03*
G04 #@! TD*
G04 #@! TO.C,R20*
G36*
G01*
X107532000Y-126501999D02*
X107532000Y-127752001D01*
G75*
G02*
X107282001Y-128002000I-249999J0D01*
G01*
X106481999Y-128002000D01*
G75*
G02*
X106232000Y-127752001I0J249999D01*
G01*
X106232000Y-126501999D01*
G75*
G02*
X106481999Y-126252000I249999J0D01*
G01*
X107282001Y-126252000D01*
G75*
G02*
X107532000Y-126501999I0J-249999D01*
G01*
G37*
G36*
G01*
X110632000Y-126501999D02*
X110632000Y-127752001D01*
G75*
G02*
X110382001Y-128002000I-249999J0D01*
G01*
X109581999Y-128002000D01*
G75*
G02*
X109332000Y-127752001I0J249999D01*
G01*
X109332000Y-126501999D01*
G75*
G02*
X109581999Y-126252000I249999J0D01*
G01*
X110382001Y-126252000D01*
G75*
G02*
X110632000Y-126501999I0J-249999D01*
G01*
G37*
G04 #@! TD*
G04 #@! TO.C,R19*
G36*
G01*
X107558000Y-131581999D02*
X107558000Y-132832001D01*
G75*
G02*
X107308001Y-133082000I-249999J0D01*
G01*
X106507999Y-133082000D01*
G75*
G02*
X106258000Y-132832001I0J249999D01*
G01*
X106258000Y-131581999D01*
G75*
G02*
X106507999Y-131332000I249999J0D01*
G01*
X107308001Y-131332000D01*
G75*
G02*
X107558000Y-131581999I0J-249999D01*
G01*
G37*
G36*
G01*
X110658000Y-131581999D02*
X110658000Y-132832001D01*
G75*
G02*
X110408001Y-133082000I-249999J0D01*
G01*
X109607999Y-133082000D01*
G75*
G02*
X109358000Y-132832001I0J249999D01*
G01*
X109358000Y-131581999D01*
G75*
G02*
X109607999Y-131332000I249999J0D01*
G01*
X110408001Y-131332000D01*
G75*
G02*
X110658000Y-131581999I0J-249999D01*
G01*
G37*
G04 #@! TD*
G04 #@! TO.C,R18*
G36*
G01*
X83170000Y-132832001D02*
X83170000Y-131581999D01*
G75*
G02*
X83419999Y-131332000I249999J0D01*
G01*
X84220001Y-131332000D01*
G75*
G02*
X84470000Y-131581999I0J-249999D01*
G01*
X84470000Y-132832001D01*
G75*
G02*
X84220001Y-133082000I-249999J0D01*
G01*
X83419999Y-133082000D01*
G75*
G02*
X83170000Y-132832001I0J249999D01*
G01*
G37*
G36*
G01*
X80070000Y-132832001D02*
X80070000Y-131581999D01*
G75*
G02*
X80319999Y-131332000I249999J0D01*
G01*
X81120001Y-131332000D01*
G75*
G02*
X81370000Y-131581999I0J-249999D01*
G01*
X81370000Y-132832001D01*
G75*
G02*
X81120001Y-133082000I-249999J0D01*
G01*
X80319999Y-133082000D01*
G75*
G02*
X80070000Y-132832001I0J249999D01*
G01*
G37*
G04 #@! TD*
G04 #@! TO.C,R17*
G36*
G01*
X83170000Y-127752001D02*
X83170000Y-126501999D01*
G75*
G02*
X83419999Y-126252000I249999J0D01*
G01*
X84220001Y-126252000D01*
G75*
G02*
X84470000Y-126501999I0J-249999D01*
G01*
X84470000Y-127752001D01*
G75*
G02*
X84220001Y-128002000I-249999J0D01*
G01*
X83419999Y-128002000D01*
G75*
G02*
X83170000Y-127752001I0J249999D01*
G01*
G37*
G36*
G01*
X80070000Y-127752001D02*
X80070000Y-126501999D01*
G75*
G02*
X80319999Y-126252000I249999J0D01*
G01*
X81120001Y-126252000D01*
G75*
G02*
X81370000Y-126501999I0J-249999D01*
G01*
X81370000Y-127752001D01*
G75*
G02*
X81120001Y-128002000I-249999J0D01*
G01*
X80319999Y-128002000D01*
G75*
G02*
X80070000Y-127752001I0J249999D01*
G01*
G37*
G04 #@! TD*
G04 #@! TO.C,C9*
G36*
G01*
X73294003Y-140830000D02*
X71993997Y-140830000D01*
G75*
G02*
X71744000Y-140580003I0J249997D01*
G01*
X71744000Y-139754997D01*
G75*
G02*
X71993997Y-139505000I249997J0D01*
G01*
X73294003Y-139505000D01*
G75*
G02*
X73544000Y-139754997I0J-249997D01*
G01*
X73544000Y-140580003D01*
G75*
G02*
X73294003Y-140830000I-249997J0D01*
G01*
G37*
G36*
G01*
X73294003Y-143955000D02*
X71993997Y-143955000D01*
G75*
G02*
X71744000Y-143705003I0J249997D01*
G01*
X71744000Y-142879997D01*
G75*
G02*
X71993997Y-142630000I249997J0D01*
G01*
X73294003Y-142630000D01*
G75*
G02*
X73544000Y-142879997I0J-249997D01*
G01*
X73544000Y-143705003D01*
G75*
G02*
X73294003Y-143955000I-249997J0D01*
G01*
G37*
G04 #@! TD*
G04 #@! TO.C,C8*
G36*
G01*
X68214003Y-140791500D02*
X66913997Y-140791500D01*
G75*
G02*
X66664000Y-140541503I0J249997D01*
G01*
X66664000Y-139716497D01*
G75*
G02*
X66913997Y-139466500I249997J0D01*
G01*
X68214003Y-139466500D01*
G75*
G02*
X68464000Y-139716497I0J-249997D01*
G01*
X68464000Y-140541503D01*
G75*
G02*
X68214003Y-140791500I-249997J0D01*
G01*
G37*
G36*
G01*
X68214003Y-143916500D02*
X66913997Y-143916500D01*
G75*
G02*
X66664000Y-143666503I0J249997D01*
G01*
X66664000Y-142841497D01*
G75*
G02*
X66913997Y-142591500I249997J0D01*
G01*
X68214003Y-142591500D01*
G75*
G02*
X68464000Y-142841497I0J-249997D01*
G01*
X68464000Y-143666503D01*
G75*
G02*
X68214003Y-143916500I-249997J0D01*
G01*
G37*
G04 #@! TD*
G04 #@! TO.C,C7*
G36*
G01*
X103223500Y-126378003D02*
X103223500Y-125077997D01*
G75*
G02*
X103473497Y-124828000I249997J0D01*
G01*
X104298503Y-124828000D01*
G75*
G02*
X104548500Y-125077997I0J-249997D01*
G01*
X104548500Y-126378003D01*
G75*
G02*
X104298503Y-126628000I-249997J0D01*
G01*
X103473497Y-126628000D01*
G75*
G02*
X103223500Y-126378003I0J249997D01*
G01*
G37*
G36*
G01*
X100098500Y-126378003D02*
X100098500Y-125077997D01*
G75*
G02*
X100348497Y-124828000I249997J0D01*
G01*
X101173503Y-124828000D01*
G75*
G02*
X101423500Y-125077997I0J-249997D01*
G01*
X101423500Y-126378003D01*
G75*
G02*
X101173503Y-126628000I-249997J0D01*
G01*
X100348497Y-126628000D01*
G75*
G02*
X100098500Y-126378003I0J249997D01*
G01*
G37*
G04 #@! TD*
G04 #@! TO.C,C6*
G36*
G01*
X103262000Y-134252003D02*
X103262000Y-132951997D01*
G75*
G02*
X103511997Y-132702000I249997J0D01*
G01*
X104337003Y-132702000D01*
G75*
G02*
X104587000Y-132951997I0J-249997D01*
G01*
X104587000Y-134252003D01*
G75*
G02*
X104337003Y-134502000I-249997J0D01*
G01*
X103511997Y-134502000D01*
G75*
G02*
X103262000Y-134252003I0J249997D01*
G01*
G37*
G36*
G01*
X100137000Y-134252003D02*
X100137000Y-132951997D01*
G75*
G02*
X100386997Y-132702000I249997J0D01*
G01*
X101212003Y-132702000D01*
G75*
G02*
X101462000Y-132951997I0J-249997D01*
G01*
X101462000Y-134252003D01*
G75*
G02*
X101212003Y-134502000I-249997J0D01*
G01*
X100386997Y-134502000D01*
G75*
G02*
X100137000Y-134252003I0J249997D01*
G01*
G37*
G04 #@! TD*
G04 #@! TO.C,C5*
G36*
G01*
X87492000Y-132951997D02*
X87492000Y-134252003D01*
G75*
G02*
X87242003Y-134502000I-249997J0D01*
G01*
X86416997Y-134502000D01*
G75*
G02*
X86167000Y-134252003I0J249997D01*
G01*
X86167000Y-132951997D01*
G75*
G02*
X86416997Y-132702000I249997J0D01*
G01*
X87242003Y-132702000D01*
G75*
G02*
X87492000Y-132951997I0J-249997D01*
G01*
G37*
G36*
G01*
X90617000Y-132951997D02*
X90617000Y-134252003D01*
G75*
G02*
X90367003Y-134502000I-249997J0D01*
G01*
X89541997Y-134502000D01*
G75*
G02*
X89292000Y-134252003I0J249997D01*
G01*
X89292000Y-132951997D01*
G75*
G02*
X89541997Y-132702000I249997J0D01*
G01*
X90367003Y-132702000D01*
G75*
G02*
X90617000Y-132951997I0J-249997D01*
G01*
G37*
G04 #@! TD*
G04 #@! TO.C,C4*
G36*
G01*
X87492000Y-125077997D02*
X87492000Y-126378003D01*
G75*
G02*
X87242003Y-126628000I-249997J0D01*
G01*
X86416997Y-126628000D01*
G75*
G02*
X86167000Y-126378003I0J249997D01*
G01*
X86167000Y-125077997D01*
G75*
G02*
X86416997Y-124828000I249997J0D01*
G01*
X87242003Y-124828000D01*
G75*
G02*
X87492000Y-125077997I0J-249997D01*
G01*
G37*
G36*
G01*
X90617000Y-125077997D02*
X90617000Y-126378003D01*
G75*
G02*
X90367003Y-126628000I-249997J0D01*
G01*
X89541997Y-126628000D01*
G75*
G02*
X89292000Y-126378003I0J249997D01*
G01*
X89292000Y-125077997D01*
G75*
G02*
X89541997Y-124828000I249997J0D01*
G01*
X90367003Y-124828000D01*
G75*
G02*
X90617000Y-125077997I0J-249997D01*
G01*
G37*
G04 #@! TD*
D21*
G04 #@! TO.C,J4*
X111203740Y-141351000D03*
X109202220Y-141351000D03*
X107205780Y-141351000D03*
D22*
X105204260Y-141351000D03*
G04 #@! TD*
D23*
G04 #@! TO.C,Q2*
X75946000Y-98879000D03*
D24*
X73406000Y-89729000D03*
X78486000Y-89729000D03*
G04 #@! TD*
G04 #@! TO.C,R15*
G36*
G01*
X103262000Y-131433001D02*
X103262000Y-130182999D01*
G75*
G02*
X103511999Y-129933000I249999J0D01*
G01*
X104312001Y-129933000D01*
G75*
G02*
X104562000Y-130182999I0J-249999D01*
G01*
X104562000Y-131433001D01*
G75*
G02*
X104312001Y-131683000I-249999J0D01*
G01*
X103511999Y-131683000D01*
G75*
G02*
X103262000Y-131433001I0J249999D01*
G01*
G37*
G36*
G01*
X100162000Y-131433001D02*
X100162000Y-130182999D01*
G75*
G02*
X100411999Y-129933000I249999J0D01*
G01*
X101212001Y-129933000D01*
G75*
G02*
X101462000Y-130182999I0J-249999D01*
G01*
X101462000Y-131433001D01*
G75*
G02*
X101212001Y-131683000I-249999J0D01*
G01*
X100411999Y-131683000D01*
G75*
G02*
X100162000Y-131433001I0J249999D01*
G01*
G37*
G04 #@! TD*
D25*
G04 #@! TO.C,U2*
X65346000Y-132840000D03*
D26*
X59046000Y-135120000D03*
X59046000Y-130560000D03*
G04 #@! TD*
G04 #@! TO.C,R16*
G36*
G01*
X103262000Y-129149001D02*
X103262000Y-127898999D01*
G75*
G02*
X103511999Y-127649000I249999J0D01*
G01*
X104312001Y-127649000D01*
G75*
G02*
X104562000Y-127898999I0J-249999D01*
G01*
X104562000Y-129149001D01*
G75*
G02*
X104312001Y-129399000I-249999J0D01*
G01*
X103511999Y-129399000D01*
G75*
G02*
X103262000Y-129149001I0J249999D01*
G01*
G37*
G36*
G01*
X100162000Y-129149001D02*
X100162000Y-127898999D01*
G75*
G02*
X100411999Y-127649000I249999J0D01*
G01*
X101212001Y-127649000D01*
G75*
G02*
X101462000Y-127898999I0J-249999D01*
G01*
X101462000Y-129149001D01*
G75*
G02*
X101212001Y-129399000I-249999J0D01*
G01*
X100411999Y-129399000D01*
G75*
G02*
X100162000Y-129149001I0J249999D01*
G01*
G37*
G04 #@! TD*
G04 #@! TO.C,R14*
G36*
G01*
X87492000Y-130182999D02*
X87492000Y-131433001D01*
G75*
G02*
X87242001Y-131683000I-249999J0D01*
G01*
X86441999Y-131683000D01*
G75*
G02*
X86192000Y-131433001I0J249999D01*
G01*
X86192000Y-130182999D01*
G75*
G02*
X86441999Y-129933000I249999J0D01*
G01*
X87242001Y-129933000D01*
G75*
G02*
X87492000Y-130182999I0J-249999D01*
G01*
G37*
G36*
G01*
X90592000Y-130182999D02*
X90592000Y-131433001D01*
G75*
G02*
X90342001Y-131683000I-249999J0D01*
G01*
X89541999Y-131683000D01*
G75*
G02*
X89292000Y-131433001I0J249999D01*
G01*
X89292000Y-130182999D01*
G75*
G02*
X89541999Y-129933000I249999J0D01*
G01*
X90342001Y-129933000D01*
G75*
G02*
X90592000Y-130182999I0J-249999D01*
G01*
G37*
G04 #@! TD*
G04 #@! TO.C,R13*
G36*
G01*
X87492000Y-127898999D02*
X87492000Y-129149001D01*
G75*
G02*
X87242001Y-129399000I-249999J0D01*
G01*
X86441999Y-129399000D01*
G75*
G02*
X86192000Y-129149001I0J249999D01*
G01*
X86192000Y-127898999D01*
G75*
G02*
X86441999Y-127649000I249999J0D01*
G01*
X87242001Y-127649000D01*
G75*
G02*
X87492000Y-127898999I0J-249999D01*
G01*
G37*
G36*
G01*
X90592000Y-127898999D02*
X90592000Y-129149001D01*
G75*
G02*
X90342001Y-129399000I-249999J0D01*
G01*
X89541999Y-129399000D01*
G75*
G02*
X89292000Y-129149001I0J249999D01*
G01*
X89292000Y-127898999D01*
G75*
G02*
X89541999Y-127649000I249999J0D01*
G01*
X90342001Y-127649000D01*
G75*
G02*
X90592000Y-127898999I0J-249999D01*
G01*
G37*
G04 #@! TD*
G04 #@! TO.C,R12*
G36*
G01*
X102119000Y-78222001D02*
X102119000Y-76971999D01*
G75*
G02*
X102368999Y-76722000I249999J0D01*
G01*
X103169001Y-76722000D01*
G75*
G02*
X103419000Y-76971999I0J-249999D01*
G01*
X103419000Y-78222001D01*
G75*
G02*
X103169001Y-78472000I-249999J0D01*
G01*
X102368999Y-78472000D01*
G75*
G02*
X102119000Y-78222001I0J249999D01*
G01*
G37*
G36*
G01*
X99019000Y-78222001D02*
X99019000Y-76971999D01*
G75*
G02*
X99268999Y-76722000I249999J0D01*
G01*
X100069001Y-76722000D01*
G75*
G02*
X100319000Y-76971999I0J-249999D01*
G01*
X100319000Y-78222001D01*
G75*
G02*
X100069001Y-78472000I-249999J0D01*
G01*
X99268999Y-78472000D01*
G75*
G02*
X99019000Y-78222001I0J249999D01*
G01*
G37*
G04 #@! TD*
G04 #@! TO.C,R11*
G36*
G01*
X110626999Y-74687000D02*
X111877001Y-74687000D01*
G75*
G02*
X112127000Y-74936999I0J-249999D01*
G01*
X112127000Y-75737001D01*
G75*
G02*
X111877001Y-75987000I-249999J0D01*
G01*
X110626999Y-75987000D01*
G75*
G02*
X110377000Y-75737001I0J249999D01*
G01*
X110377000Y-74936999D01*
G75*
G02*
X110626999Y-74687000I249999J0D01*
G01*
G37*
G36*
G01*
X110626999Y-71587000D02*
X111877001Y-71587000D01*
G75*
G02*
X112127000Y-71836999I0J-249999D01*
G01*
X112127000Y-72637001D01*
G75*
G02*
X111877001Y-72887000I-249999J0D01*
G01*
X110626999Y-72887000D01*
G75*
G02*
X110377000Y-72637001I0J249999D01*
G01*
X110377000Y-71836999D01*
G75*
G02*
X110626999Y-71587000I249999J0D01*
G01*
G37*
G04 #@! TD*
G04 #@! TO.C,R10*
G36*
G01*
X102246000Y-72761001D02*
X102246000Y-71510999D01*
G75*
G02*
X102495999Y-71261000I249999J0D01*
G01*
X103296001Y-71261000D01*
G75*
G02*
X103546000Y-71510999I0J-249999D01*
G01*
X103546000Y-72761001D01*
G75*
G02*
X103296001Y-73011000I-249999J0D01*
G01*
X102495999Y-73011000D01*
G75*
G02*
X102246000Y-72761001I0J249999D01*
G01*
G37*
G36*
G01*
X99146000Y-72761001D02*
X99146000Y-71510999D01*
G75*
G02*
X99395999Y-71261000I249999J0D01*
G01*
X100196001Y-71261000D01*
G75*
G02*
X100446000Y-71510999I0J-249999D01*
G01*
X100446000Y-72761001D01*
G75*
G02*
X100196001Y-73011000I-249999J0D01*
G01*
X99395999Y-73011000D01*
G75*
G02*
X99146000Y-72761001I0J249999D01*
G01*
G37*
G04 #@! TD*
G04 #@! TO.C,R9*
G36*
G01*
X116089000Y-78222001D02*
X116089000Y-76971999D01*
G75*
G02*
X116338999Y-76722000I249999J0D01*
G01*
X117139001Y-76722000D01*
G75*
G02*
X117389000Y-76971999I0J-249999D01*
G01*
X117389000Y-78222001D01*
G75*
G02*
X117139001Y-78472000I-249999J0D01*
G01*
X116338999Y-78472000D01*
G75*
G02*
X116089000Y-78222001I0J249999D01*
G01*
G37*
G36*
G01*
X112989000Y-78222001D02*
X112989000Y-76971999D01*
G75*
G02*
X113238999Y-76722000I249999J0D01*
G01*
X114039001Y-76722000D01*
G75*
G02*
X114289000Y-76971999I0J-249999D01*
G01*
X114289000Y-78222001D01*
G75*
G02*
X114039001Y-78472000I-249999J0D01*
G01*
X113238999Y-78472000D01*
G75*
G02*
X112989000Y-78222001I0J249999D01*
G01*
G37*
G04 #@! TD*
G04 #@! TO.C,R8*
G36*
G01*
X123179000Y-76717999D02*
X123179000Y-77968001D01*
G75*
G02*
X122929001Y-78218000I-249999J0D01*
G01*
X122128999Y-78218000D01*
G75*
G02*
X121879000Y-77968001I0J249999D01*
G01*
X121879000Y-76717999D01*
G75*
G02*
X122128999Y-76468000I249999J0D01*
G01*
X122929001Y-76468000D01*
G75*
G02*
X123179000Y-76717999I0J-249999D01*
G01*
G37*
G36*
G01*
X126279000Y-76717999D02*
X126279000Y-77968001D01*
G75*
G02*
X126029001Y-78218000I-249999J0D01*
G01*
X125228999Y-78218000D01*
G75*
G02*
X124979000Y-77968001I0J249999D01*
G01*
X124979000Y-76717999D01*
G75*
G02*
X125228999Y-76468000I249999J0D01*
G01*
X126029001Y-76468000D01*
G75*
G02*
X126279000Y-76717999I0J-249999D01*
G01*
G37*
G04 #@! TD*
G04 #@! TO.C,R7*
G36*
G01*
X116089000Y-72761001D02*
X116089000Y-71510999D01*
G75*
G02*
X116338999Y-71261000I249999J0D01*
G01*
X117139001Y-71261000D01*
G75*
G02*
X117389000Y-71510999I0J-249999D01*
G01*
X117389000Y-72761001D01*
G75*
G02*
X117139001Y-73011000I-249999J0D01*
G01*
X116338999Y-73011000D01*
G75*
G02*
X116089000Y-72761001I0J249999D01*
G01*
G37*
G36*
G01*
X112989000Y-72761001D02*
X112989000Y-71510999D01*
G75*
G02*
X113238999Y-71261000I249999J0D01*
G01*
X114039001Y-71261000D01*
G75*
G02*
X114289000Y-71510999I0J-249999D01*
G01*
X114289000Y-72761001D01*
G75*
G02*
X114039001Y-73011000I-249999J0D01*
G01*
X113238999Y-73011000D01*
G75*
G02*
X112989000Y-72761001I0J249999D01*
G01*
G37*
G04 #@! TD*
G04 #@! TO.C,R6*
G36*
G01*
X86349000Y-76971999D02*
X86349000Y-78222001D01*
G75*
G02*
X86099001Y-78472000I-249999J0D01*
G01*
X85298999Y-78472000D01*
G75*
G02*
X85049000Y-78222001I0J249999D01*
G01*
X85049000Y-76971999D01*
G75*
G02*
X85298999Y-76722000I249999J0D01*
G01*
X86099001Y-76722000D01*
G75*
G02*
X86349000Y-76971999I0J-249999D01*
G01*
G37*
G36*
G01*
X89449000Y-76971999D02*
X89449000Y-78222001D01*
G75*
G02*
X89199001Y-78472000I-249999J0D01*
G01*
X88398999Y-78472000D01*
G75*
G02*
X88149000Y-78222001I0J249999D01*
G01*
X88149000Y-76971999D01*
G75*
G02*
X88398999Y-76722000I249999J0D01*
G01*
X89199001Y-76722000D01*
G75*
G02*
X89449000Y-76971999I0J-249999D01*
G01*
G37*
G04 #@! TD*
G04 #@! TO.C,R5*
G36*
G01*
X96656999Y-74788000D02*
X97907001Y-74788000D01*
G75*
G02*
X98157000Y-75037999I0J-249999D01*
G01*
X98157000Y-75838001D01*
G75*
G02*
X97907001Y-76088000I-249999J0D01*
G01*
X96656999Y-76088000D01*
G75*
G02*
X96407000Y-75838001I0J249999D01*
G01*
X96407000Y-75037999D01*
G75*
G02*
X96656999Y-74788000I249999J0D01*
G01*
G37*
G36*
G01*
X96656999Y-71688000D02*
X97907001Y-71688000D01*
G75*
G02*
X98157000Y-71937999I0J-249999D01*
G01*
X98157000Y-72738001D01*
G75*
G02*
X97907001Y-72988000I-249999J0D01*
G01*
X96656999Y-72988000D01*
G75*
G02*
X96407000Y-72738001I0J249999D01*
G01*
X96407000Y-71937999D01*
G75*
G02*
X96656999Y-71688000I249999J0D01*
G01*
G37*
G04 #@! TD*
G04 #@! TO.C,R4*
G36*
G01*
X88149000Y-72761001D02*
X88149000Y-71510999D01*
G75*
G02*
X88398999Y-71261000I249999J0D01*
G01*
X89199001Y-71261000D01*
G75*
G02*
X89449000Y-71510999I0J-249999D01*
G01*
X89449000Y-72761001D01*
G75*
G02*
X89199001Y-73011000I-249999J0D01*
G01*
X88398999Y-73011000D01*
G75*
G02*
X88149000Y-72761001I0J249999D01*
G01*
G37*
G36*
G01*
X85049000Y-72761001D02*
X85049000Y-71510999D01*
G75*
G02*
X85298999Y-71261000I249999J0D01*
G01*
X86099001Y-71261000D01*
G75*
G02*
X86349000Y-71510999I0J-249999D01*
G01*
X86349000Y-72761001D01*
G75*
G02*
X86099001Y-73011000I-249999J0D01*
G01*
X85298999Y-73011000D01*
G75*
G02*
X85049000Y-72761001I0J249999D01*
G01*
G37*
G04 #@! TD*
G04 #@! TO.C,R3*
G36*
G01*
X74306000Y-78222001D02*
X74306000Y-76971999D01*
G75*
G02*
X74555999Y-76722000I249999J0D01*
G01*
X75356001Y-76722000D01*
G75*
G02*
X75606000Y-76971999I0J-249999D01*
G01*
X75606000Y-78222001D01*
G75*
G02*
X75356001Y-78472000I-249999J0D01*
G01*
X74555999Y-78472000D01*
G75*
G02*
X74306000Y-78222001I0J249999D01*
G01*
G37*
G36*
G01*
X71206000Y-78222001D02*
X71206000Y-76971999D01*
G75*
G02*
X71455999Y-76722000I249999J0D01*
G01*
X72256001Y-76722000D01*
G75*
G02*
X72506000Y-76971999I0J-249999D01*
G01*
X72506000Y-78222001D01*
G75*
G02*
X72256001Y-78472000I-249999J0D01*
G01*
X71455999Y-78472000D01*
G75*
G02*
X71206000Y-78222001I0J249999D01*
G01*
G37*
G04 #@! TD*
G04 #@! TO.C,R2*
G36*
G01*
X82686999Y-74687000D02*
X83937001Y-74687000D01*
G75*
G02*
X84187000Y-74936999I0J-249999D01*
G01*
X84187000Y-75737001D01*
G75*
G02*
X83937001Y-75987000I-249999J0D01*
G01*
X82686999Y-75987000D01*
G75*
G02*
X82437000Y-75737001I0J249999D01*
G01*
X82437000Y-74936999D01*
G75*
G02*
X82686999Y-74687000I249999J0D01*
G01*
G37*
G36*
G01*
X82686999Y-71587000D02*
X83937001Y-71587000D01*
G75*
G02*
X84187000Y-71836999I0J-249999D01*
G01*
X84187000Y-72637001D01*
G75*
G02*
X83937001Y-72887000I-249999J0D01*
G01*
X82686999Y-72887000D01*
G75*
G02*
X82437000Y-72637001I0J249999D01*
G01*
X82437000Y-71836999D01*
G75*
G02*
X82686999Y-71587000I249999J0D01*
G01*
G37*
G04 #@! TD*
G04 #@! TO.C,R1*
G36*
G01*
X74306000Y-72761001D02*
X74306000Y-71510999D01*
G75*
G02*
X74555999Y-71261000I249999J0D01*
G01*
X75356001Y-71261000D01*
G75*
G02*
X75606000Y-71510999I0J-249999D01*
G01*
X75606000Y-72761001D01*
G75*
G02*
X75356001Y-73011000I-249999J0D01*
G01*
X74555999Y-73011000D01*
G75*
G02*
X74306000Y-72761001I0J249999D01*
G01*
G37*
G36*
G01*
X71206000Y-72761001D02*
X71206000Y-71510999D01*
G75*
G02*
X71455999Y-71261000I249999J0D01*
G01*
X72256001Y-71261000D01*
G75*
G02*
X72506000Y-71510999I0J-249999D01*
G01*
X72506000Y-72761001D01*
G75*
G02*
X72256001Y-73011000I-249999J0D01*
G01*
X71455999Y-73011000D01*
G75*
G02*
X71206000Y-72761001I0J249999D01*
G01*
G37*
G04 #@! TD*
G04 #@! TO.C,FB2*
G36*
G01*
X65498000Y-126299999D02*
X65498000Y-127700001D01*
G75*
G02*
X65248001Y-127950000I-249999J0D01*
G01*
X64522999Y-127950000D01*
G75*
G02*
X64273000Y-127700001I0J249999D01*
G01*
X64273000Y-126299999D01*
G75*
G02*
X64522999Y-126050000I249999J0D01*
G01*
X65248001Y-126050000D01*
G75*
G02*
X65498000Y-126299999I0J-249999D01*
G01*
G37*
G36*
G01*
X68823000Y-126299999D02*
X68823000Y-127700001D01*
G75*
G02*
X68573001Y-127950000I-249999J0D01*
G01*
X67847999Y-127950000D01*
G75*
G02*
X67598000Y-127700001I0J249999D01*
G01*
X67598000Y-126299999D01*
G75*
G02*
X67847999Y-126050000I249999J0D01*
G01*
X68573001Y-126050000D01*
G75*
G02*
X68823000Y-126299999I0J-249999D01*
G01*
G37*
G04 #@! TD*
G04 #@! TO.C,FB1*
G36*
G01*
X59656000Y-137219999D02*
X59656000Y-138620001D01*
G75*
G02*
X59406001Y-138870000I-249999J0D01*
G01*
X58680999Y-138870000D01*
G75*
G02*
X58431000Y-138620001I0J249999D01*
G01*
X58431000Y-137219999D01*
G75*
G02*
X58680999Y-136970000I249999J0D01*
G01*
X59406001Y-136970000D01*
G75*
G02*
X59656000Y-137219999I0J-249999D01*
G01*
G37*
G36*
G01*
X62981000Y-137219999D02*
X62981000Y-138620001D01*
G75*
G02*
X62731001Y-138870000I-249999J0D01*
G01*
X62005999Y-138870000D01*
G75*
G02*
X61756000Y-138620001I0J249999D01*
G01*
X61756000Y-137219999D01*
G75*
G02*
X62005999Y-136970000I249999J0D01*
G01*
X62731001Y-136970000D01*
G75*
G02*
X62981000Y-137219999I0J-249999D01*
G01*
G37*
G04 #@! TD*
G04 #@! TO.C,D4*
G36*
G01*
X101994000Y-75301000D02*
X101994000Y-74051000D01*
G75*
G02*
X102244000Y-73801000I250000J0D01*
G01*
X103169000Y-73801000D01*
G75*
G02*
X103419000Y-74051000I0J-250000D01*
G01*
X103419000Y-75301000D01*
G75*
G02*
X103169000Y-75551000I-250000J0D01*
G01*
X102244000Y-75551000D01*
G75*
G02*
X101994000Y-75301000I0J250000D01*
G01*
G37*
G36*
G01*
X99019000Y-75301000D02*
X99019000Y-74051000D01*
G75*
G02*
X99269000Y-73801000I250000J0D01*
G01*
X100194000Y-73801000D01*
G75*
G02*
X100444000Y-74051000I0J-250000D01*
G01*
X100444000Y-75301000D01*
G75*
G02*
X100194000Y-75551000I-250000J0D01*
G01*
X99269000Y-75551000D01*
G75*
G02*
X99019000Y-75301000I0J250000D01*
G01*
G37*
G04 #@! TD*
G04 #@! TO.C,D3*
G36*
G01*
X115964000Y-75301000D02*
X115964000Y-74051000D01*
G75*
G02*
X116214000Y-73801000I250000J0D01*
G01*
X117139000Y-73801000D01*
G75*
G02*
X117389000Y-74051000I0J-250000D01*
G01*
X117389000Y-75301000D01*
G75*
G02*
X117139000Y-75551000I-250000J0D01*
G01*
X116214000Y-75551000D01*
G75*
G02*
X115964000Y-75301000I0J250000D01*
G01*
G37*
G36*
G01*
X112989000Y-75301000D02*
X112989000Y-74051000D01*
G75*
G02*
X113239000Y-73801000I250000J0D01*
G01*
X114164000Y-73801000D01*
G75*
G02*
X114414000Y-74051000I0J-250000D01*
G01*
X114414000Y-75301000D01*
G75*
G02*
X114164000Y-75551000I-250000J0D01*
G01*
X113239000Y-75551000D01*
G75*
G02*
X112989000Y-75301000I0J250000D01*
G01*
G37*
G04 #@! TD*
G04 #@! TO.C,D2*
G36*
G01*
X88024000Y-75301000D02*
X88024000Y-74051000D01*
G75*
G02*
X88274000Y-73801000I250000J0D01*
G01*
X89199000Y-73801000D01*
G75*
G02*
X89449000Y-74051000I0J-250000D01*
G01*
X89449000Y-75301000D01*
G75*
G02*
X89199000Y-75551000I-250000J0D01*
G01*
X88274000Y-75551000D01*
G75*
G02*
X88024000Y-75301000I0J250000D01*
G01*
G37*
G36*
G01*
X85049000Y-75301000D02*
X85049000Y-74051000D01*
G75*
G02*
X85299000Y-73801000I250000J0D01*
G01*
X86224000Y-73801000D01*
G75*
G02*
X86474000Y-74051000I0J-250000D01*
G01*
X86474000Y-75301000D01*
G75*
G02*
X86224000Y-75551000I-250000J0D01*
G01*
X85299000Y-75551000D01*
G75*
G02*
X85049000Y-75301000I0J250000D01*
G01*
G37*
G04 #@! TD*
G04 #@! TO.C,D1*
G36*
G01*
X74181000Y-75301000D02*
X74181000Y-74051000D01*
G75*
G02*
X74431000Y-73801000I250000J0D01*
G01*
X75356000Y-73801000D01*
G75*
G02*
X75606000Y-74051000I0J-250000D01*
G01*
X75606000Y-75301000D01*
G75*
G02*
X75356000Y-75551000I-250000J0D01*
G01*
X74431000Y-75551000D01*
G75*
G02*
X74181000Y-75301000I0J250000D01*
G01*
G37*
G36*
G01*
X71206000Y-75301000D02*
X71206000Y-74051000D01*
G75*
G02*
X71456000Y-73801000I250000J0D01*
G01*
X72381000Y-73801000D01*
G75*
G02*
X72631000Y-74051000I0J-250000D01*
G01*
X72631000Y-75301000D01*
G75*
G02*
X72381000Y-75551000I-250000J0D01*
G01*
X71456000Y-75551000D01*
G75*
G02*
X71206000Y-75301000I0J250000D01*
G01*
G37*
G04 #@! TD*
G04 #@! TO.C,C3*
G36*
G01*
X94350000Y-125077997D02*
X94350000Y-126378003D01*
G75*
G02*
X94100003Y-126628000I-249997J0D01*
G01*
X93274997Y-126628000D01*
G75*
G02*
X93025000Y-126378003I0J249997D01*
G01*
X93025000Y-125077997D01*
G75*
G02*
X93274997Y-124828000I249997J0D01*
G01*
X94100003Y-124828000D01*
G75*
G02*
X94350000Y-125077997I0J-249997D01*
G01*
G37*
G36*
G01*
X97475000Y-125077997D02*
X97475000Y-126378003D01*
G75*
G02*
X97225003Y-126628000I-249997J0D01*
G01*
X96399997Y-126628000D01*
G75*
G02*
X96150000Y-126378003I0J249997D01*
G01*
X96150000Y-125077997D01*
G75*
G02*
X96399997Y-124828000I249997J0D01*
G01*
X97225003Y-124828000D01*
G75*
G02*
X97475000Y-125077997I0J-249997D01*
G01*
G37*
G04 #@! TD*
G04 #@! TO.C,C2*
G36*
G01*
X66940000Y-138570003D02*
X66940000Y-137269997D01*
G75*
G02*
X67189997Y-137020000I249997J0D01*
G01*
X68015003Y-137020000D01*
G75*
G02*
X68265000Y-137269997I0J-249997D01*
G01*
X68265000Y-138570003D01*
G75*
G02*
X68015003Y-138820000I-249997J0D01*
G01*
X67189997Y-138820000D01*
G75*
G02*
X66940000Y-138570003I0J249997D01*
G01*
G37*
G36*
G01*
X63815000Y-138570003D02*
X63815000Y-137269997D01*
G75*
G02*
X64064997Y-137020000I249997J0D01*
G01*
X64890003Y-137020000D01*
G75*
G02*
X65140000Y-137269997I0J-249997D01*
G01*
X65140000Y-138570003D01*
G75*
G02*
X64890003Y-138820000I-249997J0D01*
G01*
X64064997Y-138820000D01*
G75*
G02*
X63815000Y-138570003I0J249997D01*
G01*
G37*
G04 #@! TD*
G04 #@! TO.C,C1*
G36*
G01*
X61098000Y-127650003D02*
X61098000Y-126349997D01*
G75*
G02*
X61347997Y-126100000I249997J0D01*
G01*
X62173003Y-126100000D01*
G75*
G02*
X62423000Y-126349997I0J-249997D01*
G01*
X62423000Y-127650003D01*
G75*
G02*
X62173003Y-127900000I-249997J0D01*
G01*
X61347997Y-127900000D01*
G75*
G02*
X61098000Y-127650003I0J249997D01*
G01*
G37*
G36*
G01*
X57973000Y-127650003D02*
X57973000Y-126349997D01*
G75*
G02*
X58222997Y-126100000I249997J0D01*
G01*
X59048003Y-126100000D01*
G75*
G02*
X59298000Y-126349997I0J-249997D01*
G01*
X59298000Y-127650003D01*
G75*
G02*
X59048003Y-127900000I-249997J0D01*
G01*
X58222997Y-127900000D01*
G75*
G02*
X57973000Y-127650003I0J249997D01*
G01*
G37*
G04 #@! TD*
D27*
G04 #@! TO.C,REF\u002A\u002A*
X131300000Y-70000000D03*
D13*
X131300000Y-70000000D03*
G04 #@! TD*
D23*
G04 #@! TO.C,Q8*
X109220000Y-98806000D03*
D24*
X106680000Y-89656000D03*
X111760000Y-89656000D03*
G04 #@! TD*
D23*
G04 #@! TO.C,Q6*
X124206000Y-99060000D03*
D24*
X121666000Y-89910000D03*
X126746000Y-89910000D03*
G04 #@! TD*
D23*
G04 #@! TO.C,Q4*
X90424000Y-98879000D03*
D24*
X87884000Y-89729000D03*
X92964000Y-89729000D03*
G04 #@! TD*
D28*
G04 #@! TO.C,U3*
X97400000Y-128284000D03*
X97400000Y-128784000D03*
X97400000Y-129284000D03*
X97400000Y-129784000D03*
X97400000Y-130284000D03*
X93100000Y-130284000D03*
X93100000Y-129784000D03*
X93100000Y-129284000D03*
X93100000Y-128784000D03*
X93100000Y-128284000D03*
G04 #@! TD*
D29*
G04 #@! TO.C,U1*
X133264187Y-141808803D03*
X133264187Y-139268803D03*
X135804187Y-141808803D03*
X135804187Y-139268803D03*
D30*
X118800000Y-141820000D03*
X118800000Y-139270000D03*
D31*
X135117820Y-132403120D03*
X132577820Y-132403120D03*
X130037820Y-132403120D03*
X127497820Y-132403120D03*
X124957820Y-132403120D03*
X122417820Y-132403120D03*
X119877820Y-132403120D03*
X119877820Y-148567680D03*
X122417820Y-148567680D03*
X124957820Y-148567680D03*
X127497820Y-148567680D03*
X130037820Y-148567680D03*
X132577820Y-148567680D03*
X135117820Y-148567680D03*
G04 #@! TD*
D32*
G04 #@! TO.C,BZ1*
X100330000Y-145034000D03*
D33*
X92730000Y-145034000D03*
G04 #@! TD*
M02*
